<?xml version="1.0" encoding="UTF-8"?>
<!DOCTYPE svg PUBLIC "-//W3C//DTD SVG 1.1//EN" "http://www.w3.org/Graphics/SVG/1.1/DTD/svg11.dtd">
<svg xmlns="http://www.w3.org/2000/svg" version="1.1" width="800px" height="800px" style="shape-rendering:geometricPrecision; text-rendering:geometricPrecision; image-rendering:optimizeQuality; fill-rule:evenodd; clip-rule:evenodd" xmlns:xlink="http://www.w3.org/1999/xlink">
<g><path style="opacity:1" fill="#fefefe" d="M 2.5,-0.5 C 268.167,-0.5 533.833,-0.5 799.5,-0.5C 799.5,262.833 799.5,526.167 799.5,789.5C 533.833,789.5 268.167,789.5 2.5,789.5C 2.5,526.167 2.5,262.833 2.5,-0.5 Z"/></g>
<g><path style="opacity:1" fill="#181818" d="M 491.5,162.5 C 490.722,161.844 490.056,161.011 489.5,160C 491.181,156.137 493.014,152.303 495,148.5C 495.814,146.098 495.647,143.765 494.5,141.5C 490.515,144.984 486.682,148.651 483,152.5C 482.583,151.244 481.75,150.577 480.5,150.5C 492.456,136.039 504.623,121.706 517,107.5C 517.667,109.167 517.667,110.833 517,112.5C 508.726,129.384 500.226,146.05 491.5,162.5 Z"/></g>
<g><path style="opacity:1" fill="#1e1f1f" d="M 463.5,140.5 C 459.934,142.755 456.1,143.089 452,141.5C 450.48,142.697 449.313,144.197 448.5,146C 440.889,146.535 440.556,145.368 447.5,142.5C 447.167,142.167 446.833,141.833 446.5,141.5C 441.592,140.037 436.592,139.037 431.5,138.5C 432.029,141.604 431.029,143.937 428.5,145.5C 427.771,135.466 425.771,135.466 422.5,145.5C 421.167,134.833 419.833,134.833 418.5,145.5C 417.52,142.914 417.187,140.247 417.5,137.5C 415.436,137.687 413.436,138.187 411.5,139C 417.594,140.949 417.761,143.449 412,146.5C 410.338,146.612 409.171,145.946 408.5,144.5C 410.006,143.253 411.506,143.253 413,144.5C 413.749,143.365 413.583,142.365 412.5,141.5C 409.222,140.975 405.888,140.809 402.5,141C 403.337,139.989 403.67,138.822 403.5,137.5C 401.167,137.5 398.833,137.5 396.5,137.5C 396.167,146.833 395.833,146.833 395.5,137.5C 391.833,137.5 388.167,137.5 384.5,137.5C 384.167,148.167 383.833,148.167 383.5,137.5C 382.167,137.5 380.833,137.5 379.5,137.5C 379.5,140.167 379.5,142.833 379.5,145.5C 377.167,145.5 374.833,145.5 372.5,145.5C 372.662,143.473 372.495,141.473 372,139.5C 371.586,139.043 371.086,138.709 370.5,138.5C 370.026,140.862 369.692,143.195 369.5,145.5C 368.52,142.914 368.187,140.247 368.5,137.5C 371.518,137.665 374.518,137.498 377.5,137C 372.177,136.501 366.844,136.334 361.5,136.5C 378.851,132.812 396.518,131.645 414.5,133C 431.122,134.635 447.455,137.135 463.5,140.5 Z"/></g>
<g><path style="opacity:1" fill="#060708" d="M 361.5,136.5 C 366.844,136.334 372.177,136.501 377.5,137C 374.518,137.498 371.518,137.665 368.5,137.5C 368.187,140.247 368.52,142.914 369.5,145.5C 369.692,143.195 370.026,140.862 370.5,138.5C 371.086,138.709 371.586,139.043 372,139.5C 372.495,141.473 372.662,143.473 372.5,145.5C 374.833,145.5 377.167,145.5 379.5,145.5C 379.5,142.833 379.5,140.167 379.5,137.5C 380.833,137.5 382.167,137.5 383.5,137.5C 383.833,148.167 384.167,148.167 384.5,137.5C 388.167,137.5 391.833,137.5 395.5,137.5C 395.833,146.833 396.167,146.833 396.5,137.5C 398.833,137.5 401.167,137.5 403.5,137.5C 403.67,138.822 403.337,139.989 402.5,141C 405.888,140.809 409.222,140.975 412.5,141.5C 413.583,142.365 413.749,143.365 413,144.5C 411.506,143.253 410.006,143.253 408.5,144.5C 409.171,145.946 410.338,146.612 412,146.5C 417.761,143.449 417.594,140.949 411.5,139C 413.436,138.187 415.436,137.687 417.5,137.5C 417.187,140.247 417.52,142.914 418.5,145.5C 419.833,134.833 421.167,134.833 422.5,145.5C 425.771,135.466 427.771,135.466 428.5,145.5C 431.029,143.937 432.029,141.604 431.5,138.5C 436.592,139.037 441.592,140.037 446.5,141.5C 446.833,141.833 447.167,142.167 447.5,142.5C 440.556,145.368 440.889,146.535 448.5,146C 449.313,144.197 450.48,142.697 452,141.5C 456.1,143.089 459.934,142.755 463.5,140.5C 464.429,141.315 465.429,142.148 466.5,143C 456.236,155.603 445.569,167.937 434.5,180C 360.207,172.201 297.373,195.034 246,248.5C 202.181,300.028 185.681,359.361 196.5,426.5C 195.188,428.743 194.522,431.41 194.5,434.5C 194.667,437.167 194.833,439.833 195,442.5C 195.29,444.044 195.956,445.377 197,446.5C 197.759,444.937 198.926,443.937 200.5,443.5C 207.868,473.572 221.534,500.239 241.5,523.5C 240.17,525.881 240.336,528.214 242,530.5C 247.5,536 253,541.5 258.5,547C 260.134,547.494 261.801,547.66 263.5,547.5C 267.304,550.239 271.304,552.739 275.5,555C 277.5,558.333 280.167,561 283.5,563C 287.83,564.161 291.497,566.327 294.5,569.5C 288.741,582.852 282.075,595.686 274.5,608C 271.217,608.743 268.217,608.076 265.5,606C 252.403,597.063 240.069,587.23 228.5,576.5C 228.918,575.778 229.584,575.278 230.5,575C 227.976,570.976 224.642,567.809 220.5,565.5C 219.702,563.922 219.202,562.256 219,560.5C 216.691,559.025 214.524,557.358 212.5,555.5C 211.614,556.325 211.281,557.325 211.5,558.5C 204.395,552.063 198.395,544.73 193.5,536.5C 194.218,534.863 194.384,533.197 194,531.5C 189.753,523.338 185.253,515.338 180.5,507.5C 178.955,506.548 177.288,506.215 175.5,506.5C 159.179,474.559 150.012,440.559 148,404.5C 145.159,363.879 151.659,324.879 167.5,287.5C 169.288,287.785 170.955,287.452 172.5,286.5C 177.439,276.955 182.106,267.289 186.5,257.5C 186.043,256.702 185.376,256.369 184.5,256.5C 213.235,207.946 253.901,173.113 306.5,152C 324.367,144.867 342.7,139.7 361.5,136.5 Z"/></g>
<g><path style="opacity:1" fill="#050607" d="M 491.5,162.5 C 474.16,197.535 456.827,232.535 439.5,267.5C 437.99,266.272 436.49,266.272 435,267.5C 432.112,272.832 429.612,278.332 427.5,284C 427.978,285.303 428.645,286.469 429.5,287.5C 429.34,289.153 428.674,290.486 427.5,291.5C 426.21,290.942 425.377,289.942 425,288.5C 421.028,294.777 417.862,301.444 415.5,308.5C 415.608,309.442 415.941,310.275 416.5,311C 413.81,311.771 411.144,312.604 408.5,313.5C 409.419,318.781 408.419,323.781 405.5,328.5C 406.193,329.518 406.859,330.518 407.5,331.5C 407.34,333.153 406.674,334.486 405.5,335.5C 403.061,334.1 401.228,334.767 400,337.5C 398.069,341.793 396.236,346.126 394.5,350.5C 395.193,351.518 395.859,352.518 396.5,353.5C 395.833,355.5 395.167,357.5 394.5,359.5C 393.957,359.56 393.624,359.893 393.5,360.5C 395.973,361.797 398.307,361.797 400.5,360.5C 420.24,359.287 439.907,357.287 459.5,354.5C 460.122,355.627 460.955,356.627 462,357.5C 469.437,356.659 476.937,355.992 484.5,355.5C 484.5,354.5 484.5,353.5 484.5,352.5C 483.209,352.737 482.209,352.404 481.5,351.5C 506.088,348.131 530.754,345.131 555.5,342.5C 560.032,342.182 564.366,342.515 568.5,343.5C 556.742,357.583 544.409,370.916 531.5,383.5C 530.153,382.972 528.819,382.805 527.5,383C 522.42,387.409 518.086,392.409 514.5,398C 512.423,398.192 510.423,398.692 508.5,399.5C 507.776,404.891 504.776,407.891 499.5,408.5C 499.166,411.188 499.832,413.521 501.5,415.5C 496.833,420.833 491.833,425.833 486.5,430.5C 483.267,429.156 480.767,430.156 479,433.5C 476,437.167 473,440.833 470,444.5C 469.472,445.816 469.972,446.483 471.5,446.5C 466.543,452.628 461.376,458.628 456,464.5C 401.601,521.396 347.435,578.396 293.5,635.5C 292.636,634.312 291.636,633.145 290.5,632C 286.941,631.148 283.607,629.981 280.5,628.5C 303.326,584.179 326.659,540.179 350.5,496.5C 351.222,496.918 351.722,497.584 352,498.5C 354.381,497.565 356.881,497.232 359.5,497.5C 359.579,496.07 359.246,494.736 358.5,493.5C 361.177,491.736 360.844,490.57 357.5,490C 360.261,487.656 362.428,484.822 364,481.5C 368.667,472.167 373.333,462.833 378,453.5C 378.877,451.326 378.377,449.659 376.5,448.5C 377.561,445.378 378.895,442.378 380.5,439.5C 382.104,438.713 382.771,437.38 382.5,435.5C 377.53,434.647 372.53,433.98 367.5,433.5C 367.5,434.833 367.5,436.167 367.5,437.5C 364.287,437.19 361.287,437.523 358.5,438.5C 326.167,439.102 293.833,439.768 261.5,440.5C 252.833,440.167 244.167,439.833 235.5,439.5C 263.396,404.268 292.396,369.934 322.5,336.5C 323.496,336.414 324.329,336.748 325,337.5C 329.534,333.301 333.701,328.801 337.5,324C 336.263,323.768 335.263,323.268 334.5,322.5C 340.692,314.122 347.359,306.122 354.5,298.5C 355.822,298.33 356.989,298.663 358,299.5C 360.63,295.868 363.63,292.535 367,289.5C 367.484,287.807 366.984,286.473 365.5,285.5C 380.526,267.642 395.359,249.642 410,231.5C 415.056,225.374 420.556,219.707 426.5,214.5C 428.089,215.621 429.756,215.454 431.5,214C 436.644,207.355 441.978,200.855 447.5,194.5C 446.388,193.735 445.721,192.735 445.5,191.5C 456.763,177.564 468.429,163.898 480.5,150.5C 481.75,150.577 482.583,151.244 483,152.5C 486.682,148.651 490.515,144.984 494.5,141.5C 495.647,143.765 495.814,146.098 495,148.5C 493.014,152.303 491.181,156.137 489.5,160C 490.056,161.011 490.722,161.844 491.5,162.5 Z"/></g>
<g><path style="opacity:1" fill="#262626" d="M 511.5,158.5 C 508.588,160.802 506.255,163.636 504.5,167C 502.803,167.384 501.137,167.218 499.5,166.5C 501.109,162.783 503.109,159.283 505.5,156C 507.821,155.992 509.821,156.825 511.5,158.5 Z"/></g>
<g><path style="opacity:1" fill="#060708" d="M 511.5,158.5 C 530.606,167.551 548.606,178.384 565.5,191C 568.371,193.703 571.038,196.536 573.5,199.5C 571.863,198.782 570.197,198.616 568.5,199C 578.972,208.463 588.305,218.797 596.5,230C 595.09,230.368 594.09,231.201 593.5,232.5C 596.107,233.318 598.774,233.818 601.5,234C 603.694,236.695 605.694,239.528 607.5,242.5C 609.167,243.666 610.834,243.666 612.5,242.5C 624.782,259.728 634.449,278.395 641.5,298.5C 641.475,305.658 642.475,312.658 644.5,319.5C 645.521,318.099 646.521,316.765 647.5,315.5C 649.587,320.174 650.921,325.174 651.5,330.5C 650.5,330.5 649.5,330.5 648.5,330.5C 648.861,337.326 650.028,343.992 652,350.5C 652.499,355.489 652.666,360.489 652.5,365.5C 653.833,365.5 655.167,365.5 656.5,365.5C 657.483,380.422 657.816,395.422 657.5,410.5C 656.221,411.968 654.554,412.635 652.5,412.5C 651.089,422.121 650.089,431.788 649.5,441.5C 650.791,441.263 651.791,441.596 652.5,442.5C 642.937,487.965 622.603,527.632 591.5,561.5C 589.255,560.365 586.922,559.865 584.5,560C 583.657,562.838 581.823,564.671 579,565.5C 578.199,568.367 578.366,571.034 579.5,573.5C 558.989,594.104 535.322,610.271 508.5,622C 486.918,632.292 464.251,638.792 440.5,641.5C 436.232,640.627 431.898,640.294 427.5,640.5C 427.5,638.167 427.5,635.833 427.5,633.5C 426.5,633.5 425.5,633.5 424.5,633.5C 424.326,635.861 423.993,638.194 423.5,640.5C 412.535,641.855 401.535,643.022 390.5,644C 399.676,644.17 408.676,644.67 417.5,645.5C 401.83,645.667 386.163,645.5 370.5,645C 355.956,643.864 341.956,640.53 328.5,635C 326.246,633.623 324.08,632.123 322,630.5C 321.685,629.092 322.018,627.759 323,626.5C 332.833,616 342.667,605.5 352.5,595C 368.896,596.9 385.396,597.733 402,597.5C 417.713,598.268 433.213,596.935 448.5,593.5C 449.191,595.022 450.358,596.022 452,596.5C 459.604,595.223 467.104,593.557 474.5,591.5C 474.5,589.5 474.5,587.5 474.5,585.5C 485.948,581.778 496.948,576.945 507.5,571C 518.529,563.157 529.529,555.324 540.5,547.5C 541.847,548.028 543.181,548.195 544.5,548C 550.681,541.652 557.014,535.485 563.5,529.5C 562.807,528.482 562.141,527.482 561.5,526.5C 581.447,501.272 596.114,473.272 605.5,442.5C 606.29,443.609 606.79,444.942 607,446.5C 607.667,445.833 608.333,445.167 609,444.5C 609.5,438.175 609.666,431.842 609.5,425.5C 619.297,359.592 602.964,301.259 560.5,250.5C 560.953,249.542 561.619,248.708 562.5,248C 557.139,242.973 552.139,237.64 547.5,232C 546.606,228.224 546.272,224.39 546.5,220.5C 543.662,221.946 540.662,222.446 537.5,222C 530.187,217.364 522.854,212.698 515.5,208C 514.234,207.691 513.067,207.191 512,206.5C 511.292,207.381 510.458,208.047 509.5,208.5C 507.517,207.529 505.517,206.529 503.5,205.5C 504.141,204.518 504.807,203.518 505.5,202.5C 505.167,202.167 504.833,201.833 504.5,201.5C 500.001,199.345 495.668,197.011 491.5,194.5C 495.388,186.724 498.722,178.724 501.5,170.5C 501.058,169.261 500.391,168.261 499.5,167.5C 499.5,167.167 499.5,166.833 499.5,166.5C 501.137,167.218 502.803,167.384 504.5,167C 506.255,163.636 508.588,160.802 511.5,158.5 Z"/></g>
<g><path style="opacity:1" fill="#262727" d="M 499.5,167.5 C 500.391,168.261 501.058,169.261 501.5,170.5C 498.722,178.724 495.388,186.724 491.5,194.5C 495.668,197.011 500.001,199.345 504.5,201.5C 504.833,201.833 505.167,202.167 505.5,202.5C 504.807,203.518 504.141,204.518 503.5,205.5C 497.509,202.84 491.843,199.673 486.5,196C 489.644,185.883 493.978,176.383 499.5,167.5 Z"/></g>
<g><path style="opacity:1" fill="#212222" d="M 445.5,191.5 C 445.721,192.735 446.388,193.735 447.5,194.5C 441.978,200.855 436.644,207.355 431.5,214C 429.756,215.454 428.089,215.621 426.5,214.5C 432.463,206.536 438.796,198.87 445.5,191.5 Z"/></g>
<g><path style="opacity:1" fill="#1e1f1e" d="M 573.5,199.5 C 579.058,202.878 584.225,206.878 589,211.5C 597.328,221.504 605.161,231.838 612.5,242.5C 610.834,243.666 609.167,243.666 607.5,242.5C 605.694,239.528 603.694,236.695 601.5,234C 598.774,233.818 596.107,233.318 593.5,232.5C 594.09,231.201 595.09,230.368 596.5,230C 588.305,218.797 578.972,208.463 568.5,199C 570.197,198.616 571.863,198.782 573.5,199.5 Z"/></g>
<g><path style="opacity:1" fill="#191919" d="M 560.5,250.5 C 545.222,234.204 528.222,220.204 509.5,208.5C 510.458,208.047 511.292,207.381 512,206.5C 513.067,207.191 514.234,207.691 515.5,208C 522.854,212.698 530.187,217.364 537.5,222C 540.662,222.446 543.662,221.946 546.5,220.5C 546.272,224.39 546.606,228.224 547.5,232C 552.139,237.64 557.139,242.973 562.5,248C 561.619,248.708 560.953,249.542 560.5,250.5 Z"/></g>
<g><path style="opacity:1" fill="#202120" d="M 184.5,256.5 C 185.376,256.369 186.043,256.702 186.5,257.5C 182.106,267.289 177.439,276.955 172.5,286.5C 170.955,287.452 169.288,287.785 167.5,287.5C 171.899,276.361 177.565,266.028 184.5,256.5 Z"/></g>
<g><path style="opacity:1" fill="#252626" d="M 439.5,267.5 C 436.675,274.484 433.341,281.151 429.5,287.5C 428.645,286.469 427.978,285.303 427.5,284C 429.612,278.332 432.112,272.832 435,267.5C 436.49,266.272 437.99,266.272 439.5,267.5 Z"/></g>
<g><path style="opacity:1" fill="#262727" d="M 365.5,285.5 C 366.984,286.473 367.484,287.807 367,289.5C 363.63,292.535 360.63,295.868 358,299.5C 356.989,298.663 355.822,298.33 354.5,298.5C 357.456,293.601 361.123,289.268 365.5,285.5 Z"/></g>
<g><path style="opacity:1" fill="#333233" d="M 641.5,298.5 C 644.308,303.803 646.308,309.47 647.5,315.5C 646.521,316.765 645.521,318.099 644.5,319.5C 642.475,312.658 641.475,305.658 641.5,298.5 Z"/></g>
<g><path style="opacity:1" fill="#202120" d="M 427.5,291.5 C 421.341,305.151 414.675,318.484 407.5,331.5C 406.859,330.518 406.193,329.518 405.5,328.5C 408.419,323.781 409.419,318.781 408.5,313.5C 411.144,312.604 413.81,311.771 416.5,311C 415.941,310.275 415.608,309.442 415.5,308.5C 417.862,301.444 421.028,294.777 425,288.5C 425.377,289.942 426.21,290.942 427.5,291.5 Z"/></g>
<g><path style="opacity:1" fill="#242424" d="M 334.5,322.5 C 335.263,323.268 336.263,323.768 337.5,324C 333.701,328.801 329.534,333.301 325,337.5C 324.329,336.748 323.496,336.414 322.5,336.5C 326.207,331.469 330.207,326.802 334.5,322.5 Z"/></g>
<g><path style="opacity:1" fill="#272827" d="M 651.5,330.5 C 654.599,341.857 656.266,353.523 656.5,365.5C 655.167,365.5 653.833,365.5 652.5,365.5C 652.666,360.489 652.499,355.489 652,350.5C 650.028,343.992 648.861,337.326 648.5,330.5C 649.5,330.5 650.5,330.5 651.5,330.5 Z"/></g>
<g><path style="opacity:1" fill="#212221" d="M 405.5,335.5 C 403.008,341.818 400.008,347.818 396.5,353.5C 395.859,352.518 395.193,351.518 394.5,350.5C 396.236,346.126 398.069,341.793 400,337.5C 401.228,334.767 403.061,334.1 405.5,335.5 Z"/></g>
<g><path style="opacity:1" fill="#676867" d="M 555.5,342.5 C 560.015,341.188 564.682,341.188 569.5,342.5C 569.376,343.107 569.043,343.44 568.5,343.5C 564.366,342.515 560.032,342.182 555.5,342.5 Z"/></g>
<g><path style="opacity:1" fill="#232424" d="M 481.5,351.5 C 482.209,352.404 483.209,352.737 484.5,352.5C 484.5,353.5 484.5,354.5 484.5,355.5C 476.937,355.992 469.437,356.659 462,357.5C 460.955,356.627 460.122,355.627 459.5,354.5C 466.599,352.782 473.933,351.782 481.5,351.5 Z"/></g>
<g><path style="opacity:1" fill="#939494" d="M 394.5,359.5 C 396.265,360.461 398.265,360.795 400.5,360.5C 398.307,361.797 395.973,361.797 393.5,360.5C 393.624,359.893 393.957,359.56 394.5,359.5 Z"/></g>
<g><path style="opacity:1" fill="#202121" d="M 531.5,383.5 C 531.631,384.239 531.464,384.906 531,385.5C 520.937,395.395 511.104,405.395 501.5,415.5C 499.832,413.521 499.166,411.188 499.5,408.5C 504.776,407.891 507.776,404.891 508.5,399.5C 510.423,398.692 512.423,398.192 514.5,398C 518.086,392.409 522.42,387.409 527.5,383C 528.819,382.805 530.153,382.972 531.5,383.5 Z"/></g>
<g><path style="opacity:1" fill="#333334" d="M 657.5,410.5 C 657.332,421.553 655.665,432.219 652.5,442.5C 651.791,441.596 650.791,441.263 649.5,441.5C 650.089,431.788 651.089,422.121 652.5,412.5C 654.554,412.635 656.221,411.968 657.5,410.5 Z"/></g>
<g><path style="opacity:1" fill="#2a2b2b" d="M 196.5,426.5 C 197.815,432.055 199.148,437.722 200.5,443.5C 198.926,443.937 197.759,444.937 197,446.5C 195.956,445.377 195.29,444.044 195,442.5C 194.833,439.833 194.667,437.167 194.5,434.5C 194.522,431.41 195.188,428.743 196.5,426.5 Z"/></g>
<g><path style="opacity:1" fill="#2f2f2f" d="M 609.5,425.5 C 609.666,431.842 609.5,438.175 609,444.5C 608.333,445.167 607.667,445.833 607,446.5C 606.79,444.942 606.29,443.609 605.5,442.5C 606.366,437.221 607.2,431.888 608,426.5C 608.383,425.944 608.883,425.611 609.5,425.5 Z"/></g>
<g><path style="opacity:1" fill="#272827" d="M 486.5,430.5 C 486.649,431.552 486.483,432.552 486,433.5C 481.574,438.434 476.74,442.767 471.5,446.5C 469.972,446.483 469.472,445.816 470,444.5C 473,440.833 476,437.167 479,433.5C 480.767,430.156 483.267,429.156 486.5,430.5 Z"/></g>
<g><path style="opacity:1" fill="#3a3b3b" d="M 380.5,439.5 C 373.352,438.508 366.019,438.175 358.5,438.5C 361.287,437.523 364.287,437.19 367.5,437.5C 367.5,436.167 367.5,434.833 367.5,433.5C 372.53,433.98 377.53,434.647 382.5,435.5C 382.771,437.38 382.104,438.713 380.5,439.5 Z"/></g>
<g><path style="opacity:1" fill="#1a1a1a" d="M 376.5,448.5 C 378.377,449.659 378.877,451.326 378,453.5C 373.333,462.833 368.667,472.167 364,481.5C 362.428,484.822 360.261,487.656 357.5,490C 360.844,490.57 361.177,491.736 358.5,493.5C 359.246,494.736 359.579,496.07 359.5,497.5C 356.881,497.232 354.381,497.565 352,498.5C 351.722,497.584 351.222,496.918 350.5,496.5C 358.674,480.146 367.341,464.146 376.5,448.5 Z"/></g>
<g><path style="opacity:1" fill="#1e1f1e" d="M 175.5,506.5 C 177.288,506.215 178.955,506.548 180.5,507.5C 185.253,515.338 189.753,523.338 194,531.5C 194.384,533.197 194.218,534.863 193.5,536.5C 185.994,527.503 179.994,517.503 175.5,506.5 Z"/></g>
<g><path style="opacity:1" fill="#222322" d="M 241.5,523.5 C 249.174,531.174 256.507,539.174 263.5,547.5C 261.801,547.66 260.134,547.494 258.5,547C 253,541.5 247.5,536 242,530.5C 240.336,528.214 240.17,525.881 241.5,523.5 Z"/></g>
<g><path style="opacity:1" fill="#242424" d="M 561.5,526.5 C 562.141,527.482 562.807,528.482 563.5,529.5C 557.014,535.485 550.681,541.652 544.5,548C 543.181,548.195 541.847,548.028 540.5,547.5C 547.833,540.833 554.833,533.833 561.5,526.5 Z"/></g>
<g><path style="opacity:1" fill="#2c2d2d" d="M 228.5,576.5 C 221.432,571.767 215.765,565.767 211.5,558.5C 211.281,557.325 211.614,556.325 212.5,555.5C 214.524,557.358 216.691,559.025 219,560.5C 219.202,562.256 219.702,563.922 220.5,565.5C 224.642,567.809 227.976,570.976 230.5,575C 229.584,575.278 228.918,575.778 228.5,576.5 Z"/></g>
<g><path style="opacity:1" fill="#232324" d="M 591.5,561.5 C 587.806,565.86 583.806,569.86 579.5,573.5C 578.366,571.034 578.199,568.367 579,565.5C 581.823,564.671 583.657,562.838 584.5,560C 586.922,559.865 589.255,560.365 591.5,561.5 Z"/></g>
<g><path style="opacity:1" fill="#333334" d="M 474.5,585.5 C 474.5,587.5 474.5,589.5 474.5,591.5C 467.104,593.557 459.604,595.223 452,596.5C 450.358,596.022 449.191,595.022 448.5,593.5C 457.345,591.411 466.011,588.744 474.5,585.5 Z"/></g>
<g><path style="opacity:1" fill="#3c3c3c" d="M 440.5,641.5 C 433.007,643.193 425.34,644.526 417.5,645.5C 408.676,644.67 399.676,644.17 390.5,644C 401.535,643.022 412.535,641.855 423.5,640.5C 423.993,638.194 424.326,635.861 424.5,633.5C 425.5,633.5 426.5,633.5 427.5,633.5C 427.5,635.833 427.5,638.167 427.5,640.5C 431.898,640.294 436.232,640.627 440.5,641.5 Z"/></g>
<g><path style="opacity:1" fill="#161717" d="M 280.5,628.5 C 283.607,629.981 286.941,631.148 290.5,632C 291.636,633.145 292.636,634.312 293.5,635.5C 287.947,642.725 281.613,649.391 274.5,655.5C 274.058,652.281 272.392,649.947 269.5,648.5C 272.689,641.445 276.356,634.779 280.5,628.5 Z"/></g>
<g><path style="opacity:1" fill="#2a2a2a" d="M 269.5,648.5 C 272.392,649.947 274.058,652.281 274.5,655.5C 271.574,661.428 267.241,666.094 261.5,669.5C 260.369,667.926 260.202,666.259 261,664.5C 263.608,658.947 266.441,653.613 269.5,648.5 Z"/></g>
</svg>
