<?xml version="1.0" encoding="UTF-8"?>
<!DOCTYPE svg PUBLIC "-//W3C//DTD SVG 1.1//EN" "http://www.w3.org/Graphics/SVG/1.1/DTD/svg11.dtd">
<svg xmlns="http://www.w3.org/2000/svg" version="1.1" width="800px" height="800px" style="shape-rendering:geometricPrecision; text-rendering:geometricPrecision; image-rendering:optimizeQuality; fill-rule:evenodd; clip-rule:evenodd" xmlns:xlink="http://www.w3.org/1999/xlink">
<g><path style="opacity:1" fill="#fefefe" d="M -0.5,-0.5 C 266.167,-0.5 532.833,-0.5 799.5,-0.5C 799.5,266.167 799.5,532.833 799.5,799.5C 532.833,799.5 266.167,799.5 -0.5,799.5C -0.5,532.833 -0.5,266.167 -0.5,-0.5 Z"/></g>
<g><path style="opacity:1" fill="#a2a3a3" d="M 407.5,122.5 C 402.187,121.902 396.854,121.569 391.5,121.5C 376.674,120.783 362.008,121.783 347.5,124.5C 350.092,122.823 353.092,121.657 356.5,121C 365,120.833 373.5,120.667 382,120.5C 390.861,120.502 399.361,121.169 407.5,122.5 Z"/></g>
<g><path style="opacity:1" fill="#585a5b" d="M 391.5,121.5 C 396.854,121.569 402.187,121.902 407.5,122.5C 408.167,122.5 408.833,122.5 409.5,122.5C 409.5,122.833 409.5,123.167 409.5,123.5C 403.074,124.12 397.074,123.453 391.5,121.5 Z"/></g>
<g><path style="opacity:1" fill="#a2a3a3" d="M 409.5,123.5 C 409.5,123.167 409.5,122.833 409.5,122.5C 412.343,122.942 415.009,123.942 417.5,125.5C 418.298,125.957 418.631,126.624 418.5,127.5C 415.352,126.424 412.352,125.091 409.5,123.5 Z"/></g>
<g><path style="opacity:1" fill="#4b4b4b" d="M 333.5,136.5 C 332.375,140.915 330.708,144.915 328.5,148.5C 328.833,147.167 329.167,145.833 329.5,144.5C 329.819,141.194 331.153,138.527 333.5,136.5 Z"/></g>
<g><path style="opacity:1" fill="#868686" d="M 329.5,144.5 C 329.167,145.833 328.833,147.167 328.5,148.5C 328.829,162.677 328.496,176.677 327.5,190.5C 326.849,174.797 327.516,159.464 329.5,144.5 Z"/></g>
<g><path style="opacity:1" fill="#cacaca" d="M 432.5,149.5 C 434.482,162.792 435.149,176.459 434.5,190.5C 432.518,177.208 431.851,163.541 432.5,149.5 Z"/></g>
<g><path style="opacity:1" fill="#535353" d="M 241.5,175.5 C 236.833,175.5 232.167,175.5 227.5,175.5C 229.634,173.967 232.134,173.3 235,173.5C 236.833,173.667 238.667,173.833 240.5,174C 241.056,174.383 241.389,174.883 241.5,175.5 Z"/></g>
<g><path style="opacity:1" fill="#404141" d="M 530.5,175.5 C 526.833,175.5 523.167,175.5 519.5,175.5C 520.871,174.213 522.705,173.547 525,173.5C 527.295,173.547 529.129,174.213 530.5,175.5 Z"/></g>
<g><path style="opacity:1" fill="#777879" d="M 221.5,177.5 C 221.631,178.376 221.298,179.043 220.5,179.5C 216.896,180.801 213.563,182.467 210.5,184.5C 213.311,180.922 216.978,178.589 221.5,177.5 Z"/></g>
<g><path style="opacity:1" fill="#8a8a8a" d="M 575.5,210.5 C 578.484,210.787 579.817,212.454 579.5,215.5C 577.793,214.127 576.46,212.461 575.5,210.5 Z"/></g>
<g><path style="opacity:1" fill="#666868" d="M 186.5,208.5 C 183.392,211.966 181.058,215.966 179.5,220.5C 179.043,221.298 178.376,221.631 177.5,221.5C 178.777,215.938 181.777,211.604 186.5,208.5 Z"/></g>
<g><path style="opacity:1" fill="#545454" d="M 579.5,215.5 C 582.313,216.446 583.646,218.446 583.5,221.5C 583.646,218.446 582.313,216.446 579.5,215.5 Z"/></g>
<g><path style="opacity:1" fill="#979797" d="M 584.5,221.5 C 585.161,222.718 585.828,224.051 586.5,225.5C 587.664,231.807 587.831,238.141 587,244.5C 586.617,245.056 586.117,245.389 585.5,245.5C 586.828,237.446 586.494,229.446 584.5,221.5 Z"/></g>
<g><path style="opacity:1" fill="#808282" d="M 175.5,246.5 C 177.639,248.757 179.306,251.424 180.5,254.5C 177.348,252.883 175.682,250.216 175.5,246.5 Z"/></g>
<g><path style="opacity:1" fill="#9d9e9f" d="M 571.5,264.5 C 569.664,267.756 566.997,270.089 563.5,271.5C 565.227,268.107 567.894,265.774 571.5,264.5 Z"/></g>
<g><path style="opacity:1" fill="#9f9f9f" d="M 562.5,273.5 C 560.263,276.614 557.597,279.281 554.5,281.5C 555.85,277.483 558.517,274.817 562.5,273.5 Z"/></g>
<g><path style="opacity:1" fill="#5d6060" d="M 207.5,281.5 C 208.147,282.274 208.48,283.274 208.5,284.5C 208.36,286.03 207.693,287.03 206.5,287.5C 207.15,285.565 207.483,283.565 207.5,281.5 Z"/></g>
<g><path style="opacity:1" fill="#0b0c0d" d="M 391.5,121.5 C 397.074,123.453 403.074,124.12 409.5,123.5C 412.352,125.091 415.352,126.424 418.5,127.5C 419.568,128.434 420.901,128.768 422.5,128.5C 423.562,132.588 425.896,135.921 429.5,138.5C 430.919,142.086 431.919,145.753 432.5,149.5C 431.851,163.541 432.518,177.208 434.5,190.5C 441.925,193.599 449.592,196.266 457.5,198.5C 458.183,200.176 459.517,200.843 461.5,200.5C 462.183,202.176 463.517,202.843 465.5,202.5C 468.303,203.067 470.636,204.4 472.5,206.5C 475.167,207.833 477.833,207.833 480.5,206.5C 485.155,200.512 490.488,195.179 496.5,190.5C 498.672,190.163 500.505,189.163 502,187.5C 502.873,187.735 503.707,188.069 504.5,188.5C 504.277,186.262 504.61,183.928 505.5,181.5C 508.554,181.646 510.554,180.313 511.5,177.5C 513.916,176.032 516.583,175.365 519.5,175.5C 523.167,175.5 526.833,175.5 530.5,175.5C 534,175.61 537.334,176.443 540.5,178C 544.603,181.135 548.936,183.969 553.5,186.5C 560.877,194.54 568.211,202.54 575.5,210.5C 576.46,212.461 577.793,214.127 579.5,215.5C 580.15,217.435 580.483,219.435 580.5,221.5C 581.5,221.5 582.5,221.5 583.5,221.5C 583.833,221.5 584.167,221.5 584.5,221.5C 586.494,229.446 586.828,237.446 585.5,245.5C 584.352,247.742 583.352,250.076 582.5,252.5C 578.421,256.24 574.754,260.24 571.5,264.5C 567.894,265.774 565.227,268.107 563.5,271.5C 563.167,272.167 562.833,272.833 562.5,273.5C 558.517,274.817 555.85,277.483 554.5,281.5C 553.414,281.62 552.747,282.287 552.5,283.5C 553.989,288.485 556.489,292.819 560,296.5C 560.49,297.793 560.657,299.127 560.5,300.5C 560.769,303.015 561.769,305.015 563.5,306.5C 563.819,309.806 565.153,312.473 567.5,314.5C 566.964,317.698 567.631,320.365 569.5,322.5C 569.5,324.5 569.5,326.5 569.5,328.5C 584.167,328.5 598.833,328.5 613.5,328.5C 613.611,329.117 613.944,329.617 614.5,330C 617.168,330.567 619.834,331.067 622.5,331.5C 622.833,331.5 623.167,331.5 623.5,331.5C 624.833,334.167 626.833,336.167 629.5,337.5C 630.743,339.753 632.41,341.753 634.5,343.5C 636.126,347.371 637.126,351.371 637.5,355.5C 638.469,370.785 638.802,386.119 638.5,401.5C 637.461,412.578 632.461,421.578 623.5,428.5C 621.517,428.157 620.183,428.824 619.5,430.5C 618.833,430.5 618.167,430.5 617.5,430.5C 601.372,431.138 585.372,431.805 569.5,432.5C 568.521,438.258 567.188,443.925 565.5,449.5C 563.692,450.918 563.025,452.918 563.5,455.5C 561.824,456.183 561.157,457.517 561.5,459.5C 559.5,460.167 558.167,461.5 557.5,463.5C 554.642,467.133 550.976,468.133 546.5,466.5C 544.08,464.422 542.08,462.088 540.5,459.5C 540.5,456.833 540.5,454.167 540.5,451.5C 541.72,449.718 542.386,447.718 542.5,445.5C 544.176,444.817 544.843,443.483 544.5,441.5C 546.44,436.677 547.773,431.677 548.5,426.5C 550.369,424.365 551.036,421.698 550.5,418.5C 551.402,416.659 552.736,415.326 554.5,414.5C 556.303,413.954 557.97,413.12 559.5,412C 576.672,411.832 593.672,411.332 610.5,410.5C 611.545,409.122 612.878,408.122 614.5,407.5C 615.222,407.082 615.722,406.416 616,405.5C 616.497,402.854 616.664,400.187 616.5,397.5C 617.222,397.082 617.722,396.416 618,395.5C 618.833,383.819 618.666,372.152 617.5,360.5C 616.723,357.138 615.39,354.138 613.5,351.5C 613.167,351.5 612.833,351.5 612.5,351.5C 612.082,350.778 611.416,350.278 610.5,350C 592.833,349.667 575.167,349.333 557.5,349C 556.756,347.961 555.756,347.461 554.5,347.5C 553.167,344.833 551.833,342.167 550.5,339.5C 550.975,336.918 550.308,334.918 548.5,333.5C 547.094,326.95 545.094,320.617 542.5,314.5C 542.843,312.517 542.176,311.183 540.5,310.5C 540.083,307.657 539.083,304.99 537.5,302.5C 533.886,296.929 530.552,291.262 527.5,285.5C 527.187,282.753 527.52,280.086 528.5,277.5C 530.773,276.625 531.773,274.958 531.5,272.5C 533.179,272.715 534.179,272.048 534.5,270.5C 534.281,269.325 534.614,268.325 535.5,267.5C 545.244,258.753 554.578,249.753 563.5,240.5C 566.167,237.5 566.167,234.5 563.5,231.5C 563.34,229.847 562.674,228.514 561.5,227.5C 561.446,225.368 560.446,224.035 558.5,223.5C 558.167,223.5 557.833,223.5 557.5,223.5C 557.446,221.368 556.446,220.035 554.5,219.5C 554.5,218.167 553.833,217.5 552.5,217.5C 551.167,214.833 549.167,212.833 546.5,211.5C 543.626,208.051 540.293,205.051 536.5,202.5C 536.279,201.265 535.612,200.265 534.5,199.5C 532.447,198.473 530.447,197.473 528.5,196.5C 524.988,195.945 521.988,196.612 519.5,198.5C 517.5,199.167 516.167,200.5 515.5,202.5C 514.833,204.5 513.5,205.833 511.5,206.5C 508.385,209.324 505.385,212.324 502.5,215.5C 502.5,216.833 501.833,217.5 500.5,217.5C 498.449,219.522 496.449,221.522 494.5,223.5C 491.167,225.5 488.5,228.167 486.5,231.5C 482.167,232.833 477.833,232.833 473.5,231.5C 470.845,230.167 468.178,228.834 465.5,227.5C 464.817,225.824 463.483,225.157 461.5,225.5C 456.886,223.193 452.22,220.86 447.5,218.5C 441.678,216.747 436.011,214.747 430.5,212.5C 426.917,210.271 422.917,209.271 418.5,209.5C 416.505,207.171 414.505,204.838 412.5,202.5C 411.667,185.176 411.167,167.843 411,150.5C 410.617,149.944 410.117,149.611 409.5,149.5C 407.798,147.463 405.798,145.797 403.5,144.5C 396.167,143.671 388.667,143.004 381,142.5C 372.668,143.02 364.501,143.687 356.5,144.5C 356.167,144.5 355.833,144.5 355.5,144.5C 353.227,144.957 351.894,146.29 351.5,148.5C 350.883,148.611 350.383,148.944 350,149.5C 349.5,167.164 349.333,184.83 349.5,202.5C 349.479,205.535 348.146,207.868 345.5,209.5C 339.747,210.189 334.413,211.522 329.5,213.5C 326.612,212.99 324.279,213.656 322.5,215.5C 319.194,215.819 316.527,217.153 314.5,219.5C 310.394,219.304 307.061,220.637 304.5,223.5C 302.282,223.614 300.282,224.28 298.5,225.5C 296.517,225.157 295.183,225.824 294.5,227.5C 292.337,229.083 290.004,230.416 287.5,231.5C 283.5,232.833 279.5,232.833 275.5,231.5C 273.885,229.626 271.885,228.292 269.5,227.5C 268.903,224.573 267.236,222.573 264.5,221.5C 263.167,221.5 262.5,220.833 262.5,219.5C 260.5,216.167 257.833,213.5 254.5,211.5C 250.565,207.892 246.899,203.892 243.5,199.5C 238.224,195.625 232.891,195.625 227.5,199.5C 223.708,203.636 219.708,207.303 215.5,210.5C 212.145,211.855 209.811,214.189 208.5,217.5C 206.965,218.844 205.632,220.511 204.5,222.5C 203.311,223.429 201.978,223.762 200.5,223.5C 199.044,227.59 197.711,231.757 196.5,236C 198.146,241.483 201.48,245.65 206.5,248.5C 206.554,250.632 207.554,251.965 209.5,252.5C 212.36,256.272 215.694,259.605 219.5,262.5C 218.094,267.931 220.094,270.265 225.5,269.5C 225.5,270.5 225.5,271.5 225.5,272.5C 226.5,272.5 227.5,272.5 228.5,272.5C 228.5,273.5 228.5,274.5 228.5,275.5C 227.325,275.281 226.325,275.614 225.5,276.5C 227.006,277.747 228.506,277.747 230,276.5C 231.471,277.381 232.304,278.714 232.5,280.5C 231.921,282.615 231.088,284.615 230,286.5C 229.751,285.376 229.251,284.376 228.5,283.5C 228.167,284.167 227.833,284.833 227.5,285.5C 228.824,288.186 228.824,290.853 227.5,293.5C 227.5,293.833 227.5,294.167 227.5,294.5C 225.824,295.183 225.157,296.517 225.5,298.5C 224.28,300.282 223.614,302.282 223.5,304.5C 220.637,307.061 219.304,310.394 219.5,314.5C 219.167,314.5 218.833,314.5 218.5,314.5C 215.76,319.123 214.093,324.123 213.5,329.5C 210.758,334.371 208.758,339.704 207.5,345.5C 207.213,348.484 205.546,349.817 202.5,349.5C 185.163,349.333 167.83,349.5 150.5,350C 149.944,350.383 149.611,350.883 149.5,351.5C 148.5,351.5 147.5,351.5 146.5,351.5C 146.5,352.5 146.5,353.5 146.5,354.5C 145.542,354.953 144.708,355.619 144,356.5C 143.501,360.486 143.334,364.486 143.5,368.5C 142.835,372.151 142.501,375.985 142.5,380C 142.281,385.432 142.948,390.599 144.5,395.5C 144.288,400.657 145.621,405.324 148.5,409.5C 148.611,410.117 148.944,410.617 149.5,411C 167.176,411.167 184.843,411.667 202.5,412.5C 207.108,414.43 209.775,417.763 210.5,422.5C 213.16,430.756 215.827,439.089 218.5,447.5C 220.86,452.22 223.193,456.886 225.5,461.5C 225.157,463.483 225.824,464.817 227.5,465.5C 228.809,468.778 230.642,471.778 233,474.5C 233.824,477.882 233.657,481.216 232.5,484.5C 231.066,485.588 230.066,486.922 229.5,488.5C 222.446,495.554 215.446,502.554 208.5,509.5C 207.594,511.417 206.261,513.083 204.5,514.5C 197.432,516.818 195.099,521.485 197.5,528.5C 200.585,533.672 203.919,538.672 207.5,543.5C 212.625,548.966 217.958,553.966 223.5,558.5C 224.035,560.446 225.368,561.446 227.5,561.5C 228.514,562.674 229.847,563.34 231.5,563.5C 234.5,566.167 237.5,566.167 240.5,563.5C 248.131,555.538 256.131,547.871 264.5,540.5C 267.606,538.279 270.273,535.612 272.5,532.5C 274.982,531.426 277.316,530.092 279.5,528.5C 281.396,527.534 283.396,527.201 285.5,527.5C 293.73,532.152 302.064,536.818 310.5,541.5C 315.808,543.381 321.141,545.048 326.5,546.5C 327.183,548.176 328.517,548.843 330.5,548.5C 331.5,548.5 332.5,548.5 333.5,548.5C 334.918,550.308 336.918,550.975 339.5,550.5C 342.167,551.833 344.833,553.167 347.5,554.5C 347.461,555.756 347.961,556.756 349,557.5C 349.333,574.5 349.667,591.5 350,608.5C 350.278,609.416 350.778,610.082 351.5,610.5C 352.08,612.749 353.413,614.415 355.5,615.5C 357.167,616.167 358.833,616.833 360.5,617.5C 367.492,618.166 374.659,618.5 382,618.5C 389.533,618.497 396.699,617.831 403.5,616.5C 406.554,616.646 408.554,615.313 409.5,612.5C 409.328,611.508 409.662,610.842 410.5,610.5C 411.332,593.005 411.832,575.338 412,557.5C 413.045,556.627 413.878,555.627 414.5,554.5C 414.5,553.167 415.167,552.5 416.5,552.5C 420.306,551.908 423.639,550.575 426.5,548.5C 427.833,548.5 429.167,548.5 430.5,548.5C 432.483,548.843 433.817,548.176 434.5,546.5C 435.833,546.5 437.167,546.5 438.5,546.5C 441.639,546.401 443.973,545.068 445.5,542.5C 447.718,542.386 449.718,541.72 451.5,540.5C 454.167,540.5 456.833,540.5 459.5,540.5C 462.133,542.132 464.467,544.132 466.5,546.5C 466.664,549.187 466.497,551.854 466,554.5C 464.294,555.308 463.461,556.641 463.5,558.5C 461.781,559.022 460.448,560.022 459.5,561.5C 455.694,562.092 452.361,563.425 449.5,565.5C 445.406,566.18 441.739,567.514 438.5,569.5C 436.5,569.5 434.5,569.5 432.5,569.5C 431.804,585.038 431.137,600.705 430.5,616.5C 430.5,617.5 430.5,618.5 430.5,619.5C 428.824,620.183 428.157,621.517 428.5,623.5C 426.773,625.877 424.773,628.21 422.5,630.5C 419.55,631.798 416.883,633.464 414.5,635.5C 410.491,635.039 406.824,635.872 403.5,638C 387.5,638.667 371.5,638.667 355.5,638C 352.92,636.856 350.253,636.022 347.5,635.5C 346.022,635.762 344.689,635.429 343.5,634.5C 341.753,632.41 339.753,630.743 337.5,629.5C 336.167,626.833 334.167,624.833 331.5,623.5C 331.768,621.901 331.434,620.568 330.5,619.5C 331.01,616.612 330.344,614.279 328.5,612.5C 328.5,598.167 328.5,583.833 328.5,569.5C 323.889,568.515 319.222,567.848 314.5,567.5C 310.066,564.585 305.399,562.252 300.5,560.5C 296.449,558.137 292.115,556.137 287.5,554.5C 286.2,553.892 284.867,553.225 283.5,552.5C 282.287,552.747 281.62,553.414 281.5,554.5C 278.573,555.097 276.573,556.764 275.5,559.5C 274,560.625 272.667,561.959 271.5,563.5C 269.5,564.167 268.167,565.5 267.5,567.5C 262.596,572.404 257.596,577.404 252.5,582.5C 249.15,583.843 245.817,585.177 242.5,586.5C 235.365,586.747 228.365,586.08 221.5,584.5C 221.631,583.624 221.298,582.957 220.5,582.5C 218.698,581.014 216.698,580.014 214.5,579.5C 213.833,577.5 212.5,576.167 210.5,575.5C 198.693,565.363 188.026,554.363 178.5,542.5C 177.184,538.526 175.851,534.526 174.5,530.5C 173.511,526.893 173.177,523.226 173.5,519.5C 175.679,515.463 177.679,511.129 179.5,506.5C 182.188,504.479 184.521,502.146 186.5,499.5C 188.632,499.446 189.965,498.446 190.5,496.5C 194.503,490.832 199.503,486.166 205.5,482.5C 208.26,477.892 207.926,473.559 204.5,469.5C 204.843,467.517 204.176,466.183 202.5,465.5C 202.181,462.194 200.847,459.527 198.5,457.5C 196.687,451.062 194.687,444.729 192.5,438.5C 191.85,436.565 191.517,434.565 191.5,432.5C 174.392,433.048 157.392,432.382 140.5,430.5C 135.282,428.614 131.282,425.281 128.5,420.5C 127.07,416.646 125.403,412.979 123.5,409.5C 121.673,393.281 121.006,376.947 121.5,360.5C 121.833,360.5 122.167,360.5 122.5,360.5C 123.344,357.655 124.01,354.655 124.5,351.5C 126.726,341.256 132.726,333.923 142.5,329.5C 158.471,328.53 174.471,328.196 190.5,328.5C 191.886,321.617 193.886,314.95 196.5,308.5C 198.176,307.817 198.843,306.483 198.5,304.5C 199.72,302.718 200.386,300.718 200.5,298.5C 202.093,297.652 203.26,296.319 204,294.5C 204.483,293.552 204.649,292.552 204.5,291.5C 204.66,289.847 205.326,288.514 206.5,287.5C 207.693,287.03 208.36,286.03 208.5,284.5C 208.48,283.274 208.147,282.274 207.5,281.5C 198.452,272.452 189.452,263.452 180.5,254.5C 179.306,251.424 177.639,248.757 175.5,246.5C 175.083,242.932 174.416,239.432 173.5,236C 174.745,231.105 176.078,226.271 177.5,221.5C 178.376,221.631 179.043,221.298 179.5,220.5C 181.058,215.966 183.392,211.966 186.5,208.5C 193.846,199.82 201.846,191.82 210.5,184.5C 213.563,182.467 216.896,180.801 220.5,179.5C 221.298,179.043 221.631,178.376 221.5,177.5C 223.282,176.28 225.282,175.614 227.5,175.5C 232.167,175.5 236.833,175.5 241.5,175.5C 244.564,175.928 247.564,176.594 250.5,177.5C 251.035,179.446 252.368,180.446 254.5,180.5C 263.071,189.071 271.737,197.737 280.5,206.5C 281.446,206.987 282.446,207.32 283.5,207.5C 286.183,206.49 288.849,205.49 291.5,204.5C 292.552,204.649 293.552,204.483 294.5,204C 296.319,203.26 297.652,202.093 298.5,200.5C 300.718,200.386 302.718,199.72 304.5,198.5C 306.483,198.843 307.817,198.176 308.5,196.5C 314.669,194.04 321.002,192.04 327.5,190.5C 328.496,176.677 328.829,162.677 328.5,148.5C 330.708,144.915 332.375,140.915 333.5,136.5C 336.939,131.061 341.605,127.061 347.5,124.5C 362.008,121.783 376.674,120.783 391.5,121.5 Z"/></g>
<g><path style="opacity:1" fill="#adadae" d="M 471.5,287.5 C 472.978,287.238 474.311,287.571 475.5,288.5C 476.554,290.201 477.554,291.868 478.5,293.5C 477.325,293.719 476.325,293.386 475.5,292.5C 474.233,290.683 472.9,289.016 471.5,287.5 Z"/></g>
<g><path style="opacity:1" fill="#505151" d="M 534.5,270.5 C 534.179,272.048 533.179,272.715 531.5,272.5C 531.773,274.958 530.773,276.625 528.5,277.5C 527.52,280.086 527.187,282.753 527.5,285.5C 524.952,278.296 527.285,273.296 534.5,270.5 Z"/></g>
<g><path style="opacity:1" fill="#272829" d="M 219.5,262.5 C 224.348,266.136 228.681,270.469 232.5,275.5C 234.64,282.784 232.973,288.784 227.5,293.5C 228.824,290.853 228.824,288.186 227.5,285.5C 227.833,284.833 228.167,284.167 228.5,283.5C 229.251,284.376 229.751,285.376 230,286.5C 231.088,284.615 231.921,282.615 232.5,280.5C 232.304,278.714 231.471,277.381 230,276.5C 228.506,277.747 227.006,277.747 225.5,276.5C 226.325,275.614 227.325,275.281 228.5,275.5C 228.5,274.5 228.5,273.5 228.5,272.5C 227.5,272.5 226.5,272.5 225.5,272.5C 225.5,271.5 225.5,270.5 225.5,269.5C 220.094,270.265 218.094,267.931 219.5,262.5 Z"/></g>
<g><path style="opacity:1" fill="#939394" d="M 440.5,264.5 C 443.546,264.725 445.879,266.058 447.5,268.5C 444.9,267.532 442.566,266.199 440.5,264.5 Z"/></g>
<g><path style="opacity:1" fill="#696969" d="M 330.5,260.5 C 327.165,263.417 323.165,265.417 318.5,266.5C 318.369,265.624 318.702,264.957 319.5,264.5C 323.1,262.747 326.766,261.413 330.5,260.5 Z"/></g>
<g><path style="opacity:1" fill="#6b6b6b" d="M 430.5,260.5 C 432.483,260.157 433.817,260.824 434.5,262.5C 432.517,262.843 431.183,262.176 430.5,260.5 Z"/></g>
<g><path style="opacity:1" fill="#7d7d7e" d="M 426.5,258.5 C 428.483,258.157 429.817,258.824 430.5,260.5C 428.517,260.843 427.183,260.176 426.5,258.5 Z"/></g>
<g><path style="opacity:1" fill="#9d9d9d" d="M 422.5,256.5 C 424.483,256.157 425.817,256.824 426.5,258.5C 424.517,258.843 423.183,258.176 422.5,256.5 Z"/></g>
<g><path style="opacity:1" fill="#939596" d="M 407.5,252.5 C 409.483,252.157 410.817,252.824 411.5,254.5C 409.517,254.843 408.183,254.176 407.5,252.5 Z"/></g>
<g><path style="opacity:1" fill="#9e9e9e" d="M 206.5,248.5 C 208.446,249.035 209.446,250.368 209.5,252.5C 207.554,251.965 206.554,250.632 206.5,248.5 Z"/></g>
<g><path style="opacity:1" fill="#5b5c5d" d="M 399.5,252.5 C 386.507,251.212 373.507,251.212 360.5,252.5C 366.631,251.17 373.131,250.503 380,250.5C 386.869,250.503 393.369,251.17 399.5,252.5 Z"/></g>
<g><path style="opacity:1" fill="#747576" d="M 563.5,231.5 C 566.167,234.5 566.167,237.5 563.5,240.5C 563.5,237.5 563.5,234.5 563.5,231.5 Z"/></g>
<g><path style="opacity:1" fill="#afb1b1" d="M 277.5,233.5 C 280.167,233.5 282.833,233.5 285.5,233.5C 284.666,234.748 283.333,235.415 281.5,235.5C 279.667,235.415 278.334,234.748 277.5,233.5 Z"/></g>
<g><path style="opacity:1" fill="#484849" d="M 473.5,231.5 C 477.833,232.833 482.167,232.833 486.5,231.5C 484.952,232.794 482.952,233.461 480.5,233.5C 478.5,233.333 476.5,233.167 474.5,233C 473.944,232.617 473.611,232.117 473.5,231.5 Z"/></g>
<g><path style="opacity:1" fill="#474848" d="M 275.5,231.5 C 279.5,232.833 283.5,232.833 287.5,231.5C 287.5,232.833 286.833,233.5 285.5,233.5C 282.833,233.5 280.167,233.5 277.5,233.5C 276.167,233.5 275.5,232.833 275.5,231.5 Z"/></g>
<g><path style="opacity:1" fill="#616263" d="M 461.5,225.5 C 463.483,225.157 464.817,225.824 465.5,227.5C 463.517,227.843 462.183,227.176 461.5,225.5 Z"/></g>
<g><path style="opacity:1" fill="#626364" d="M 298.5,225.5 C 297.817,227.176 296.483,227.843 294.5,227.5C 295.183,225.824 296.517,225.157 298.5,225.5 Z"/></g>
<g><path style="opacity:1" fill="#5c5d5e" d="M 558.5,223.5 C 560.446,224.035 561.446,225.368 561.5,227.5C 559.554,226.965 558.554,225.632 558.5,223.5 Z"/></g>
<g><path style="opacity:1" fill="#8d8e8e" d="M 264.5,221.5 C 267.236,222.573 268.903,224.573 269.5,227.5C 266.764,226.427 265.097,224.427 264.5,221.5 Z"/></g>
<g><path style="opacity:1" fill="#919192" d="M 554.5,219.5 C 556.446,220.035 557.446,221.368 557.5,223.5C 555.554,222.965 554.554,221.632 554.5,219.5 Z"/></g>
<g><path style="opacity:1" fill="#afafb0" d="M 314.5,219.5 C 311.46,221.346 308.127,222.679 304.5,223.5C 307.061,220.637 310.394,219.304 314.5,219.5 Z"/></g>
<g><path style="opacity:1" fill="#9c9c9c" d="M 500.5,217.5 C 499.851,220.816 497.851,222.816 494.5,223.5C 496.449,221.522 498.449,219.522 500.5,217.5 Z"/></g>
<g><path style="opacity:1" fill="#cacaca" d="M 254.5,211.5 C 257.833,213.5 260.5,216.167 262.5,219.5C 259.677,218.783 257.01,217.783 254.5,216.5C 254.719,217.675 254.386,218.675 253.5,219.5C 253.167,218.833 252.833,218.167 252.5,217.5C 253.754,215.666 254.421,213.666 254.5,211.5 Z"/></g>
<g><path style="opacity:1" fill="#b4b5b6" d="M 546.5,211.5 C 549.167,212.833 551.167,214.833 552.5,217.5C 548.5,217.5 546.5,215.5 546.5,211.5 Z"/></g>
<g><path style="opacity:1" fill="#636465" d="M 329.5,213.5 C 327.343,214.407 325.01,215.073 322.5,215.5C 324.279,213.656 326.612,212.99 329.5,213.5 Z"/></g>
<g><path style="opacity:1" fill="#787978" d="M 215.5,210.5 C 213.5,213.167 211.167,215.5 208.5,217.5C 209.811,214.189 212.145,211.855 215.5,210.5 Z"/></g>
<g><path style="opacity:1" fill="#ababab" d="M 511.5,206.5 C 511.167,208.5 510.833,210.5 510.5,212.5C 507.646,213.026 504.979,214.026 502.5,215.5C 505.385,212.324 508.385,209.324 511.5,206.5 Z"/></g>
<g><path style="opacity:1" fill="#696969" d="M 418.5,209.5 C 422.917,209.271 426.917,210.271 430.5,212.5C 426.083,212.729 422.083,211.729 418.5,209.5 Z"/></g>
<g><path style="opacity:1" fill="#8a8a8a" d="M 461.5,200.5 C 463.483,200.157 464.817,200.824 465.5,202.5C 463.517,202.843 462.183,202.176 461.5,200.5 Z"/></g>
<g><path style="opacity:1" fill="#9e9fa0" d="M 519.5,198.5 C 519.5,199.833 519.5,201.167 519.5,202.5C 518.167,202.5 516.833,202.5 515.5,202.5C 516.167,200.5 517.5,199.167 519.5,198.5 Z"/></g>
<g><path style="opacity:1" fill="#979797" d="M 298.5,200.5 C 297.652,202.093 296.319,203.26 294.5,204C 293.552,204.483 292.552,204.649 291.5,204.5C 293.26,202.441 295.594,201.108 298.5,200.5 Z"/></g>
<g><path style="opacity:1" fill="#b5b6b7" d="M 528.5,196.5 C 530.447,197.473 532.447,198.473 534.5,199.5C 535.612,200.265 536.279,201.265 536.5,202.5C 533.833,201.833 531.167,201.167 528.5,200.5C 528.5,199.167 528.5,197.833 528.5,196.5 Z"/></g>
<g><path style="opacity:1" fill="#9e9e9e" d="M 457.5,198.5 C 459.483,198.157 460.817,198.824 461.5,200.5C 459.517,200.843 458.183,200.176 457.5,198.5 Z"/></g>
<g><path style="opacity:1" fill="#828283" d="M 308.5,196.5 C 307.817,198.176 306.483,198.843 304.5,198.5C 305.183,196.824 306.517,196.157 308.5,196.5 Z"/></g>
<g><path style="opacity:1" fill="#3a3b3c" d="M 505.5,181.5 C 504.61,183.928 504.277,186.262 504.5,188.5C 503.707,188.069 502.873,187.735 502,187.5C 500.505,189.163 498.672,190.163 496.5,190.5C 496.539,189.417 496.873,188.417 497.5,187.5C 500.486,185.837 503.153,183.837 505.5,181.5 Z"/></g>
<g><path style="opacity:1" fill="#494a4b" d="M 511.5,177.5 C 510.554,180.313 508.554,181.646 505.5,181.5C 506.446,178.687 508.446,177.354 511.5,177.5 Z"/></g>
<g><path style="opacity:1" fill="#707172" d="M 250.5,177.5 C 252.632,177.554 253.965,178.554 254.5,180.5C 252.368,180.446 251.035,179.446 250.5,177.5 Z"/></g>
<g><path style="opacity:1" fill="#898889" d="M 351.5,148.5 C 352.153,166.864 351.487,184.864 349.5,202.5C 349.333,184.83 349.5,167.164 350,149.5C 350.383,148.944 350.883,148.611 351.5,148.5 Z"/></g>
<g><path style="opacity:1" fill="#737474" d="M 409.5,149.5 C 410.117,149.611 410.617,149.944 411,150.5C 411.167,167.843 411.667,185.176 412.5,202.5C 414.505,204.838 416.505,207.171 418.5,209.5C 416.219,207.572 413.553,206.572 410.5,206.5C 410.808,187.454 410.475,168.454 409.5,149.5 Z"/></g>
<g><path style="opacity:1" fill="#777779" d="M 355.5,144.5 C 354.833,146.5 353.5,147.833 351.5,148.5C 351.894,146.29 353.227,144.957 355.5,144.5 Z"/></g>
<g><path style="opacity:1" fill="#535454" d="M 403.5,144.5 C 387.833,144.5 372.167,144.5 356.5,144.5C 364.501,143.687 372.668,143.02 381,142.5C 388.667,143.004 396.167,143.671 403.5,144.5 Z"/></g>
<g><path style="opacity:1" fill="#9b9c9c" d="M 204.5,291.5 C 204.649,292.552 204.483,293.552 204,294.5C 203.26,296.319 202.093,297.652 200.5,298.5C 200.351,297.448 200.517,296.448 201,295.5C 201.74,293.681 202.907,292.348 204.5,291.5 Z"/></g>
<g><path style="opacity:1" fill="#6a6a6b" d="M 227.5,294.5 C 227.843,296.483 227.176,297.817 225.5,298.5C 225.157,296.517 225.824,295.183 227.5,294.5 Z"/></g>
<g><path style="opacity:1" fill="#69696a" d="M 560.5,300.5 C 562.379,301.895 563.379,303.895 563.5,306.5C 561.769,305.015 560.769,303.015 560.5,300.5 Z"/></g>
<g><path style="opacity:1" fill="#7f7f7f" d="M 198.5,304.5 C 198.843,306.483 198.176,307.817 196.5,308.5C 196.157,306.517 196.824,305.183 198.5,304.5 Z"/></g>
<g><path style="opacity:1" fill="#090a0b" d="M 391.5,302.5 C 397.356,302.63 402.69,303.964 407.5,306.5C 411.418,309.291 415.751,311.291 420.5,312.5C 425.31,314.296 429.31,317.296 432.5,321.5C 433.689,322.429 435.022,322.762 436.5,322.5C 436.622,325.292 437.956,327.292 440.5,328.5C 442.623,331.789 444.956,334.789 447.5,337.5C 452.452,345.881 455.785,354.881 457.5,364.5C 457.157,366.483 457.824,367.817 459.5,368.5C 459.5,376.167 459.5,383.833 459.5,391.5C 457.824,392.183 457.157,393.517 457.5,395.5C 457.259,398.897 456.593,402.231 455.5,405.5C 455.833,406.833 456.167,408.167 456.5,409.5C 484.892,438.226 513.559,466.56 542.5,494.5C 543.334,495.748 544.667,496.415 546.5,496.5C 549.841,496.164 552.508,494.83 554.5,492.5C 559.474,491.674 564.474,491.007 569.5,490.5C 577.167,490.5 584.833,490.5 592.5,490.5C 598.535,490.908 604.535,491.574 610.5,492.5C 613.139,494.447 616.139,496.113 619.5,497.5C 621.396,498.466 623.396,498.799 625.5,498.5C 631.639,501.405 637.305,505.071 642.5,509.5C 644.025,513.025 646.691,515.025 650.5,515.5C 655.894,521.285 660.561,527.618 664.5,534.5C 664.157,536.483 664.824,537.817 666.5,538.5C 667.322,541.477 668.655,544.144 670.5,546.5C 670.661,549.68 671.661,552.347 673.5,554.5C 674.555,560.784 675.722,567.117 677,573.5C 677.5,579.825 677.666,586.158 677.5,592.5C 675.338,598.753 674.005,605.42 673.5,612.5C 672.351,612.791 671.684,613.624 671.5,615C 670.912,621.332 668.578,626.832 664.5,631.5C 662.824,632.183 662.157,633.517 662.5,635.5C 660.697,637.081 659.364,639.081 658.5,641.5C 655.29,643.974 652.623,646.974 650.5,650.5C 646.974,652.623 643.974,655.29 641.5,658.5C 636.326,662.256 630.659,665.256 624.5,667.5C 623.614,668.325 623.281,669.325 623.5,670.5C 622.167,670.5 620.833,670.5 619.5,670.5C 604.554,675.38 589.221,677.546 573.5,677C 566.495,675.566 559.495,674.066 552.5,672.5C 549.008,671.465 545.675,670.132 542.5,668.5C 542.5,667.5 542.5,666.5 542.5,665.5C 540.435,665.483 538.435,665.15 536.5,664.5C 533.996,663.416 531.663,662.083 529.5,660.5C 527.975,656.975 525.309,654.975 521.5,654.5C 516.27,649.721 511.27,644.721 506.5,639.5C 503.826,634.816 501.159,630.149 498.5,625.5C 497.839,619.862 495.839,614.862 492.5,610.5C 493.036,607.302 492.369,604.635 490.5,602.5C 490.5,599.167 490.5,595.833 490.5,592.5C 490.5,586.167 490.5,579.833 490.5,573.5C 490.5,569.5 490.5,565.5 490.5,561.5C 492.832,556.529 494.832,551.196 496.5,545.5C 496.167,544.5 495.833,543.5 495.5,542.5C 466.779,513.779 438.113,485.113 409.5,456.5C 408.167,456.167 406.833,455.833 405.5,455.5C 402.231,456.593 398.897,457.259 395.5,457.5C 393.517,457.157 392.183,457.824 391.5,459.5C 383.833,459.5 376.167,459.5 368.5,459.5C 367.817,457.824 366.483,457.157 364.5,457.5C 354.881,455.785 345.881,452.452 337.5,447.5C 334.789,444.956 331.789,442.623 328.5,440.5C 327.292,437.956 325.292,436.622 322.5,436.5C 321.438,432.412 319.104,429.079 315.5,426.5C 312.417,420 309.084,413.666 305.5,407.5C 303.857,402.266 302.857,396.933 302.5,391.5C 302.5,390.167 302.5,388.833 302.5,387.5C 303.057,378.491 303.724,369.491 304.5,360.5C 306.601,357.203 307.935,353.537 308.5,349.5C 308.917,346.657 309.917,343.99 311.5,341.5C 315.746,336.009 319.746,330.342 323.5,324.5C 329.452,320.182 335.452,315.849 341.5,311.5C 343.99,309.917 346.657,308.917 349.5,308.5C 353.533,307.975 357.2,306.642 360.5,304.5C 362.635,302.631 365.302,301.964 368.5,302.5C 376.167,301.167 383.833,301.167 391.5,302.5 Z"/></g>
<g><path style="opacity:1" fill="#a5a5a6" d="M 223.5,304.5 C 222.679,308.127 221.346,311.46 219.5,314.5C 219.304,310.394 220.637,307.061 223.5,304.5 Z"/></g>
<g><path style="opacity:1" fill="#9a9a9a" d="M 540.5,310.5 C 542.176,311.183 542.843,312.517 542.5,314.5C 540.824,313.817 540.157,312.483 540.5,310.5 Z"/></g>
<g><path style="opacity:1" fill="#a7a7a7" d="M 492.5,314.5 C 493.735,314.721 494.735,315.388 495.5,316.5C 497.336,319.252 498.336,322.252 498.5,325.5C 495.746,322.331 493.746,318.664 492.5,314.5 Z"/></g>
<g><path style="opacity:1" fill="#9d9d9f" d="M 567.5,314.5 C 568.768,316.905 569.435,319.572 569.5,322.5C 567.631,320.365 566.964,317.698 567.5,314.5 Z"/></g>
<g><path style="opacity:1" fill="#bababa" d="M 218.5,314.5 C 218.813,317.247 218.48,319.914 217.5,322.5C 216.894,325.34 215.561,327.673 213.5,329.5C 214.093,324.123 215.76,319.123 218.5,314.5 Z"/></g>
<g><path style="opacity:1" fill="#909090" d="M 266.5,318.5 C 265.502,322.505 263.502,325.839 260.5,328.5C 260.511,323.852 262.511,320.519 266.5,318.5 Z"/></g>
<g><path style="opacity:1" fill="#828283" d="M 569.5,322.5 C 570.339,323.641 571.006,324.974 571.5,326.5C 585.661,327.167 599.661,327.833 613.5,328.5C 598.833,328.5 584.167,328.5 569.5,328.5C 569.5,326.5 569.5,324.5 569.5,322.5 Z"/></g>
<g><path style="opacity:1" fill="#9d9d9e" d="M 613.5,328.5 C 616.984,328.677 619.984,329.677 622.5,331.5C 619.834,331.067 617.168,330.567 614.5,330C 613.944,329.617 613.611,329.117 613.5,328.5 Z"/></g>
<g><path style="opacity:1" fill="#a8a9a9" d="M 623.5,331.5 C 627.5,331.5 629.5,333.5 629.5,337.5C 626.833,336.167 624.833,334.167 623.5,331.5 Z"/></g>
<g><path style="opacity:1" fill="#585858" d="M 260.5,331.5 C 260.843,333.483 260.176,334.817 258.5,335.5C 258.157,333.517 258.824,332.183 260.5,331.5 Z"/></g>
<g><path style="opacity:1" fill="#767776" d="M 213.5,329.5 C 211.876,334.691 210.876,340.024 210.5,345.5C 209.5,345.5 208.5,345.5 207.5,345.5C 208.758,339.704 210.758,334.371 213.5,329.5 Z"/></g>
<g><path style="opacity:1" fill="#787778" d="M 258.5,335.5 C 258.843,337.483 258.176,338.817 256.5,339.5C 256.157,337.517 256.824,336.183 258.5,335.5 Z"/></g>
<g><path style="opacity:1" fill="#939495" d="M 548.5,333.5 C 550.308,334.918 550.975,336.918 550.5,339.5C 549.542,337.698 548.875,335.698 548.5,333.5 Z"/></g>
<g><path style="opacity:1" fill="#8a8a8a" d="M 202.5,349.5 C 185.198,351.486 167.532,352.153 149.5,351.5C 149.611,350.883 149.944,350.383 150.5,350C 167.83,349.5 185.163,349.333 202.5,349.5 Z"/></g>
<g><path style="opacity:1" fill="#8c8d8d" d="M 554.5,347.5 C 555.756,347.461 556.756,347.961 557.5,349C 575.167,349.333 592.833,349.667 610.5,350C 611.416,350.278 612.082,350.778 612.5,351.5C 593.821,351.833 575.155,351.5 556.5,350.5C 555.388,349.735 554.721,348.735 554.5,347.5 Z"/></g>
<g><path style="opacity:1" fill="#7d7e7e" d="M 124.5,351.5 C 124.01,354.655 123.344,357.655 122.5,360.5C 121.945,356.988 122.612,353.988 124.5,351.5 Z"/></g>
<g><path style="opacity:1" fill="#404041" d="M 146.5,354.5 C 144.701,358.903 144.034,363.57 144.5,368.5C 144.167,368.5 143.833,368.5 143.5,368.5C 143.334,364.486 143.501,360.486 144,356.5C 144.708,355.619 145.542,354.953 146.5,354.5 Z"/></g>
<g><path style="opacity:1" fill="#3f4040" d="M 637.5,355.5 C 638.831,362.803 639.498,370.47 639.5,378.5C 639.5,386.341 639.166,394.007 638.5,401.5C 638.802,386.119 638.469,370.785 637.5,355.5 Z"/></g>
<g><path style="opacity:1" fill="#8a8b8b" d="M 121.5,360.5 C 121.006,376.947 121.673,393.281 123.5,409.5C 122.776,406.917 121.943,404.251 121,401.5C 120.173,387.66 120.339,373.994 121.5,360.5 Z"/></g>
<g><path style="opacity:1" fill="#747576" d="M 613.5,351.5 C 615.39,354.138 616.723,357.138 617.5,360.5C 618.666,372.152 618.833,383.819 618,395.5C 617.722,396.416 617.222,397.082 616.5,397.5C 618.178,381.967 617.178,366.633 613.5,351.5 Z"/></g>
<g><path style="opacity:1" fill="#4c4d4d" d="M 252.5,360.5 C 251.212,373.507 251.212,386.507 252.5,399.5C 251.778,399.082 251.278,398.416 251,397.5C 250.833,391.333 250.667,385.167 250.5,379C 250.504,372.462 251.17,366.295 252.5,360.5 Z"/></g>
<g><path style="opacity:1" fill="#6b6c6d" d="M 509.5,370.5 C 510.222,370.918 510.722,371.584 511,372.5C 511.167,375.667 511.333,378.833 511.5,382C 511.485,385.576 510.818,388.742 509.5,391.5C 509.5,384.5 509.5,377.5 509.5,370.5 Z"/></g>
<g><path style="opacity:1" fill="#6d6e70" d="M 143.5,368.5 C 143.833,368.5 144.167,368.5 144.5,368.5C 144.5,377.5 144.5,386.5 144.5,395.5C 142.948,390.599 142.281,385.432 142.5,380C 142.501,375.985 142.835,372.151 143.5,368.5 Z"/></g>
<g><path style="opacity:1" fill="#cececf" d="M 507.5,351.5 C 509.56,356.187 510.893,361.187 511.5,366.5C 512.929,380.41 512.262,394.077 509.5,407.5C 509.5,402.167 509.5,396.833 509.5,391.5C 510.818,388.742 511.485,385.576 511.5,382C 511.333,378.833 511.167,375.667 511,372.5C 510.722,371.584 510.222,370.918 509.5,370.5C 508.963,364.15 508.296,357.817 507.5,351.5 Z"/></g>
<g><path style="opacity:1" fill="#6a6b6c" d="M 616.5,397.5 C 616.664,400.187 616.497,402.854 616,405.5C 615.722,406.416 615.222,407.082 614.5,407.5C 614.753,403.96 615.419,400.627 616.5,397.5 Z"/></g>
<g><path style="opacity:1" fill="#7e7f7f" d="M 148.5,409.5 C 167.799,410.143 187.132,410.809 206.5,411.5C 209.811,414.389 211.144,418.055 210.5,422.5C 209.775,417.763 207.108,414.43 202.5,412.5C 184.843,411.667 167.176,411.167 149.5,411C 148.944,410.617 148.611,410.117 148.5,409.5 Z"/></g>
<g><path style="opacity:1" fill="#b0b0b0" d="M 486.5,407.5 C 491.796,413.639 498.129,414.972 505.5,411.5C 505.279,412.735 504.612,413.735 503.5,414.5C 497.655,416.134 492.321,415.134 487.5,411.5C 486.571,410.311 486.238,408.978 486.5,407.5 Z"/></g>
<g><path style="opacity:1" fill="#707171" d="M 610.5,410.5 C 593.672,411.332 576.672,411.832 559.5,412C 557.97,413.12 556.303,413.954 554.5,414.5C 554.756,412.224 556.09,411.057 558.5,411C 575.83,410.5 593.163,410.333 610.5,410.5 Z"/></g>
<g><path style="opacity:1" fill="#858585" d="M 399.5,409.5 C 398.665,410.943 397.332,411.943 395.5,412.5C 386.353,415.086 377.353,415.086 368.5,412.5C 379.102,414.073 389.435,413.073 399.5,409.5 Z"/></g>
<g><path style="opacity:1" fill="#b7b8b8" d="M 123.5,409.5 C 125.403,412.979 127.07,416.646 128.5,420.5C 124.906,417.92 123.24,414.254 123.5,409.5 Z"/></g>
<g><path style="opacity:1" fill="#939293" d="M 256.5,422.5 C 258.176,423.183 258.843,424.517 258.5,426.5C 256.824,425.817 256.157,424.483 256.5,422.5 Z"/></g>
<g><path style="opacity:1" fill="#9c9d9e" d="M 550.5,418.5 C 551.036,421.698 550.369,424.365 548.5,426.5C 548.963,423.67 549.629,421.003 550.5,418.5 Z"/></g>
<g><path style="opacity:1" fill="#7a7a7a" d="M 258.5,426.5 C 260.176,427.183 260.843,428.517 260.5,430.5C 258.824,429.817 258.157,428.483 258.5,426.5 Z"/></g>
<g><path style="opacity:1" fill="#5c5c5c" d="M 623.5,428.5 C 622.817,430.176 621.483,430.843 619.5,430.5C 620.183,428.824 621.517,428.157 623.5,428.5 Z"/></g>
<g><path style="opacity:1" fill="#38393a" d="M 617.5,430.5 C 616.448,432.256 614.781,432.923 612.5,432.5C 598.167,432.5 583.833,432.5 569.5,432.5C 585.372,431.805 601.372,431.138 617.5,430.5 Z"/></g>
<g><path style="opacity:1" fill="#bebebe" d="M 569.5,432.5 C 583.833,432.5 598.167,432.5 612.5,432.5C 612.082,433.222 611.416,433.722 610.5,434C 597.171,434.5 583.837,434.667 570.5,434.5C 569.525,439.136 568.525,443.802 567.5,448.5C 566.817,448.863 566.15,449.196 565.5,449.5C 567.188,443.925 568.521,438.258 569.5,432.5 Z"/></g>
<g><path style="opacity:1" fill="#c9c8c9" d="M 140.5,430.5 C 157.392,432.382 174.392,433.048 191.5,432.5C 191.517,434.565 191.85,436.565 192.5,438.5C 190.824,437.817 190.157,436.483 190.5,434.5C 174.654,434.462 158.988,434.462 143.5,434.5C 142.066,433.412 141.066,432.078 140.5,430.5 Z"/></g>
<g><path style="opacity:1" fill="#6b6a6b" d="M 260.5,430.5 C 262.176,431.183 262.843,432.517 262.5,434.5C 260.824,433.817 260.157,432.483 260.5,430.5 Z"/></g>
<g><path style="opacity:1" fill="#7b7b7b" d="M 544.5,441.5 C 544.843,443.483 544.176,444.817 542.5,445.5C 542.157,443.517 542.824,442.183 544.5,441.5 Z"/></g>
<g><path style="opacity:1" fill="#a8a9aa" d="M 328.5,440.5 C 331.789,442.623 334.789,444.956 337.5,447.5C 333.071,446.809 330.071,444.475 328.5,440.5 Z"/></g>
<g><path style="opacity:1" fill="#b5b6b6" d="M 264.5,440.5 C 267.244,443.646 269.244,447.313 270.5,451.5C 269.85,451.196 269.183,450.863 268.5,450.5C 266.7,447.362 265.367,444.029 264.5,440.5 Z"/></g>
<g><path style="opacity:1" fill="#848485" d="M 299.5,451.5 C 301.446,452.035 302.446,453.368 302.5,455.5C 300.554,454.965 299.554,453.632 299.5,451.5 Z"/></g>
<g><path style="opacity:1" fill="#9b9c9d" d="M 565.5,449.5 C 565.125,451.698 564.458,453.698 563.5,455.5C 563.025,452.918 563.692,450.918 565.5,449.5 Z"/></g>
<g><path style="opacity:1" fill="#959695" d="M 540.5,451.5 C 540.5,454.167 540.5,456.833 540.5,459.5C 539.252,458.666 538.585,457.333 538.5,455.5C 538.585,453.667 539.252,452.334 540.5,451.5 Z"/></g>
<g><path style="opacity:1" fill="#909191" d="M 364.5,457.5 C 366.483,457.157 367.817,457.824 368.5,459.5C 366.517,459.843 365.183,459.176 364.5,457.5 Z"/></g>
<g><path style="opacity:1" fill="#6d6d6e" d="M 395.5,457.5 C 394.817,459.176 393.483,459.843 391.5,459.5C 392.183,457.824 393.517,457.157 395.5,457.5 Z"/></g>
<g><path style="opacity:1" fill="#626262" d="M 561.5,459.5 C 561.475,462.179 560.142,463.512 557.5,463.5C 558.167,461.5 559.5,460.167 561.5,459.5 Z"/></g>
<g><path style="opacity:1" fill="#949494" d="M 198.5,457.5 C 200.847,459.527 202.181,462.194 202.5,465.5C 201.624,465.631 200.957,465.298 200.5,464.5C 199.675,462.199 199.008,459.865 198.5,457.5 Z"/></g>
<g><path style="opacity:1" fill="#696a6b" d="M 225.5,461.5 C 227.176,462.183 227.843,463.517 227.5,465.5C 225.824,464.817 225.157,463.483 225.5,461.5 Z"/></g>
<g><path style="opacity:1" fill="#8c8d8d" d="M 202.5,465.5 C 204.176,466.183 204.843,467.517 204.5,469.5C 202.824,468.817 202.157,467.483 202.5,465.5 Z"/></g>
<g><path style="opacity:1" fill="#bcbcbd" d="M 318.5,468.5 C 321.634,469.119 324.467,470.452 327,472.5C 328.226,472.355 329.393,472.022 330.5,471.5C 331.711,472.274 331.711,473.107 330.5,474C 332.692,475.067 334.358,476.567 335.5,478.5C 328.836,476.831 323.17,473.498 318.5,468.5 Z"/></g>
<g><path style="opacity:1" fill="#bbbabc" d="M 285.5,470.5 C 288.551,471.399 290.551,473.399 291.5,476.5C 287.582,476.342 285.582,474.342 285.5,470.5 Z"/></g>
<g><path style="opacity:1" fill="#848484" d="M 335.5,478.5 C 337.483,478.157 338.817,478.824 339.5,480.5C 337.517,480.843 336.183,480.176 335.5,478.5 Z"/></g>
<g><path style="opacity:1" fill="#0c0c0e" d="M 399.5,252.5 C 402.167,252.5 404.833,252.5 407.5,252.5C 408.183,254.176 409.517,254.843 411.5,254.5C 415.121,255.373 418.788,256.039 422.5,256.5C 423.183,258.176 424.517,258.843 426.5,258.5C 427.183,260.176 428.517,260.843 430.5,260.5C 431.183,262.176 432.517,262.843 434.5,262.5C 436.718,262.614 438.718,263.28 440.5,264.5C 442.566,266.199 444.9,267.532 447.5,268.5C 448.568,269.434 449.901,269.768 451.5,269.5C 451.281,270.675 451.614,271.675 452.5,272.5C 459.476,276.823 465.809,281.823 471.5,287.5C 472.9,289.016 474.233,290.683 475.5,292.5C 476.325,293.386 477.325,293.719 478.5,293.5C 482.886,300.745 487.552,307.745 492.5,314.5C 493.746,318.664 495.746,322.331 498.5,325.5C 500.045,329.593 501.879,333.593 504,337.5C 504.427,342.429 505.593,347.095 507.5,351.5C 508.296,357.817 508.963,364.15 509.5,370.5C 509.5,377.5 509.5,384.5 509.5,391.5C 509.5,396.833 509.5,402.167 509.5,407.5C 507.5,408.167 506.167,409.5 505.5,411.5C 498.129,414.972 491.796,413.639 486.5,407.5C 486.5,404.167 486.5,400.833 486.5,397.5C 488.176,396.817 488.843,395.483 488.5,393.5C 488.5,384.5 488.5,375.5 488.5,366.5C 488.843,364.517 488.176,363.183 486.5,362.5C 485.73,354.474 483.73,346.807 480.5,339.5C 480.843,337.517 480.176,336.183 478.5,335.5C 476.885,332.74 475.719,329.74 475,326.5C 471.538,323.602 469.038,319.936 467.5,315.5C 463.743,312.414 460.743,308.748 458.5,304.5C 451.346,298.314 444.012,292.647 436.5,287.5C 435.817,285.824 434.483,285.157 432.5,285.5C 419.7,278.7 406.033,274.7 391.5,273.5C 388.062,272.177 384.229,271.51 380,271.5C 376.167,271.667 372.333,271.833 368.5,272C 367.584,272.278 366.918,272.778 366.5,273.5C 360.849,274.436 355.182,275.436 349.5,276.5C 342.124,279.525 334.791,282.525 327.5,285.5C 324.796,285.67 323.129,287.003 322.5,289.5C 320.002,291.919 317.002,293.586 313.5,294.5C 310.096,298.381 306.429,302.047 302.5,305.5C 301.873,306.417 301.539,307.417 301.5,308.5C 297.517,309.817 294.85,312.483 293.5,316.5C 286.372,326.428 281.038,337.428 277.5,349.5C 275.692,350.918 275.025,352.918 275.5,355.5C 275.5,355.833 275.5,356.167 275.5,356.5C 273.824,357.183 273.157,358.517 273.5,360.5C 273.5,362.5 273.5,364.5 273.5,366.5C 272.778,366.918 272.278,367.584 272,368.5C 271.178,376.345 271.344,384.011 272.5,391.5C 272.881,395.119 273.881,398.452 275.5,401.5C 275.571,408.854 277.238,415.854 280.5,422.5C 284.395,430.881 288.895,438.881 294,446.5C 295.853,448.28 297.687,449.947 299.5,451.5C 299.554,453.632 300.554,454.965 302.5,455.5C 307.041,459.032 311.375,463.032 315.5,467.5C 316.417,468.127 317.417,468.461 318.5,468.5C 323.17,473.498 328.836,476.831 335.5,478.5C 336.183,480.176 337.517,480.843 339.5,480.5C 356.795,487.309 374.795,489.976 393.5,488.5C 395.483,488.843 396.817,488.176 397.5,486.5C 401.742,486.151 405.742,486.817 409.5,488.5C 411.41,491.316 413.077,494.316 414.5,497.5C 414.274,500.517 413.274,503.184 411.5,505.5C 410.167,506.167 408.833,506.833 407.5,507.5C 404.918,507.025 402.918,507.692 401.5,509.5C 398.167,509.5 394.833,509.5 391.5,509.5C 384.5,509.5 377.5,509.5 370.5,509.5C 366.5,509.5 362.5,509.5 358.5,509.5C 357.833,509.5 357.167,509.5 356.5,509.5C 352.678,507.165 348.344,505.832 343.5,505.5C 341.347,503.661 338.68,502.661 335.5,502.5C 332.612,500.305 329.279,498.972 325.5,498.5C 324.07,497.463 322.403,496.796 320.5,496.5C 319.267,494.204 317.267,492.87 314.5,492.5C 310.891,489.689 306.891,487.355 302.5,485.5C 299.175,482.063 295.508,479.063 291.5,476.5C 290.551,473.399 288.551,471.399 285.5,470.5C 280.481,464.152 275.481,457.818 270.5,451.5C 269.244,447.313 267.244,443.646 264.5,440.5C 263.28,438.718 262.614,436.718 262.5,434.5C 262.843,432.517 262.176,431.183 260.5,430.5C 260.843,428.517 260.176,427.183 258.5,426.5C 258.843,424.517 258.176,423.183 256.5,422.5C 254.444,414.968 253.111,407.301 252.5,399.5C 251.212,386.507 251.212,373.507 252.5,360.5C 253.21,353.373 254.544,346.373 256.5,339.5C 258.176,338.817 258.843,337.483 258.5,335.5C 260.176,334.817 260.843,333.483 260.5,331.5C 260.5,330.5 260.5,329.5 260.5,328.5C 263.502,325.839 265.502,322.505 266.5,318.5C 273.421,303.89 283.088,291.223 295.5,280.5C 300.276,278.538 304.276,275.538 307.5,271.5C 311.069,269.547 314.736,267.881 318.5,266.5C 323.165,265.417 327.165,263.417 330.5,260.5C 337.23,257.725 344.23,255.392 351.5,253.5C 354.428,252.516 357.428,252.183 360.5,252.5C 373.507,251.212 386.507,251.212 399.5,252.5 Z"/></g>
<g><path style="opacity:1" fill="#969698" d="M 397.5,486.5 C 396.817,488.176 395.483,488.843 393.5,488.5C 394.183,486.824 395.517,486.157 397.5,486.5 Z"/></g>
<g><path style="opacity:1" fill="#969898" d="M 351.5,399.5 C 353.115,401.374 355.115,402.708 357.5,403.5C 357.281,404.675 357.614,405.675 358.5,406.5C 360.849,407.543 362.849,408.876 364.5,410.5C 360.14,409.815 356.474,407.815 353.5,404.5C 352.544,402.925 351.877,401.258 351.5,399.5 Z"/></g>
<g><path style="opacity:1" fill="#8c8c8c" d="M 488.5,393.5 C 488.843,395.483 488.176,396.817 486.5,397.5C 486.157,395.517 486.824,394.183 488.5,393.5 Z"/></g>
<g><path style="opacity:1" fill="#7f7f7f" d="M 459.5,391.5 C 459.843,393.483 459.176,394.817 457.5,395.5C 457.157,393.517 457.824,392.183 459.5,391.5 Z"/></g>
<g><path style="opacity:1" fill="#7b7c7c" d="M 345.5,385.5 C 346.117,385.611 346.617,385.944 347,386.5C 347.909,389.513 348.742,392.513 349.5,395.5C 348.25,395.423 347.417,394.756 347,393.5C 346.178,390.883 345.678,388.216 345.5,385.5 Z"/></g>
<g><path style="opacity:1" fill="#898989" d="M 413.5,370.5 C 414.222,370.918 414.722,371.584 415,372.5C 415.831,378.859 415.664,385.193 414.5,391.5C 413.943,393.332 412.943,394.665 411.5,395.5C 412.402,390.407 413.402,385.407 414.5,380.5C 414.276,377.145 413.943,373.812 413.5,370.5 Z"/></g>
<g><path style="opacity:1" fill="#9fa0a1" d="M 302.5,368.5 C 301.324,374.983 301.324,381.317 302.5,387.5C 302.5,388.833 302.5,390.167 302.5,391.5C 301.179,388.402 300.512,384.902 300.5,381C 300.667,377.5 300.833,374 301,370.5C 301.278,369.584 301.778,368.918 302.5,368.5 Z"/></g>
<g><path style="opacity:1" fill="#c9c9c9" d="M 273.5,360.5 C 273.833,360.5 274.167,360.5 274.5,360.5C 274.202,374.216 274.535,387.882 275.5,401.5C 273.881,398.452 272.881,395.119 272.5,391.5C 272.295,383.133 272.629,374.8 273.5,366.5C 273.5,364.5 273.5,362.5 273.5,360.5 Z"/></g>
<g><path style="opacity:1" fill="#4e4f4f" d="M 273.5,366.5 C 272.629,374.8 272.295,383.133 272.5,391.5C 271.344,384.011 271.178,376.345 272,368.5C 272.278,367.584 272.778,366.918 273.5,366.5 Z"/></g>
<g><path style="opacity:1" fill="#969695" d="M 411.5,364.5 C 413.074,366.102 413.741,368.102 413.5,370.5C 411.926,368.898 411.259,366.898 411.5,364.5 Z"/></g>
<g><path style="opacity:1" fill="#4c4d4e" d="M 349.5,364.5 C 348.715,367.858 347.715,371.191 346.5,374.5C 345.511,378.107 345.177,381.774 345.5,385.5C 344.189,381.317 344.189,376.984 345.5,372.5C 346.093,369.342 347.426,366.675 349.5,364.5 Z"/></g>
<g><path style="opacity:1" fill="#2e2f30" d="M 304.5,360.5 C 303.724,369.491 303.057,378.491 302.5,387.5C 301.324,381.317 301.324,374.983 302.5,368.5C 301.964,365.302 302.631,362.635 304.5,360.5 Z"/></g>
<g><path style="opacity:1" fill="#9c9c9c" d="M 457.5,364.5 C 459.176,365.183 459.843,366.517 459.5,368.5C 457.824,367.817 457.157,366.483 457.5,364.5 Z"/></g>
<g><path style="opacity:1" fill="#565758" d="M 486.5,362.5 C 488.176,363.183 488.843,364.517 488.5,366.5C 486.824,365.817 486.157,364.483 486.5,362.5 Z"/></g>
<g><path style="opacity:1" fill="#777777" d="M 409.5,360.5 C 411.176,361.183 411.843,362.517 411.5,364.5C 409.824,363.817 409.157,362.483 409.5,360.5 Z"/></g>
<g><path style="opacity:1" fill="#8b8c8d" d="M 405.5,356.5 C 407.5,357.167 408.833,358.5 409.5,360.5C 407.29,360.106 405.957,358.773 405.5,356.5 Z"/></g>
<g><path style="opacity:1" fill="#5a5a5a" d="M 275.5,356.5 C 275.768,358.099 275.434,359.432 274.5,360.5C 274.167,360.5 273.833,360.5 273.5,360.5C 273.157,358.517 273.824,357.183 275.5,356.5 Z"/></g>
<g><path style="opacity:1" fill="#5e5f60" d="M 360.5,352.5 C 358.105,355.861 355.105,358.528 351.5,360.5C 352.989,356.171 355.989,353.504 360.5,352.5 Z"/></g>
<g><path style="opacity:1" fill="#545655" d="M 308.5,349.5 C 307.935,353.537 306.601,357.203 304.5,360.5C 304.093,356.005 305.426,352.338 308.5,349.5 Z"/></g>
<g><path style="opacity:1" fill="#7e8081" d="M 401.5,353.5 C 403.632,353.554 404.965,354.554 405.5,356.5C 403.368,356.446 402.035,355.446 401.5,353.5 Z"/></g>
<g><path style="opacity:1" fill="#9c9c9c" d="M 277.5,349.5 C 277.741,351.898 277.074,353.898 275.5,355.5C 275.025,352.918 275.692,350.918 277.5,349.5 Z"/></g>
<g><path style="opacity:1" fill="#919293" d="M 393.5,349.5 C 395.483,349.157 396.817,349.824 397.5,351.5C 395.517,351.843 394.183,351.176 393.5,349.5 Z"/></g>
<g><path style="opacity:1" fill="#a7a8a8" d="M 372.5,347.5 C 370.473,349.847 367.806,351.181 364.5,351.5C 366.249,348.625 368.915,347.292 372.5,347.5 Z"/></g>
<g><path style="opacity:1" fill="#949595" d="M 387.5,347.5 C 389.483,347.157 390.817,347.824 391.5,349.5C 389.517,349.843 388.183,349.176 387.5,347.5 Z"/></g>
<g><path style="opacity:1" fill="#fbfbfb" d="M 372.5,347.5 C 377.5,347.5 382.5,347.5 387.5,347.5C 388.183,349.176 389.517,349.843 391.5,349.5C 392.167,349.5 392.833,349.5 393.5,349.5C 394.183,351.176 395.517,351.843 397.5,351.5C 399.153,351.66 400.486,352.326 401.5,353.5C 402.035,355.446 403.368,356.446 405.5,356.5C 405.957,358.773 407.29,360.106 409.5,360.5C 409.157,362.483 409.824,363.817 411.5,364.5C 411.259,366.898 411.926,368.898 413.5,370.5C 413.943,373.812 414.276,377.145 414.5,380.5C 413.402,385.407 412.402,390.407 411.5,395.5C 408.977,401.362 404.977,406.028 399.5,409.5C 389.435,413.073 379.102,414.073 368.5,412.5C 366.847,412.34 365.514,411.674 364.5,410.5C 362.849,408.876 360.849,407.543 358.5,406.5C 357.614,405.675 357.281,404.675 357.5,403.5C 355.115,402.708 353.115,401.374 351.5,399.5C 350.833,398.167 350.167,396.833 349.5,395.5C 348.742,392.513 347.909,389.513 347,386.5C 346.617,385.944 346.117,385.611 345.5,385.5C 345.177,381.774 345.511,378.107 346.5,374.5C 347.715,371.191 348.715,367.858 349.5,364.5C 349.66,362.847 350.326,361.514 351.5,360.5C 355.105,358.528 358.105,355.861 360.5,352.5C 361.568,351.566 362.901,351.232 364.5,351.5C 367.806,351.181 370.473,349.847 372.5,347.5 Z"/></g>
<g><path style="opacity:1" fill="#777777" d="M 478.5,335.5 C 480.176,336.183 480.843,337.517 480.5,339.5C 478.824,338.817 478.157,337.483 478.5,335.5 Z"/></g>
<g><path style="opacity:1" fill="#a8a9aa" d="M 440.5,328.5 C 444.475,330.071 446.809,333.071 447.5,337.5C 444.956,334.789 442.623,331.789 440.5,328.5 Z"/></g>
<g><path style="opacity:1" fill="#a8a8a9" d="M 301.5,308.5 C 299.5,311.833 296.833,314.5 293.5,316.5C 294.85,312.483 297.517,309.817 301.5,308.5 Z"/></g>
<g><path style="opacity:1" fill="#868687" d="M 407.5,306.5 C 412.81,306.658 417.143,308.658 420.5,312.5C 415.751,311.291 411.418,309.291 407.5,306.5 Z"/></g>
<g><path style="opacity:1" fill="#4a4c4b" d="M 360.5,304.5 C 357.2,306.642 353.533,307.975 349.5,308.5C 351.111,306.905 353.111,305.739 355.5,305C 357.134,304.506 358.801,304.34 360.5,304.5 Z"/></g>
<g><path style="opacity:1" fill="#a3a4a5" d="M 391.5,302.5 C 383.833,301.167 376.167,301.167 368.5,302.5C 371.938,301.177 375.771,300.51 380,300.5C 384.229,300.51 388.062,301.177 391.5,302.5 Z"/></g>
<g><path style="opacity:1" fill="#6b6c6c" d="M 432.5,285.5 C 434.483,285.157 435.817,285.824 436.5,287.5C 434.517,287.843 433.183,287.176 432.5,285.5 Z"/></g>
<g><path style="opacity:1" fill="#616263" d="M 327.5,285.5 C 326.055,287.063 324.389,288.396 322.5,289.5C 323.129,287.003 324.796,285.67 327.5,285.5 Z"/></g>
<g><path style="opacity:1" fill="#535353" d="M 391.5,273.5 C 383.167,273.5 374.833,273.5 366.5,273.5C 366.918,272.778 367.584,272.278 368.5,272C 372.333,271.833 376.167,271.667 380,271.5C 384.229,271.51 388.062,272.177 391.5,273.5 Z"/></g>
<g><path style="opacity:1" fill="#4c4e4e" d="M 592.5,490.5 C 584.833,490.5 577.167,490.5 569.5,490.5C 569.918,489.778 570.584,489.278 571.5,489C 575,488.833 578.5,488.667 582,488.5C 585.902,488.512 589.402,489.179 592.5,490.5 Z"/></g>
<g><path style="opacity:1" fill="#8f9091" d="M 610.5,492.5 C 615.936,493.729 620.936,495.729 625.5,498.5C 623.396,498.799 621.396,498.466 619.5,497.5C 616.139,496.113 613.139,494.447 610.5,492.5 Z"/></g>
<g><path style="opacity:1" fill="#989798" d="M 314.5,492.5 C 317.267,492.87 319.267,494.204 320.5,496.5C 317.446,496.646 315.446,495.313 314.5,492.5 Z"/></g>
<g><path style="opacity:1" fill="#9d9e9f" d="M 554.5,492.5 C 552.508,494.83 549.841,496.164 546.5,496.5C 544.667,496.415 543.334,495.748 542.5,494.5C 543.583,494.539 544.583,494.873 545.5,495.5C 548.357,494.037 551.357,493.037 554.5,492.5 Z"/></g>
<g><path style="opacity:1" fill="#787a7b" d="M 190.5,496.5 C 189.965,498.446 188.632,499.446 186.5,499.5C 187.035,497.554 188.368,496.554 190.5,496.5 Z"/></g>
<g><path style="opacity:1" fill="#b8b7b8" d="M 409.5,488.5 C 410.833,488.5 412.167,488.5 413.5,488.5C 414.336,491.592 415.003,494.759 415.5,498C 415.333,499.833 415.167,501.667 415,503.5C 414.184,504.823 413.017,505.489 411.5,505.5C 413.274,503.184 414.274,500.517 414.5,497.5C 413.077,494.316 411.41,491.316 409.5,488.5 Z"/></g>
<g><path style="opacity:1" fill="#6e6f6f" d="M 325.5,498.5 C 329.279,498.972 332.612,500.305 335.5,502.5C 334.127,502.657 332.793,502.49 331.5,502C 329.111,501.261 327.111,500.095 325.5,498.5 Z"/></g>
<g><path style="opacity:1" fill="#acacac" d="M 229.5,488.5 C 229.762,489.978 229.429,491.311 228.5,492.5C 223.519,496.069 219.352,500.402 216,505.5C 213.815,507.54 211.315,508.874 208.5,509.5C 215.446,502.554 222.446,495.554 229.5,488.5 Z"/></g>
<g><path style="opacity:1" fill="#5f6061" d="M 335.5,502.5 C 338.68,502.661 341.347,503.661 343.5,505.5C 340.32,505.339 337.653,504.339 335.5,502.5 Z"/></g>
<g><path style="opacity:1" fill="#a5a6a8" d="M 343.5,505.5 C 348.344,505.832 352.678,507.165 356.5,509.5C 353.544,508.863 350.544,508.363 347.5,508C 345.934,507.392 344.6,506.558 343.5,505.5 Z"/></g>
<g><path style="opacity:1" fill="#7c7c7d" d="M 407.5,507.5 C 406.082,509.308 404.082,509.975 401.5,509.5C 402.918,507.692 404.918,507.025 407.5,507.5 Z"/></g>
<g><path style="opacity:1" fill="#a9a9a9" d="M 642.5,509.5 C 646.309,509.975 648.975,511.975 650.5,515.5C 646.691,515.025 644.025,513.025 642.5,509.5 Z"/></g>
<g><path style="opacity:1" fill="#d2d3d3" d="M 411.5,505.5 C 411.52,507.143 410.853,508.476 409.5,509.5C 400.072,511.185 390.572,512.185 381,512.5C 373.223,512.456 365.723,511.456 358.5,509.5C 362.5,509.5 366.5,509.5 370.5,509.5C 373.598,510.821 377.098,511.488 381,511.5C 384.902,511.488 388.402,510.821 391.5,509.5C 394.833,509.5 398.167,509.5 401.5,509.5C 404.082,509.975 406.082,509.308 407.5,507.5C 408.833,506.833 410.167,506.167 411.5,505.5 Z"/></g>
<g><path style="opacity:1" fill="#606262" d="M 370.5,509.5 C 377.5,509.5 384.5,509.5 391.5,509.5C 388.402,510.821 384.902,511.488 381,511.5C 377.098,511.488 373.598,510.821 370.5,509.5 Z"/></g>
<g><path style="opacity:1" fill="#cacaca" d="M 173.5,519.5 C 173.177,523.226 173.511,526.893 174.5,530.5C 175.851,534.526 177.184,538.526 178.5,542.5C 175.987,539.67 174.153,536.337 173,532.5C 172.186,527.98 172.353,523.646 173.5,519.5 Z"/></g>
<g><path style="opacity:1" fill="#4c4d4d" d="M 285.5,527.5 C 283.396,527.201 281.396,527.534 279.5,528.5C 277.316,530.092 274.982,531.426 272.5,532.5C 270.273,535.612 267.606,538.279 264.5,540.5C 264.539,539.417 264.873,538.417 265.5,537.5C 269.167,534.5 272.5,531.167 275.5,527.5C 278.98,526.194 282.313,526.194 285.5,527.5 Z"/></g>
<g><path style="opacity:1" fill="#6c6e6f" d="M 664.5,534.5 C 666.176,535.183 666.843,536.517 666.5,538.5C 664.824,537.817 664.157,536.483 664.5,534.5 Z"/></g>
<g><path style="opacity:1" fill="#939392" d="M 459.5,540.5 C 456.833,540.5 454.167,540.5 451.5,540.5C 452.334,539.252 453.667,538.585 455.5,538.5C 457.333,538.585 458.666,539.252 459.5,540.5 Z"/></g>
<g><path style="opacity:1" fill="#b1b2b3" d="M 596.5,542.5 C 587.52,541.228 578.52,541.228 569.5,542.5C 573.614,541.174 578.114,540.507 583,540.5C 587.886,540.507 592.386,541.174 596.5,542.5 Z"/></g>
<g><path style="opacity:1" fill="#fcfcfc" d="M 596.5,542.5 C 601.347,543.561 606.014,545.228 610.5,547.5C 612.209,550.543 614.543,552.876 617.5,554.5C 618.08,556.749 619.413,558.415 621.5,559.5C 622.503,562.337 623.836,565.003 625.5,567.5C 627.575,577.116 627.908,586.783 626.5,596.5C 623.855,601.789 621.189,607.123 618.5,612.5C 615.13,612.629 613.13,614.295 612.5,617.5C 609.057,619.545 605.724,621.545 602.5,623.5C 600.282,623.614 598.282,624.28 596.5,625.5C 593.833,625.5 591.167,625.5 588.5,625.5C 584.833,625.5 581.167,625.5 577.5,625.5C 574.833,625.5 572.167,625.5 569.5,625.5C 567.294,623.539 564.628,622.206 561.5,621.5C 559.847,621.34 558.514,620.674 557.5,619.5C 555.078,616.409 552.078,614.076 548.5,612.5C 546.695,608.227 544.361,604.227 541.5,600.5C 540.832,597.694 540.166,595.028 539.5,592.5C 539.435,585.476 539.768,578.476 540.5,571.5C 540.483,567.883 541.483,564.55 543.5,561.5C 545.329,559.844 546.663,557.844 547.5,555.5C 549.87,553.783 552.203,552.117 554.5,550.5C 556.446,549.965 557.446,548.632 557.5,546.5C 559.5,545.833 561.5,545.167 563.5,544.5C 565.483,544.843 566.817,544.176 567.5,542.5C 568.167,542.5 568.833,542.5 569.5,542.5C 578.52,541.228 587.52,541.228 596.5,542.5 Z"/></g>
<g><path style="opacity:1" fill="#9d9e9e" d="M 567.5,542.5 C 566.817,544.176 565.483,544.843 563.5,544.5C 564.183,542.824 565.517,542.157 567.5,542.5 Z"/></g>
<g><path style="opacity:1" fill="#474747" d="M 445.5,542.5 C 443.973,545.068 441.639,546.401 438.5,546.5C 440.027,543.932 442.361,542.599 445.5,542.5 Z"/></g>
<g><path style="opacity:1" fill="#8b8d8f" d="M 326.5,546.5 C 328.483,546.157 329.817,546.824 330.5,548.5C 328.517,548.843 327.183,548.176 326.5,546.5 Z"/></g>
<g><path style="opacity:1" fill="#8b8d8d" d="M 434.5,546.5 C 433.817,548.176 432.483,548.843 430.5,548.5C 431.183,546.824 432.517,546.157 434.5,546.5 Z"/></g>
<g><path style="opacity:1" fill="#989a9a" d="M 333.5,548.5 C 335.698,548.875 337.698,549.542 339.5,550.5C 336.918,550.975 334.918,550.308 333.5,548.5 Z"/></g>
<g><path style="opacity:1" fill="#919292" d="M 426.5,548.5 C 423.639,550.575 420.306,551.908 416.5,552.5C 419.266,550.016 422.599,548.683 426.5,548.5 Z"/></g>
<g><path style="opacity:1" fill="#9c9c9c" d="M 557.5,546.5 C 557.446,548.632 556.446,549.965 554.5,550.5C 554.554,548.368 555.554,547.035 557.5,546.5 Z"/></g>
<g><path style="opacity:1" fill="#6a6b6b" d="M 670.5,546.5 C 672.339,548.653 673.339,551.32 673.5,554.5C 671.661,552.347 670.661,549.68 670.5,546.5 Z"/></g>
<g><path style="opacity:1" fill="#8c8e8e" d="M 617.5,554.5 C 619.587,555.585 620.92,557.251 621.5,559.5C 619.413,558.415 618.08,556.749 617.5,554.5 Z"/></g>
<g><path style="opacity:1" fill="#99999b" d="M 281.5,554.5 C 280.135,556.86 278.135,558.527 275.5,559.5C 276.573,556.764 278.573,555.097 281.5,554.5 Z"/></g>
<g><path style="opacity:1" fill="#6e6f6f" d="M 466.5,546.5 C 467.806,549.687 467.806,553.02 466.5,556.5C 465.735,557.612 464.735,558.279 463.5,558.5C 463.461,556.641 464.294,555.308 466,554.5C 466.497,551.854 466.664,549.187 466.5,546.5 Z"/></g>
<g><path style="opacity:1" fill="#b8b7b9" d="M 287.5,554.5 C 292.115,556.137 296.449,558.137 300.5,560.5C 297.678,560.322 295.011,559.655 292.5,558.5C 290.776,558.904 289.109,559.071 287.5,559C 288.167,558.333 288.833,557.667 289.5,557C 288.244,556.583 287.577,555.75 287.5,554.5 Z"/></g>
<g><path style="opacity:1" fill="#606162" d="M 223.5,558.5 C 225.632,558.554 226.965,559.554 227.5,561.5C 225.368,561.446 224.035,560.446 223.5,558.5 Z"/></g>
<g><path style="opacity:1" fill="#7b7c7c" d="M 414.5,554.5 C 413.878,555.627 413.045,556.627 412,557.5C 411.832,575.338 411.332,593.005 410.5,610.5C 410.5,591.833 410.5,573.167 410.5,554.5C 411.833,554.5 413.167,554.5 414.5,554.5 Z"/></g>
<g><path style="opacity:1" fill="#7a7b7c" d="M 231.5,563.5 C 234.5,563.5 237.5,563.5 240.5,563.5C 237.5,566.167 234.5,566.167 231.5,563.5 Z"/></g>
<g><path style="opacity:1" fill="#aeaeae" d="M 459.5,561.5 C 456.734,563.984 453.401,565.317 449.5,565.5C 452.361,563.425 455.694,562.092 459.5,561.5 Z"/></g>
<g><path style="opacity:1" fill="#8f9090" d="M 271.5,563.5 C 271.167,565.833 269.833,567.167 267.5,567.5C 268.167,565.5 269.5,564.167 271.5,563.5 Z"/></g>
<g><path style="opacity:1" fill="#b2b3b4" d="M 449.5,565.5 C 446.339,567.962 442.672,569.295 438.5,569.5C 441.739,567.514 445.406,566.18 449.5,565.5 Z"/></g>
<g><path style="opacity:1" fill="#abadac" d="M 490.5,561.5 C 490.5,565.5 490.5,569.5 490.5,573.5C 489.833,574.167 489.167,574.833 488.5,575.5C 488.362,570.586 489.028,565.919 490.5,561.5 Z"/></g>
<g><path style="opacity:1" fill="#373838" d="M 432.5,569.5 C 432.5,582.5 432.5,595.5 432.5,608.5C 432.663,610.857 432.497,613.19 432,615.5C 431.617,616.056 431.117,616.389 430.5,616.5C 431.137,600.705 431.804,585.038 432.5,569.5 Z"/></g>
<g><path style="opacity:1" fill="#48494a" d="M 625.5,567.5 C 626.558,568.6 627.392,569.934 628,571.5C 628.167,575.667 628.333,579.833 628.5,584C 628.491,588.557 627.825,592.724 626.5,596.5C 627.908,586.783 627.575,577.116 625.5,567.5 Z"/></g>
<g><path style="opacity:1" fill="#8d8d8e" d="M 314.5,567.5 C 319.222,567.848 323.889,568.515 328.5,569.5C 328.5,583.833 328.5,598.167 328.5,612.5C 327.504,599.01 327.171,585.344 327.5,571.5C 322.824,570.939 318.491,569.606 314.5,567.5 Z"/></g>
<g><path style="opacity:1" fill="#c5c4c4" d="M 432.5,569.5 C 434.5,569.5 436.5,569.5 438.5,569.5C 437.432,570.434 436.099,570.768 434.5,570.5C 435.147,583.544 434.48,596.211 432.5,608.5C 432.5,595.5 432.5,582.5 432.5,569.5 Z"/></g>
<g><path style="opacity:1" fill="#4e5050" d="M 490.5,573.5 C 490.5,579.833 490.5,586.167 490.5,592.5C 488.55,587.265 487.883,581.598 488.5,575.5C 489.167,574.833 489.833,574.167 490.5,573.5 Z"/></g>
<g><path style="opacity:1" fill="#818182" d="M 673.5,554.5 C 675.723,558.387 677.056,562.721 677.5,567.5C 678.821,575.991 678.821,584.324 677.5,592.5C 677.666,586.158 677.5,579.825 677,573.5C 675.722,567.117 674.555,560.784 673.5,554.5 Z"/></g>
<g><path style="opacity:1" fill="#8d8e8d" d="M 210.5,575.5 C 212.5,576.167 213.833,577.5 214.5,579.5C 211.858,579.512 210.525,578.179 210.5,575.5 Z"/></g>
<g><path style="opacity:1" fill="#a3a4a4" d="M 540.5,571.5 C 539.768,578.476 539.435,585.476 539.5,592.5C 538.835,589.183 538.501,585.683 538.5,582C 538.512,578.098 539.179,574.598 540.5,571.5 Z"/></g>
<g><path style="opacity:1" fill="#898989" d="M 221.5,584.5 C 228.365,586.08 235.365,586.747 242.5,586.5C 235.271,588.218 228.271,587.551 221.5,584.5 Z"/></g>
<g><path style="opacity:1" fill="#8c8c8c" d="M 347.5,554.5 C 348.735,554.721 349.735,555.388 350.5,556.5C 351.5,574.488 351.833,592.488 351.5,610.5C 350.778,610.082 350.278,609.416 350,608.5C 349.667,591.5 349.333,574.5 349,557.5C 347.961,556.756 347.461,555.756 347.5,554.5 Z"/></g>
<g><path style="opacity:1" fill="#98999a" d="M 490.5,602.5 C 492.369,604.635 493.036,607.302 492.5,610.5C 491.629,607.997 490.963,605.33 490.5,602.5 Z"/></g>
<g><path style="opacity:1" fill="#909091" d="M 677.5,592.5 C 677.439,599.56 676.106,606.227 673.5,612.5C 674.005,605.42 675.338,598.753 677.5,592.5 Z"/></g>
<g><path style="opacity:1" fill="#585859" d="M 328.5,612.5 C 330.344,614.279 331.01,616.612 330.5,619.5C 329.732,617.285 329.065,614.952 328.5,612.5 Z"/></g>
<g><path style="opacity:1" fill="#a8a9a9" d="M 409.5,612.5 C 408.554,615.313 406.554,616.646 403.5,616.5C 389.179,617.242 374.846,617.575 360.5,617.5C 358.833,616.833 357.167,616.167 355.5,615.5C 372.513,615.833 389.513,615.499 406.5,614.5C 407.005,613.081 408.005,612.415 409.5,612.5 Z"/></g>
<g><path style="opacity:1" fill="#8a8b8c" d="M 492.5,610.5 C 495.839,614.862 497.839,619.862 498.5,625.5C 495.365,621.124 493.365,616.124 492.5,610.5 Z"/></g>
<g><path style="opacity:1" fill="#4d4f50" d="M 548.5,612.5 C 552.078,614.076 555.078,616.409 557.5,619.5C 553.66,618.166 550.66,615.833 548.5,612.5 Z"/></g>
<g><path style="opacity:1" fill="#6e7070" d="M 618.5,612.5 C 617.109,614.89 615.109,616.557 612.5,617.5C 613.13,614.295 615.13,612.629 618.5,612.5 Z"/></g>
<g><path style="opacity:1" fill="#3c3e3e" d="M 403.5,616.5 C 396.699,617.831 389.533,618.497 382,618.5C 374.659,618.5 367.492,618.166 360.5,617.5C 374.846,617.575 389.179,617.242 403.5,616.5 Z"/></g>
<g><path style="opacity:1" fill="#454647" d="M 612.5,617.5 C 610.496,621.51 607.162,623.51 602.5,623.5C 605.724,621.545 609.057,619.545 612.5,617.5 Z"/></g>
<g><path style="opacity:1" fill="#7f7f7f" d="M 430.5,619.5 C 430.843,621.483 430.176,622.817 428.5,623.5C 428.157,621.517 428.824,620.183 430.5,619.5 Z"/></g>
<g><path style="opacity:1" fill="#5b5c5d" d="M 561.5,621.5 C 564.628,622.206 567.294,623.539 569.5,625.5C 566.24,625.203 563.573,623.87 561.5,621.5 Z"/></g>
<g><path style="opacity:1" fill="#b9baba" d="M 331.5,623.5 C 334.167,624.833 336.167,626.833 337.5,629.5C 333.5,629.5 331.5,627.5 331.5,623.5 Z"/></g>
<g><path style="opacity:1" fill="#363839" d="M 569.5,625.5 C 572.167,625.5 574.833,625.5 577.5,625.5C 578.871,626.787 580.705,627.453 583,627.5C 585.295,627.453 587.129,626.787 588.5,625.5C 591.167,625.5 593.833,625.5 596.5,625.5C 587.473,629.456 578.473,629.456 569.5,625.5 Z"/></g>
<g><path style="opacity:1" fill="#949596" d="M 577.5,625.5 C 581.167,625.5 584.833,625.5 588.5,625.5C 587.129,626.787 585.295,627.453 583,627.5C 580.705,627.453 578.871,626.787 577.5,625.5 Z"/></g>
<g><path style="opacity:1" fill="#8b8c8d" d="M 664.5,631.5 C 664.843,633.483 664.176,634.817 662.5,635.5C 662.157,633.517 662.824,632.183 664.5,631.5 Z"/></g>
<g><path style="opacity:1" fill="#464748" d="M 347.5,635.5 C 350.253,636.022 352.92,636.856 355.5,638C 371.5,638.667 387.5,638.667 403.5,638C 406.824,635.872 410.491,635.039 414.5,635.5C 412.55,637.026 410.217,638.026 407.5,638.5C 389.167,639.833 370.833,639.833 352.5,638.5C 350.345,637.999 348.678,636.999 347.5,635.5 Z"/></g>
<g><path style="opacity:1" fill="#a7a7a6" d="M 658.5,641.5 C 658.649,642.552 658.483,643.552 658,644.5C 655.919,647.087 653.419,649.087 650.5,650.5C 652.623,646.974 655.29,643.974 658.5,641.5 Z"/></g>
<g><path style="opacity:1" fill="#444646" d="M 521.5,654.5 C 525.309,654.975 527.975,656.975 529.5,660.5C 525.691,660.025 523.025,658.025 521.5,654.5 Z"/></g>
<g><path style="opacity:1" fill="#afafaf" d="M 650.5,650.5 C 650.372,652.09 649.705,653.423 648.5,654.5C 646.697,655.137 645.364,656.303 644.5,658C 643.552,658.483 642.552,658.649 641.5,658.5C 643.974,655.29 646.974,652.623 650.5,650.5 Z"/></g>
<g><path style="opacity:1" fill="#47494a" d="M 536.5,664.5 C 538.435,665.15 540.435,665.483 542.5,665.5C 542.5,666.5 542.5,667.5 542.5,668.5C 539.446,668.646 537.446,667.313 536.5,664.5 Z"/></g>
<g><path style="opacity:1" fill="#8c8c8c" d="M 619.5,670.5 C 616.371,672.895 612.704,674.561 608.5,675.5C 595.001,678.552 581.334,679.219 567.5,677.5C 562.211,676.09 557.211,674.423 552.5,672.5C 559.495,674.066 566.495,675.566 573.5,677C 589.221,677.546 604.554,675.38 619.5,670.5 Z"/></g>
</svg>
