<?xml version="1.0" encoding="UTF-8"?>
<!DOCTYPE svg PUBLIC "-//W3C//DTD SVG 1.1//EN" "http://www.w3.org/Graphics/SVG/1.1/DTD/svg11.dtd">
<svg xmlns="http://www.w3.org/2000/svg" version="1.1" width="800px" height="800px" style="shape-rendering:geometricPrecision; text-rendering:geometricPrecision; image-rendering:optimizeQuality; fill-rule:evenodd; clip-rule:evenodd" xmlns:xlink="http://www.w3.org/1999/xlink">
<g><path style="opacity:1" fill="#fefefe" d="M -0.5,-0.5 C 266.167,-0.5 532.833,-0.5 799.5,-0.5C 799.5,266.167 799.5,532.833 799.5,799.5C 532.833,799.5 266.167,799.5 -0.5,799.5C -0.5,532.833 -0.5,266.167 -0.5,-0.5 Z"/></g>
<g><path style="opacity:1" fill="#565656" d="M 631.5,162.5 C 628.5,162.5 625.5,162.5 622.5,162.5C 622.5,161.5 622.5,160.5 622.5,159.5C 625.5,159.5 628.5,159.5 631.5,159.5C 631.5,160.5 631.5,161.5 631.5,162.5 Z"/></g>
<g><path style="opacity:1" fill="#545454" d="M 620.5,162.5 C 620.586,163.496 620.252,164.329 619.5,165C 617.751,165.785 616.084,166.618 614.5,167.5C 614.5,166.5 614.5,165.5 614.5,164.5C 616.5,163.833 618.5,163.167 620.5,162.5 Z"/></g>
<g><path style="opacity:1" fill="#070708" d="M 620.5,162.5 C 621.167,162.5 621.833,162.5 622.5,162.5C 625.5,162.5 628.5,162.5 631.5,162.5C 632.167,162.5 632.833,162.5 633.5,162.5C 633.5,164.5 634.5,165.5 636.5,165.5C 636.5,166.167 636.5,166.833 636.5,167.5C 636.5,170.5 636.5,173.5 636.5,176.5C 636.5,177.167 636.5,177.833 636.5,178.5C 635.504,178.414 634.671,178.748 634,179.5C 632.562,180.9 631.729,182.567 631.5,184.5C 630.5,184.5 629.5,184.5 628.5,184.5C 628.5,185.5 628.5,186.5 628.5,187.5C 627.5,187.5 626.5,187.5 625.5,187.5C 625.5,188.5 625.5,189.5 625.5,190.5C 625.179,192.048 624.179,192.715 622.5,192.5C 622.5,193.5 622.5,194.5 622.5,195.5C 621.5,195.5 620.5,195.5 619.5,195.5C 617.952,195.821 617.285,196.821 617.5,198.5C 616.5,198.5 615.5,198.5 614.5,198.5C 614.5,199.5 614.5,200.5 614.5,201.5C 613.5,201.5 612.5,201.5 611.5,201.5C 611.5,202.5 611.5,203.5 611.5,204.5C 610.9,205.9 609.9,206.9 608.5,207.5C 606.5,208.833 604.833,210.5 603.5,212.5C 602.5,212.5 601.5,212.5 600.5,212.5C 600.5,213.5 600.5,214.5 600.5,215.5C 599.5,215.5 598.5,215.5 597.5,215.5C 597.5,216.5 597.5,217.5 597.5,218.5C 596.5,218.5 595.5,218.5 594.5,218.5C 594.5,219.5 594.5,220.5 594.5,221.5C 592.5,222.833 590.833,224.5 589.5,226.5C 588.5,226.5 587.5,226.5 586.5,226.5C 586.5,227.5 586.5,228.5 586.5,229.5C 585.5,229.5 584.5,229.5 583.5,229.5C 583.5,230.5 583.5,231.5 583.5,232.5C 582.5,232.5 581.5,232.5 580.5,232.5C 580.5,233.5 580.5,234.5 580.5,235.5C 579.9,236.9 578.9,237.9 577.5,238.5C 576.167,238.5 575.5,239.167 575.5,240.5C 574.5,240.5 573.5,240.5 572.5,240.5C 572.5,241.5 572.5,242.5 572.5,243.5C 571.5,243.5 570.5,243.5 569.5,243.5C 569.5,244.5 569.5,245.5 569.5,246.5C 568.5,246.5 567.5,246.5 566.5,246.5C 566.5,247.5 566.5,248.5 566.5,249.5C 564.821,249.285 563.821,249.952 563.5,251.5C 563.5,252.5 563.5,253.5 563.5,254.5C 562.5,254.5 561.5,254.5 560.5,254.5C 560.715,256.179 560.048,257.179 558.5,257.5C 557.5,257.5 556.5,257.5 555.5,257.5C 555.5,258.5 555.5,259.5 555.5,260.5C 554.5,260.5 553.5,260.5 552.5,260.5C 552.5,261.5 552.5,262.5 552.5,263.5C 552.5,264.167 552.5,264.833 552.5,265.5C 548.657,266.019 545.99,268.019 544.5,271.5C 543.5,271.5 542.5,271.5 541.5,271.5C 541.5,272.5 541.5,273.5 541.5,274.5C 540.5,274.5 539.5,274.5 538.5,274.5C 538.5,275.5 538.5,276.5 538.5,277.5C 537.9,278.9 536.9,279.9 535.5,280.5C 533.5,281.833 531.833,283.5 530.5,285.5C 529.5,285.5 528.5,285.5 527.5,285.5C 527.5,286.5 527.5,287.5 527.5,288.5C 526.5,288.5 525.5,288.5 524.5,288.5C 524.5,289.5 524.5,290.5 524.5,291.5C 523.5,291.5 522.5,291.5 521.5,291.5C 521.5,292.5 521.5,293.5 521.5,294.5C 521.5,295.167 521.5,295.833 521.5,296.5C 518.966,296.259 517.3,297.259 516.5,299.5C 515.5,299.5 514.5,299.5 513.5,299.5C 513.5,300.5 513.5,301.5 513.5,302.5C 512.5,302.5 511.5,302.5 510.5,302.5C 510.5,303.5 510.5,304.5 510.5,305.5C 509.5,305.5 508.5,305.5 507.5,305.5C 507.5,306.5 507.5,307.5 507.5,308.5C 505.821,308.285 504.821,308.952 504.5,310.5C 504.5,310.833 504.5,311.167 504.5,311.5C 503.167,311.5 502.5,312.167 502.5,313.5C 501.5,313.5 500.5,313.5 499.5,313.5C 499.5,314.5 499.5,315.5 499.5,316.5C 498.5,316.5 497.5,316.5 496.5,316.5C 496.5,317.5 496.5,318.5 496.5,319.5C 495.5,319.5 494.5,319.5 493.5,319.5C 493.5,320.5 493.5,321.5 493.5,322.5C 493.179,324.048 492.179,324.715 490.5,324.5C 490.715,326.179 490.048,327.179 488.5,327.5C 487.5,327.5 486.5,327.5 485.5,327.5C 485.5,328.5 485.5,329.5 485.5,330.5C 484.5,330.5 483.5,330.5 482.5,330.5C 482.5,331.5 482.5,332.5 482.5,333.5C 481.5,333.5 480.5,333.5 479.5,333.5C 479.5,334.5 479.5,335.5 479.5,336.5C 478.9,337.9 477.9,338.9 476.5,339.5C 474.5,340.833 472.833,342.5 471.5,344.5C 470.5,344.5 469.5,344.5 468.5,344.5C 468.5,345.5 468.5,346.5 468.5,347.5C 467.5,347.5 466.5,347.5 465.5,347.5C 465.5,348.5 465.5,349.5 465.5,350.5C 464.5,350.5 463.5,350.5 462.5,350.5C 462.5,351.5 462.5,352.5 462.5,353.5C 460.5,354.833 458.833,356.5 457.5,358.5C 456.5,358.5 455.5,358.5 454.5,358.5C 454.5,359.5 454.5,360.5 454.5,361.5C 453.5,361.5 452.5,361.5 451.5,361.5C 451.5,362.5 451.5,363.5 451.5,364.5C 450.5,364.5 449.5,364.5 448.5,364.5C 448.5,365.5 448.5,366.5 448.5,367.5C 447.9,368.9 446.9,369.9 445.5,370.5C 444.167,370.5 443.5,371.167 443.5,372.5C 442.5,372.5 441.5,372.5 440.5,372.5C 440.5,373.5 440.5,374.5 440.5,375.5C 439.5,375.5 438.5,375.5 437.5,375.5C 437.5,376.5 437.5,377.5 437.5,378.5C 436.5,378.5 435.5,378.5 434.5,378.5C 434.5,379.5 434.5,380.5 434.5,381.5C 432.821,381.285 431.821,381.952 431.5,383.5C 431.5,383.833 431.5,384.167 431.5,384.5C 430.167,384.5 429.5,385.167 429.5,386.5C 428.5,386.5 427.5,386.5 426.5,386.5C 426.5,387.5 426.5,388.5 426.5,389.5C 425.5,389.5 424.5,389.5 423.5,389.5C 423.5,390.5 423.5,391.5 423.5,392.5C 422.5,392.5 421.5,392.5 420.5,392.5C 420.5,393.5 420.5,394.5 420.5,395.5C 420.5,396.167 420.5,396.833 420.5,397.5C 419.5,397.5 418.5,397.5 417.5,397.5C 417.5,398.5 417.5,399.5 417.5,400.5C 416.209,400.263 415.209,400.596 414.5,401.5C 413.167,401.5 412.5,402.167 412.5,403.5C 411.5,403.5 410.5,403.5 409.5,403.5C 409.5,404.5 409.5,405.5 409.5,406.5C 408.5,406.5 407.5,406.5 406.5,406.5C 406.5,407.5 406.5,408.5 406.5,409.5C 405.5,409.5 404.5,409.5 403.5,409.5C 403.5,410.5 403.5,411.5 403.5,412.5C 401.5,413.833 399.833,415.5 398.5,417.5C 397.5,417.5 396.5,417.5 395.5,417.5C 395.5,418.5 395.5,419.5 395.5,420.5C 394.5,420.5 393.5,420.5 392.5,420.5C 392.5,421.5 392.5,422.5 392.5,423.5C 391.5,423.5 390.5,423.5 389.5,423.5C 389.5,424.5 389.5,425.5 389.5,426.5C 388.9,427.9 387.9,428.9 386.5,429.5C 385.167,429.5 384.5,430.167 384.5,431.5C 383.5,431.5 382.5,431.5 381.5,431.5C 381.5,432.5 381.5,433.5 381.5,434.5C 380.5,434.5 379.5,434.5 378.5,434.5C 378.5,435.5 378.5,436.5 378.5,437.5C 377.5,437.5 376.5,437.5 375.5,437.5C 375.5,438.5 375.5,439.5 375.5,440.5C 374.9,441.9 373.9,442.9 372.5,443.5C 371.167,443.5 370.5,444.167 370.5,445.5C 369.9,446.9 368.9,447.9 367.5,448.5C 366.5,448.5 365.5,448.5 364.5,448.5C 364.5,449.5 364.5,450.5 364.5,451.5C 363.5,451.5 362.5,451.5 361.5,451.5C 361.5,452.5 361.5,453.5 361.5,454.5C 361.5,455.167 361.5,455.833 361.5,456.5C 360.5,456.5 359.5,456.5 358.5,456.5C 358.5,457.5 358.5,458.5 358.5,459.5C 357.209,459.263 356.209,459.596 355.5,460.5C 354.167,460.5 353.5,461.167 353.5,462.5C 352.5,462.5 351.5,462.5 350.5,462.5C 350.5,463.5 350.5,464.5 350.5,465.5C 349.5,465.5 348.5,465.5 347.5,465.5C 347.5,466.5 347.5,467.5 347.5,468.5C 346.5,468.5 345.5,468.5 344.5,468.5C 344.5,469.5 344.5,470.5 344.5,471.5C 342.5,472.833 340.833,474.5 339.5,476.5C 338.5,476.5 337.5,476.5 336.5,476.5C 336.5,477.5 336.5,478.5 336.5,479.5C 335.5,479.5 334.5,479.5 333.5,479.5C 333.5,480.5 333.5,481.5 333.5,482.5C 332.5,482.5 331.5,482.5 330.5,482.5C 330.5,483.5 330.5,484.5 330.5,485.5C 330.179,487.048 329.179,487.715 327.5,487.5C 327.715,489.179 327.048,490.179 325.5,490.5C 324.5,490.5 323.5,490.5 322.5,490.5C 322.5,491.5 322.5,492.5 322.5,493.5C 321.5,493.5 320.5,493.5 319.5,493.5C 319.5,494.5 319.5,495.5 319.5,496.5C 318.5,496.5 317.5,496.5 316.5,496.5C 316.5,497.5 316.5,498.5 316.5,499.5C 315.9,500.9 314.9,501.9 313.5,502.5C 312.167,502.5 311.5,503.167 311.5,504.5C 311.167,504.5 310.833,504.5 310.5,504.5C 308.952,504.821 308.285,505.821 308.5,507.5C 307.5,507.5 306.5,507.5 305.5,507.5C 305.5,508.5 305.5,509.5 305.5,510.5C 304.5,510.5 303.5,510.5 302.5,510.5C 302.5,511.5 302.5,512.5 302.5,513.5C 300.821,513.285 299.821,513.952 299.5,515.5C 299.5,515.833 299.5,516.167 299.5,516.5C 297.5,517.833 295.833,519.5 294.5,521.5C 293.5,521.5 292.5,521.5 291.5,521.5C 291.5,522.5 291.5,523.5 291.5,524.5C 290.5,524.5 289.5,524.5 288.5,524.5C 288.5,525.5 288.5,526.5 288.5,527.5C 288.5,528.167 288.5,528.833 288.5,529.5C 287.5,529.5 286.5,529.5 285.5,529.5C 285.5,530.5 285.5,531.5 285.5,532.5C 284.209,532.263 283.209,532.596 282.5,533.5C 281.167,533.5 280.5,534.167 280.5,535.5C 279.5,535.5 278.5,535.5 277.5,535.5C 277.5,536.5 277.5,537.5 277.5,538.5C 276.5,538.5 275.5,538.5 274.5,538.5C 274.5,539.5 274.5,540.5 274.5,541.5C 273.5,541.5 272.5,541.5 271.5,541.5C 271.5,542.5 271.5,543.5 271.5,544.5C 269.5,545.833 267.833,547.5 266.5,549.5C 265.5,549.5 264.5,549.5 263.5,549.5C 263.5,550.5 263.5,551.5 263.5,552.5C 262.5,552.5 261.5,552.5 260.5,552.5C 260.5,553.5 260.5,554.5 260.5,555.5C 259.5,555.5 258.5,555.5 257.5,555.5C 257.5,556.5 257.5,557.5 257.5,558.5C 257.179,560.048 256.179,560.715 254.5,560.5C 254.5,561.5 254.5,562.5 254.5,563.5C 253.5,563.5 252.5,563.5 251.5,563.5C 249.952,563.821 249.285,564.821 249.5,566.5C 248.5,566.5 247.5,566.5 246.5,566.5C 246.5,567.5 246.5,568.5 246.5,569.5C 245.5,569.5 244.5,569.5 243.5,569.5C 243.5,570.5 243.5,571.5 243.5,572.5C 242.9,573.9 241.9,574.9 240.5,575.5C 239.167,575.5 238.5,576.167 238.5,577.5C 237.5,577.5 236.5,577.5 235.5,577.5C 235.5,578.5 235.5,579.5 235.5,580.5C 234.5,580.5 233.5,580.5 232.5,580.5C 232.5,581.5 232.5,582.5 232.5,583.5C 231.5,583.5 230.5,583.5 229.5,583.5C 229.5,584.5 229.5,585.5 229.5,586.5C 229.179,588.048 228.179,588.715 226.5,588.5C 226.5,589.5 226.5,590.5 226.5,591.5C 223.966,591.259 222.3,592.259 221.5,594.5C 220.5,594.5 219.5,594.5 218.5,594.5C 218.5,595.5 218.5,596.5 218.5,597.5C 217.5,597.5 216.5,597.5 215.5,597.5C 215.5,598.5 215.5,599.5 215.5,600.5C 214.5,600.5 213.5,600.5 212.5,600.5C 212.5,601.5 212.5,602.5 212.5,603.5C 210.5,604.833 208.833,606.5 207.5,608.5C 206.5,608.5 205.5,608.5 204.5,608.5C 204.5,609.5 204.5,610.5 204.5,611.5C 203.5,611.5 202.5,611.5 201.5,611.5C 201.5,612.5 201.5,613.5 201.5,614.5C 200.5,614.5 199.5,614.5 198.5,614.5C 198.5,615.5 198.5,616.5 198.5,617.5C 198.179,619.048 197.179,619.715 195.5,619.5C 195.715,621.179 195.048,622.179 193.5,622.5C 192.5,622.5 191.5,622.5 190.5,622.5C 190.5,623.5 190.5,624.5 190.5,625.5C 189.5,625.5 188.5,625.5 187.5,625.5C 187.5,626.5 187.5,627.5 187.5,628.5C 186.5,628.5 185.5,628.5 184.5,628.5C 184.5,629.5 184.5,630.5 184.5,631.5C 183.9,632.9 182.9,633.9 181.5,634.5C 180.167,634.5 179.5,635.167 179.5,636.5C 178.5,636.5 177.5,636.5 176.5,636.5C 173.5,636.5 170.5,636.5 167.5,636.5C 166.833,636.5 166.167,636.5 165.5,636.5C 165.5,634.5 164.5,633.5 162.5,633.5C 162.5,632.833 162.5,632.167 162.5,631.5C 162.5,628.5 162.5,625.5 162.5,622.5C 162.5,621.5 162.5,620.5 162.5,619.5C 163.833,619.5 164.5,618.833 164.5,617.5C 165.1,616.1 166.1,615.1 167.5,614.5C 168.5,614.5 169.5,614.5 170.5,614.5C 170.5,613.5 170.5,612.5 170.5,611.5C 171.5,611.5 172.5,611.5 173.5,611.5C 173.5,610.5 173.5,609.5 173.5,608.5C 174.5,608.5 175.5,608.5 176.5,608.5C 176.5,607.5 176.5,606.5 176.5,605.5C 176.821,603.952 177.821,603.285 179.5,603.5C 179.285,601.821 179.952,600.821 181.5,600.5C 182.5,600.5 183.5,600.5 184.5,600.5C 184.5,599.5 184.5,598.5 184.5,597.5C 185.5,597.5 186.5,597.5 187.5,597.5C 187.5,596.5 187.5,595.5 187.5,594.5C 188.5,594.5 189.5,594.5 190.5,594.5C 190.5,593.5 190.5,592.5 190.5,591.5C 192.5,590.167 194.167,588.5 195.5,586.5C 196.5,586.5 197.5,586.5 198.5,586.5C 198.5,585.5 198.5,584.5 198.5,583.5C 199.5,583.5 200.5,583.5 201.5,583.5C 201.5,582.5 201.5,581.5 201.5,580.5C 202.5,580.5 203.5,580.5 204.5,580.5C 204.5,579.5 204.5,578.5 204.5,577.5C 206.741,576.7 207.741,575.034 207.5,572.5C 208.5,572.5 209.5,572.5 210.5,572.5C 212.048,572.179 212.715,571.179 212.5,569.5C 213.5,569.5 214.5,569.5 215.5,569.5C 215.5,568.5 215.5,567.5 215.5,566.5C 216.5,566.5 217.5,566.5 218.5,566.5C 218.5,565.5 218.5,564.5 218.5,563.5C 219.5,563.5 220.5,563.5 221.5,563.5C 221.5,562.5 221.5,561.5 221.5,560.5C 222.833,560.5 223.5,559.833 223.5,558.5C 224.1,557.1 225.1,556.1 226.5,555.5C 227.5,555.5 228.5,555.5 229.5,555.5C 229.5,554.5 229.5,553.5 229.5,552.5C 230.5,552.5 231.5,552.5 232.5,552.5C 232.5,551.5 232.5,550.5 232.5,549.5C 234.179,549.715 235.179,549.048 235.5,547.5C 235.5,546.5 235.5,545.5 235.5,544.5C 236.5,544.5 237.5,544.5 238.5,544.5C 238.285,542.821 238.952,541.821 240.5,541.5C 241.5,541.5 242.5,541.5 243.5,541.5C 243.5,540.5 243.5,539.5 243.5,538.5C 244.5,538.5 245.5,538.5 246.5,538.5C 246.5,537.5 246.5,536.5 246.5,535.5C 247.5,535.5 248.5,535.5 249.5,535.5C 249.5,534.5 249.5,533.5 249.5,532.5C 251.5,531.167 253.167,529.5 254.5,527.5C 255.5,527.5 256.5,527.5 257.5,527.5C 257.5,526.5 257.5,525.5 257.5,524.5C 258.5,524.5 259.5,524.5 260.5,524.5C 260.5,523.5 260.5,522.5 260.5,521.5C 261.5,521.5 262.5,521.5 263.5,521.5C 263.5,520.5 263.5,519.5 263.5,518.5C 264.833,518.5 265.5,517.833 265.5,516.5C 266.404,515.791 266.737,514.791 266.5,513.5C 267.5,513.5 268.5,513.5 269.5,513.5C 269.5,512.5 269.5,511.5 269.5,510.5C 270.167,510.5 270.833,510.5 271.5,510.5C 272.5,510.5 273.5,510.5 274.5,510.5C 274.5,509.5 274.5,508.5 274.5,507.5C 275.5,507.5 276.5,507.5 277.5,507.5C 277.5,506.5 277.5,505.5 277.5,504.5C 279.5,503.167 281.167,501.5 282.5,499.5C 282.833,499.5 283.167,499.5 283.5,499.5C 285.048,499.179 285.715,498.179 285.5,496.5C 286.5,496.5 287.5,496.5 288.5,496.5C 288.5,495.5 288.5,494.5 288.5,493.5C 289.5,493.5 290.5,493.5 291.5,493.5C 291.5,492.5 291.5,491.5 291.5,490.5C 293.179,490.715 294.179,490.048 294.5,488.5C 294.5,488.167 294.5,487.833 294.5,487.5C 295.833,487.5 296.5,486.833 296.5,485.5C 297.1,484.1 298.1,483.1 299.5,482.5C 300.5,482.5 301.5,482.5 302.5,482.5C 302.5,481.5 302.5,480.5 302.5,479.5C 303.5,479.5 304.5,479.5 305.5,479.5C 305.5,478.5 305.5,477.5 305.5,476.5C 306.5,476.5 307.5,476.5 308.5,476.5C 308.5,475.5 308.5,474.5 308.5,473.5C 308.821,471.952 309.821,471.285 311.5,471.5C 311.285,469.821 311.952,468.821 313.5,468.5C 314.5,468.5 315.5,468.5 316.5,468.5C 316.5,467.5 316.5,466.5 316.5,465.5C 317.5,465.5 318.5,465.5 319.5,465.5C 319.5,464.5 319.5,463.5 319.5,462.5C 320.5,462.5 321.5,462.5 322.5,462.5C 322.5,461.5 322.5,460.5 322.5,459.5C 324.5,458.167 326.167,456.5 327.5,454.5C 328.5,454.5 329.5,454.5 330.5,454.5C 330.5,453.5 330.5,452.5 330.5,451.5C 331.5,451.5 332.5,451.5 333.5,451.5C 333.5,450.5 333.5,449.5 333.5,448.5C 334.5,448.5 335.5,448.5 336.5,448.5C 336.5,447.5 336.5,446.5 336.5,445.5C 337.833,445.5 338.5,444.833 338.5,443.5C 339.404,442.791 339.737,441.791 339.5,440.5C 340.5,440.5 341.5,440.5 342.5,440.5C 342.5,439.5 342.5,438.5 342.5,437.5C 343.167,437.5 343.833,437.5 344.5,437.5C 345.5,437.5 346.5,437.5 347.5,437.5C 347.5,436.5 347.5,435.5 347.5,434.5C 348.5,434.5 349.5,434.5 350.5,434.5C 350.5,433.5 350.5,432.5 350.5,431.5C 351.1,430.1 352.1,429.1 353.5,428.5C 354.833,428.5 355.5,427.833 355.5,426.5C 356.1,425.1 357.1,424.1 358.5,423.5C 359.5,423.5 360.5,423.5 361.5,423.5C 361.5,422.5 361.5,421.5 361.5,420.5C 362.5,420.5 363.5,420.5 364.5,420.5C 364.5,419.5 364.5,418.5 364.5,417.5C 365.5,417.5 366.5,417.5 367.5,417.5C 367.5,416.5 367.5,415.5 367.5,414.5C 368.833,414.5 369.5,413.833 369.5,412.5C 370.1,411.1 371.1,410.1 372.5,409.5C 373.5,409.5 374.5,409.5 375.5,409.5C 375.5,408.5 375.5,407.5 375.5,406.5C 376.5,406.5 377.5,406.5 378.5,406.5C 378.5,405.5 378.5,404.5 378.5,403.5C 379.5,403.5 380.5,403.5 381.5,403.5C 381.5,402.5 381.5,401.5 381.5,400.5C 383.5,399.167 385.167,397.5 386.5,395.5C 387.5,395.5 388.5,395.5 389.5,395.5C 389.5,394.5 389.5,393.5 389.5,392.5C 390.5,392.5 391.5,392.5 392.5,392.5C 392.5,391.5 392.5,390.5 392.5,389.5C 393.5,389.5 394.5,389.5 395.5,389.5C 395.5,388.5 395.5,387.5 395.5,386.5C 396.833,386.5 397.5,385.833 397.5,384.5C 398.404,383.791 398.737,382.791 398.5,381.5C 399.5,381.5 400.5,381.5 401.5,381.5C 401.5,380.5 401.5,379.5 401.5,378.5C 402.167,378.5 402.833,378.5 403.5,378.5C 404.5,378.5 405.5,378.5 406.5,378.5C 406.5,377.5 406.5,376.5 406.5,375.5C 407.5,375.5 408.5,375.5 409.5,375.5C 409.5,374.5 409.5,373.5 409.5,372.5C 410.5,372.5 411.5,372.5 412.5,372.5C 412.5,371.5 412.5,370.5 412.5,369.5C 413.833,369.5 414.5,368.833 414.5,367.5C 414.833,367.5 415.167,367.5 415.5,367.5C 417.048,367.179 417.715,366.179 417.5,364.5C 418.5,364.5 419.5,364.5 420.5,364.5C 420.5,363.5 420.5,362.5 420.5,361.5C 421.5,361.5 422.5,361.5 423.5,361.5C 423.5,360.5 423.5,359.5 423.5,358.5C 424.5,358.5 425.5,358.5 426.5,358.5C 426.5,357.5 426.5,356.5 426.5,355.5C 427.833,355.5 428.5,354.833 428.5,353.5C 429.1,352.1 430.1,351.1 431.5,350.5C 432.5,350.5 433.5,350.5 434.5,350.5C 434.5,349.5 434.5,348.5 434.5,347.5C 435.5,347.5 436.5,347.5 437.5,347.5C 437.5,346.5 437.5,345.5 437.5,344.5C 438.5,344.5 439.5,344.5 440.5,344.5C 440.5,343.5 440.5,342.5 440.5,341.5C 442.5,340.167 444.167,338.5 445.5,336.5C 446.5,336.5 447.5,336.5 448.5,336.5C 448.5,335.5 448.5,334.5 448.5,333.5C 449.5,333.5 450.5,333.5 451.5,333.5C 451.5,332.5 451.5,331.5 451.5,330.5C 452.5,330.5 453.5,330.5 454.5,330.5C 454.5,329.5 454.5,328.5 454.5,327.5C 455.833,327.5 456.5,326.833 456.5,325.5C 457.167,325.5 457.5,325.167 457.5,324.5C 458.833,324.5 459.5,323.833 459.5,322.5C 460.404,321.791 460.737,320.791 460.5,319.5C 461.167,319.5 461.833,319.5 462.5,319.5C 463.5,319.5 464.5,319.5 465.5,319.5C 465.5,318.5 465.5,317.5 465.5,316.5C 466.5,316.5 467.5,316.5 468.5,316.5C 468.5,315.5 468.5,314.5 468.5,313.5C 469.5,313.5 470.5,313.5 471.5,313.5C 471.5,312.5 471.5,311.5 471.5,310.5C 471.821,308.952 472.821,308.285 474.5,308.5C 474.285,306.821 474.952,305.821 476.5,305.5C 477.5,305.5 478.5,305.5 479.5,305.5C 479.5,304.5 479.5,303.5 479.5,302.5C 480.5,302.5 481.5,302.5 482.5,302.5C 482.5,301.5 482.5,300.5 482.5,299.5C 483.5,299.5 484.5,299.5 485.5,299.5C 485.5,298.5 485.5,297.5 485.5,296.5C 486.833,296.5 487.5,295.833 487.5,294.5C 487.833,294.5 488.167,294.5 488.5,294.5C 490.048,294.179 490.715,293.179 490.5,291.5C 491.5,291.5 492.5,291.5 493.5,291.5C 493.5,290.5 493.5,289.5 493.5,288.5C 494.5,288.5 495.5,288.5 496.5,288.5C 496.5,287.5 496.5,286.5 496.5,285.5C 497.5,285.5 498.5,285.5 499.5,285.5C 499.5,284.5 499.5,283.5 499.5,282.5C 501.741,281.7 502.741,280.034 502.5,277.5C 503.167,277.5 503.833,277.5 504.5,277.5C 505.5,277.5 506.5,277.5 507.5,277.5C 507.5,276.5 507.5,275.5 507.5,274.5C 508.5,274.5 509.5,274.5 510.5,274.5C 510.5,273.5 510.5,272.5 510.5,271.5C 511.5,271.5 512.5,271.5 513.5,271.5C 513.5,270.5 513.5,269.5 513.5,268.5C 516.981,267.01 518.981,264.343 519.5,260.5C 520.167,260.5 520.833,260.5 521.5,260.5C 522.5,260.5 523.5,260.5 524.5,260.5C 524.5,259.5 524.5,258.5 524.5,257.5C 525.5,257.5 526.5,257.5 527.5,257.5C 527.5,256.5 527.5,255.5 527.5,254.5C 529.5,253.167 531.167,251.5 532.5,249.5C 533.1,248.1 534.1,247.1 535.5,246.5C 536.5,246.5 537.5,246.5 538.5,246.5C 538.5,245.5 538.5,244.5 538.5,243.5C 539.5,243.5 540.5,243.5 541.5,243.5C 541.5,242.5 541.5,241.5 541.5,240.5C 541.821,238.952 542.821,238.285 544.5,238.5C 544.5,237.5 544.5,236.5 544.5,235.5C 545.5,235.5 546.5,235.5 547.5,235.5C 549.048,235.179 549.715,234.179 549.5,232.5C 550.5,232.5 551.5,232.5 552.5,232.5C 552.5,231.5 552.5,230.5 552.5,229.5C 553.5,229.5 554.5,229.5 555.5,229.5C 555.5,228.5 555.5,227.5 555.5,226.5C 556.5,226.5 557.5,226.5 558.5,226.5C 558.5,225.5 558.5,224.5 558.5,223.5C 559.833,223.5 560.5,222.833 560.5,221.5C 561.1,220.1 562.1,219.1 563.5,218.5C 564.5,218.5 565.5,218.5 566.5,218.5C 566.5,217.5 566.5,216.5 566.5,215.5C 567.5,215.5 568.5,215.5 569.5,215.5C 569.5,214.5 569.5,213.5 569.5,212.5C 570.5,212.5 571.5,212.5 572.5,212.5C 572.5,211.5 572.5,210.5 572.5,209.5C 574.5,208.167 576.167,206.5 577.5,204.5C 578.5,204.5 579.5,204.5 580.5,204.5C 580.5,203.5 580.5,202.5 580.5,201.5C 581.5,201.5 582.5,201.5 583.5,201.5C 583.5,200.5 583.5,199.5 583.5,198.5C 584.5,198.5 585.5,198.5 586.5,198.5C 586.5,197.5 586.5,196.5 586.5,195.5C 589.981,194.01 591.981,191.343 592.5,187.5C 593.167,187.5 593.833,187.5 594.5,187.5C 595.5,187.5 596.5,187.5 597.5,187.5C 597.5,186.5 597.5,185.5 597.5,184.5C 598.5,184.5 599.5,184.5 600.5,184.5C 600.5,183.5 600.5,182.5 600.5,181.5C 602.179,181.715 603.179,181.048 603.5,179.5C 603.5,178.5 603.5,177.5 603.5,176.5C 604.5,176.5 605.5,176.5 606.5,176.5C 606.285,174.821 606.952,173.821 608.5,173.5C 609.5,173.5 610.5,173.5 611.5,173.5C 611.5,172.5 611.5,171.5 611.5,170.5C 612.5,170.5 613.5,170.5 614.5,170.5C 614.5,169.5 614.5,168.5 614.5,167.5C 616.084,166.618 617.751,165.785 619.5,165C 620.252,164.329 620.586,163.496 620.5,162.5 Z"/></g>
<g><path style="opacity:1" fill="#5b5b5b" d="M 633.5,162.5 C 634.5,162.5 635.5,162.5 636.5,162.5C 636.5,163.5 636.5,164.5 636.5,165.5C 634.5,165.5 633.5,164.5 633.5,162.5 Z"/></g>
<g><path style="opacity:1" fill="#5e5e5e" d="M 614.5,167.5 C 614.5,168.5 614.5,169.5 614.5,170.5C 613.5,170.5 612.5,170.5 611.5,170.5C 611.5,169.5 611.5,168.5 611.5,167.5C 612.5,167.5 613.5,167.5 614.5,167.5 Z"/></g>
<g><path style="opacity:1" fill="#565655" d="M 636.5,167.5 C 637.5,167.5 638.5,167.5 639.5,167.5C 639.5,170.5 639.5,173.5 639.5,176.5C 638.5,176.5 637.5,176.5 636.5,176.5C 636.5,173.5 636.5,170.5 636.5,167.5 Z"/></g>
<g><path style="opacity:1" fill="#636363" d="M 611.5,170.5 C 611.5,171.5 611.5,172.5 611.5,173.5C 610.5,173.5 609.5,173.5 608.5,173.5C 608.5,172.5 608.5,171.5 608.5,170.5C 609.5,170.5 610.5,170.5 611.5,170.5 Z"/></g>
<g><path style="opacity:1" fill="#545453" d="M 603.5,179.5 C 603.179,181.048 602.179,181.715 600.5,181.5C 600.821,179.952 601.821,179.285 603.5,179.5 Z"/></g>
<g><path style="opacity:1" fill="#585959" d="M 636.5,178.5 C 635.833,180.5 635.167,182.5 634.5,184.5C 633.5,184.5 632.5,184.5 631.5,184.5C 631.729,182.567 632.562,180.9 634,179.5C 634.671,178.748 635.504,178.414 636.5,178.5 Z"/></g>
<g><path style="opacity:1" fill="#5e5e5d" d="M 600.5,181.5 C 600.5,182.5 600.5,183.5 600.5,184.5C 599.5,184.5 598.5,184.5 597.5,184.5C 597.5,183.5 597.5,182.5 597.5,181.5C 598.5,181.5 599.5,181.5 600.5,181.5 Z"/></g>
<g><path style="opacity:1" fill="#5b5c5b" d="M 597.5,184.5 C 597.5,185.5 597.5,186.5 597.5,187.5C 596.5,187.5 595.5,187.5 594.5,187.5C 594.5,186.5 594.5,185.5 594.5,184.5C 595.5,184.5 596.5,184.5 597.5,184.5 Z"/></g>
<g><path style="opacity:1" fill="#5e5e5e" d="M 631.5,184.5 C 631.5,185.5 631.5,186.5 631.5,187.5C 630.5,187.5 629.5,187.5 628.5,187.5C 628.5,186.5 628.5,185.5 628.5,184.5C 629.5,184.5 630.5,184.5 631.5,184.5 Z"/></g>
<g><path style="opacity:1" fill="#636363" d="M 628.5,187.5 C 628.5,188.5 628.5,189.5 628.5,190.5C 627.5,190.5 626.5,190.5 625.5,190.5C 625.5,189.5 625.5,188.5 625.5,187.5C 626.5,187.5 627.5,187.5 628.5,187.5 Z"/></g>
<g><path style="opacity:1" fill="#8e8e8e" d="M 592.5,187.5 C 591.981,191.343 589.981,194.01 586.5,195.5C 587.167,193.5 587.833,191.5 588.5,189.5C 590.199,189.473 591.533,188.806 592.5,187.5 Z"/></g>
<g><path style="opacity:1" fill="#4f4f50" d="M 586.5,195.5 C 586.5,196.5 586.5,197.5 586.5,198.5C 585.5,198.5 584.5,198.5 583.5,198.5C 583.5,197.5 583.5,196.5 583.5,195.5C 584.5,195.5 585.5,195.5 586.5,195.5 Z"/></g>
<g><path style="opacity:1" fill="#545453" d="M 619.5,195.5 C 619.715,197.179 619.048,198.179 617.5,198.5C 617.285,196.821 617.952,195.821 619.5,195.5 Z"/></g>
<g><path style="opacity:1" fill="#666665" d="M 583.5,198.5 C 583.5,199.5 583.5,200.5 583.5,201.5C 582.5,201.5 581.5,201.5 580.5,201.5C 580.5,200.5 580.5,199.5 580.5,198.5C 581.5,198.5 582.5,198.5 583.5,198.5 Z"/></g>
<g><path style="opacity:1" fill="#5e5e5d" d="M 617.5,198.5 C 617.5,199.5 617.5,200.5 617.5,201.5C 616.5,201.5 615.5,201.5 614.5,201.5C 614.5,200.5 614.5,199.5 614.5,198.5C 615.5,198.5 616.5,198.5 617.5,198.5 Z"/></g>
<g><path style="opacity:1" fill="#5e5e5d" d="M 580.5,201.5 C 580.5,202.5 580.5,203.5 580.5,204.5C 579.5,204.5 578.5,204.5 577.5,204.5C 577.5,203.5 577.5,202.5 577.5,201.5C 578.5,201.5 579.5,201.5 580.5,201.5 Z"/></g>
<g><path style="opacity:1" fill="#5b5c5b" d="M 614.5,201.5 C 614.5,202.5 614.5,203.5 614.5,204.5C 613.5,204.5 612.5,204.5 611.5,204.5C 611.5,203.5 611.5,202.5 611.5,201.5C 612.5,201.5 613.5,201.5 614.5,201.5 Z"/></g>
<g><path style="opacity:1" fill="#767676" d="M 577.5,204.5 C 576.167,206.5 574.5,208.167 572.5,209.5C 572.833,206.5 574.5,204.833 577.5,204.5 Z"/></g>
<g><path style="opacity:1" fill="#676766" d="M 572.5,209.5 C 572.5,210.5 572.5,211.5 572.5,212.5C 571.5,212.5 570.5,212.5 569.5,212.5C 569.5,211.5 569.5,210.5 569.5,209.5C 570.5,209.5 571.5,209.5 572.5,209.5 Z"/></g>
<g><path style="opacity:1" fill="#7d7d7c" d="M 608.5,207.5 C 608.167,210.5 606.5,212.167 603.5,212.5C 604.833,210.5 606.5,208.833 608.5,207.5 Z"/></g>
<g><path style="opacity:1" fill="#696968" d="M 569.5,212.5 C 569.5,213.5 569.5,214.5 569.5,215.5C 568.5,215.5 567.5,215.5 566.5,215.5C 566.5,214.5 566.5,213.5 566.5,212.5C 567.5,212.5 568.5,212.5 569.5,212.5 Z"/></g>
<g><path style="opacity:1" fill="#4f4f50" d="M 603.5,212.5 C 603.5,213.5 603.5,214.5 603.5,215.5C 602.5,215.5 601.5,215.5 600.5,215.5C 600.5,214.5 600.5,213.5 600.5,212.5C 601.5,212.5 602.5,212.5 603.5,212.5 Z"/></g>
<g><path style="opacity:1" fill="#535252" d="M 566.5,215.5 C 566.5,216.5 566.5,217.5 566.5,218.5C 565.5,218.5 564.5,218.5 563.5,218.5C 563.5,217.5 563.5,216.5 563.5,215.5C 564.5,215.5 565.5,215.5 566.5,215.5 Z"/></g>
<g><path style="opacity:1" fill="#757574" d="M 600.5,215.5 C 600.5,216.5 600.5,217.5 600.5,218.5C 599.5,218.5 598.5,218.5 597.5,218.5C 597.5,217.5 597.5,216.5 597.5,215.5C 598.5,215.5 599.5,215.5 600.5,215.5 Z"/></g>
<g><path style="opacity:1" fill="#5e5e5d" d="M 597.5,218.5 C 597.5,219.5 597.5,220.5 597.5,221.5C 596.5,221.5 595.5,221.5 594.5,221.5C 594.5,220.5 594.5,219.5 594.5,218.5C 595.5,218.5 596.5,218.5 597.5,218.5 Z"/></g>
<g><path style="opacity:1" fill="#595a58" d="M 560.5,221.5 C 560.5,222.833 559.833,223.5 558.5,223.5C 558.5,222.167 559.167,221.5 560.5,221.5 Z"/></g>
<g><path style="opacity:1" fill="#646464" d="M 558.5,223.5 C 558.5,224.5 558.5,225.5 558.5,226.5C 557.5,226.5 556.5,226.5 555.5,226.5C 555.5,225.5 555.5,224.5 555.5,223.5C 556.5,223.5 557.5,223.5 558.5,223.5 Z"/></g>
<g><path style="opacity:1" fill="#767676" d="M 594.5,221.5 C 594.167,224.5 592.5,226.167 589.5,226.5C 590.833,224.5 592.5,222.833 594.5,221.5 Z"/></g>
<g><path style="opacity:1" fill="#545454" d="M 555.5,226.5 C 555.5,227.5 555.5,228.5 555.5,229.5C 554.5,229.5 553.5,229.5 552.5,229.5C 552.5,228.5 552.5,227.5 552.5,226.5C 553.5,226.5 554.5,226.5 555.5,226.5 Z"/></g>
<g><path style="opacity:1" fill="#676766" d="M 589.5,226.5 C 589.5,227.5 589.5,228.5 589.5,229.5C 588.5,229.5 587.5,229.5 586.5,229.5C 586.5,228.5 586.5,227.5 586.5,226.5C 587.5,226.5 588.5,226.5 589.5,226.5 Z"/></g>
<g><path style="opacity:1" fill="#5b5b5a" d="M 552.5,229.5 C 552.5,230.5 552.5,231.5 552.5,232.5C 551.5,232.5 550.5,232.5 549.5,232.5C 549.5,231.5 549.5,230.5 549.5,229.5C 550.5,229.5 551.5,229.5 552.5,229.5 Z"/></g>
<g><path style="opacity:1" fill="#787877" d="M 586.5,229.5 C 586.5,230.5 586.5,231.5 586.5,232.5C 585.5,232.5 584.5,232.5 583.5,232.5C 583.5,231.5 583.5,230.5 583.5,229.5C 584.5,229.5 585.5,229.5 586.5,229.5 Z"/></g>
<g><path style="opacity:1" fill="#545453" d="M 549.5,232.5 C 549.715,234.179 549.048,235.179 547.5,235.5C 547.285,233.821 547.952,232.821 549.5,232.5 Z"/></g>
<g><path style="opacity:1" fill="#535252" d="M 583.5,232.5 C 583.5,233.5 583.5,234.5 583.5,235.5C 582.5,235.5 581.5,235.5 580.5,235.5C 580.5,234.5 580.5,233.5 580.5,232.5C 581.5,232.5 582.5,232.5 583.5,232.5 Z"/></g>
<g><path style="opacity:1" fill="#595a58" d="M 577.5,238.5 C 577.5,239.833 576.833,240.5 575.5,240.5C 575.5,239.167 576.167,238.5 577.5,238.5 Z"/></g>
<g><path style="opacity:1" fill="#5e5e5d" d="M 541.5,240.5 C 541.5,241.5 541.5,242.5 541.5,243.5C 540.5,243.5 539.5,243.5 538.5,243.5C 538.5,242.5 538.5,241.5 538.5,240.5C 539.5,240.5 540.5,240.5 541.5,240.5 Z"/></g>
<g><path style="opacity:1" fill="#656564" d="M 575.5,240.5 C 575.5,241.5 575.5,242.5 575.5,243.5C 574.5,243.5 573.5,243.5 572.5,243.5C 572.5,242.5 572.5,241.5 572.5,240.5C 573.5,240.5 574.5,240.5 575.5,240.5 Z"/></g>
<g><path style="opacity:1" fill="#616160" d="M 538.5,243.5 C 538.5,244.5 538.5,245.5 538.5,246.5C 537.5,246.5 536.5,246.5 535.5,246.5C 535.5,245.5 535.5,244.5 535.5,243.5C 536.5,243.5 537.5,243.5 538.5,243.5 Z"/></g>
<g><path style="opacity:1" fill="#545454" d="M 572.5,243.5 C 572.5,244.5 572.5,245.5 572.5,246.5C 571.5,246.5 570.5,246.5 569.5,246.5C 569.5,245.5 569.5,244.5 569.5,243.5C 570.5,243.5 571.5,243.5 572.5,243.5 Z"/></g>
<g><path style="opacity:1" fill="#5b5b5a" d="M 569.5,246.5 C 569.5,247.5 569.5,248.5 569.5,249.5C 568.5,249.5 567.5,249.5 566.5,249.5C 566.5,248.5 566.5,247.5 566.5,246.5C 567.5,246.5 568.5,246.5 569.5,246.5 Z"/></g>
<g><path style="opacity:1" fill="#545453" d="M 566.5,249.5 C 566.179,251.048 565.179,251.715 563.5,251.5C 563.821,249.952 564.821,249.285 566.5,249.5 Z"/></g>
<g><path style="opacity:1" fill="#7f7f7f" d="M 532.5,249.5 C 531.167,251.5 529.5,253.167 527.5,254.5C 527.833,251.5 529.5,249.833 532.5,249.5 Z"/></g>
<g><path style="opacity:1" fill="#585858" d="M 527.5,254.5 C 527.5,255.5 527.5,256.5 527.5,257.5C 526.5,257.5 525.5,257.5 524.5,257.5C 524.5,256.5 524.5,255.5 524.5,254.5C 525.5,254.5 526.5,254.5 527.5,254.5 Z"/></g>
<g><path style="opacity:1" fill="#5a5a5a" d="M 524.5,257.5 C 524.5,258.5 524.5,259.5 524.5,260.5C 523.5,260.5 522.5,260.5 521.5,260.5C 521.5,259.5 521.5,258.5 521.5,257.5C 522.5,257.5 523.5,257.5 524.5,257.5 Z"/></g>
<g><path style="opacity:1" fill="#5e5e5d" d="M 558.5,257.5 C 558.5,258.5 558.5,259.5 558.5,260.5C 557.5,260.5 556.5,260.5 555.5,260.5C 555.5,259.5 555.5,258.5 555.5,257.5C 556.5,257.5 557.5,257.5 558.5,257.5 Z"/></g>
<g><path style="opacity:1" fill="#616160" d="M 555.5,260.5 C 555.5,261.5 555.5,262.5 555.5,263.5C 554.5,263.5 553.5,263.5 552.5,263.5C 552.5,262.5 552.5,261.5 552.5,260.5C 553.5,260.5 554.5,260.5 555.5,260.5 Z"/></g>
<g><path style="opacity:1" fill="#8d8d8c" d="M 519.5,260.5 C 518.981,264.343 516.981,267.01 513.5,268.5C 514.167,266.5 514.833,264.5 515.5,262.5C 517.199,262.473 518.533,261.806 519.5,260.5 Z"/></g>
<g><path style="opacity:1" fill="#5f605f" d="M 513.5,268.5 C 513.5,269.5 513.5,270.5 513.5,271.5C 512.5,271.5 511.5,271.5 510.5,271.5C 510.5,270.5 510.5,269.5 510.5,268.5C 511.5,268.5 512.5,268.5 513.5,268.5 Z"/></g>
<g><path style="opacity:1" fill="#8d8d8c" d="M 552.5,265.5 C 550.574,268.466 547.907,270.466 544.5,271.5C 545.99,268.019 548.657,266.019 552.5,265.5 Z"/></g>
<g><path style="opacity:1" fill="#696968" d="M 510.5,271.5 C 510.5,272.5 510.5,273.5 510.5,274.5C 509.5,274.5 508.5,274.5 507.5,274.5C 507.5,273.5 507.5,272.5 507.5,271.5C 508.5,271.5 509.5,271.5 510.5,271.5 Z"/></g>
<g><path style="opacity:1" fill="#585858" d="M 544.5,271.5 C 544.5,272.5 544.5,273.5 544.5,274.5C 543.5,274.5 542.5,274.5 541.5,274.5C 541.5,273.5 541.5,272.5 541.5,271.5C 542.5,271.5 543.5,271.5 544.5,271.5 Z"/></g>
<g><path style="opacity:1" fill="#5b5b5a" d="M 507.5,274.5 C 507.5,275.5 507.5,276.5 507.5,277.5C 506.5,277.5 505.5,277.5 504.5,277.5C 504.5,276.5 504.5,275.5 504.5,274.5C 505.5,274.5 506.5,274.5 507.5,274.5 Z"/></g>
<g><path style="opacity:1" fill="#6a6a6a" d="M 541.5,274.5 C 541.5,275.5 541.5,276.5 541.5,277.5C 540.5,277.5 539.5,277.5 538.5,277.5C 538.5,276.5 538.5,275.5 538.5,274.5C 539.5,274.5 540.5,274.5 541.5,274.5 Z"/></g>
<g><path style="opacity:1" fill="#717170" d="M 502.5,277.5 C 502.741,280.034 501.741,281.7 499.5,282.5C 499.721,280.336 500.721,278.67 502.5,277.5 Z"/></g>
<g><path style="opacity:1" fill="#676766" d="M 499.5,282.5 C 499.5,283.5 499.5,284.5 499.5,285.5C 498.5,285.5 497.5,285.5 496.5,285.5C 496.5,284.5 496.5,283.5 496.5,282.5C 497.5,282.5 498.5,282.5 499.5,282.5 Z"/></g>
<g><path style="opacity:1" fill="#7a7b7a" d="M 535.5,280.5 C 535.167,283.5 533.5,285.167 530.5,285.5C 531.833,283.5 533.5,281.833 535.5,280.5 Z"/></g>
<g><path style="opacity:1" fill="#5e5e5e" d="M 496.5,285.5 C 496.5,286.5 496.5,287.5 496.5,288.5C 495.5,288.5 494.5,288.5 493.5,288.5C 493.5,287.5 493.5,286.5 493.5,285.5C 494.5,285.5 495.5,285.5 496.5,285.5 Z"/></g>
<g><path style="opacity:1" fill="#606060" d="M 530.5,285.5 C 530.5,286.5 530.5,287.5 530.5,288.5C 529.5,288.5 528.5,288.5 527.5,288.5C 527.5,287.5 527.5,286.5 527.5,285.5C 528.5,285.5 529.5,285.5 530.5,285.5 Z"/></g>
<g><path style="opacity:1" fill="#535252" d="M 493.5,288.5 C 493.5,289.5 493.5,290.5 493.5,291.5C 492.5,291.5 491.5,291.5 490.5,291.5C 490.5,290.5 490.5,289.5 490.5,288.5C 491.5,288.5 492.5,288.5 493.5,288.5 Z"/></g>
<g><path style="opacity:1" fill="#787877" d="M 527.5,288.5 C 527.5,289.5 527.5,290.5 527.5,291.5C 526.5,291.5 525.5,291.5 524.5,291.5C 524.5,290.5 524.5,289.5 524.5,288.5C 525.5,288.5 526.5,288.5 527.5,288.5 Z"/></g>
<g><path style="opacity:1" fill="#545453" d="M 490.5,291.5 C 490.715,293.179 490.048,294.179 488.5,294.5C 488.285,292.821 488.952,291.821 490.5,291.5 Z"/></g>
<g><path style="opacity:1" fill="#5b5b5a" d="M 524.5,291.5 C 524.5,292.5 524.5,293.5 524.5,294.5C 523.5,294.5 522.5,294.5 521.5,294.5C 521.5,293.5 521.5,292.5 521.5,291.5C 522.5,291.5 523.5,291.5 524.5,291.5 Z"/></g>
<g><path style="opacity:1" fill="#595a58" d="M 487.5,294.5 C 487.5,295.833 486.833,296.5 485.5,296.5C 485.5,295.167 486.167,294.5 487.5,294.5 Z"/></g>
<g><path style="opacity:1" fill="#5d5c5c" d="M 485.5,296.5 C 485.5,297.5 485.5,298.5 485.5,299.5C 484.5,299.5 483.5,299.5 482.5,299.5C 482.5,298.5 482.5,297.5 482.5,296.5C 483.5,296.5 484.5,296.5 485.5,296.5 Z"/></g>
<g><path style="opacity:1" fill="#8a8a8a" d="M 521.5,296.5 C 520.33,298.279 518.664,299.279 516.5,299.5C 517.3,297.259 518.966,296.259 521.5,296.5 Z"/></g>
<g><path style="opacity:1" fill="#565656" d="M 482.5,299.5 C 482.5,300.5 482.5,301.5 482.5,302.5C 481.5,302.5 480.5,302.5 479.5,302.5C 479.5,301.5 479.5,300.5 479.5,299.5C 480.5,299.5 481.5,299.5 482.5,299.5 Z"/></g>
<g><path style="opacity:1" fill="#676766" d="M 516.5,299.5 C 516.5,300.5 516.5,301.5 516.5,302.5C 515.5,302.5 514.5,302.5 513.5,302.5C 513.5,301.5 513.5,300.5 513.5,299.5C 514.5,299.5 515.5,299.5 516.5,299.5 Z"/></g>
<g><path style="opacity:1" fill="#636363" d="M 479.5,302.5 C 479.5,303.5 479.5,304.5 479.5,305.5C 478.5,305.5 477.5,305.5 476.5,305.5C 476.5,304.5 476.5,303.5 476.5,302.5C 477.5,302.5 478.5,302.5 479.5,302.5 Z"/></g>
<g><path style="opacity:1" fill="#5e5e5e" d="M 513.5,302.5 C 513.5,303.5 513.5,304.5 513.5,305.5C 512.5,305.5 511.5,305.5 510.5,305.5C 510.5,304.5 510.5,303.5 510.5,302.5C 511.5,302.5 512.5,302.5 513.5,302.5 Z"/></g>
<g><path style="opacity:1" fill="#535252" d="M 510.5,305.5 C 510.5,306.5 510.5,307.5 510.5,308.5C 509.5,308.5 508.5,308.5 507.5,308.5C 507.5,307.5 507.5,306.5 507.5,305.5C 508.5,305.5 509.5,305.5 510.5,305.5 Z"/></g>
<g><path style="opacity:1" fill="#545453" d="M 507.5,308.5 C 507.179,310.048 506.179,310.715 504.5,310.5C 504.821,308.952 505.821,308.285 507.5,308.5 Z"/></g>
<g><path style="opacity:1" fill="#646464" d="M 471.5,310.5 C 471.5,311.5 471.5,312.5 471.5,313.5C 470.5,313.5 469.5,313.5 468.5,313.5C 468.5,312.5 468.5,311.5 468.5,310.5C 469.5,310.5 470.5,310.5 471.5,310.5 Z"/></g>
<g><path style="opacity:1" fill="#595a58" d="M 504.5,311.5 C 504.5,312.833 503.833,313.5 502.5,313.5C 502.5,312.167 503.167,311.5 504.5,311.5 Z"/></g>
<g><path style="opacity:1" fill="#5e5e5d" d="M 468.5,313.5 C 468.5,314.5 468.5,315.5 468.5,316.5C 467.5,316.5 466.5,316.5 465.5,316.5C 465.5,315.5 465.5,314.5 465.5,313.5C 466.5,313.5 467.5,313.5 468.5,313.5 Z"/></g>
<g><path style="opacity:1" fill="#5d5c5c" d="M 502.5,313.5 C 502.5,314.5 502.5,315.5 502.5,316.5C 501.5,316.5 500.5,316.5 499.5,316.5C 499.5,315.5 499.5,314.5 499.5,313.5C 500.5,313.5 501.5,313.5 502.5,313.5 Z"/></g>
<g><path style="opacity:1" fill="#616261" d="M 465.5,316.5 C 465.5,317.5 465.5,318.5 465.5,319.5C 464.5,319.5 463.5,319.5 462.5,319.5C 462.5,318.5 462.5,317.5 462.5,316.5C 463.5,316.5 464.5,316.5 465.5,316.5 Z"/></g>
<g><path style="opacity:1" fill="#565656" d="M 499.5,316.5 C 499.5,317.5 499.5,318.5 499.5,319.5C 498.5,319.5 497.5,319.5 496.5,319.5C 496.5,318.5 496.5,317.5 496.5,316.5C 497.5,316.5 498.5,316.5 499.5,316.5 Z"/></g>
<g><path style="opacity:1" fill="#636363" d="M 496.5,319.5 C 496.5,320.5 496.5,321.5 496.5,322.5C 495.5,322.5 494.5,322.5 493.5,322.5C 493.5,321.5 493.5,320.5 493.5,319.5C 494.5,319.5 495.5,319.5 496.5,319.5 Z"/></g>
<g><path style="opacity:1" fill="#595a58" d="M 459.5,322.5 C 459.5,323.833 458.833,324.5 457.5,324.5C 457.5,323.167 458.167,322.5 459.5,322.5 Z"/></g>
<g><path style="opacity:1" fill="#b2b1b1" d="M 460.5,319.5 C 460.737,320.791 460.404,321.791 459.5,322.5C 458.167,322.5 457.5,323.167 457.5,324.5C 457.5,325.167 457.167,325.5 456.5,325.5C 455.833,325.5 455.167,325.5 454.5,325.5C 455.806,324.533 456.473,323.199 456.5,321.5C 458.199,321.473 459.533,320.806 460.5,319.5 Z"/></g>
<g><path style="opacity:1" fill="#595a58" d="M 454.5,325.5 C 455.167,325.5 455.833,325.5 456.5,325.5C 456.5,326.833 455.833,327.5 454.5,327.5C 454.5,326.833 454.5,326.167 454.5,325.5 Z"/></g>
<g><path style="opacity:1" fill="#535252" d="M 454.5,327.5 C 454.5,328.5 454.5,329.5 454.5,330.5C 453.5,330.5 452.5,330.5 451.5,330.5C 451.5,329.5 451.5,328.5 451.5,327.5C 452.5,327.5 453.5,327.5 454.5,327.5 Z"/></g>
<g><path style="opacity:1" fill="#646464" d="M 488.5,327.5 C 488.5,328.5 488.5,329.5 488.5,330.5C 487.5,330.5 486.5,330.5 485.5,330.5C 485.5,329.5 485.5,328.5 485.5,327.5C 486.5,327.5 487.5,327.5 488.5,327.5 Z"/></g>
<g><path style="opacity:1" fill="#646464" d="M 451.5,330.5 C 451.5,331.5 451.5,332.5 451.5,333.5C 450.5,333.5 449.5,333.5 448.5,333.5C 448.5,332.5 448.5,331.5 448.5,330.5C 449.5,330.5 450.5,330.5 451.5,330.5 Z"/></g>
<g><path style="opacity:1" fill="#5e5e5d" d="M 485.5,330.5 C 485.5,331.5 485.5,332.5 485.5,333.5C 484.5,333.5 483.5,333.5 482.5,333.5C 482.5,332.5 482.5,331.5 482.5,330.5C 483.5,330.5 484.5,330.5 485.5,330.5 Z"/></g>
<g><path style="opacity:1" fill="#5e5e5d" d="M 448.5,333.5 C 448.5,334.5 448.5,335.5 448.5,336.5C 447.5,336.5 446.5,336.5 445.5,336.5C 445.5,335.5 445.5,334.5 445.5,333.5C 446.5,333.5 447.5,333.5 448.5,333.5 Z"/></g>
<g><path style="opacity:1" fill="#717171" d="M 482.5,333.5 C 482.5,334.5 482.5,335.5 482.5,336.5C 481.5,336.5 480.5,336.5 479.5,336.5C 479.5,335.5 479.5,334.5 479.5,333.5C 480.5,333.5 481.5,333.5 482.5,333.5 Z"/></g>
<g><path style="opacity:1" fill="#767676" d="M 445.5,336.5 C 444.167,338.5 442.5,340.167 440.5,341.5C 440.833,338.5 442.5,336.833 445.5,336.5 Z"/></g>
<g><path style="opacity:1" fill="#646464" d="M 440.5,341.5 C 440.5,342.5 440.5,343.5 440.5,344.5C 439.5,344.5 438.5,344.5 437.5,344.5C 437.5,343.5 437.5,342.5 437.5,341.5C 438.5,341.5 439.5,341.5 440.5,341.5 Z"/></g>
<g><path style="opacity:1" fill="#818180" d="M 476.5,339.5 C 476.167,342.5 474.5,344.167 471.5,344.5C 472.833,342.5 474.5,340.833 476.5,339.5 Z"/></g>
<g><path style="opacity:1" fill="#636363" d="M 437.5,344.5 C 437.5,345.5 437.5,346.5 437.5,347.5C 436.5,347.5 435.5,347.5 434.5,347.5C 434.5,346.5 434.5,345.5 434.5,344.5C 435.5,344.5 436.5,344.5 437.5,344.5 Z"/></g>
<g><path style="opacity:1" fill="#535252" d="M 471.5,344.5 C 471.5,345.5 471.5,346.5 471.5,347.5C 470.5,347.5 469.5,347.5 468.5,347.5C 468.5,346.5 468.5,345.5 468.5,344.5C 469.5,344.5 470.5,344.5 471.5,344.5 Z"/></g>
<g><path style="opacity:1" fill="#565756" d="M 434.5,347.5 C 434.5,348.5 434.5,349.5 434.5,350.5C 433.5,350.5 432.5,350.5 431.5,350.5C 431.5,349.5 431.5,348.5 431.5,347.5C 432.5,347.5 433.5,347.5 434.5,347.5 Z"/></g>
<g><path style="opacity:1" fill="#737373" d="M 468.5,347.5 C 468.5,348.5 468.5,349.5 468.5,350.5C 467.5,350.5 466.5,350.5 465.5,350.5C 465.5,349.5 465.5,348.5 465.5,347.5C 466.5,347.5 467.5,347.5 468.5,347.5 Z"/></g>
<g><path style="opacity:1" fill="#5e5e5d" d="M 465.5,350.5 C 465.5,351.5 465.5,352.5 465.5,353.5C 464.5,353.5 463.5,353.5 462.5,353.5C 462.5,352.5 462.5,351.5 462.5,350.5C 463.5,350.5 464.5,350.5 465.5,350.5 Z"/></g>
<g><path style="opacity:1" fill="#595a58" d="M 428.5,353.5 C 428.5,354.833 427.833,355.5 426.5,355.5C 426.5,354.167 427.167,353.5 428.5,353.5 Z"/></g>
<g><path style="opacity:1" fill="#646464" d="M 426.5,355.5 C 426.5,356.5 426.5,357.5 426.5,358.5C 425.5,358.5 424.5,358.5 423.5,358.5C 423.5,357.5 423.5,356.5 423.5,355.5C 424.5,355.5 425.5,355.5 426.5,355.5 Z"/></g>
<g><path style="opacity:1" fill="#767676" d="M 462.5,353.5 C 462.167,356.5 460.5,358.167 457.5,358.5C 458.833,356.5 460.5,354.833 462.5,353.5 Z"/></g>
<g><path style="opacity:1" fill="#545454" d="M 423.5,358.5 C 423.5,359.5 423.5,360.5 423.5,361.5C 422.5,361.5 421.5,361.5 420.5,361.5C 420.5,360.5 420.5,359.5 420.5,358.5C 421.5,358.5 422.5,358.5 423.5,358.5 Z"/></g>
<g><path style="opacity:1" fill="#646464" d="M 457.5,358.5 C 457.5,359.5 457.5,360.5 457.5,361.5C 456.5,361.5 455.5,361.5 454.5,361.5C 454.5,360.5 454.5,359.5 454.5,358.5C 455.5,358.5 456.5,358.5 457.5,358.5 Z"/></g>
<g><path style="opacity:1" fill="#616160" d="M 420.5,361.5 C 420.5,362.5 420.5,363.5 420.5,364.5C 419.5,364.5 418.5,364.5 417.5,364.5C 417.5,363.5 417.5,362.5 417.5,361.5C 418.5,361.5 419.5,361.5 420.5,361.5 Z"/></g>
<g><path style="opacity:1" fill="#636363" d="M 454.5,361.5 C 454.5,362.5 454.5,363.5 454.5,364.5C 453.5,364.5 452.5,364.5 451.5,364.5C 451.5,363.5 451.5,362.5 451.5,361.5C 452.5,361.5 453.5,361.5 454.5,361.5 Z"/></g>
<g><path style="opacity:1" fill="#545453" d="M 417.5,364.5 C 417.715,366.179 417.048,367.179 415.5,367.5C 415.285,365.821 415.952,364.821 417.5,364.5 Z"/></g>
<g><path style="opacity:1" fill="#565756" d="M 451.5,364.5 C 451.5,365.5 451.5,366.5 451.5,367.5C 450.5,367.5 449.5,367.5 448.5,367.5C 448.5,366.5 448.5,365.5 448.5,364.5C 449.5,364.5 450.5,364.5 451.5,364.5 Z"/></g>
<g><path style="opacity:1" fill="#535453" d="M 414.5,367.5 C 414.5,368.833 413.833,369.5 412.5,369.5C 412.5,368.167 413.167,367.5 414.5,367.5 Z"/></g>
<g><path style="opacity:1" fill="#5d5c5c" d="M 412.5,369.5 C 412.5,370.5 412.5,371.5 412.5,372.5C 411.5,372.5 410.5,372.5 409.5,372.5C 409.5,371.5 409.5,370.5 409.5,369.5C 410.5,369.5 411.5,369.5 412.5,369.5 Z"/></g>
<g><path style="opacity:1" fill="#595a58" d="M 445.5,370.5 C 445.5,371.833 444.833,372.5 443.5,372.5C 443.5,371.167 444.167,370.5 445.5,370.5 Z"/></g>
<g><path style="opacity:1" fill="#5e5e5d" d="M 409.5,372.5 C 409.5,373.5 409.5,374.5 409.5,375.5C 408.5,375.5 407.5,375.5 406.5,375.5C 406.5,374.5 406.5,373.5 406.5,372.5C 407.5,372.5 408.5,372.5 409.5,372.5 Z"/></g>
<g><path style="opacity:1" fill="#656564" d="M 443.5,372.5 C 443.5,373.5 443.5,374.5 443.5,375.5C 442.5,375.5 441.5,375.5 440.5,375.5C 440.5,374.5 440.5,373.5 440.5,372.5C 441.5,372.5 442.5,372.5 443.5,372.5 Z"/></g>
<g><path style="opacity:1" fill="#636363" d="M 406.5,375.5 C 406.5,376.5 406.5,377.5 406.5,378.5C 405.5,378.5 404.5,378.5 403.5,378.5C 403.5,377.5 403.5,376.5 403.5,375.5C 404.5,375.5 405.5,375.5 406.5,375.5 Z"/></g>
<g><path style="opacity:1" fill="#545454" d="M 440.5,375.5 C 440.5,376.5 440.5,377.5 440.5,378.5C 439.5,378.5 438.5,378.5 437.5,378.5C 437.5,377.5 437.5,376.5 437.5,375.5C 438.5,375.5 439.5,375.5 440.5,375.5 Z"/></g>
<g><path style="opacity:1" fill="#616160" d="M 437.5,378.5 C 437.5,379.5 437.5,380.5 437.5,381.5C 436.5,381.5 435.5,381.5 434.5,381.5C 434.5,380.5 434.5,379.5 434.5,378.5C 435.5,378.5 436.5,378.5 437.5,378.5 Z"/></g>
<g><path style="opacity:1" fill="#545453" d="M 434.5,381.5 C 434.179,383.048 433.179,383.715 431.5,383.5C 431.821,381.952 432.821,381.285 434.5,381.5 Z"/></g>
<g><path style="opacity:1" fill="#b0b0af" d="M 401.5,378.5 C 401.5,379.5 401.5,380.5 401.5,381.5C 400.5,381.5 399.5,381.5 398.5,381.5C 398.737,382.791 398.404,383.791 397.5,384.5C 396.833,384.5 396.167,384.5 395.5,384.5C 396.806,383.533 397.473,382.199 397.5,380.5C 399.199,380.473 400.533,379.806 401.5,378.5 Z"/></g>
<g><path style="opacity:1" fill="#595a58" d="M 395.5,384.5 C 396.167,384.5 396.833,384.5 397.5,384.5C 397.5,385.833 396.833,386.5 395.5,386.5C 395.5,385.833 395.5,385.167 395.5,384.5 Z"/></g>
<g><path style="opacity:1" fill="#535453" d="M 431.5,384.5 C 431.5,385.833 430.833,386.5 429.5,386.5C 429.5,385.167 430.167,384.5 431.5,384.5 Z"/></g>
<g><path style="opacity:1" fill="#5b5b5a" d="M 395.5,386.5 C 395.5,387.5 395.5,388.5 395.5,389.5C 394.5,389.5 393.5,389.5 392.5,389.5C 392.5,388.5 392.5,387.5 392.5,386.5C 393.5,386.5 394.5,386.5 395.5,386.5 Z"/></g>
<g><path style="opacity:1" fill="#5d5c5c" d="M 429.5,386.5 C 429.5,387.5 429.5,388.5 429.5,389.5C 428.5,389.5 427.5,389.5 426.5,389.5C 426.5,388.5 426.5,387.5 426.5,386.5C 427.5,386.5 428.5,386.5 429.5,386.5 Z"/></g>
<g><path style="opacity:1" fill="#5a5a5a" d="M 392.5,389.5 C 392.5,390.5 392.5,391.5 392.5,392.5C 391.5,392.5 390.5,392.5 389.5,392.5C 389.5,391.5 389.5,390.5 389.5,389.5C 390.5,389.5 391.5,389.5 392.5,389.5 Z"/></g>
<g><path style="opacity:1" fill="#5e5e5d" d="M 426.5,389.5 C 426.5,390.5 426.5,391.5 426.5,392.5C 425.5,392.5 424.5,392.5 423.5,392.5C 423.5,391.5 423.5,390.5 423.5,389.5C 424.5,389.5 425.5,389.5 426.5,389.5 Z"/></g>
<g><path style="opacity:1" fill="#5b5b5a" d="M 389.5,392.5 C 389.5,393.5 389.5,394.5 389.5,395.5C 388.5,395.5 387.5,395.5 386.5,395.5C 386.5,394.5 386.5,393.5 386.5,392.5C 387.5,392.5 388.5,392.5 389.5,392.5 Z"/></g>
<g><path style="opacity:1" fill="#636363" d="M 423.5,392.5 C 423.5,393.5 423.5,394.5 423.5,395.5C 422.5,395.5 421.5,395.5 420.5,395.5C 420.5,394.5 420.5,393.5 420.5,392.5C 421.5,392.5 422.5,392.5 423.5,392.5 Z"/></g>
<g><path style="opacity:1" fill="#7a7b7a" d="M 386.5,395.5 C 385.167,397.5 383.5,399.167 381.5,400.5C 381.833,397.5 383.5,395.833 386.5,395.5 Z"/></g>
<g><path style="opacity:1" fill="#5d5c5c" d="M 381.5,400.5 C 381.5,401.5 381.5,402.5 381.5,403.5C 380.5,403.5 379.5,403.5 378.5,403.5C 378.5,402.5 378.5,401.5 378.5,400.5C 379.5,400.5 380.5,400.5 381.5,400.5 Z"/></g>
<g><path style="opacity:1" fill="#595a58" d="M 414.5,401.5 C 414.5,402.167 414.5,402.833 414.5,403.5C 413.833,403.5 413.167,403.5 412.5,403.5C 412.5,402.167 413.167,401.5 414.5,401.5 Z"/></g>
<g><path style="opacity:1" fill="#b0b0af" d="M 420.5,397.5 C 419.194,398.467 418.527,399.801 418.5,401.5C 416.801,401.527 415.467,402.194 414.5,403.5C 414.5,402.833 414.5,402.167 414.5,401.5C 415.209,400.596 416.209,400.263 417.5,400.5C 417.5,399.5 417.5,398.5 417.5,397.5C 418.5,397.5 419.5,397.5 420.5,397.5 Z"/></g>
<g><path style="opacity:1" fill="#636363" d="M 378.5,403.5 C 378.5,404.5 378.5,405.5 378.5,406.5C 377.5,406.5 376.5,406.5 375.5,406.5C 375.5,405.5 375.5,404.5 375.5,403.5C 376.5,403.5 377.5,403.5 378.5,403.5 Z"/></g>
<g><path style="opacity:1" fill="#5b5b5a" d="M 412.5,403.5 C 412.5,404.5 412.5,405.5 412.5,406.5C 411.5,406.5 410.5,406.5 409.5,406.5C 409.5,405.5 409.5,404.5 409.5,403.5C 410.5,403.5 411.5,403.5 412.5,403.5 Z"/></g>
<g><path style="opacity:1" fill="#5e5e5d" d="M 375.5,406.5 C 375.5,407.5 375.5,408.5 375.5,409.5C 374.5,409.5 373.5,409.5 372.5,409.5C 372.5,408.5 372.5,407.5 372.5,406.5C 373.5,406.5 374.5,406.5 375.5,406.5 Z"/></g>
<g><path style="opacity:1" fill="#6a6a6a" d="M 409.5,406.5 C 409.5,407.5 409.5,408.5 409.5,409.5C 408.5,409.5 407.5,409.5 406.5,409.5C 406.5,408.5 406.5,407.5 406.5,406.5C 407.5,406.5 408.5,406.5 409.5,406.5 Z"/></g>
<g><path style="opacity:1" fill="#5b5b5a" d="M 406.5,409.5 C 406.5,410.5 406.5,411.5 406.5,412.5C 405.5,412.5 404.5,412.5 403.5,412.5C 403.5,411.5 403.5,410.5 403.5,409.5C 404.5,409.5 405.5,409.5 406.5,409.5 Z"/></g>
<g><path style="opacity:1" fill="#535453" d="M 369.5,412.5 C 369.5,413.833 368.833,414.5 367.5,414.5C 367.5,413.167 368.167,412.5 369.5,412.5 Z"/></g>
<g><path style="opacity:1" fill="#676766" d="M 367.5,414.5 C 367.5,415.5 367.5,416.5 367.5,417.5C 366.5,417.5 365.5,417.5 364.5,417.5C 364.5,416.5 364.5,415.5 364.5,414.5C 365.5,414.5 366.5,414.5 367.5,414.5 Z"/></g>
<g><path style="opacity:1" fill="#7a7b7a" d="M 403.5,412.5 C 403.167,415.5 401.5,417.167 398.5,417.5C 399.833,415.5 401.5,413.833 403.5,412.5 Z"/></g>
<g><path style="opacity:1" fill="#616160" d="M 364.5,417.5 C 364.5,418.5 364.5,419.5 364.5,420.5C 363.5,420.5 362.5,420.5 361.5,420.5C 361.5,419.5 361.5,418.5 361.5,417.5C 362.5,417.5 363.5,417.5 364.5,417.5 Z"/></g>
<g><path style="opacity:1" fill="#5d5c5c" d="M 398.5,417.5 C 398.5,418.5 398.5,419.5 398.5,420.5C 397.5,420.5 396.5,420.5 395.5,420.5C 395.5,419.5 395.5,418.5 395.5,417.5C 396.5,417.5 397.5,417.5 398.5,417.5 Z"/></g>
<g><path style="opacity:1" fill="#4f4f50" d="M 361.5,420.5 C 361.5,421.5 361.5,422.5 361.5,423.5C 360.5,423.5 359.5,423.5 358.5,423.5C 358.5,422.5 358.5,421.5 358.5,420.5C 359.5,420.5 360.5,420.5 361.5,420.5 Z"/></g>
<g><path style="opacity:1" fill="#787877" d="M 395.5,420.5 C 395.5,421.5 395.5,422.5 395.5,423.5C 394.5,423.5 393.5,423.5 392.5,423.5C 392.5,422.5 392.5,421.5 392.5,420.5C 393.5,420.5 394.5,420.5 395.5,420.5 Z"/></g>
<g><path style="opacity:1" fill="#5e5e5d" d="M 392.5,423.5 C 392.5,424.5 392.5,425.5 392.5,426.5C 391.5,426.5 390.5,426.5 389.5,426.5C 389.5,425.5 389.5,424.5 389.5,423.5C 390.5,423.5 391.5,423.5 392.5,423.5 Z"/></g>
<g><path style="opacity:1" fill="#595a58" d="M 355.5,426.5 C 355.5,427.833 354.833,428.5 353.5,428.5C 353.5,427.167 354.167,426.5 355.5,426.5 Z"/></g>
<g><path style="opacity:1" fill="#535453" d="M 386.5,429.5 C 386.5,430.833 385.833,431.5 384.5,431.5C 384.5,430.167 385.167,429.5 386.5,429.5 Z"/></g>
<g><path style="opacity:1" fill="#565756" d="M 350.5,431.5 C 350.5,432.5 350.5,433.5 350.5,434.5C 349.5,434.5 348.5,434.5 347.5,434.5C 347.5,433.5 347.5,432.5 347.5,431.5C 348.5,431.5 349.5,431.5 350.5,431.5 Z"/></g>
<g><path style="opacity:1" fill="#676766" d="M 384.5,431.5 C 384.5,432.5 384.5,433.5 384.5,434.5C 383.5,434.5 382.5,434.5 381.5,434.5C 381.5,433.5 381.5,432.5 381.5,431.5C 382.5,431.5 383.5,431.5 384.5,431.5 Z"/></g>
<g><path style="opacity:1" fill="#636363" d="M 347.5,434.5 C 347.5,435.5 347.5,436.5 347.5,437.5C 346.5,437.5 345.5,437.5 344.5,437.5C 344.5,436.5 344.5,435.5 344.5,434.5C 345.5,434.5 346.5,434.5 347.5,434.5 Z"/></g>
<g><path style="opacity:1" fill="#616160" d="M 381.5,434.5 C 381.5,435.5 381.5,436.5 381.5,437.5C 380.5,437.5 379.5,437.5 378.5,437.5C 378.5,436.5 378.5,435.5 378.5,434.5C 379.5,434.5 380.5,434.5 381.5,434.5 Z"/></g>
<g><path style="opacity:1" fill="#545454" d="M 378.5,437.5 C 378.5,438.5 378.5,439.5 378.5,440.5C 377.5,440.5 376.5,440.5 375.5,440.5C 375.5,439.5 375.5,438.5 375.5,437.5C 376.5,437.5 377.5,437.5 378.5,437.5 Z"/></g>
<g><path style="opacity:1" fill="#aeaeae" d="M 342.5,437.5 C 342.5,438.5 342.5,439.5 342.5,440.5C 341.5,440.5 340.5,440.5 339.5,440.5C 339.737,441.791 339.404,442.791 338.5,443.5C 337.833,443.5 337.167,443.5 336.5,443.5C 337.806,442.533 338.473,441.199 338.5,439.5C 340.199,439.473 341.533,438.806 342.5,437.5 Z"/></g>
<g><path style="opacity:1" fill="#565755" d="M 336.5,443.5 C 337.167,443.5 337.833,443.5 338.5,443.5C 338.5,444.833 337.833,445.5 336.5,445.5C 336.5,444.833 336.5,444.167 336.5,443.5 Z"/></g>
<g><path style="opacity:1" fill="#595a58" d="M 372.5,443.5 C 372.5,444.833 371.833,445.5 370.5,445.5C 370.5,444.167 371.167,443.5 372.5,443.5 Z"/></g>
<g><path style="opacity:1" fill="#5e5e5d" d="M 336.5,445.5 C 336.5,446.5 336.5,447.5 336.5,448.5C 335.5,448.5 334.5,448.5 333.5,448.5C 333.5,447.5 333.5,446.5 333.5,445.5C 334.5,445.5 335.5,445.5 336.5,445.5 Z"/></g>
<g><path style="opacity:1" fill="#646464" d="M 333.5,448.5 C 333.5,449.5 333.5,450.5 333.5,451.5C 332.5,451.5 331.5,451.5 330.5,451.5C 330.5,450.5 330.5,449.5 330.5,448.5C 331.5,448.5 332.5,448.5 333.5,448.5 Z"/></g>
<g><path style="opacity:1" fill="#565756" d="M 367.5,448.5 C 367.5,449.5 367.5,450.5 367.5,451.5C 366.5,451.5 365.5,451.5 364.5,451.5C 364.5,450.5 364.5,449.5 364.5,448.5C 365.5,448.5 366.5,448.5 367.5,448.5 Z"/></g>
<g><path style="opacity:1" fill="#535252" d="M 330.5,451.5 C 330.5,452.5 330.5,453.5 330.5,454.5C 329.5,454.5 328.5,454.5 327.5,454.5C 327.5,453.5 327.5,452.5 327.5,451.5C 328.5,451.5 329.5,451.5 330.5,451.5 Z"/></g>
<g><path style="opacity:1" fill="#636363" d="M 364.5,451.5 C 364.5,452.5 364.5,453.5 364.5,454.5C 363.5,454.5 362.5,454.5 361.5,454.5C 361.5,453.5 361.5,452.5 361.5,451.5C 362.5,451.5 363.5,451.5 364.5,451.5 Z"/></g>
<g><path style="opacity:1" fill="#818180" d="M 327.5,454.5 C 326.167,456.5 324.5,458.167 322.5,459.5C 322.833,456.5 324.5,454.833 327.5,454.5 Z"/></g>
<g><path style="opacity:1" fill="#5d5c5c" d="M 322.5,459.5 C 322.5,460.5 322.5,461.5 322.5,462.5C 321.5,462.5 320.5,462.5 319.5,462.5C 319.5,461.5 319.5,460.5 319.5,459.5C 320.5,459.5 321.5,459.5 322.5,459.5 Z"/></g>
<g><path style="opacity:1" fill="#565755" d="M 355.5,460.5 C 355.5,461.167 355.5,461.833 355.5,462.5C 354.833,462.5 354.167,462.5 353.5,462.5C 353.5,461.167 354.167,460.5 355.5,460.5 Z"/></g>
<g><path style="opacity:1" fill="#aeaeae" d="M 361.5,456.5 C 360.194,457.467 359.527,458.801 359.5,460.5C 357.801,460.527 356.467,461.194 355.5,462.5C 355.5,461.833 355.5,461.167 355.5,460.5C 356.209,459.596 357.209,459.263 358.5,459.5C 358.5,458.5 358.5,457.5 358.5,456.5C 359.5,456.5 360.5,456.5 361.5,456.5 Z"/></g>
<g><path style="opacity:1" fill="#616261" d="M 319.5,462.5 C 319.5,463.5 319.5,464.5 319.5,465.5C 318.5,465.5 317.5,465.5 316.5,465.5C 316.5,464.5 316.5,463.5 316.5,462.5C 317.5,462.5 318.5,462.5 319.5,462.5 Z"/></g>
<g><path style="opacity:1" fill="#5e5e5d" d="M 353.5,462.5 C 353.5,463.5 353.5,464.5 353.5,465.5C 352.5,465.5 351.5,465.5 350.5,465.5C 350.5,464.5 350.5,463.5 350.5,462.5C 351.5,462.5 352.5,462.5 353.5,462.5 Z"/></g>
<g><path style="opacity:1" fill="#5e5e5d" d="M 316.5,465.5 C 316.5,466.5 316.5,467.5 316.5,468.5C 315.5,468.5 314.5,468.5 313.5,468.5C 313.5,467.5 313.5,466.5 313.5,465.5C 314.5,465.5 315.5,465.5 316.5,465.5 Z"/></g>
<g><path style="opacity:1" fill="#737373" d="M 350.5,465.5 C 350.5,466.5 350.5,467.5 350.5,468.5C 349.5,468.5 348.5,468.5 347.5,468.5C 347.5,467.5 347.5,466.5 347.5,465.5C 348.5,465.5 349.5,465.5 350.5,465.5 Z"/></g>
<g><path style="opacity:1" fill="#535252" d="M 347.5,468.5 C 347.5,469.5 347.5,470.5 347.5,471.5C 346.5,471.5 345.5,471.5 344.5,471.5C 344.5,470.5 344.5,469.5 344.5,468.5C 345.5,468.5 346.5,468.5 347.5,468.5 Z"/></g>
<g><path style="opacity:1" fill="#646464" d="M 308.5,473.5 C 308.5,474.5 308.5,475.5 308.5,476.5C 307.5,476.5 306.5,476.5 305.5,476.5C 305.5,475.5 305.5,474.5 305.5,473.5C 306.5,473.5 307.5,473.5 308.5,473.5 Z"/></g>
<g><path style="opacity:1" fill="#818180" d="M 344.5,471.5 C 344.167,474.5 342.5,476.167 339.5,476.5C 340.833,474.5 342.5,472.833 344.5,471.5 Z"/></g>
<g><path style="opacity:1" fill="#636363" d="M 305.5,476.5 C 305.5,477.5 305.5,478.5 305.5,479.5C 304.5,479.5 303.5,479.5 302.5,479.5C 302.5,478.5 302.5,477.5 302.5,476.5C 303.5,476.5 304.5,476.5 305.5,476.5 Z"/></g>
<g><path style="opacity:1" fill="#5d5c5c" d="M 339.5,476.5 C 339.5,477.5 339.5,478.5 339.5,479.5C 338.5,479.5 337.5,479.5 336.5,479.5C 336.5,478.5 336.5,477.5 336.5,476.5C 337.5,476.5 338.5,476.5 339.5,476.5 Z"/></g>
<g><path style="opacity:1" fill="#565656" d="M 302.5,479.5 C 302.5,480.5 302.5,481.5 302.5,482.5C 301.5,482.5 300.5,482.5 299.5,482.5C 299.5,481.5 299.5,480.5 299.5,479.5C 300.5,479.5 301.5,479.5 302.5,479.5 Z"/></g>
<g><path style="opacity:1" fill="#717171" d="M 336.5,479.5 C 336.5,480.5 336.5,481.5 336.5,482.5C 335.5,482.5 334.5,482.5 333.5,482.5C 333.5,481.5 333.5,480.5 333.5,479.5C 334.5,479.5 335.5,479.5 336.5,479.5 Z"/></g>
<g><path style="opacity:1" fill="#5e5e5d" d="M 333.5,482.5 C 333.5,483.5 333.5,484.5 333.5,485.5C 332.5,485.5 331.5,485.5 330.5,485.5C 330.5,484.5 330.5,483.5 330.5,482.5C 331.5,482.5 332.5,482.5 333.5,482.5 Z"/></g>
<g><path style="opacity:1" fill="#595a58" d="M 296.5,485.5 C 296.5,486.833 295.833,487.5 294.5,487.5C 294.5,486.167 295.167,485.5 296.5,485.5 Z"/></g>
<g><path style="opacity:1" fill="#545453" d="M 294.5,488.5 C 294.179,490.048 293.179,490.715 291.5,490.5C 291.821,488.952 292.821,488.285 294.5,488.5 Z"/></g>
<g><path style="opacity:1" fill="#535252" d="M 291.5,490.5 C 291.5,491.5 291.5,492.5 291.5,493.5C 290.5,493.5 289.5,493.5 288.5,493.5C 288.5,492.5 288.5,491.5 288.5,490.5C 289.5,490.5 290.5,490.5 291.5,490.5 Z"/></g>
<g><path style="opacity:1" fill="#646464" d="M 325.5,490.5 C 325.5,491.5 325.5,492.5 325.5,493.5C 324.5,493.5 323.5,493.5 322.5,493.5C 322.5,492.5 322.5,491.5 322.5,490.5C 323.5,490.5 324.5,490.5 325.5,490.5 Z"/></g>
<g><path style="opacity:1" fill="#5e5e5e" d="M 288.5,493.5 C 288.5,494.5 288.5,495.5 288.5,496.5C 287.5,496.5 286.5,496.5 285.5,496.5C 285.5,495.5 285.5,494.5 285.5,493.5C 286.5,493.5 287.5,493.5 288.5,493.5 Z"/></g>
<g><path style="opacity:1" fill="#636363" d="M 322.5,493.5 C 322.5,494.5 322.5,495.5 322.5,496.5C 321.5,496.5 320.5,496.5 319.5,496.5C 319.5,495.5 319.5,494.5 319.5,493.5C 320.5,493.5 321.5,493.5 322.5,493.5 Z"/></g>
<g><path style="opacity:1" fill="#545453" d="M 285.5,496.5 C 285.715,498.179 285.048,499.179 283.5,499.5C 283.285,497.821 283.952,496.821 285.5,496.5 Z"/></g>
<g><path style="opacity:1" fill="#565656" d="M 319.5,496.5 C 319.5,497.5 319.5,498.5 319.5,499.5C 318.5,499.5 317.5,499.5 316.5,499.5C 316.5,498.5 316.5,497.5 316.5,496.5C 317.5,496.5 318.5,496.5 319.5,496.5 Z"/></g>
<g><path style="opacity:1" fill="#767676" d="M 282.5,499.5 C 281.167,501.5 279.5,503.167 277.5,504.5C 277.833,501.5 279.5,499.833 282.5,499.5 Z"/></g>
<g><path style="opacity:1" fill="#595a58" d="M 313.5,502.5 C 313.5,503.833 312.833,504.5 311.5,504.5C 311.5,503.167 312.167,502.5 313.5,502.5 Z"/></g>
<g><path style="opacity:1" fill="#5b5b5a" d="M 277.5,504.5 C 277.5,505.5 277.5,506.5 277.5,507.5C 276.5,507.5 275.5,507.5 274.5,507.5C 274.5,506.5 274.5,505.5 274.5,504.5C 275.5,504.5 276.5,504.5 277.5,504.5 Z"/></g>
<g><path style="opacity:1" fill="#545453" d="M 310.5,504.5 C 310.715,506.179 310.048,507.179 308.5,507.5C 308.285,505.821 308.952,504.821 310.5,504.5 Z"/></g>
<g><path style="opacity:1" fill="#696968" d="M 274.5,507.5 C 274.5,508.5 274.5,509.5 274.5,510.5C 273.5,510.5 272.5,510.5 271.5,510.5C 271.5,509.5 271.5,508.5 271.5,507.5C 272.5,507.5 273.5,507.5 274.5,507.5 Z"/></g>
<g><path style="opacity:1" fill="#535252" d="M 308.5,507.5 C 308.5,508.5 308.5,509.5 308.5,510.5C 307.5,510.5 306.5,510.5 305.5,510.5C 305.5,509.5 305.5,508.5 305.5,507.5C 306.5,507.5 307.5,507.5 308.5,507.5 Z"/></g>
<g><path style="opacity:1" fill="#5e5e5e" d="M 305.5,510.5 C 305.5,511.5 305.5,512.5 305.5,513.5C 304.5,513.5 303.5,513.5 302.5,513.5C 302.5,512.5 302.5,511.5 302.5,510.5C 303.5,510.5 304.5,510.5 305.5,510.5 Z"/></g>
<g><path style="opacity:1" fill="#545453" d="M 302.5,513.5 C 302.179,515.048 301.179,515.715 299.5,515.5C 299.821,513.952 300.821,513.285 302.5,513.5 Z"/></g>
<g><path style="opacity:1" fill="#b0b0b0" d="M 269.5,510.5 C 269.5,511.5 269.5,512.5 269.5,513.5C 268.5,513.5 267.5,513.5 266.5,513.5C 266.737,514.791 266.404,515.791 265.5,516.5C 264.833,516.5 264.167,516.5 263.5,516.5C 264.806,515.533 265.473,514.199 265.5,512.5C 267.199,512.473 268.533,511.806 269.5,510.5 Z"/></g>
<g><path style="opacity:1" fill="#595a58" d="M 263.5,516.5 C 264.167,516.5 264.833,516.5 265.5,516.5C 265.5,517.833 264.833,518.5 263.5,518.5C 263.5,517.833 263.5,517.167 263.5,516.5 Z"/></g>
<g><path style="opacity:1" fill="#646464" d="M 263.5,518.5 C 263.5,519.5 263.5,520.5 263.5,521.5C 262.5,521.5 261.5,521.5 260.5,521.5C 260.5,520.5 260.5,519.5 260.5,518.5C 261.5,518.5 262.5,518.5 263.5,518.5 Z"/></g>
<g><path style="opacity:1" fill="#767676" d="M 299.5,516.5 C 299.167,519.5 297.5,521.167 294.5,521.5C 295.833,519.5 297.5,517.833 299.5,516.5 Z"/></g>
<g><path style="opacity:1" fill="#5a5a5a" d="M 260.5,521.5 C 260.5,522.5 260.5,523.5 260.5,524.5C 259.5,524.5 258.5,524.5 257.5,524.5C 257.5,523.5 257.5,522.5 257.5,521.5C 258.5,521.5 259.5,521.5 260.5,521.5 Z"/></g>
<g><path style="opacity:1" fill="#5b5b5a" d="M 294.5,521.5 C 294.5,522.5 294.5,523.5 294.5,524.5C 293.5,524.5 292.5,524.5 291.5,524.5C 291.5,523.5 291.5,522.5 291.5,521.5C 292.5,521.5 293.5,521.5 294.5,521.5 Z"/></g>
<g><path style="opacity:1" fill="#585858" d="M 257.5,524.5 C 257.5,525.5 257.5,526.5 257.5,527.5C 256.5,527.5 255.5,527.5 254.5,527.5C 254.5,526.5 254.5,525.5 254.5,524.5C 255.5,524.5 256.5,524.5 257.5,524.5 Z"/></g>
<g><path style="opacity:1" fill="#787877" d="M 291.5,524.5 C 291.5,525.5 291.5,526.5 291.5,527.5C 290.5,527.5 289.5,527.5 288.5,527.5C 288.5,526.5 288.5,525.5 288.5,524.5C 289.5,524.5 290.5,524.5 291.5,524.5 Z"/></g>
<g><path style="opacity:1" fill="#7c7c7b" d="M 254.5,527.5 C 253.167,529.5 251.5,531.167 249.5,532.5C 249.833,529.5 251.5,527.833 254.5,527.5 Z"/></g>
<g><path style="opacity:1" fill="#5d5c5c" d="M 249.5,532.5 C 249.5,533.5 249.5,534.5 249.5,535.5C 248.5,535.5 247.5,535.5 246.5,535.5C 246.5,534.5 246.5,533.5 246.5,532.5C 247.5,532.5 248.5,532.5 249.5,532.5 Z"/></g>
<g><path style="opacity:1" fill="#595a58" d="M 282.5,533.5 C 282.5,534.167 282.5,534.833 282.5,535.5C 281.833,535.5 281.167,535.5 280.5,535.5C 280.5,534.167 281.167,533.5 282.5,533.5 Z"/></g>
<g><path style="opacity:1" fill="#b0b0b0" d="M 288.5,529.5 C 287.194,530.467 286.527,531.801 286.5,533.5C 284.801,533.527 283.467,534.194 282.5,535.5C 282.5,534.833 282.5,534.167 282.5,533.5C 283.209,532.596 284.209,532.263 285.5,532.5C 285.5,531.5 285.5,530.5 285.5,529.5C 286.5,529.5 287.5,529.5 288.5,529.5 Z"/></g>
<g><path style="opacity:1" fill="#616160" d="M 246.5,535.5 C 246.5,536.5 246.5,537.5 246.5,538.5C 245.5,538.5 244.5,538.5 243.5,538.5C 243.5,537.5 243.5,536.5 243.5,535.5C 244.5,535.5 245.5,535.5 246.5,535.5 Z"/></g>
<g><path style="opacity:1" fill="#656564" d="M 280.5,535.5 C 280.5,536.5 280.5,537.5 280.5,538.5C 279.5,538.5 278.5,538.5 277.5,538.5C 277.5,537.5 277.5,536.5 277.5,535.5C 278.5,535.5 279.5,535.5 280.5,535.5 Z"/></g>
<g><path style="opacity:1" fill="#5e5e5d" d="M 243.5,538.5 C 243.5,539.5 243.5,540.5 243.5,541.5C 242.5,541.5 241.5,541.5 240.5,541.5C 240.5,540.5 240.5,539.5 240.5,538.5C 241.5,538.5 242.5,538.5 243.5,538.5 Z"/></g>
<g><path style="opacity:1" fill="#6a6a6a" d="M 277.5,538.5 C 277.5,539.5 277.5,540.5 277.5,541.5C 276.5,541.5 275.5,541.5 274.5,541.5C 274.5,540.5 274.5,539.5 274.5,538.5C 275.5,538.5 276.5,538.5 277.5,538.5 Z"/></g>
<g><path style="opacity:1" fill="#585858" d="M 274.5,541.5 C 274.5,542.5 274.5,543.5 274.5,544.5C 273.5,544.5 272.5,544.5 271.5,544.5C 271.5,543.5 271.5,542.5 271.5,541.5C 272.5,541.5 273.5,541.5 274.5,541.5 Z"/></g>
<g><path style="opacity:1" fill="#545453" d="M 235.5,547.5 C 235.179,549.048 234.179,549.715 232.5,549.5C 232.821,547.952 233.821,547.285 235.5,547.5 Z"/></g>
<g><path style="opacity:1" fill="#7c7c7b" d="M 271.5,544.5 C 271.167,547.5 269.5,549.167 266.5,549.5C 267.833,547.5 269.5,545.833 271.5,544.5 Z"/></g>
<g><path style="opacity:1" fill="#5b5b5a" d="M 232.5,549.5 C 232.5,550.5 232.5,551.5 232.5,552.5C 231.5,552.5 230.5,552.5 229.5,552.5C 229.5,551.5 229.5,550.5 229.5,549.5C 230.5,549.5 231.5,549.5 232.5,549.5 Z"/></g>
<g><path style="opacity:1" fill="#5d5c5c" d="M 266.5,549.5 C 266.5,550.5 266.5,551.5 266.5,552.5C 265.5,552.5 264.5,552.5 263.5,552.5C 263.5,551.5 263.5,550.5 263.5,549.5C 264.5,549.5 265.5,549.5 266.5,549.5 Z"/></g>
<g><path style="opacity:1" fill="#545454" d="M 229.5,552.5 C 229.5,553.5 229.5,554.5 229.5,555.5C 228.5,555.5 227.5,555.5 226.5,555.5C 226.5,554.5 226.5,553.5 226.5,552.5C 227.5,552.5 228.5,552.5 229.5,552.5 Z"/></g>
<g><path style="opacity:1" fill="#616160" d="M 263.5,552.5 C 263.5,553.5 263.5,554.5 263.5,555.5C 262.5,555.5 261.5,555.5 260.5,555.5C 260.5,554.5 260.5,553.5 260.5,552.5C 261.5,552.5 262.5,552.5 263.5,552.5 Z"/></g>
<g><path style="opacity:1" fill="#5e5e5d" d="M 260.5,555.5 C 260.5,556.5 260.5,557.5 260.5,558.5C 259.5,558.5 258.5,558.5 257.5,558.5C 257.5,557.5 257.5,556.5 257.5,555.5C 258.5,555.5 259.5,555.5 260.5,555.5 Z"/></g>
<g><path style="opacity:1" fill="#595a58" d="M 223.5,558.5 C 223.5,559.833 222.833,560.5 221.5,560.5C 221.5,559.167 222.167,558.5 223.5,558.5 Z"/></g>
<g><path style="opacity:1" fill="#626262" d="M 221.5,560.5 C 221.5,561.5 221.5,562.5 221.5,563.5C 220.5,563.5 219.5,563.5 218.5,563.5C 218.5,562.5 218.5,561.5 218.5,560.5C 219.5,560.5 220.5,560.5 221.5,560.5 Z"/></g>
<g><path style="opacity:1" fill="#535252" d="M 218.5,563.5 C 218.5,564.5 218.5,565.5 218.5,566.5C 217.5,566.5 216.5,566.5 215.5,566.5C 215.5,565.5 215.5,564.5 215.5,563.5C 216.5,563.5 217.5,563.5 218.5,563.5 Z"/></g>
<g><path style="opacity:1" fill="#545453" d="M 251.5,563.5 C 251.715,565.179 251.048,566.179 249.5,566.5C 249.285,564.821 249.952,563.821 251.5,563.5 Z"/></g>
<g><path style="opacity:1" fill="#696968" d="M 215.5,566.5 C 215.5,567.5 215.5,568.5 215.5,569.5C 214.5,569.5 213.5,569.5 212.5,569.5C 212.5,568.5 212.5,567.5 212.5,566.5C 213.5,566.5 214.5,566.5 215.5,566.5 Z"/></g>
<g><path style="opacity:1" fill="#5b5b5a" d="M 249.5,566.5 C 249.5,567.5 249.5,568.5 249.5,569.5C 248.5,569.5 247.5,569.5 246.5,569.5C 246.5,568.5 246.5,567.5 246.5,566.5C 247.5,566.5 248.5,566.5 249.5,566.5 Z"/></g>
<g><path style="opacity:1" fill="#545453" d="M 212.5,569.5 C 212.715,571.179 212.048,572.179 210.5,572.5C 210.285,570.821 210.952,569.821 212.5,569.5 Z"/></g>
<g><path style="opacity:1" fill="#545454" d="M 246.5,569.5 C 246.5,570.5 246.5,571.5 246.5,572.5C 245.5,572.5 244.5,572.5 243.5,572.5C 243.5,571.5 243.5,570.5 243.5,569.5C 244.5,569.5 245.5,569.5 246.5,569.5 Z"/></g>
<g><path style="opacity:1" fill="#6c6d6c" d="M 207.5,572.5 C 207.741,575.034 206.741,576.7 204.5,577.5C 204.721,575.336 205.721,573.67 207.5,572.5 Z"/></g>
<g><path style="opacity:1" fill="#595a58" d="M 240.5,575.5 C 240.5,576.833 239.833,577.5 238.5,577.5C 238.5,576.167 239.167,575.5 240.5,575.5 Z"/></g>
<g><path style="opacity:1" fill="#5e5e5d" d="M 204.5,577.5 C 204.5,578.5 204.5,579.5 204.5,580.5C 203.5,580.5 202.5,580.5 201.5,580.5C 201.5,579.5 201.5,578.5 201.5,577.5C 202.5,577.5 203.5,577.5 204.5,577.5 Z"/></g>
<g><path style="opacity:1" fill="#626262" d="M 238.5,577.5 C 238.5,578.5 238.5,579.5 238.5,580.5C 237.5,580.5 236.5,580.5 235.5,580.5C 235.5,579.5 235.5,578.5 235.5,577.5C 236.5,577.5 237.5,577.5 238.5,577.5 Z"/></g>
<g><path style="opacity:1" fill="#666665" d="M 201.5,580.5 C 201.5,581.5 201.5,582.5 201.5,583.5C 200.5,583.5 199.5,583.5 198.5,583.5C 198.5,582.5 198.5,581.5 198.5,580.5C 199.5,580.5 200.5,580.5 201.5,580.5 Z"/></g>
<g><path style="opacity:1" fill="#535252" d="M 235.5,580.5 C 235.5,581.5 235.5,582.5 235.5,583.5C 234.5,583.5 233.5,583.5 232.5,583.5C 232.5,582.5 232.5,581.5 232.5,580.5C 233.5,580.5 234.5,580.5 235.5,580.5 Z"/></g>
<g><path style="opacity:1" fill="#4f4f50" d="M 198.5,583.5 C 198.5,584.5 198.5,585.5 198.5,586.5C 197.5,586.5 196.5,586.5 195.5,586.5C 195.5,585.5 195.5,584.5 195.5,583.5C 196.5,583.5 197.5,583.5 198.5,583.5 Z"/></g>
<g><path style="opacity:1" fill="#787877" d="M 232.5,583.5 C 232.5,584.5 232.5,585.5 232.5,586.5C 231.5,586.5 230.5,586.5 229.5,586.5C 229.5,585.5 229.5,584.5 229.5,583.5C 230.5,583.5 231.5,583.5 232.5,583.5 Z"/></g>
<g><path style="opacity:1" fill="#80807f" d="M 195.5,586.5 C 194.167,588.5 192.5,590.167 190.5,591.5C 190.833,588.5 192.5,586.833 195.5,586.5 Z"/></g>
<g><path style="opacity:1" fill="#5f605f" d="M 190.5,591.5 C 190.5,592.5 190.5,593.5 190.5,594.5C 189.5,594.5 188.5,594.5 187.5,594.5C 187.5,593.5 187.5,592.5 187.5,591.5C 188.5,591.5 189.5,591.5 190.5,591.5 Z"/></g>
<g><path style="opacity:1" fill="#878887" d="M 226.5,591.5 C 225.33,593.279 223.664,594.279 221.5,594.5C 222.3,592.259 223.966,591.259 226.5,591.5 Z"/></g>
<g><path style="opacity:1" fill="#5b5c5b" d="M 187.5,594.5 C 187.5,595.5 187.5,596.5 187.5,597.5C 186.5,597.5 185.5,597.5 184.5,597.5C 184.5,596.5 184.5,595.5 184.5,594.5C 185.5,594.5 186.5,594.5 187.5,594.5 Z"/></g>
<g><path style="opacity:1" fill="#5e5e5d" d="M 221.5,594.5 C 221.5,595.5 221.5,596.5 221.5,597.5C 220.5,597.5 219.5,597.5 218.5,597.5C 218.5,596.5 218.5,595.5 218.5,594.5C 219.5,594.5 220.5,594.5 221.5,594.5 Z"/></g>
<g><path style="opacity:1" fill="#5e5e5d" d="M 184.5,597.5 C 184.5,598.5 184.5,599.5 184.5,600.5C 183.5,600.5 182.5,600.5 181.5,600.5C 181.5,599.5 181.5,598.5 181.5,597.5C 182.5,597.5 183.5,597.5 184.5,597.5 Z"/></g>
<g><path style="opacity:1" fill="#757574" d="M 218.5,597.5 C 218.5,598.5 218.5,599.5 218.5,600.5C 217.5,600.5 216.5,600.5 215.5,600.5C 215.5,599.5 215.5,598.5 215.5,597.5C 216.5,597.5 217.5,597.5 218.5,597.5 Z"/></g>
<g><path style="opacity:1" fill="#4f4f50" d="M 215.5,600.5 C 215.5,601.5 215.5,602.5 215.5,603.5C 214.5,603.5 213.5,603.5 212.5,603.5C 212.5,602.5 212.5,601.5 212.5,600.5C 213.5,600.5 214.5,600.5 215.5,600.5 Z"/></g>
<g><path style="opacity:1" fill="#626262" d="M 176.5,605.5 C 176.5,606.5 176.5,607.5 176.5,608.5C 175.5,608.5 174.5,608.5 173.5,608.5C 173.5,607.5 173.5,606.5 173.5,605.5C 174.5,605.5 175.5,605.5 176.5,605.5 Z"/></g>
<g><path style="opacity:1" fill="#80807f" d="M 212.5,603.5 C 212.167,606.5 210.5,608.167 207.5,608.5C 208.833,606.5 210.5,604.833 212.5,603.5 Z"/></g>
<g><path style="opacity:1" fill="#636363" d="M 173.5,608.5 C 173.5,609.5 173.5,610.5 173.5,611.5C 172.5,611.5 171.5,611.5 170.5,611.5C 170.5,610.5 170.5,609.5 170.5,608.5C 171.5,608.5 172.5,608.5 173.5,608.5 Z"/></g>
<g><path style="opacity:1" fill="#606060" d="M 207.5,608.5 C 207.5,609.5 207.5,610.5 207.5,611.5C 206.5,611.5 205.5,611.5 204.5,611.5C 204.5,610.5 204.5,609.5 204.5,608.5C 205.5,608.5 206.5,608.5 207.5,608.5 Z"/></g>
<g><path style="opacity:1" fill="#5e5e5e" d="M 170.5,611.5 C 170.5,612.5 170.5,613.5 170.5,614.5C 169.5,614.5 168.5,614.5 167.5,614.5C 167.5,613.5 167.5,612.5 167.5,611.5C 168.5,611.5 169.5,611.5 170.5,611.5 Z"/></g>
<g><path style="opacity:1" fill="#5b5c5b" d="M 204.5,611.5 C 204.5,612.5 204.5,613.5 204.5,614.5C 203.5,614.5 202.5,614.5 201.5,614.5C 201.5,613.5 201.5,612.5 201.5,611.5C 202.5,611.5 203.5,611.5 204.5,611.5 Z"/></g>
<g><path style="opacity:1" fill="#5e5e5d" d="M 201.5,614.5 C 201.5,615.5 201.5,616.5 201.5,617.5C 200.5,617.5 199.5,617.5 198.5,617.5C 198.5,616.5 198.5,615.5 198.5,614.5C 199.5,614.5 200.5,614.5 201.5,614.5 Z"/></g>
<g><path style="opacity:1" fill="#646664" d="M 164.5,617.5 C 164.5,618.833 163.833,619.5 162.5,619.5C 162.5,618.167 163.167,617.5 164.5,617.5 Z"/></g>
<g><path style="opacity:1" fill="#565655" d="M 162.5,622.5 C 162.5,625.5 162.5,628.5 162.5,631.5C 161.5,631.5 160.5,631.5 159.5,631.5C 159.5,628.5 159.5,625.5 159.5,622.5C 160.5,622.5 161.5,622.5 162.5,622.5 Z"/></g>
<g><path style="opacity:1" fill="#626262" d="M 193.5,622.5 C 193.5,623.5 193.5,624.5 193.5,625.5C 192.5,625.5 191.5,625.5 190.5,625.5C 190.5,624.5 190.5,623.5 190.5,622.5C 191.5,622.5 192.5,622.5 193.5,622.5 Z"/></g>
<g><path style="opacity:1" fill="#636363" d="M 190.5,625.5 C 190.5,626.5 190.5,627.5 190.5,628.5C 189.5,628.5 188.5,628.5 187.5,628.5C 187.5,627.5 187.5,626.5 187.5,625.5C 188.5,625.5 189.5,625.5 190.5,625.5 Z"/></g>
<g><path style="opacity:1" fill="#5e5e5e" d="M 187.5,628.5 C 187.5,629.5 187.5,630.5 187.5,631.5C 186.5,631.5 185.5,631.5 184.5,631.5C 184.5,630.5 184.5,629.5 184.5,628.5C 185.5,628.5 186.5,628.5 187.5,628.5 Z"/></g>
<g><path style="opacity:1" fill="#5b5b5b" d="M 162.5,633.5 C 164.5,633.5 165.5,634.5 165.5,636.5C 164.5,636.5 163.5,636.5 162.5,636.5C 162.5,635.5 162.5,634.5 162.5,633.5 Z"/></g>
<g><path style="opacity:1" fill="#616261" d="M 181.5,634.5 C 181.5,635.833 180.833,636.5 179.5,636.5C 179.5,635.167 180.167,634.5 181.5,634.5 Z"/></g>
<g><path style="opacity:1" fill="#565656" d="M 167.5,636.5 C 170.5,636.5 173.5,636.5 176.5,636.5C 176.5,637.5 176.5,638.5 176.5,639.5C 173.5,639.5 170.5,639.5 167.5,639.5C 167.5,638.5 167.5,637.5 167.5,636.5 Z"/></g>
</svg>
