<?xml version="1.0" encoding="UTF-8"?>
<!DOCTYPE svg PUBLIC "-//W3C//DTD SVG 1.1//EN" "http://www.w3.org/Graphics/SVG/1.1/DTD/svg11.dtd">
<svg xmlns="http://www.w3.org/2000/svg" version="1.1" width="800px" height="800px" style="shape-rendering:geometricPrecision; text-rendering:geometricPrecision; image-rendering:optimizeQuality; fill-rule:evenodd; clip-rule:evenodd" xmlns:xlink="http://www.w3.org/1999/xlink">
<g><path style="opacity:1" fill="#fefefe" d="M -0.5,-0.5 C 266.167,-0.5 532.833,-0.5 799.5,-0.5C 799.5,266.167 799.5,532.833 799.5,799.5C 532.833,799.5 266.167,799.5 -0.5,799.5C -0.5,532.833 -0.5,266.167 -0.5,-0.5 Z"/></g>
<g><path style="opacity:1" fill="#5f5f5f" d="M 250.5,169.5 C 250.5,170.167 250.5,170.833 250.5,171.5C 247.5,171.5 244.5,171.5 241.5,171.5C 243.988,169.612 246.988,168.945 250.5,169.5 Z"/></g>
<g><path style="opacity:1" fill="#2f2f30" d="M 250.5,169.5 C 351.833,169.5 453.167,169.5 554.5,169.5C 554.5,170.167 554.5,170.833 554.5,171.5C 453.167,171.5 351.833,171.5 250.5,171.5C 250.5,170.833 250.5,170.167 250.5,169.5 Z"/></g>
<g><path style="opacity:1" fill="#979797" d="M 554.5,169.5 C 557.626,169.485 560.293,170.485 562.5,172.5C 559.615,172.806 556.948,172.473 554.5,171.5C 554.5,170.833 554.5,170.167 554.5,169.5 Z"/></g>
<g><path style="opacity:1" fill="#838383" d="M 238.5,171.5 C 235.69,172.819 232.69,173.819 229.5,174.5C 229.5,173.5 229.5,172.5 229.5,171.5C 232.5,171.5 235.5,171.5 238.5,171.5 Z"/></g>
<g><path style="opacity:1" fill="#030304" d="M 238.5,171.5 C 239.5,171.5 240.5,171.5 241.5,171.5C 244.5,171.5 247.5,171.5 250.5,171.5C 351.833,171.5 453.167,171.5 554.5,171.5C 556.948,172.473 559.615,172.806 562.5,172.5C 563.167,172.5 563.833,172.5 564.5,172.5C 566.279,174.344 568.612,175.01 571.5,174.5C 574.195,175.428 576.528,176.761 578.5,178.5C 580.663,179.744 582.997,180.744 585.5,181.5C 587.011,182.502 588.678,183.169 590.5,183.5C 590.285,185.179 590.952,186.179 592.5,186.5C 592.821,188.048 593.821,188.715 595.5,188.5C 596.833,188.5 597.5,189.167 597.5,190.5C 598.67,192.279 600.336,193.279 602.5,193.5C 604.131,197.121 606.465,200.121 609.5,202.5C 609.285,204.179 609.952,205.179 611.5,205.5C 611.821,207.048 612.821,207.715 614.5,207.5C 615.449,209.737 616.116,212.071 616.5,214.5C 617.36,216.288 618.36,217.955 619.5,219.5C 622.357,222.806 623.691,226.806 623.5,231.5C 624.823,234.806 625.823,238.139 626.5,241.5C 626.5,244.5 626.5,247.5 626.5,250.5C 626.5,351.833 626.5,453.167 626.5,554.5C 625.647,559.092 624.647,563.759 623.5,568.5C 623.5,569.5 623.5,570.5 623.5,571.5C 621.744,572.552 621.077,574.219 621.5,576.5C 621.5,577.833 620.833,578.5 619.5,578.5C 618.36,580.045 617.36,581.712 616.5,583.5C 616.116,585.929 615.449,588.263 614.5,590.5C 612.821,590.285 611.821,590.952 611.5,592.5C 609.952,592.821 609.285,593.821 609.5,595.5C 609.5,596.833 608.833,597.5 607.5,597.5C 605.721,598.67 604.721,600.336 604.5,602.5C 600.879,604.131 597.879,606.465 595.5,609.5C 593.821,609.285 592.821,609.952 592.5,611.5C 590.952,611.821 590.285,612.821 590.5,614.5C 588.263,615.449 585.929,616.116 583.5,616.5C 581.712,617.36 580.045,618.36 578.5,619.5C 578.5,620.833 577.833,621.5 576.5,621.5C 574.219,621.077 572.552,621.744 571.5,623.5C 563.599,625.146 555.599,626.146 547.5,626.5C 448.5,626.5 349.5,626.5 250.5,626.5C 247.5,626.5 244.5,626.5 241.5,626.5C 238.139,625.823 234.806,624.823 231.5,623.5C 226.806,623.691 222.806,622.357 219.5,619.5C 217.955,618.36 216.288,617.36 214.5,616.5C 212.071,616.116 209.737,615.449 207.5,614.5C 207.715,612.821 207.048,611.821 205.5,611.5C 205.179,609.952 204.179,609.285 202.5,609.5C 200.121,606.465 197.121,604.131 193.5,602.5C 193.279,600.336 192.279,598.67 190.5,597.5C 189.167,597.5 188.5,596.833 188.5,595.5C 188.715,593.821 188.048,592.821 186.5,592.5C 186.179,590.952 185.179,590.285 183.5,590.5C 182.903,587.626 181.569,585.292 179.5,583.5C 179.5,581.833 179.5,580.167 179.5,578.5C 178.5,578.5 177.5,578.5 176.5,578.5C 176.532,575.924 175.865,573.591 174.5,571.5C 175.01,568.612 174.344,566.279 172.5,564.5C 172.5,563.833 172.5,563.167 172.5,562.5C 172.806,559.615 172.473,556.948 171.5,554.5C 171.5,453.167 171.5,351.833 171.5,250.5C 172.143,243.558 173.143,236.558 174.5,229.5C 174.741,225.563 176.074,222.23 178.5,219.5C 179.64,217.955 180.64,216.288 181.5,214.5C 181.884,212.071 182.551,209.737 183.5,207.5C 185.179,207.715 186.179,207.048 186.5,205.5C 188.048,205.179 188.715,204.179 188.5,202.5C 188.821,200.952 189.821,200.285 191.5,200.5C 191.281,199.325 191.614,198.325 192.5,197.5C 196.067,194.587 199.4,191.587 202.5,188.5C 204.179,188.715 205.179,188.048 205.5,186.5C 207.048,186.179 207.715,185.179 207.5,183.5C 209.322,183.169 210.989,182.502 212.5,181.5C 215.003,180.744 217.337,179.744 219.5,178.5C 222.23,176.074 225.563,174.741 229.5,174.5C 232.69,173.819 235.69,172.819 238.5,171.5 Z"/></g>
<g><path style="opacity:1" fill="#868686" d="M 564.5,172.5 C 567.152,172.41 569.485,173.076 571.5,174.5C 568.612,175.01 566.279,174.344 564.5,172.5 Z"/></g>
<g><path style="opacity:1" fill="#989899" d="M 219.5,178.5 C 217.337,179.744 215.003,180.744 212.5,181.5C 212.577,180.25 213.244,179.417 214.5,179C 216.134,178.506 217.801,178.34 219.5,178.5 Z"/></g>
<g><path style="opacity:1" fill="#9c9c9c" d="M 578.5,178.5 C 580.199,178.34 581.866,178.506 583.5,179C 584.756,179.417 585.423,180.25 585.5,181.5C 582.997,180.744 580.663,179.744 578.5,178.5 Z"/></g>
<g><path style="opacity:1" fill="#6e6e6e" d="M 205.5,186.5 C 205.179,188.048 204.179,188.715 202.5,188.5C 202.821,186.952 203.821,186.285 205.5,186.5 Z"/></g>
<g><path style="opacity:1" fill="#6e6e6e" d="M 592.5,186.5 C 594.179,186.285 595.179,186.952 595.5,188.5C 593.821,188.715 592.821,188.048 592.5,186.5 Z"/></g>
<g><path style="opacity:1" fill="#a9a9a9" d="M 597.5,190.5 C 600.285,189.916 601.952,190.916 602.5,193.5C 600.336,193.279 598.67,192.279 597.5,190.5 Z"/></g>
<g><path style="opacity:1" fill="#727272" d="M 188.5,202.5 C 188.715,204.179 188.048,205.179 186.5,205.5C 186.285,203.821 186.952,202.821 188.5,202.5 Z"/></g>
<g><path style="opacity:1" fill="#6e6e6e" d="M 609.5,202.5 C 611.048,202.821 611.715,203.821 611.5,205.5C 609.952,205.179 609.285,204.179 609.5,202.5 Z"/></g>
<g><path style="opacity:1" fill="#5d5d5e" d="M 181.5,214.5 C 180.64,216.288 179.64,217.955 178.5,219.5C 178.5,217.833 178.5,216.167 178.5,214.5C 179.5,214.5 180.5,214.5 181.5,214.5 Z"/></g>
<g><path style="opacity:1" fill="#5e5e5e" d="M 616.5,214.5 C 617.5,214.5 618.5,214.5 619.5,214.5C 619.5,216.167 619.5,217.833 619.5,219.5C 618.36,217.955 617.36,216.288 616.5,214.5 Z"/></g>
<g><path style="opacity:1" fill="#aaabaa" d="M 623.5,231.5 C 624.5,231.5 625.5,231.5 626.5,231.5C 627.167,234.833 627.833,238.167 628.5,241.5C 627.833,241.5 627.167,241.5 626.5,241.5C 625.823,238.139 624.823,234.806 623.5,231.5 Z"/></g>
<g><path style="opacity:1" fill="#606060" d="M 174.5,229.5 C 173.143,236.558 172.143,243.558 171.5,250.5C 170.833,250.5 170.167,250.5 169.5,250.5C 170.493,243.538 171.16,236.538 171.5,229.5C 172.5,229.5 173.5,229.5 174.5,229.5 Z"/></g>
<g><path style="opacity:1" fill="#5f5f5f" d="M 626.5,241.5 C 627.167,241.5 627.833,241.5 628.5,241.5C 628.5,244.5 628.5,247.5 628.5,250.5C 627.833,250.5 627.167,250.5 626.5,250.5C 626.5,247.5 626.5,244.5 626.5,241.5 Z"/></g>
<g><path style="opacity:1" fill="#2a2a2a" d="M 169.5,250.5 C 170.167,250.5 170.833,250.5 171.5,250.5C 171.5,351.833 171.5,453.167 171.5,554.5C 170.833,554.5 170.167,554.5 169.5,554.5C 169.5,453.167 169.5,351.833 169.5,250.5 Z"/></g>
<g><path style="opacity:1" fill="#2a2a2a" d="M 626.5,250.5 C 627.167,250.5 627.833,250.5 628.5,250.5C 628.5,351.833 628.5,453.167 628.5,554.5C 627.833,554.5 627.167,554.5 626.5,554.5C 626.5,453.167 626.5,351.833 626.5,250.5 Z"/></g>
<g><path style="opacity:1" fill="#979797" d="M 169.5,554.5 C 170.167,554.5 170.833,554.5 171.5,554.5C 172.473,556.948 172.806,559.615 172.5,562.5C 170.485,560.293 169.485,557.626 169.5,554.5 Z"/></g>
<g><path style="opacity:1" fill="#8d8d8d" d="M 626.5,554.5 C 627.167,554.5 627.833,554.5 628.5,554.5C 627.777,558.536 626.777,562.536 625.5,566.5C 624.818,567.243 624.151,567.909 623.5,568.5C 624.647,563.759 625.647,559.092 626.5,554.5 Z"/></g>
<g><path style="opacity:1" fill="#868686" d="M 172.5,564.5 C 174.344,566.279 175.01,568.612 174.5,571.5C 173.076,569.485 172.41,567.152 172.5,564.5 Z"/></g>
<g><path style="opacity:1" fill="#a4a4a3" d="M 623.5,571.5 C 623.923,573.781 623.256,575.448 621.5,576.5C 621.077,574.219 621.744,572.552 623.5,571.5 Z"/></g>
<g><path style="opacity:1" fill="#949495" d="M 176.5,578.5 C 177.5,578.5 178.5,578.5 179.5,578.5C 179.5,580.167 179.5,581.833 179.5,583.5C 177.721,582.33 176.721,580.664 176.5,578.5 Z"/></g>
<g><path style="opacity:1" fill="#5c5c5d" d="M 619.5,578.5 C 619.5,580.167 619.5,581.833 619.5,583.5C 618.5,583.5 617.5,583.5 616.5,583.5C 617.36,581.712 618.36,580.045 619.5,578.5 Z"/></g>
<g><path style="opacity:1" fill="#727272" d="M 186.5,592.5 C 188.048,592.821 188.715,593.821 188.5,595.5C 186.952,595.179 186.285,594.179 186.5,592.5 Z"/></g>
<g><path style="opacity:1" fill="#727272" d="M 611.5,592.5 C 611.715,594.179 611.048,595.179 609.5,595.5C 609.285,593.821 609.952,592.821 611.5,592.5 Z"/></g>
<g><path style="opacity:1" fill="#aaaaaa" d="M 190.5,597.5 C 192.279,598.67 193.279,600.336 193.5,602.5C 190.916,601.952 189.916,600.285 190.5,597.5 Z"/></g>
<g><path style="opacity:1" fill="#acacac" d="M 607.5,597.5 C 608.084,600.285 607.084,601.952 604.5,602.5C 604.721,600.336 605.721,598.67 607.5,597.5 Z"/></g>
<g><path style="opacity:1" fill="#727272" d="M 202.5,609.5 C 204.179,609.285 205.179,609.952 205.5,611.5C 203.821,611.715 202.821,611.048 202.5,609.5 Z"/></g>
<g><path style="opacity:1" fill="#727272" d="M 595.5,609.5 C 595.179,611.048 594.179,611.715 592.5,611.5C 592.821,609.952 593.821,609.285 595.5,609.5 Z"/></g>
<g><path style="opacity:1" fill="#606061" d="M 214.5,616.5 C 216.288,617.36 217.955,618.36 219.5,619.5C 217.833,619.5 216.167,619.5 214.5,619.5C 214.5,618.5 214.5,617.5 214.5,616.5 Z"/></g>
<g><path style="opacity:1" fill="#6d6d6e" d="M 583.5,616.5 C 583.5,617.5 583.5,618.5 583.5,619.5C 581.833,619.5 580.167,619.5 578.5,619.5C 580.045,618.36 581.712,617.36 583.5,616.5 Z"/></g>
<g><path style="opacity:1" fill="#a4a4a3" d="M 576.5,621.5 C 575.448,623.256 573.781,623.923 571.5,623.5C 572.552,621.744 574.219,621.077 576.5,621.5 Z"/></g>
<g><path style="opacity:1" fill="#ababab" d="M 231.5,623.5 C 234.806,624.823 238.139,625.823 241.5,626.5C 241.5,627.167 241.5,627.833 241.5,628.5C 238.167,627.833 234.833,627.167 231.5,626.5C 231.5,625.5 231.5,624.5 231.5,623.5 Z"/></g>
<g><path style="opacity:1" fill="#5f5f5f" d="M 241.5,626.5 C 244.5,626.5 247.5,626.5 250.5,626.5C 250.5,627.167 250.5,627.833 250.5,628.5C 247.5,628.5 244.5,628.5 241.5,628.5C 241.5,627.833 241.5,627.167 241.5,626.5 Z"/></g>
<g><path style="opacity:1" fill="#2e2e2f" d="M 250.5,626.5 C 349.5,626.5 448.5,626.5 547.5,626.5C 547.5,627.167 547.5,627.833 547.5,628.5C 448.5,628.5 349.5,628.5 250.5,628.5C 250.5,627.833 250.5,627.167 250.5,626.5 Z"/></g>
<g><path style="opacity:1" fill="#7b7b7b" d="M 571.5,623.5 C 569.981,624.41 568.315,625.243 566.5,626C 560.216,627.291 553.882,628.124 547.5,628.5C 547.5,627.833 547.5,627.167 547.5,626.5C 555.599,626.146 563.599,625.146 571.5,623.5 Z"/></g>
</svg>
