<?xml version="1.0" encoding="UTF-8"?>
<!DOCTYPE svg PUBLIC "-//W3C//DTD SVG 1.1//EN" "http://www.w3.org/Graphics/SVG/1.1/DTD/svg11.dtd">
<svg xmlns="http://www.w3.org/2000/svg" version="1.1" width="800px" height="800px" style="shape-rendering:geometricPrecision; text-rendering:geometricPrecision; image-rendering:optimizeQuality; fill-rule:evenodd; clip-rule:evenodd" xmlns:xlink="http://www.w3.org/1999/xlink">
<g><path style="opacity:1" fill="#fefefe" d="M -0.5,-0.5 C 266.167,-0.5 532.833,-0.5 799.5,-0.5C 799.5,266.167 799.5,532.833 799.5,799.5C 532.833,799.5 266.167,799.5 -0.5,799.5C -0.5,532.833 -0.5,266.167 -0.5,-0.5 Z"/></g>
<g><path style="opacity:1" fill="#8f8c8d" d="M 407.5,162.5 C 409.781,162.077 411.448,162.744 412.5,164.5C 410.447,164.598 408.78,163.931 407.5,162.5 Z"/></g>
<g><path style="opacity:1" fill="#acaaab" d="M 417.5,165.5 C 420.228,165.171 422.562,165.837 424.5,167.5C 421.848,167.59 419.515,166.924 417.5,165.5 Z"/></g>
<g><path style="opacity:1" fill="#231e1f" d="M 407.5,162.5 C 408.78,163.931 410.447,164.598 412.5,164.5C 414.415,164.216 416.081,164.549 417.5,165.5C 419.515,166.924 421.848,167.59 424.5,167.5C 435.497,171.423 446.831,174.756 458.5,177.5C 460.698,179.397 463.364,180.397 466.5,180.5C 469.025,181.64 471.692,182.307 474.5,182.5C 476.597,184.482 479.264,185.482 482.5,185.5C 483.167,185.5 483.833,185.5 484.5,185.5C 485.552,187.256 487.219,187.923 489.5,187.5C 490.99,189.28 492.99,189.946 495.5,189.5C 497.833,190.167 500.167,190.833 502.5,191.5C 504.515,192.924 506.848,193.59 509.5,193.5C 512.366,194.965 515.366,195.965 518.5,196.5C 520.515,197.924 522.848,198.59 525.5,198.5C 528.025,199.64 530.692,200.307 533.5,200.5C 535.698,202.397 538.364,203.397 541.5,203.5C 556.404,207.473 571.071,211.806 585.5,216.5C 588.495,218.243 591.829,219.243 595.5,219.5C 606.544,223.509 617.878,226.842 629.5,229.5C 630.552,231.256 632.219,231.923 634.5,231.5C 636.597,233.482 639.264,234.482 642.5,234.5C 645.346,234.03 647.679,234.863 649.5,237C 648.309,237.698 647.309,238.531 646.5,239.5C 640.372,241.432 634.206,243.432 628,245.5C 625.792,246.937 623.626,248.27 621.5,249.5C 618.626,250.063 615.96,251.063 613.5,252.5C 611.302,252.12 609.635,252.787 608.5,254.5C 605.745,255.344 603.079,256.344 600.5,257.5C 596.784,258.643 593.451,260.31 590.5,262.5C 581.51,265.16 572.843,268.66 564.5,273C 546.447,280.231 528.447,287.397 510.5,294.5C 507.609,295.541 504.942,296.874 502.5,298.5C 480.936,307.573 459.269,316.24 437.5,324.5C 435.02,325.242 432.687,326.242 430.5,327.5C 427.932,328.45 425.432,328.45 423,327.5C 422.634,329.452 421.801,331.118 420.5,332.5C 415.729,333.919 411.062,335.585 406.5,337.5C 403.043,338.729 399.71,340.229 396.5,342C 393.243,343.043 389.91,343.543 386.5,343.5C 378.706,341.098 371.039,338.432 363.5,335.5C 361.302,333.603 358.636,332.603 355.5,332.5C 352.136,331.439 348.803,330.439 345.5,329.5C 342.665,327.587 339.332,326.587 335.5,326.5C 332.015,324.505 328.349,322.838 324.5,321.5C 323.365,319.787 321.698,319.12 319.5,319.5C 302.163,313.498 284.829,307.498 267.5,301.5C 265.898,299.926 263.898,299.259 261.5,299.5C 260.292,298.766 258.959,298.433 257.5,298.5C 256.448,296.744 254.781,296.077 252.5,296.5C 250.302,294.603 247.636,293.603 244.5,293.5C 243.448,291.744 241.781,291.077 239.5,291.5C 237.208,289.733 234.542,288.733 231.5,288.5C 205.078,279.792 178.744,270.292 152.5,260C 167.461,252.839 182.794,246.339 198.5,240.5C 199.167,239.833 199.833,239.167 200.5,238.5C 204.876,237.119 209.21,235.786 213.5,234.5C 215.674,234.25 217.341,233.25 218.5,231.5C 229.588,226.802 240.921,222.469 252.5,218.5C 256.686,218.237 260.019,216.571 262.5,213.5C 271.152,210.168 279.819,206.835 288.5,203.5C 290.848,203.408 292.514,202.408 293.5,200.5C 297.116,199.686 300.449,198.352 303.5,196.5C 304.708,195.766 306.041,195.433 307.5,195.5C 309.967,195.245 311.967,194.245 313.5,192.5C 315.5,191.833 317.5,191.167 319.5,190.5C 321.027,190.573 322.027,189.906 322.5,188.5C 343.735,179.606 365.068,170.773 386.5,162C 389.479,161.109 392.479,160.276 395.5,159.5C 399.493,160.495 403.493,161.495 407.5,162.5 Z"/></g>
<g><path style="opacity:1" fill="#a5a5a5" d="M 458.5,177.5 C 461.68,177.661 464.347,178.661 466.5,180.5C 463.364,180.397 460.698,179.397 458.5,177.5 Z"/></g>
<g><path style="opacity:1" fill="#9d999a" d="M 474.5,182.5 C 477.68,182.661 480.347,183.661 482.5,185.5C 479.264,185.482 476.597,184.482 474.5,182.5 Z"/></g>
<g><path style="opacity:1" fill="#a6a1a3" d="M 484.5,185.5 C 486.698,185.12 488.365,185.787 489.5,187.5C 487.219,187.923 485.552,187.256 484.5,185.5 Z"/></g>
<g><path style="opacity:1" fill="#6f6a6c" d="M 489.5,187.5 C 491.786,187.595 493.786,188.262 495.5,189.5C 492.99,189.946 490.99,189.28 489.5,187.5 Z"/></g>
<g><path style="opacity:1" fill="#878586" d="M 322.5,188.5 C 322.027,189.906 321.027,190.573 319.5,190.5C 319.821,188.952 320.821,188.285 322.5,188.5 Z"/></g>
<g><path style="opacity:1" fill="#aaa9a9" d="M 502.5,191.5 C 505.152,191.41 507.485,192.076 509.5,193.5C 506.848,193.59 504.515,192.924 502.5,191.5 Z"/></g>
<g><path style="opacity:1" fill="#6c6a6a" d="M 313.5,192.5 C 311.967,194.245 309.967,195.245 307.5,195.5C 309.033,193.755 311.033,192.755 313.5,192.5 Z"/></g>
<g><path style="opacity:1" fill="#918f8f" d="M 518.5,196.5 C 521.228,196.171 523.562,196.837 525.5,198.5C 522.848,198.59 520.515,197.924 518.5,196.5 Z"/></g>
<g><path style="opacity:1" fill="#c6c3c4" d="M 303.5,196.5 C 300.449,198.352 297.116,199.686 293.5,200.5C 295.977,197.306 299.31,195.973 303.5,196.5 Z"/></g>
<g><path style="opacity:1" fill="#736f71" d="M 293.5,200.5 C 292.514,202.408 290.848,203.408 288.5,203.5C 289.486,201.592 291.152,200.592 293.5,200.5 Z"/></g>
<g><path style="opacity:1" fill="#a3a2a2" d="M 533.5,200.5 C 536.68,200.661 539.347,201.661 541.5,203.5C 538.364,203.397 535.698,202.397 533.5,200.5 Z"/></g>
<g><path style="opacity:1" fill="#484647" d="M 262.5,213.5 C 260.019,216.571 256.686,218.237 252.5,218.5C 255.415,216.321 258.748,214.654 262.5,213.5 Z"/></g>
<g><path style="opacity:1" fill="#c1c0c0" d="M 585.5,216.5 C 588.038,216.507 590.538,216.841 593,217.5C 594.376,217.684 595.209,218.351 595.5,219.5C 591.829,219.243 588.495,218.243 585.5,216.5 Z"/></g>
<g><path style="opacity:1" fill="#a8a8a8" d="M 629.5,229.5 C 631.698,229.12 633.365,229.787 634.5,231.5C 632.219,231.923 630.552,231.256 629.5,229.5 Z"/></g>
<g><path style="opacity:1" fill="#7c7c7d" d="M 218.5,231.5 C 217.341,233.25 215.674,234.25 213.5,234.5C 214.486,232.592 216.152,231.592 218.5,231.5 Z"/></g>
<g><path style="opacity:1" fill="#888889" d="M 634.5,231.5 C 637.68,231.661 640.347,232.661 642.5,234.5C 639.264,234.482 636.597,233.482 634.5,231.5 Z"/></g>
<g><path style="opacity:1" fill="#dbdbda" d="M 646.5,239.5 C 646.414,240.496 646.748,241.329 647.5,242C 645.871,242.585 644.371,243.419 643,244.5C 639.386,243.406 636.386,244.406 634,247.5C 633.439,246.978 632.772,246.645 632,246.5C 628.739,248.189 625.239,249.189 621.5,249.5C 623.626,248.27 625.792,246.937 628,245.5C 634.206,243.432 640.372,241.432 646.5,239.5 Z"/></g>
<g><path style="opacity:1" fill="#9f9e9f" d="M 613.5,252.5 C 612.448,254.256 610.781,254.923 608.5,254.5C 609.635,252.787 611.302,252.12 613.5,252.5 Z"/></g>
<g><path style="opacity:1" fill="#c1bfc0" d="M 600.5,257.5 C 600.489,259.017 599.823,260.184 598.5,261C 595.793,261.395 593.127,261.895 590.5,262.5C 593.451,260.31 596.784,258.643 600.5,257.5 Z"/></g>
<g><path style="opacity:1" fill="#231e1f" d="M 650.5,554.5 C 641.702,558.797 632.702,562.797 623.5,566.5C 620.843,566.935 618.509,567.935 616.5,569.5C 616.167,569.5 615.833,569.5 615.5,569.5C 612.895,569.621 610.895,570.621 609.5,572.5C 590.241,580.121 570.908,587.788 551.5,595.5C 548.123,597.175 544.789,598.842 541.5,600.5C 538.539,600.464 536.206,601.464 534.5,603.5C 529.729,604.919 525.062,606.585 520.5,608.5C 516.748,609.654 513.415,611.321 510.5,613.5C 503.346,616.652 496.013,619.319 488.5,621.5C 486.177,622.778 483.677,623.778 481,624.5C 479.97,624.836 479.47,625.503 479.5,626.5C 478.5,626.5 477.5,626.5 476.5,626.5C 474.152,626.592 472.486,627.592 471.5,629.5C 469.5,630.167 467.5,630.833 465.5,631.5C 462.615,631.643 460.282,632.643 458.5,634.5C 450.201,637.82 441.868,641.153 433.5,644.5C 430.784,644.386 428.784,645.386 427.5,647.5C 426.833,647.5 426.167,647.5 425.5,647.5C 423.973,647.427 422.973,648.094 422.5,649.5C 416.791,652.18 410.791,654.18 404.5,655.5C 403.167,607.505 402.5,559.171 402.5,510.5C 402.509,461.357 403.176,412.357 404.5,363.5C 405.167,363.5 405.833,363.5 406.5,363.5C 408.848,363.408 410.514,362.408 411.5,360.5C 423.943,355.688 436.276,350.688 448.5,345.5C 450.553,345.598 452.22,344.931 453.5,343.5C 466.333,337.921 479.333,332.588 492.5,327.5C 495.272,327.241 497.605,326.241 499.5,324.5C 509.862,319.38 520.529,315.047 531.5,311.5C 533.153,311.34 534.486,310.674 535.5,309.5C 554.775,301.557 574.108,293.557 593.5,285.5C 596.943,284.354 600.277,283.021 603.5,281.5C 615.792,277.151 627.792,271.984 639.5,266C 643.375,264.356 647.375,263.189 651.5,262.5C 651.833,360.001 651.499,457.335 650.5,554.5 Z"/></g>
<g><path style="opacity:1" fill="#120f11" d="M 650.5,554.5 C 643.701,556.108 643.201,555.441 649,552.5C 649.831,458.793 649.664,365.126 648.5,271.5C 649.189,269.556 649.689,267.556 650,265.5C 650.5,361.833 650.667,458.166 650.5,554.5 Z"/></g>
<g><path style="opacity:1" fill="#c5c4c5" d="M 603.5,281.5 C 600.277,283.021 596.943,284.354 593.5,285.5C 595.936,282.314 599.269,280.981 603.5,281.5 Z"/></g>
<g><path style="opacity:1" fill="#7f7f7f" d="M 151.5,285.5 C 151.5,286.167 151.5,286.833 151.5,287.5C 151.5,383.167 151.5,478.833 151.5,574.5C 151.5,575.833 151.5,577.167 151.5,578.5C 152.791,578.263 153.791,578.596 154.5,579.5C 152.517,579.843 151.183,579.176 150.5,577.5C 150.167,479.999 150.501,382.665 151.5,285.5 Z"/></g>
<g><path style="opacity:1" fill="#959494" d="M 231.5,288.5 C 234.542,288.733 237.208,289.733 239.5,291.5C 236.264,291.482 233.597,290.482 231.5,288.5 Z"/></g>
<g><path style="opacity:1" fill="#777475" d="M 239.5,291.5 C 241.781,291.077 243.448,291.744 244.5,293.5C 242.447,293.598 240.78,292.931 239.5,291.5 Z"/></g>
<g><path style="opacity:1" fill="#bbbbbb" d="M 156.5,286.5 C 154.883,285.962 153.216,285.629 151.5,285.5C 150.501,382.665 150.167,479.999 150.5,577.5C 149.501,479.668 149.167,381.668 149.5,283.5C 152.491,283.166 154.824,284.166 156.5,286.5 Z"/></g>
<g><path style="opacity:1" fill="#b4b2b3" d="M 510.5,294.5 C 510.5,295.5 510.5,296.5 510.5,297.5C 507.873,298.092 505.206,298.425 502.5,298.5C 504.942,296.874 507.609,295.541 510.5,294.5 Z"/></g>
<g><path style="opacity:1" fill="#9b9b9b" d="M 252.5,296.5 C 254.781,296.077 256.448,296.744 257.5,298.5C 255.447,298.598 253.78,297.931 252.5,296.5 Z"/></g>
<g><path style="opacity:1" fill="#231e1f" d="M 151.5,285.5 C 153.216,285.629 154.883,285.962 156.5,286.5C 170.443,291.497 184.443,296.497 198.5,301.5C 199.183,303.176 200.517,303.843 202.5,303.5C 208.744,305.75 215.077,307.75 221.5,309.5C 222.552,311.256 224.219,311.923 226.5,311.5C 234.054,314.441 241.72,317.108 249.5,319.5C 250.552,321.256 252.219,321.923 254.5,321.5C 262.282,325.057 270.282,328.057 278.5,330.5C 279.78,331.931 281.447,332.598 283.5,332.5C 289.12,334.291 294.786,335.958 300.5,337.5C 302.033,339.245 304.033,340.245 306.5,340.5C 311.833,342.167 317.167,343.833 322.5,345.5C 323.183,347.176 324.517,347.843 326.5,347.5C 329.801,349.577 333.468,350.577 337.5,350.5C 339.09,352.821 341.423,353.821 344.5,353.5C 346.114,355.075 348.114,355.741 350.5,355.5C 353.54,359.052 357.54,360.719 362.5,360.5C 366.121,361.694 369.788,362.694 373.5,363.5C 373.5,364.167 373.5,364.833 373.5,365.5C 374.164,462.506 373.498,559.172 371.5,655.5C 367.122,654.613 362.789,653.613 358.5,652.5C 357.089,650.461 355.089,649.461 352.5,649.5C 336.896,644.686 321.562,639.352 306.5,633.5C 300.669,630.922 294.669,628.588 288.5,626.5C 283.147,624.826 277.814,623.16 272.5,621.5C 268.915,619.194 264.915,617.861 260.5,617.5C 255.442,614.923 250.108,612.923 244.5,611.5C 242.718,609.643 240.385,608.643 237.5,608.5C 232.167,606.833 226.833,605.167 221.5,603.5C 220.105,601.621 218.105,600.621 215.5,600.5C 199.81,595.781 184.477,590.448 169.5,584.5C 166.46,582.654 163.127,581.321 159.5,580.5C 157.784,580.371 156.117,580.038 154.5,579.5C 153.791,578.596 152.791,578.263 151.5,578.5C 151.5,577.167 151.5,575.833 151.5,574.5C 152.168,479.098 152.834,383.598 153.5,288C 152.906,287.536 152.239,287.369 151.5,287.5C 151.5,286.833 151.5,286.167 151.5,285.5 Z"/></g>
<g><path style="opacity:1" fill="#7b797a" d="M 261.5,299.5 C 263.898,299.259 265.898,299.926 267.5,301.5C 265.102,301.741 263.102,301.074 261.5,299.5 Z"/></g>
<g><path style="opacity:1" fill="#111212" d="M 151.5,287.5 C 152.239,287.369 152.906,287.536 153.5,288C 152.834,383.598 152.168,479.098 151.5,574.5C 151.5,478.833 151.5,383.167 151.5,287.5 Z"/></g>
<g><path style="opacity:1" fill="#979495" d="M 198.5,301.5 C 200.483,301.157 201.817,301.824 202.5,303.5C 200.517,303.843 199.183,303.176 198.5,301.5 Z"/></g>
<g><path style="opacity:1" fill="#a7a7a7" d="M 221.5,309.5 C 223.698,309.12 225.365,309.787 226.5,311.5C 224.219,311.923 222.552,311.256 221.5,309.5 Z"/></g>
<g><path style="opacity:1" fill="#8f8f8f" d="M 535.5,309.5 C 534.486,310.674 533.153,311.34 531.5,311.5C 532.183,309.824 533.517,309.157 535.5,309.5 Z"/></g>
<g><path style="opacity:1" fill="#a5a4a5" d="M 249.5,319.5 C 251.553,319.402 253.22,320.069 254.5,321.5C 252.219,321.923 250.552,321.256 249.5,319.5 Z"/></g>
<g><path style="opacity:1" fill="#696566" d="M 319.5,319.5 C 321.698,319.12 323.365,319.787 324.5,321.5C 322.219,321.923 320.552,321.256 319.5,319.5 Z"/></g>
<g><path style="opacity:1" fill="#8c898a" d="M 499.5,324.5 C 497.605,326.241 495.272,327.241 492.5,327.5C 494.282,325.643 496.615,324.643 499.5,324.5 Z"/></g>
<g><path style="opacity:1" fill="#bab8b8" d="M 335.5,326.5 C 339.332,326.587 342.665,327.587 345.5,329.5C 341.714,329.68 338.381,328.68 335.5,326.5 Z"/></g>
<g><path style="opacity:1" fill="#565555" d="M 430.5,327.5 C 430.5,328.167 430.5,328.833 430.5,329.5C 426.998,329.947 423.664,330.947 420.5,332.5C 421.801,331.118 422.634,329.452 423,327.5C 425.432,328.45 427.932,328.45 430.5,327.5 Z"/></g>
<g><path style="opacity:1" fill="#c5c3c4" d="M 437.5,324.5 C 436.192,327.486 433.858,329.152 430.5,329.5C 430.5,328.833 430.5,328.167 430.5,327.5C 432.687,326.242 435.02,325.242 437.5,324.5 Z"/></g>
<g><path style="opacity:1" fill="#949091" d="M 278.5,330.5 C 280.781,330.077 282.448,330.744 283.5,332.5C 281.447,332.598 279.78,331.931 278.5,330.5 Z"/></g>
<g><path style="opacity:1" fill="#686969" d="M 355.5,332.5 C 358.636,332.603 361.302,333.603 363.5,335.5C 360.264,335.482 357.597,334.482 355.5,332.5 Z"/></g>
<g><path style="opacity:1" fill="#949192" d="M 300.5,337.5 C 303.216,337.386 305.216,338.386 306.5,340.5C 304.033,340.245 302.033,339.245 300.5,337.5 Z"/></g>
<g><path style="opacity:1" fill="#cac9c9" d="M 406.5,337.5 C 404.907,339.966 402.907,342.133 400.5,344C 399.234,344.309 398.067,344.809 397,345.5C 394.4,344.407 391.734,344.407 389,345.5C 387.624,345.316 386.791,344.649 386.5,343.5C 389.91,343.543 393.243,343.043 396.5,342C 399.71,340.229 403.043,338.729 406.5,337.5 Z"/></g>
<g><path style="opacity:1" fill="#a5a1a2" d="M 453.5,343.5 C 452.22,344.931 450.553,345.598 448.5,345.5C 449.552,343.744 451.219,343.077 453.5,343.5 Z"/></g>
<g><path style="opacity:1" fill="#9b9a9b" d="M 322.5,345.5 C 324.483,345.157 325.817,345.824 326.5,347.5C 324.517,347.843 323.183,347.176 322.5,345.5 Z"/></g>
<g><path style="opacity:1" fill="#b0aeae" d="M 337.5,350.5 C 340.096,351.055 342.429,352.055 344.5,353.5C 341.423,353.821 339.09,352.821 337.5,350.5 Z"/></g>
<g><path style="opacity:1" fill="#544f51" d="M 350.5,355.5 C 354.624,357.082 358.624,358.748 362.5,360.5C 357.54,360.719 353.54,359.052 350.5,355.5 Z"/></g>
<g><path style="opacity:1" fill="#656566" d="M 411.5,360.5 C 410.514,362.408 408.848,363.408 406.5,363.5C 407.659,361.75 409.326,360.75 411.5,360.5 Z"/></g>
<g><path style="opacity:1" fill="#373334" d="M 373.5,365.5 C 374.499,462.665 374.833,559.999 374.5,657.5C 372.821,657.715 371.821,657.048 371.5,655.5C 373.498,559.172 374.164,462.506 373.5,365.5 Z"/></g>
<g><path style="opacity:1" fill="#969293" d="M 373.5,363.5 C 374.833,412.162 375.5,461.162 375.5,510.5C 375.5,559.668 375.167,608.668 374.5,657.5C 374.833,559.999 374.499,462.665 373.5,365.5C 373.5,364.833 373.5,364.167 373.5,363.5 Z"/></g>
<g><path style="opacity:1" fill="#dfdede" d="M 401.5,365.5 C 401.5,462.833 401.5,560.167 401.5,657.5C 399.952,657.179 399.285,656.179 399.5,654.5C 395.5,653.833 395.5,653.167 399.5,652.5C 398.836,556.494 399.502,460.828 401.5,365.5 Z"/></g>
<g><path style="opacity:1" fill="#2c2a2b" d="M 404.5,363.5 C 403.176,412.357 402.509,461.357 402.5,510.5C 402.5,559.171 403.167,607.505 404.5,655.5C 404.179,657.048 403.179,657.715 401.5,657.5C 401.5,560.167 401.5,462.833 401.5,365.5C 401.821,363.952 402.821,363.285 404.5,363.5 Z"/></g>
<g><path style="opacity:1" fill="#afabac" d="M 623.5,566.5 C 621.824,568.834 619.491,569.834 616.5,569.5C 618.509,567.935 620.843,566.935 623.5,566.5 Z"/></g>
<g><path style="opacity:1" fill="#9c9799" d="M 615.5,569.5 C 614.015,571.231 612.015,572.231 609.5,572.5C 610.895,570.621 612.895,569.621 615.5,569.5 Z"/></g>
<g><path style="opacity:1" fill="#bdb9ba" d="M 159.5,580.5 C 163.127,581.321 166.46,582.654 169.5,584.5C 165.253,585.016 161.92,583.683 159.5,580.5 Z"/></g>
<g><path style="opacity:1" fill="#bebcbc" d="M 551.5,595.5 C 551.489,597.017 550.823,598.184 549.5,599C 546.937,600.079 544.271,600.579 541.5,600.5C 544.789,598.842 548.123,597.175 551.5,595.5 Z"/></g>
<g><path style="opacity:1" fill="#818281" d="M 215.5,600.5 C 218.105,600.621 220.105,601.621 221.5,603.5C 218.911,603.539 216.911,602.539 215.5,600.5 Z"/></g>
<g><path style="opacity:1" fill="#a6a6a6" d="M 541.5,600.5 C 539.645,602.233 537.312,603.233 534.5,603.5C 536.206,601.464 538.539,600.464 541.5,600.5 Z"/></g>
<g><path style="opacity:1" fill="#898788" d="M 237.5,608.5 C 240.385,608.643 242.718,609.643 244.5,611.5C 241.615,611.357 239.282,610.357 237.5,608.5 Z"/></g>
<g><path style="opacity:1" fill="#afadad" d="M 520.5,608.5 C 518.008,611.675 514.674,613.341 510.5,613.5C 513.415,611.321 516.748,609.654 520.5,608.5 Z"/></g>
<g><path style="opacity:1" fill="#a6a4a4" d="M 260.5,617.5 C 264.915,617.861 268.915,619.194 272.5,621.5C 267.942,621.534 263.942,620.2 260.5,617.5 Z"/></g>
<g><path style="opacity:1" fill="#aaa5a7" d="M 488.5,621.5 C 486.349,624.415 483.349,626.082 479.5,626.5C 479.47,625.503 479.97,624.836 481,624.5C 483.677,623.778 486.177,622.778 488.5,621.5 Z"/></g>
<g><path style="opacity:1" fill="#8c8c8c" d="M 476.5,626.5 C 475.395,628.223 473.728,629.223 471.5,629.5C 472.486,627.592 474.152,626.592 476.5,626.5 Z"/></g>
<g><path style="opacity:1" fill="#d3d3d3" d="M 288.5,626.5 C 294.669,628.588 300.669,630.922 306.5,633.5C 303.159,634.005 299.826,634.172 296.5,634C 298.271,633.465 298.604,632.631 297.5,631.5C 293.697,630.996 290.697,629.33 288.5,626.5 Z"/></g>
<g><path style="opacity:1" fill="#878384" d="M 465.5,631.5 C 463.68,633.448 461.346,634.448 458.5,634.5C 460.282,632.643 462.615,631.643 465.5,631.5 Z"/></g>
<g><path style="opacity:1" fill="#868686" d="M 433.5,644.5 C 432.015,646.231 430.015,647.231 427.5,647.5C 428.784,645.386 430.784,644.386 433.5,644.5 Z"/></g>
<g><path style="opacity:1" fill="#858687" d="M 425.5,647.5 C 425.179,649.048 424.179,649.715 422.5,649.5C 422.973,648.094 423.973,647.427 425.5,647.5 Z"/></g>
<g><path style="opacity:1" fill="#9a9597" d="M 352.5,649.5 C 355.089,649.461 357.089,650.461 358.5,652.5C 355.895,652.379 353.895,651.379 352.5,649.5 Z"/></g>
</svg>
