<?xml version="1.0" encoding="UTF-8"?>
<!DOCTYPE svg PUBLIC "-//W3C//DTD SVG 1.1//EN" "http://www.w3.org/Graphics/SVG/1.1/DTD/svg11.dtd">
<svg xmlns="http://www.w3.org/2000/svg" version="1.1" width="200px" height="200px" style="shape-rendering:geometricPrecision; text-rendering:geometricPrecision; image-rendering:optimizeQuality; fill-rule:evenodd; clip-rule:evenodd" xmlns:xlink="http://www.w3.org/1999/xlink">
<g><path style="opacity:0.873" fill="#000000" d="M 199.5,30.5 C 199.5,76.5 199.5,122.5 199.5,168.5C 195.854,180.317 188.187,188.483 176.5,193C 150.881,194.149 125.214,194.649 99.5,194.5C 73.786,194.649 48.1193,194.149 22.5,193C 10.8128,188.483 3.14614,180.317 -0.5,168.5C -0.5,122.5 -0.5,76.5 -0.5,30.5C 3.14614,18.6835 10.8128,10.5168 22.5,6C 48.1193,4.85148 73.786,4.35148 99.5,4.5C 125.214,4.35148 150.881,4.85148 176.5,6C 188.187,10.5168 195.854,18.6835 199.5,30.5 Z M 28.5,11.5 C 75.8345,11.3333 123.168,11.5 170.5,12C 181.914,14.415 189.081,21.2483 192,32.5C 192.667,77.1667 192.667,121.833 192,166.5C 188.96,178.206 181.46,185.039 169.5,187C 122.833,187.667 76.1667,187.667 29.5,187C 17.5399,185.039 10.0399,178.206 7,166.5C 6.33333,121.833 6.33333,77.1667 7,32.5C 10.0973,21.235 17.264,14.235 28.5,11.5 Z"/></g>
<g><path style="opacity:0.889" fill="#000000" d="M 22.5,28.5 C 28.2289,28.2123 33.8955,28.5456 39.5,29.5C 40.9864,32.2834 41.653,35.2834 41.5,38.5C 41.6804,41.5795 41.0138,44.4129 39.5,47C 33.5837,47.8072 27.7504,47.6406 22,46.5C 19.8941,40.3993 20.0607,34.3993 22.5,28.5 Z"/></g>
<g><path style="opacity:0.916" fill="#000000" d="M 68.5,28.5 C 73.8437,28.334 79.1771,28.5006 84.5,29C 85,29.5 85.5,30 86,30.5C 86.8056,36.0838 86.6389,41.5838 85.5,47C 79.8333,47.6667 74.1667,47.6667 68.5,47C 68,46.5 67.5,46 67,45.5C 66.3333,40.5 66.3333,35.5 67,30.5C 67.7172,29.9558 68.2172,29.2891 68.5,28.5 Z"/></g>
<g><path style="opacity:0.916" fill="#000000" d="M 114.5,28.5 C 119.844,28.334 125.177,28.5006 130.5,29C 131,29.5 131.5,30 132,30.5C 132.667,35.5 132.667,40.5 132,45.5C 131.5,46 131,46.5 130.5,47C 124.584,47.8072 118.75,47.6406 113,46.5C 112.333,41.1667 112.333,35.8333 113,30.5C 113.717,29.9558 114.217,29.2891 114.5,28.5 Z"/></g>
<g><path style="opacity:0.895" fill="#000000" d="M 159.5,28.5 C 165.425,28.1918 171.259,28.5251 177,29.5C 179.132,35.4358 178.965,41.2692 176.5,47C 158.338,52.0101 152.672,45.8434 159.5,28.5 Z"/></g>
<g><path style="opacity:0.896" fill="#000000" d="M 22.5,69.5 C 28.4254,69.1918 34.2588,69.5251 40,70.5C 42.1315,76.4358 41.9648,82.2692 39.5,88C 33.5837,88.8072 27.7504,88.6406 22,87.5C 19.8941,81.3993 20.0607,75.3993 22.5,69.5 Z"/></g>
<g><path style="opacity:0.929" fill="#000000" d="M 68.5,69.5 C 73.8437,69.334 79.1771,69.5006 84.5,70C 85,70.5 85.5,71 86,71.5C 86.8056,77.0838 86.6389,82.5838 85.5,88C 79.8333,88.6667 74.1667,88.6667 68.5,88C 68,87.5 67.5,87 67,86.5C 66.3333,81.5 66.3333,76.5 67,71.5C 67.7172,70.9558 68.2172,70.2891 68.5,69.5 Z"/></g>
<g><path style="opacity:0.926" fill="#000000" d="M 114.5,69.5 C 119.844,69.334 125.177,69.5006 130.5,70C 131,70.5 131.5,71 132,71.5C 132.667,76.5 132.667,81.5 132,86.5C 131.5,87 131,87.5 130.5,88C 124.584,88.8072 118.75,88.6406 113,87.5C 111.95,81.2155 112.45,75.2155 114.5,69.5 Z"/></g>
<g><path style="opacity:0.904" fill="#000000" d="M 159.5,69.5 C 165.425,69.1918 171.259,69.5251 177,70.5C 179.132,76.4358 178.965,82.2692 176.5,88C 170.833,88.6667 165.167,88.6667 159.5,88C 159,87.5 158.5,87 158,86.5C 157.333,81.5 157.333,76.5 158,71.5C 158.717,70.9558 159.217,70.2891 159.5,69.5 Z"/></g>
<g><path style="opacity:0.885" fill="#000000" d="M 22.5,110.5 C 28.4254,110.192 34.2588,110.525 40,111.5C 42.1315,117.436 41.9648,123.269 39.5,129C 33.5837,129.807 27.7504,129.641 22,128.5C 19.8941,122.399 20.0607,116.399 22.5,110.5 Z"/></g>
<g><path style="opacity:0.922" fill="#000000" d="M 68.5,110.5 C 73.8437,110.334 79.1771,110.501 84.5,111C 85,111.5 85.5,112 86,112.5C 86.6667,117.5 86.6667,122.5 86,127.5C 85.5,128 85,128.5 84.5,129C 79.1667,129.667 73.8333,129.667 68.5,129C 68,128.5 67.5,128 67,127.5C 66.3333,122.5 66.3333,117.5 67,112.5C 67.7172,111.956 68.2172,111.289 68.5,110.5 Z"/></g>
<g><path style="opacity:0.92" fill="#000000" d="M 114.5,110.5 C 119.844,110.334 125.177,110.501 130.5,111C 131,111.5 131.5,112 132,112.5C 132.667,117.5 132.667,122.5 132,127.5C 131.5,128 131,128.5 130.5,129C 124.78,129.788 119.114,129.621 113.5,128.5C 112.337,123.198 112.171,117.864 113,112.5C 113.717,111.956 114.217,111.289 114.5,110.5 Z"/></g>
<g><path style="opacity:0.893" fill="#000000" d="M 159.5,110.5 C 165.425,110.192 171.259,110.525 177,111.5C 179.132,117.436 178.965,123.269 176.5,129C 170.833,129.667 165.167,129.667 159.5,129C 159,128.5 158.5,128 158,127.5C 157.333,122.5 157.333,117.5 158,112.5C 158.717,111.956 159.217,111.289 159.5,110.5 Z"/></g>
<g><path style="opacity:0.896" fill="#000000" d="M 22.5,151.5 C 28.4254,151.192 34.2588,151.525 40,152.5C 42.1315,158.436 41.9648,164.269 39.5,170C 33.5837,170.807 27.7504,170.641 22,169.5C 19.8941,163.399 20.0607,157.399 22.5,151.5 Z"/></g>
<g><path style="opacity:0.924" fill="#000000" d="M 68.5,151.5 C 74.4254,151.192 80.2588,151.525 86,152.5C 86.8072,158.416 86.6406,164.25 85.5,170C 79.8333,170.667 74.1667,170.667 68.5,170C 68,169.5 67.5,169 67,168.5C 66.3333,163.5 66.3333,158.5 67,153.5C 67.7172,152.956 68.2172,152.289 68.5,151.5 Z"/></g>
<g><path style="opacity:0.924" fill="#000000" d="M 113.5,151.5 C 119.176,151.334 124.843,151.501 130.5,152C 131,152.5 131.5,153 132,153.5C 132.667,158.5 132.667,163.5 132,168.5C 131.5,169 131,169.5 130.5,170C 124.833,170.667 119.167,170.667 113.5,170C 112.186,163.834 112.186,157.667 113.5,151.5 Z"/></g>
<g><path style="opacity:0.904" fill="#000000" d="M 159.5,151.5 C 165.425,151.192 171.259,151.525 177,152.5C 179.132,158.436 178.965,164.269 176.5,170C 170.833,170.667 165.167,170.667 159.5,170C 159,169.5 158.5,169 158,168.5C 157.333,163.5 157.333,158.5 158,153.5C 158.717,152.956 159.217,152.289 159.5,151.5 Z"/></g>
</svg>
