<?xml version="1.0" standalone="no"?>
<!DOCTYPE svg PUBLIC "-//W3C//DTD SVG 20010904//EN"
 "http://www.w3.org/TR/2001/REC-SVG-20010904/DTD/svg10.dtd">
<svg version="1.0" xmlns="http://www.w3.org/2000/svg"
 width="800.000000pt" height="800.000000pt" viewBox="0 0 800.000000 800.000000"
 preserveAspectRatio="xMidYMid meet">

<g transform="translate(0.000000,800.000000) scale(0.100000,-0.100000)"
fill="#000000" stroke="none">
<path d="M3120 6780 c0 -17 -7 -20 -40 -20 l-40 0 0 -40 c0 -33 -3 -40 -20
-40 -20 0 -20 -7 -20 -2680 0 -2673 0 -2680 20 -2680 17 0 20 -7 20 -40 l0
-40 40 0 c33 0 40 -3 40 -20 0 -18 7 -20 80 -20 73 0 80 2 80 20 0 17 7 20 40
20 l40 0 0 40 c0 33 3 40 20 40 20 0 20 7 20 2680 0 2673 0 2680 -20 2680 -17
0 -20 7 -20 40 l0 40 -40 0 c-33 0 -40 3 -40 20 0 18 -7 20 -80 20 -73 0 -80
-2 -80 -20z"/>
<path d="M2320 6380 c0 -17 -7 -20 -40 -20 l-40 0 0 -40 c0 -33 -3 -40 -20
-40 -20 0 -20 -7 -20 -2280 0 -2273 0 -2280 20 -2280 17 0 20 -7 20 -40 l0
-40 40 0 c33 0 40 -3 40 -20 0 -18 7 -20 80 -20 73 0 80 2 80 20 0 17 7 20 40
20 l40 0 0 40 c0 33 3 40 20 40 20 0 20 7 20 2280 0 2273 0 2280 -20 2280 -17
0 -20 7 -20 40 l0 40 -40 0 c-33 0 -40 3 -40 20 0 18 -7 20 -80 20 -73 0 -80
-2 -80 -20z"/>
<path d="M7120 5980 c0 -17 -7 -20 -40 -20 l-40 0 0 -40 c0 -33 -3 -40 -20
-40 -20 0 -20 -7 -20 -1880 0 -1873 0 -1880 20 -1880 17 0 20 -7 20 -40 l0
-40 40 0 c33 0 40 -3 40 -20 0 -18 7 -20 80 -20 73 0 80 2 80 20 0 17 7 20 40
20 l40 0 0 40 c0 33 3 40 20 40 20 0 20 7 20 1880 0 1873 0 1880 -20 1880 -17
0 -20 7 -20 40 l0 40 -40 0 c-33 0 -40 3 -40 20 0 18 -7 20 -80 20 -73 0 -80
-2 -80 -20z"/>
<path d="M5520 5580 c0 -17 -7 -20 -40 -20 l-40 0 0 -40 c0 -33 -3 -40 -20
-40 -20 0 -20 -7 -20 -1480 0 -1473 0 -1480 20 -1480 17 0 20 -7 20 -40 l0
-40 40 0 c33 0 40 -3 40 -20 0 -18 7 -20 80 -20 73 0 80 2 80 20 0 17 7 20 40
20 l40 0 0 40 c0 33 3 40 20 40 20 0 20 7 20 1480 0 1473 0 1480 -20 1480 -17
0 -20 7 -20 40 l0 40 -40 0 c-33 0 -40 3 -40 20 0 18 -7 20 -80 20 -73 0 -80
-2 -80 -20z"/>
<path d="M1520 5180 c0 -17 -7 -20 -40 -20 l-40 0 0 -40 c0 -33 -3 -40 -20
-40 -20 0 -20 -7 -20 -1080 0 -1073 0 -1080 20 -1080 17 0 20 -7 20 -40 l0
-40 40 0 c33 0 40 -3 40 -20 0 -18 7 -20 80 -20 73 0 80 2 80 20 0 17 7 20 40
20 l40 0 0 40 c0 33 3 40 20 40 20 0 20 7 20 1080 0 1073 0 1080 -20 1080 -17
0 -20 7 -20 40 l0 40 -40 0 c-33 0 -40 3 -40 20 0 18 -7 20 -80 20 -73 0 -80
-2 -80 -20z"/>
<path d="M3920 5180 c0 -17 -7 -20 -40 -20 l-40 0 0 -40 c0 -33 -3 -40 -20
-40 -20 0 -20 -7 -20 -1080 0 -1073 0 -1080 20 -1080 17 0 20 -7 20 -40 l0
-40 40 0 c33 0 40 -3 40 -20 0 -18 7 -20 80 -20 73 0 80 2 80 20 0 17 7 20 40
20 l40 0 0 40 c0 33 3 40 20 40 20 0 20 7 20 1080 0 1073 0 1080 -20 1080 -17
0 -20 7 -20 40 l0 40 -40 0 c-33 0 -40 3 -40 20 0 18 -7 20 -80 20 -73 0 -80
-2 -80 -20z"/>
<path d="M6320 5180 c0 -17 -7 -20 -40 -20 l-40 0 0 -40 c0 -33 -3 -40 -20
-40 -20 0 -20 -7 -20 -1080 0 -1073 0 -1080 20 -1080 17 0 20 -7 20 -40 l0
-40 40 0 c33 0 40 -3 40 -20 0 -18 7 -20 80 -20 73 0 80 2 80 20 0 17 7 20 40
20 l40 0 0 40 c0 33 3 40 20 40 20 0 20 7 20 1080 0 1073 0 1080 -20 1080 -17
0 -20 7 -20 40 l0 40 -40 0 c-33 0 -40 3 -40 20 0 18 -7 20 -80 20 -73 0 -80
-2 -80 -20z"/>
<path d="M720 4580 c0 -17 -7 -20 -40 -20 l-40 0 0 -40 c0 -33 -3 -40 -20 -40
-20 0 -20 -7 -20 -480 0 -473 0 -480 20 -480 17 0 20 -7 20 -40 l0 -40 40 0
c33 0 40 -3 40 -20 0 -18 7 -20 80 -20 73 0 80 2 80 20 0 17 7 20 40 20 l40 0
0 40 c0 33 3 40 20 40 20 0 20 7 20 480 0 473 0 480 -20 480 -17 0 -20 7 -20
40 l0 40 -40 0 c-33 0 -40 3 -40 20 0 18 -7 20 -80 20 -73 0 -80 -2 -80 -20z"/>
<path d="M4720 4580 c0 -17 -7 -20 -40 -20 l-40 0 0 -40 c0 -33 -3 -40 -20
-40 -20 0 -20 -7 -20 -480 0 -473 0 -480 20 -480 17 0 20 -7 20 -40 l0 -40 40
0 c33 0 40 -3 40 -20 0 -18 7 -20 80 -20 73 0 80 2 80 20 0 17 7 20 40 20 l40
0 0 40 c0 33 3 40 20 40 20 0 20 7 20 480 0 473 0 480 -20 480 -17 0 -20 7
-20 40 l0 40 -40 0 c-33 0 -40 3 -40 20 0 18 -7 20 -80 20 -73 0 -80 -2 -80
-20z"/>
</g>
</svg>
