<?xml version="1.0" encoding="UTF-8"?>
<svg version="1.1" xmlns="http://www.w3.org/2000/svg" width="570" height="458">
<path d="M0 0 C188.1 0 376.2 0 570 0 C570 151.14 570 302.28 570 458 C381.9 458 193.8 458 0 458 C0 306.86 0 155.72 0 0 Z " fill="#FEFEFE" transform="translate(0,0)"/>
<path d="M0 0 C0 3.25563039 -0.57441807 4.51782248 -2.01399231 7.38201904 C-2.46087402 8.2784613 -2.90775574 9.17490356 -3.36817932 10.09851074 C-4.11369301 11.57100281 -4.11369301 11.57100281 -4.87426758 13.07324219 C-5.65243332 14.62782135 -5.65243332 14.62782135 -6.44631958 16.21380615 C-8.17351357 19.66097384 -9.90909146 23.10385222 -11.64453125 26.546875 C-12.85258739 28.95306662 -14.05870725 31.36022695 -15.26481628 33.76739502 C-18.12995278 39.48315039 -21.00083489 45.19599806 -23.87408227 50.9076798 C-28.97916704 61.05636793 -34.07508451 71.20965824 -39.16821402 81.36435056 C-41.23166477 85.47780284 -43.29929806 89.58913487 -45.36811829 93.69989014 C-51.58639645 106.07223119 -57.67053672 118.49778598 -63.6164093 131.00326538 C-66.4477221 136.95390102 -69.36406551 142.85841929 -72.32421875 148.74609375 C-73.09992973 150.2953933 -73.09992973 150.2953933 -73.89131165 151.87599182 C-75.48810562 155.06413576 -77.0877225 158.25085232 -78.6875 161.4375 C-79.79381092 163.64508652 -80.8999315 165.85276844 -82.00585938 168.06054688 C-84.66839292 173.37479304 -87.33322269 178.68788227 -90 184 C-76.99669265 183.49494543 -64.20054981 181.83874457 -51.3125 180.10412598 C-45.28810439 179.29389596 -39.26137908 178.50149871 -33.234375 177.7109375 C-32.06596069 177.55753906 -30.89754639 177.40414062 -29.69372559 177.24609375 C-20.07648005 175.99192397 -10.45473404 174.89853112 -0.8046875 173.92895508 C7.12971844 173.12518854 15.01974644 172.09896092 22.90625 170.91308594 C28.0003397 170.17019786 32.85082947 169.87542329 38 170 C30.89617131 178.37887486 23.62987671 186.52650875 15.75 194.1875 C13.92892904 195.89252684 13.92892904 195.89252684 13 198 C12.34 198 11.68 198 11 198 C10.79761719 198.53109375 10.59523438 199.0621875 10.38671875 199.609375 C8.39546988 203.04217587 5.65533126 205.50896826 2.8125 208.25 C-1.40022199 212.37999569 -5.44295516 216.54194466 -9.26171875 221.04296875 C-12.21725063 224.37043273 -15.43281724 227.43964049 -18.59765625 230.56640625 C-20.63714373 232.63242365 -22.555078 234.73005549 -24.4375 236.9375 C-27.74346118 240.80617798 -31.33144678 244.36064305 -34.95068359 247.93115234 C-38.19984173 251.15350409 -41.22436334 254.49331816 -44.19140625 257.97265625 C-47.17528004 261.31743054 -50.40619732 264.41335157 -53.59375 267.5625 C-55.65449345 269.65000635 -57.59515626 271.77169223 -59.5 274 C-62.19611141 277.15394165 -65.04816975 280.08373397 -68 283 C-70.88989828 285.85523683 -73.68451745 288.71500196 -76.3125 291.8125 C-80.04675213 296.18538907 -84.14247456 300.16911702 -88.22827148 304.20874023 C-91.80435871 307.75996835 -95.19701622 311.39944274 -98.4609375 315.2421875 C-100.6077603 317.69414248 -102.93389591 319.94395999 -105.2578125 322.2265625 C-107.04715827 324.04800415 -108.71288532 325.93714279 -110.375 327.875 C-112.96634205 330.8846753 -115.67254783 333.71088616 -118.5 336.5 C-121.24500542 339.20803565 -123.8727091 341.94169249 -126.375 344.875 C-129.26214819 348.24557765 -132.34247378 351.38503521 -135.5 354.5 C-138.59492241 357.55337286 -141.61934317 360.62323732 -144.4375 363.9375 C-147.93509051 368.0419014 -151.75533727 371.78293417 -155.58862305 375.5690918 C-159.01109603 378.96572261 -162.23283881 382.46770385 -165.359375 386.140625 C-167.78184266 388.88608835 -170.40499794 391.41537589 -173.015625 393.98046875 C-175.60600634 396.61674268 -177.99014777 399.40325935 -180.359375 402.23828125 C-182.09262501 404.09946162 -183.92644427 405.5349878 -186 407 C-184.32635464 401.09301638 -181.48307751 395.89778689 -178.625 390.5 C-178.09261719 389.48679687 -177.56023437 388.47359375 -177.01171875 387.4296875 C-172.91920178 379.66834943 -168.72637257 371.96382929 -164.50244141 364.2734375 C-160.91508407 357.72595658 -157.43502439 351.12852362 -154 344.5 C-149.60934431 336.0274066 -145.09455357 327.63305455 -140.5 319.26953125 C-136.91393559 312.72309596 -133.43431892 306.12716229 -130 299.5 C-126.08747573 291.95005082 -122.09425909 284.45296658 -118 277 C-111.10980342 264.4556084 -104.39066271 251.80715094 -98 239 C-99.00350494 239.02505615 -100.00700989 239.0501123 -101.04092407 239.07592773 C-110.59949786 239.3142325 -120.1581399 239.54961812 -129.71685219 239.78230286 C-134.62849115 239.90195497 -139.54010253 240.02255873 -144.45166016 240.14550781 C-186.22952457 241.19003033 -186.22952457 241.19003033 -204 241 C-201.856152 237.72088638 -199.74587075 234.52972704 -197.15234375 231.58984375 C-196.63510742 230.99913086 -196.11787109 230.40841797 -195.58496094 229.79980469 C-194.76946777 228.87796387 -194.76946777 228.87796387 -193.9375 227.9375 C-192.7741375 226.60859976 -191.61138749 225.2791631 -190.44921875 223.94921875 C-189.86962402 223.28712402 -189.2900293 222.6250293 -188.69287109 221.94287109 C-186.18664181 219.06652661 -183.71318245 216.16323347 -181.25 213.25 C-180.80084229 212.71906738 -180.35168457 212.18813477 -179.88891602 211.64111328 C-177.0121673 208.22902085 -174.18540116 204.77930973 -171.375 201.3125 C-167.80184368 196.91917078 -164.0637577 192.7157897 -160.25 188.53125 C-157.13187651 185.02336108 -154.2046824 181.37135511 -151.25390625 177.72265625 C-149.04853296 175.05862647 -146.7682369 172.49211558 -144.4375 169.9375 C-141.58854034 166.80903828 -138.86697555 163.63721107 -136.25 160.3125 C-132.27716047 155.26913485 -128.07894412 150.44430413 -123.85742188 145.60986328 C-120.58598726 141.85493267 -117.38229048 138.06034953 -114.25 134.1875 C-110.71808913 129.82417215 -107.01293064 125.6616152 -103.234375 121.51171875 C-100.21309963 118.11542494 -97.37424067 114.5840702 -94.515625 111.05078125 C-91.02487122 106.81742923 -87.41361199 102.69337015 -83.80664062 98.55908203 C-80.55327802 94.82038486 -77.36772494 91.04105163 -74.25 87.1875 C-70.71808913 82.82417215 -67.01293064 78.6616152 -63.234375 74.51171875 C-60.99865467 71.99848768 -58.86622318 69.42688521 -56.75 66.8125 C-53.14529915 62.36147808 -49.44629733 58.00801395 -45.6875 53.6875 C-45.13642578 53.05400635 -44.58535156 52.4205127 -44.01757812 51.76782227 C-42.89837515 50.48168345 -41.77907163 49.19563212 -40.65966797 47.90966797 C-34.45127377 40.76608759 -28.27176028 33.60354128 -22.3125 26.25 C-18.77361039 21.88855767 -15.06811269 17.72022239 -11.28515625 13.5703125 C-7.37335788 9.17037519 -3.68921194 4.58753069 0 0 Z " fill="#010101" transform="translate(368,25)"/>
<path d="M0 0 C17.26565741 8.32653912 32.47118802 17.41684401 47 30 C47.88631104 30.76449463 47.88631104 30.76449463 48.79052734 31.54443359 C75.76078231 55.02577047 94.49593677 86.96288319 103.875 121.3125 C104.30462036 122.88547852 104.30462036 122.88547852 104.74291992 124.49023438 C108.66786385 139.59034948 109.54035501 154.34796493 109.625 169.875 C109.63534775 171.3838678 109.63534775 171.3838678 109.64590454 172.92321777 C109.69272312 191.74689821 106.76898232 208.11629722 101 226 C100.23202617 228.61229624 99.47349691 231.22697408 98.72265625 233.84423828 C97.63212597 237.09740802 96.10247881 240.0720374 94.51171875 243.10546875 C93.35276653 245.32454782 92.23675951 247.54906793 91.14453125 249.80078125 C82.79015709 266.97719402 72.24024924 282.52883426 59.25 296.5625 C58.74388184 297.10946533 58.23776367 297.65643066 57.71630859 298.2199707 C38.42388928 318.57381547 14.04879147 333.09124403 -12 343 C-12.84973389 343.33362549 -13.69946777 343.66725098 -14.57495117 344.01098633 C-21.30493307 346.57820468 -28.00495432 348.28321548 -35.0625 349.6875 C-36.07376953 349.89955078 -37.08503906 350.11160156 -38.12695312 350.33007812 C-43.75838729 351.47957241 -49.30421393 352.33096071 -55.03686523 352.76489258 C-57.07529573 352.89694667 -57.07529573 352.89694667 -59 354 C-79.94050528 355.59962193 -114.17786164 356.32090256 -132.5390625 344.34375 C-133.02117187 343.9003125 -133.50328125 343.456875 -134 343 C-129.56368499 337.7157886 -124.86299164 332.75379223 -119.90893555 327.95483398 C-117.42767909 325.53001831 -115.36094737 323.17046485 -113.5 320.25 C-111 318 -111 318 -108.5078125 317.83203125 C-105.62038641 318.06286884 -102.84981639 318.48428256 -100 319 C-94.97071028 319.8227711 -90.05665904 320.17242235 -84.96875 320.203125 C-84.21517212 320.20882507 -83.46159424 320.21452515 -82.68518066 320.22039795 C-81.09514749 320.2297955 -79.50509529 320.23636091 -77.91503906 320.24023438 C-75.53413896 320.24986195 -73.15413286 320.28090222 -70.7734375 320.3125 C-60.78492434 320.38088601 -51.71266074 319.38721361 -42 317 C-41.0301416 316.76700195 -40.0602832 316.53400391 -39.06103516 316.29394531 C-36.34148555 315.61691973 -33.67761667 314.82794726 -31 314 C-29.15921875 313.43732422 -29.15921875 313.43732422 -27.28125 312.86328125 C-10.5036914 307.47387012 5.46748065 299.33348495 19 288 C20.1243831 287.09948961 21.24941631 286.19979052 22.375 285.30078125 C42.54156485 268.91284064 55.69233378 248.62497649 66 225 C66.515625 223.82050781 67.03125 222.64101563 67.5625 221.42578125 C68.9131133 217.99437932 70.02801784 214.55276237 71 211 C71.22558594 210.18273437 71.45117188 209.36546875 71.68359375 208.5234375 C77.77135797 185.42284031 79.2211667 158.27001285 73 135 C72.81727539 134.25814453 72.63455078 133.51628906 72.44628906 132.75195312 C64.71903151 101.66528483 47.07425724 72.21999784 22 52 C21.48840332 51.58331055 20.97680664 51.16662109 20.44970703 50.73730469 C9.83107457 42.19629847 -1.81593921 36.0224927 -14 30 C-13.38322878 26.01819754 -12.12472659 22.88684355 -10.3125 19.296875 C-9.77882813 18.2346875 -9.24515625 17.1725 -8.6953125 16.078125 C-8.13585937 14.97984375 -7.57640625 13.8815625 -7 12.75 C-6.16082031 11.079375 -6.16082031 11.079375 -5.3046875 9.375 C-1.1541718 1.1541718 -1.1541718 1.1541718 0 0 Z " fill="#010101" transform="translate(360,60)"/>
<path d="M0 0 C0.73762573 0.11086945 1.47525146 0.22173889 2.23522949 0.33596802 C14.67566271 2.23816271 14.67566271 2.23816271 17.0625 4.625 C12.00163433 10.88718226 6.86362257 17.07365577 1.625 23.1875 C1.10518555 23.79480957 0.58537109 24.40211914 0.04980469 25.02783203 C-1.8933593 27.28888691 -3.82857263 29.51607263 -5.9375 31.625 C-8.77980761 31.75211742 -11.52505524 31.75952165 -14.36328125 31.6796875 C-16.1177391 31.650739 -17.87221639 31.62295137 -19.62670898 31.59619141 C-20.54588104 31.5795343 -21.4650531 31.5628772 -22.41207886 31.54571533 C-37.95984488 31.29526042 -52.89600003 31.20340471 -67.9375 35.625 C-68.70416992 35.83930664 -69.47083984 36.05361328 -70.26074219 36.27441406 C-81.45636584 39.46189581 -91.75968589 44.01178131 -101.9375 49.625 C-102.57816406 49.97433594 -103.21882813 50.32367188 -103.87890625 50.68359375 C-112.90141287 55.65964286 -120.78306964 61.38342288 -128.43066406 68.27832031 C-129.86689543 69.56189974 -131.33514665 70.80938177 -132.8046875 72.0546875 C-159.69600167 95.28939237 -175.45916054 130.88858424 -179.9375 165.625 C-182.12518455 205.54055069 -174.29123179 245.24325359 -147.9375 276.625 C-146.97910232 277.79682237 -146.02077273 278.96870044 -145.0625 280.140625 C-134.82225677 292.51329094 -121.92019144 306.03713316 -106.9375 312.625 C-109.16905668 318.42271679 -112.0294592 323.85986147 -114.875 329.375 C-115.68227539 330.97408203 -115.68227539 330.97408203 -116.50585938 332.60546875 C-117.02857422 333.61738281 -117.55128906 334.62929688 -118.08984375 335.671875 C-118.56413818 336.59838867 -119.03843262 337.52490234 -119.52709961 338.47949219 C-120.9375 340.625 -120.9375 340.625 -123.9375 341.625 C-128.19252243 339.37591672 -132.03998368 336.44132104 -135.9375 333.625 C-136.97777344 332.87605469 -138.01804687 332.12710937 -139.08984375 331.35546875 C-151.80721739 321.87638803 -163.28884328 311.24385888 -172.9375 298.625 C-173.7109375 297.69042969 -174.484375 296.75585938 -175.28125 295.79296875 C-200.66070383 264.51038246 -213.12687743 224.21135253 -213.12280273 184.27929688 C-213.12498232 181.89434768 -213.14317014 179.50986735 -213.16210938 177.125 C-213.19537305 168.0967575 -212.64609664 159.52223385 -210.9375 150.625 C-210.71210642 149.30731444 -210.48682298 147.98961002 -210.26171875 146.671875 C-204.51065733 116.8933729 -191.9103818 90.25409821 -172.9375 66.625 C-172.4434668 66.00850586 -171.94943359 65.39201172 -171.44042969 64.75683594 C-142.33476419 28.81181934 -101.26364572 7.07249511 -55.9375 -0.375 C-54.45443359 -0.68244141 -54.45443359 -0.68244141 -52.94140625 -0.99609375 C-35.39532649 -4.37482093 -17.50341115 -2.66493935 0 0 Z " fill="#010101" transform="translate(313.9375,46.375)"/>
<path d="M0 0 C-0.66 0.66 -1.32 1.32 -2 2 C-5.625 1.625 -5.625 1.625 -9 1 C-9.66 2.32 -10.32 3.64 -11 5 C-12.32 4.67 -13.64 4.34 -15 4 C-14.67 3.34 -14.34 2.68 -14 2 C-13.01 2.33 -12.02 2.66 -11 3 C-11 2.34 -11 1.68 -11 1 C-12.65 0.67 -14.3 0.34 -16 0 C-16.33 1.98 -16.66 3.96 -17 6 C-17.495 5.01 -17.495 5.01 -18 4 C-21.28414305 3.04932701 -22.69693408 2.89897803 -26 4 C-26 2.02 -26 0.04 -26 -2 C-26.66 -1.67 -27.32 -1.34 -28 -1 C-28.65555119 1.52733235 -28.65555119 1.52733235 -29 4 C-29.33 4 -29.66 4 -30 4 C-30 2.02 -30 0.04 -30 -2 C-30.66 -2 -31.32 -2 -32 -2 C-32 -0.02 -32 1.96 -32 4 C-32.33 4 -32.66 4 -33 4 C-33 2.02 -33 0.04 -33 -2 C-34.65 -1.67 -36.3 -1.34 -38 -1 C-36.68 -0.34 -35.36 0.32 -34 1 C-34.66 2.32 -35.32 3.64 -36 5 C-37.32 4.67 -38.64 4.34 -40 4 C-39.67 3.34 -39.34 2.68 -39 2 C-38.01 2.33 -37.02 2.66 -36 3 C-36 2.34 -36 1.68 -36 1 C-37.94603274 0.40929986 -37.94603274 0.40929986 -40 0 C-40.33 0.33 -40.66 0.66 -41 1 C-42.66617115 1.04063832 -44.33388095 1.042721 -46 1 C-46 1.66 -46 2.32 -46 3 C-44.35 2.67 -42.7 2.34 -41 2 C-41.99 2.99 -42.98 3.98 -44 5 C-44.53625 4.62875 -45.0725 4.2575 -45.625 3.875 C-48.94612897 2.65142617 -50.81090417 3.69536989 -54 5 C-55 4 -55 4 -55.0625 0.9375 C-55.041875 -0.031875 -55.02125 -1.00125 -55 -2 C-55.66 -2 -56.32 -2 -57 -2 C-57 -0.02 -57 1.96 -57 4 C-57.33 4 -57.66 4 -58 4 C-58 2.02 -58 0.04 -58 -2 C-58.99 -2 -59.98 -2 -61 -2 C-61 -0.02 -61 1.96 -61 4 C-62.65 4 -64.3 4 -66 4 C-66 2.35 -66 0.7 -66 -1 C-66.66 -1 -67.32 -1 -68 -1 C-67.67 0.65 -67.34 2.3 -67 4 C-67.66 4 -68.32 4 -69 4 C-69 2.68 -69 1.36 -69 0 C-70.98 0.99 -70.98 0.99 -73 2 C-72.34 2 -71.68 2 -71 2 C-71 2.66 -71 3.32 -71 4 C-74.01031744 4.93423645 -74.86650268 5.04449911 -78 4 C-78.99 4.33 -79.98 4.66 -81 5 C-81.99 4.67 -82.98 4.34 -84 4 C-84 3.34 -84 2.68 -84 2 C-85.98 2.33 -87.96 2.66 -90 3 C-90.33 2.34 -90.66 1.68 -91 1 C-60.4806817 -7.90936621 -30.8090083 -5.37150474 0 0 Z " fill="#1D1D1D" transform="translate(329,49)"/>
<path d="M0 0 C6.52307692 0.49230769 6.52307692 0.49230769 8.9375 3.0625 C9.288125 3.701875 9.63875 4.34125 10 5 C9.14277344 5.845625 8.28554687 6.69125 7.40234375 7.5625 C-0.85359317 15.71999049 -0.85359317 15.71999049 -8.53515625 24.4140625 C-10.19745577 26.21377878 -12.00568593 27.58468034 -14 29 C-12.72287446 24.89306101 -11.18709006 21.18406415 -9.1796875 17.3828125 C-8.64472656 16.36445313 -8.10976562 15.34609375 -7.55859375 14.296875 C-7.00300781 13.25015625 -6.44742188 12.2034375 -5.875 11.125 C-5.31167969 10.05507813 -4.74835938 8.98515625 -4.16796875 7.8828125 C-2.78265261 5.25305983 -1.39322404 2.62556917 0 0 Z " fill="#0A0A0A" transform="translate(196,403)"/>
<path d="M0 0 C1.32 0.33 2.64 0.66 4 1 C3.67 1.66 3.34 2.32 3 3 C3.66 3.66 4.32 4.32 5 5 C5.66 3.68 6.32 2.36 7 1 C7 2.98 7 4.96 7 7 C7.66 7 8.32 7 9 7 C9 5.02 9 3.04 9 1 C10.65614657 0.61781233 12.32457024 0.28604898 14 0 C15 1 15 1 15.0625 3.5625 C15.041875 4.366875 15.02125 5.17125 15 6 C15.72445312 5.855625 16.44890625 5.71125 17.1953125 5.5625 C22.18491623 4.60449608 26.89267738 3.72392851 32 4 C32 4.33 32 4.66 32 5 C30.35 5 28.7 5 27 5 C27 5.66 27 6.32 27 7 C26.01257813 7.13277344 25.02515625 7.26554687 24.0078125 7.40234375 C22.72648437 7.57894531 21.44515625 7.75554687 20.125 7.9375 C18.84882813 8.11152344 17.57265625 8.28554688 16.2578125 8.46484375 C13.12440546 8.81433227 13.12440546 8.81433227 11 10 C9.1136088 10.084915 7.22421485 10.107193 5.3359375 10.09765625 C4.21445312 10.09443359 3.09296875 10.09121094 1.9375 10.08789062 C0.761875 10.07951172 -0.41375 10.07113281 -1.625 10.0625 C-2.80835938 10.05798828 -3.99171875 10.05347656 -5.2109375 10.04882812 C-8.14067507 10.03701467 -11.07031272 10.02054258 -14 10 C-14 9.67 -14 9.34 -14 9 C-16.97 8.505 -16.97 8.505 -20 8 C-20 7.67 -20 7.34 -20 7 C-14.555 6.505 -14.555 6.505 -9 6 C-8.67 4.35 -8.34 2.7 -8 1 C-7.34 1.33 -6.68 1.66 -6 2 C-6 3.32 -6 4.64 -6 6 C-3.03 6.33 -0.06 6.66 3 7 C3 6.34 3 5.68 3 5 C1.68 4.67 0.36 4.34 -1 4 C-0.67 2.68 -0.34 1.36 0 0 Z " fill="#191919" transform="translate(290,404)"/>
<path d="M0 0 C0 3.03288551 -0.33180218 4.03169182 -1.65234375 6.64526367 C-2.01271729 7.36578415 -2.37309082 8.08630463 -2.74438477 8.82865906 C-3.13811279 9.60063126 -3.53184082 10.37260345 -3.9375 11.16796875 C-4.53679321 12.36018791 -4.53679321 12.36018791 -5.14819336 13.57649231 C-6.42653013 16.11636288 -7.71314555 18.65193611 -9 21.1875 C-9.86773569 22.90792674 -10.73493003 24.62862664 -11.6015625 26.34960938 C-13.72810452 30.56960245 -15.86208109 34.78576001 -18 39 C-18.66 39 -19.32 39 -20 39 C-18.21818182 33.4 -18.21818182 33.4 -16.875 30.9375 C-15.65701106 28.59484432 -15.65701106 28.59484432 -16 24 C-18.97 26.97 -21.94 29.94 -25 33 C-25.33 32.01 -25.66 31.02 -26 30 C-25.31035156 29.26136719 -24.62070312 28.52273437 -23.91015625 27.76171875 C-18.40194971 21.82775711 -13.09837211 15.79991323 -8.015625 9.4921875 C-5.40900097 6.26926864 -2.71456573 3.13219123 0 0 Z " fill="#0A0A0A" transform="translate(368,25)"/>
<path d="M0 0 C0.66 0.66 1.32 1.32 2 2 C-6.57446809 19.34042553 -6.57446809 19.34042553 -11 27 C-10.01 27.66 -9.02 28.32 -8 29 C-7.01 28.01 -6.02 27.02 -5 26 C-3.8422494 29.47325181 -3.93133348 32.36067448 -4 36 C-4.66 36 -5.32 36 -6 36 C-6.33 35.34 -6.66 34.68 -7 34 C-7.763125 34.350625 -8.52625 34.70125 -9.3125 35.0625 C-12 36 -12 36 -15 35 C-16.485 35.495 -16.485 35.495 -18 36 C-16.59036812 31.32002214 -14.62939603 27.13090928 -12.3046875 22.8515625 C-11.95238068 22.19417084 -11.60007385 21.53677917 -11.23709106 20.85946655 C-10.12079289 18.77891116 -8.99801868 16.70193416 -7.875 14.625 C-7.11284918 13.20726344 -6.35112603 11.78929688 -5.58984375 10.37109375 C-3.73149805 6.91138289 -1.86733977 3.4548641 0 0 Z M-19 36 C-18.34 36.66 -17.68 37.32 -17 38 C-17.99 39.98 -18.98 41.96 -20 44 C-20.66 43.01 -21.32 42.02 -22 41 C-21.01 39.35 -20.02 37.7 -19 36 Z " fill="#0D0D0D" transform="translate(266,272)"/>
<path d="M0 0 C2.26998857 3.40498285 3.92252127 6.98149446 5.625 10.6875 C5.94984375 11.38939453 6.2746875 12.09128906 6.609375 12.81445312 C7.40848336 14.54193738 8.20454043 16.27083254 9 18 C6.69 18.66 4.38 19.32 2 20 C3.32 20 4.64 20 6 20 C6 20.66 6 21.32 6 22 C4.1875 22.625 4.1875 22.625 2 23 C1.01 22.34 0.02 21.68 -1 21 C-2.98 21.99 -2.98 21.99 -5 23 C-7 21 -7 21 -7.1875 18.4375 C-7 16 -7 16 -6 15 C-4.33388095 14.957279 -2.66617115 14.95936168 -1 15 C1.21081851 15.10540926 1.21081851 15.10540926 4 14 C3.62746094 13.32453125 3.25492188 12.6490625 2.87109375 11.953125 C2.39800781 11.06109375 1.92492187 10.1690625 1.4375 9.25 C0.96183594 8.36828125 0.48617187 7.4865625 -0.00390625 6.578125 C-1.07998186 3.79298812 -1.06528748 2.73019786 0 0 Z " fill="#0D0D0D" transform="translate(143,285)"/>
<path d="M0 0 C4.36242105 1.47292076 7.50913726 3.73958962 11.125 6.5625 C16.4477533 10.8591433 16.4477533 10.8591433 23 12 C23 11.34 23 10.68 23 10 C23.66 10 24.32 10 25 10 C24.87625 11.1859375 24.7525 12.371875 24.625 13.59375 C24.625 17.13365076 25.22015907 18.80726827 27.625 21.40625 C28.73013545 22.45875995 29.85594372 23.48993229 31 24.5 C31.57234375 25.03625 32.1446875 25.5725 32.734375 26.125 C34.1387113 27.43571388 35.56707505 28.72060273 37 30 C36.34 30.66 35.68 31.32 35 32 C34.21689453 31.07380859 34.21689453 31.07380859 33.41796875 30.12890625 C24.50146622 19.86946289 13.86696858 12.04123381 3 4 C1.66586795 3.00106585 0.33219869 2.00151107 -1 1 C-0.67 0.67 -0.34 0.34 0 0 Z " fill="#151515" transform="translate(364,97)"/>
<path d="M0 0 C10.29694834 1.61474872 19.8740134 16.20454407 26 24 C28.11971673 26.93438399 30.13044903 29.90048128 32 33 C31.01 33 30.02 33 29 33 C27.82421875 31.46875 27.82421875 31.46875 26.6875 29.5 C25.47323742 27.55442012 25.47323742 27.55442012 24 26 C20.78723657 25.4136018 20.78723657 25.4136018 18 26 C18 25.34 18 24.68 18 24 C18.99 23.67 19.98 23.34 21 23 C20.01 22.34 19.02 21.68 18 21 C17.55527344 20.08476563 17.11054688 19.16953125 16.65234375 18.2265625 C14.76116848 14.53362923 12.54369478 12.24697869 9.5625 9.375 C9.08490234 8.9109375 8.60730469 8.446875 8.11523438 7.96875 C6.74813562 6.64103269 5.37420859 5.32035716 4 4 C2.66333474 2.67000694 1.32861361 1.33803641 0 0 Z " fill="#161616" transform="translate(405,91)"/>
<path d="M0 0 C0 0.33 0 0.66 0 1 C-2.31 1 -4.62 1 -7 1 C-7 1.66 -7 2.32 -7 3 C-8.98 3.99 -8.98 3.99 -11 5 C-10.34 5 -9.68 5 -9 5 C-9 5.66 -9 6.32 -9 7 C-12.01031744 7.93423645 -12.86650268 8.04449911 -16 7 C-16.99 7.33 -17.98 7.66 -19 8 C-19.99 7.67 -20.98 7.34 -22 7 C-22 6.34 -22 5.68 -22 5 C-23.98 5.33 -25.96 5.66 -28 6 C-28.33 5.34 -28.66 4.68 -29 4 C-19.16463134 1.39362731 -10.19353923 -0.2123654 0 0 Z " fill="#131313" transform="translate(267,46)"/>
<path d="M0 0 C0.66 0 1.32 0 2 0 C2 1.32 2 2.64 2 4 C3.65 3.34 5.3 2.68 7 2 C8.5 3.375 8.5 3.375 10 5 C10 5.66 10 6.32 10 7 C8.35 7 6.7 7 5 7 C5 7.66 5 8.32 5 9 C6.32 8.67 7.64 8.34 9 8 C9 8.66 9 9.32 9 10 C7.125 10.625 7.125 10.625 5 11 C4.34 10.34 3.68 9.68 3 9 C2.67 9.33 2.34 9.66 2 10 C0.00041636 10.04080783 -2.00045254 10.04254356 -4 10 C-4 7.69 -4 5.38 -4 3 C-2.68 3 -1.36 3 0 3 C0 2.01 0 1.02 0 0 Z " fill="#0E0E0E" transform="translate(278,170)"/>
<path d="M0 0 C2.26274788 0.35355436 3.95088852 0.97544426 6 2 C6 1.34 6 0.68 6 0 C7.65 0.33 9.3 0.66 11 1 C10.67 1.66 10.34 2.32 10 3 C10.33 3.33 10.66 3.66 11 4 C11 5.32 11 6.64 11 8 C9.02090602 8.02686553 7.04171029 8.04633375 5.0625 8.0625 C3.96035156 8.07410156 2.85820312 8.08570313 1.72265625 8.09765625 C-1 8 -1 8 -2 7 C-2.1875 4.5625 -2.1875 4.5625 -2 2 C-1.34 1.34 -0.68 0.68 0 0 Z " fill="#0E0E0E" transform="translate(180,352)"/>
<path d="M0 0 C0.928125 0.165 1.85625 0.33 2.8125 0.5 C5.74559187 0.96009284 7.25741623 0.94935592 10 0 C9.34 0.66 8.68 1.32 8 2 C9.32 2 10.64 2 12 2 C12 3.65 12 5.3 12 7 C7.3008219 8.01603851 3.6991781 8.01603851 -1 7 C-1.04254356 5.00045254 -1.04080783 2.99958364 -1 1 C-0.67 0.67 -0.34 0.34 0 0 Z " fill="#101010" transform="translate(246,236)"/>
<path d="M0 0 C0.66 0.66 1.32 1.32 2 2 C1.07058594 2.9178125 0.14117187 3.835625 -0.81640625 4.78125 C-10.22878043 14.09079569 -10.22878043 14.09079569 -19 24 C-19.66 23.34 -20.32 22.68 -21 22 C-21 20.33333333 -21 18.66666667 -21 17 C-19.33333333 17 -17.66666667 17 -16 17 C-15.34 15.35 -14.68 13.7 -14 12 C-12.68 12 -11.36 12 -10 12 C-9.75507813 11.42765625 -9.51015625 10.8553125 -9.2578125 10.265625 C-7.78889901 7.61975598 -6.04651756 5.85146861 -3.875 3.75 C-3.15054687 3.04359375 -2.42609375 2.3371875 -1.6796875 1.609375 C-1.12539063 1.07828125 -0.57109375 0.5471875 0 0 Z " fill="#151515" transform="translate(376,224)"/>
<path d="M0 0 C0.66 0.66 1.32 1.32 2 2 C-4.66666667 8.66666667 -11.33333333 15.33333333 -18 22 C-18 19 -18 19 -15.5 16.3125 C-13.18657417 13.72537309 -12.65679565 12.09459186 -12.6875 8.625 C-12.790625 7.42875 -12.89375 6.2325 -13 5 C-12.67 5 -12.34 5 -12 5 C-12 6.98 -12 8.96 -12 11 C-11.34 11 -10.68 11 -10 11 C-10 9.02 -10 7.04 -10 5 C-8.906875 4.731875 -7.81375 4.46375 -6.6875 4.1875 C-3.38307337 3.12336261 -2.05039578 2.65345336 0 0 Z " fill="#191919" transform="translate(309,295)"/>
<path d="M0 0 C0.66 0 1.32 0 2 0 C1.68289063 0.56203125 1.36578125 1.1240625 1.0390625 1.703125 C-0.06874525 4.15196317 -0.38975399 6.08387855 -0.625 8.75 C-0.69976562 9.54921875 -0.77453125 10.3484375 -0.8515625 11.171875 C-0.90054687 11.77515625 -0.94953125 12.3784375 -1 13 C-2.65 13 -4.3 13 -6 13 C-6.33 11.68 -6.66 10.36 -7 9 C-7.66 9.66 -8.32 10.32 -9 11 C-8.67 11.66 -8.34 12.32 -8 13 C-9.98 13 -11.96 13 -14 13 C-14.33 12.34 -14.66 11.68 -15 11 C-14.08476562 10.37351562 -13.16953125 9.74703125 -12.2265625 9.1015625 C-11.02596568 8.27615218 -9.82544901 7.45062527 -8.625 6.625 C-7.72007812 6.00625 -7.72007812 6.00625 -6.796875 5.375 C-4.36217249 3.6977605 -2.09532229 2.09532229 0 0 Z " fill="#101010" transform="translate(380,347)"/>
<path d="M0 0 C0.66 0.33 1.32 0.66 2 1 C0.60121198 5.46797338 -1.13630772 9.63822079 -3.125 13.875 C-3.66382813 15.02742188 -4.20265625 16.17984375 -4.7578125 17.3671875 C-5.16773438 18.23601562 -5.57765625 19.10484375 -6 20 C-5.06929688 20.29648438 -4.13859375 20.59296875 -3.1796875 20.8984375 C-0.13377495 21.95365536 2.30333878 23.25510156 5 25 C4.34 25.66 3.68 26.32 3 27 C-0.96 25.02 -4.92 23.04 -9 21 C-8.25565924 17.27829621 -7.78398291 15.19729996 -6.15234375 12.01171875 C-5.79462891 11.30595703 -5.43691406 10.60019531 -5.06835938 9.87304688 C-4.69517578 9.15181641 -4.32199219 8.43058594 -3.9375 7.6875 C-3.37192383 6.57665039 -3.37192383 6.57665039 -2.79492188 5.44335938 C-1.86871843 3.62612478 -0.93509371 1.81267596 0 0 Z " fill="#212121" transform="translate(355,69)"/>
<path d="M0 0 C0.66 0 1.32 0 2 0 C2 3.3 2 6.6 2 10 C0.68 10.33 -0.64 10.66 -2 11 C-2.99 10.34 -3.98 9.68 -5 9 C-5.99 9.495 -5.99 9.495 -7 10 C-7 8.02 -7 6.04 -7 4 C-7.99 4 -8.98 4 -10 4 C-10 5.98 -10 7.96 -10 10 C-10.66 10 -11.32 10 -12 10 C-12 7.69 -12 5.38 -12 3 C-10.02 3 -8.04 3 -6 3 C-5.67 3.66 -5.34 4.32 -5 5 C-4.67 4.34 -4.34 3.68 -4 3 C-2.68 3 -1.36 3 0 3 C0 2.01 0 1.02 0 0 Z " fill="#0F0F0F" transform="translate(278,297)"/>
<path d="M0 0 C0.33 0 0.66 0 1 0 C1 1.65 1 3.3 1 5 C1.99 5 2.98 5 4 5 C3.34 4.67 2.68 4.34 2 4 C2.33 2.68 2.66 1.36 3 0 C4.32 0 5.64 0 7 0 C7.33 2.31 7.66 4.62 8 7 C-0.42857143 10.28571429 -0.42857143 10.28571429 -5 11 C-5 10.01 -5 9.02 -5 8 C-5.33 7.01 -5.66 6.02 -6 5 C-3.525 5.495 -3.525 5.495 -1 6 C-1.020625 5.195625 -1.04125 4.39125 -1.0625 3.5625 C-1 1 -1 1 0 0 Z " fill="#0F0F0F" transform="translate(312,109)"/>
<path d="M0 0 C3 1 3 1 6 3 C6.1875 6.625 6.1875 6.625 6 10 C5.34 10 4.68 10 4 10 C4 8.02 4 6.04 4 4 C3.34 4 2.68 4 2 4 C2 5.98 2 7.96 2 10 C-0.33333333 10 -2.66666667 10 -5 10 C-6.37310707 11.29233607 -7.71034824 12.62437146 -9 14 C-8.41827275 10.0479482 -6.44842259 7.77904947 -3.9375 4.75 C-3.20402344 3.85796875 -2.47054687 2.9659375 -1.71484375 2.046875 C-1.14894531 1.37140625 -0.58304688 0.6959375 0 0 Z " fill="#151515" transform="translate(190,234)"/>
<path d="M0 0 C0.99 0.33 1.98 0.66 3 1 C2.21753906 1.71285156 1.43507812 2.42570312 0.62890625 3.16015625 C-0.39401666 4.12677148 -1.41610865 5.09426656 -2.4375 6.0625 C-2.95376953 6.52849609 -3.47003906 6.99449219 -4.00195312 7.47460938 C-7.78432094 11.10864904 -8.74729753 13.80988013 -9 19 C-10.65 19 -12.3 19 -14 19 C-13.67 19.66 -13.34 20.32 -13 21 C-10.97536745 21.65213292 -10.97536745 21.65213292 -9 22 C-10.65614657 22.38218767 -12.32457024 22.71395102 -14 23 C-15 22 -15 22 -15.53125 19.4609375 C-14.70767009 14.09555665 -11.24854136 11.3600331 -7.5 7.625 C-6.78457031 6.88894531 -6.06914062 6.15289062 -5.33203125 5.39453125 C-3.56751098 3.5829571 -1.79039235 1.78594812 0 0 Z " fill="#131313" transform="translate(158,94)"/>
<path d="M0 0 C0.66 0.66 1.32 1.32 2 2 C-8.64114182 23.77979157 -8.64114182 23.77979157 -13 30 C-13.66 30 -14.32 30 -15 30 C-13.55457075 26.20346115 -11.84336208 22.64172163 -9.9609375 19.04296875 C-9.09082031 17.37524414 -9.09082031 17.37524414 -8.203125 15.67382812 C-7.59984375 14.52333984 -6.9965625 13.37285156 -6.375 12.1875 C-5.45847656 10.43276367 -5.45847656 10.43276367 -4.5234375 8.64257812 C-3.01775034 5.7605988 -1.50986725 2.87979095 0 0 Z " fill="#171717" transform="translate(266,272)"/>
<path d="M0 0 C0.78375 0.04125 1.5675 0.0825 2.375 0.125 C2.625 7.75 2.625 7.75 0.375 11.125 C-1.275 10.795 -2.925 10.465 -4.625 10.125 C-4.8203125 4.0703125 -4.8203125 4.0703125 -4.625 2.125 C-2.625 0.125 -2.625 0.125 0 0 Z " fill="#0D0D0D" transform="translate(310.625,235.875)"/>
<path d="M0 0 C0.33 0 0.66 0 1 0 C1 10.23 1 20.46 1 31 C-0.65 31 -2.3 31 -4 31 C-4.33 28.69 -4.66 26.38 -5 24 C-3.35 23.67 -1.7 23.34 0 23 C0 15.41 0 7.82 0 0 Z " fill="#131313" transform="translate(467,213)"/>
<path d="M0 0 C2.50357861 0.8345262 4.66785852 1.79371992 7 3 C7 5.31 7 7.62 7 10 C6.34 10 5.68 10 5 10 C5 8.02 5 6.04 5 4 C4.34 4 3.68 4 3 4 C3 5.98 3 7.96 3 10 C2.34 10 1.68 10 1 10 C0.67 8.02 0.34 6.04 0 4 C-0.33 5.98 -0.66 7.96 -1 10 C-1.66 9.34 -2.32 8.68 -3 8 C-3.66 8.66 -4.32 9.32 -5 10 C-5.99 9.67 -6.98 9.34 -8 9 C-5.36 6.03 -2.72 3.06 0 0 Z " fill="#101010" transform="translate(298,107)"/>
<path d="M0 0 C0.33 0 0.66 0 1 0 C0.67 4.62 0.34 9.24 0 14 C-1.65 14.33 -3.3 14.66 -5 15 C-7.29289472 16.95809523 -7.29289472 16.95809523 -9 19 C-8.38737369 16.17919621 -7.52845191 13.86191144 -6.15234375 11.328125 C-5.79462891 10.66425781 -5.43691406 10.00039063 -5.06835938 9.31640625 C-4.69517578 8.63449219 -4.32199219 7.95257813 -3.9375 7.25 C-3.56044922 6.55261719 -3.18339844 5.85523438 -2.79492188 5.13671875 C-1.86726612 3.42231698 -0.93416546 1.71086339 0 0 Z " fill="#151515" transform="translate(421,296)"/>
<path d="M0 0 C0.66 0.99 1.32 1.98 2 3 C1.3203125 5.69921875 1.3203125 5.69921875 0.125 8.6875 C-0.45894531 10.17830078 -0.45894531 10.17830078 -1.0546875 11.69921875 C-1.36664063 12.45847656 -1.67859375 13.21773437 -2 14 C-2.66 14 -3.32 14 -4 14 C-4.33 14.66 -4.66 15.32 -5 16 C-4.979375 15.030625 -4.95875 14.06125 -4.9375 13.0625 C-4.64381501 10.12534105 -4.64381501 10.12534105 -6 9 C-6.04063832 7.33382885 -6.042721 5.66611905 -6 4 C-5.38125 3.71125 -4.7625 3.4225 -4.125 3.125 C-1.86674235 2.06279958 -1.86674235 2.06279958 0 0 Z " fill="#0E0E0E" transform="translate(142,170)"/>
<path d="M0 0 C0.66 0 1.32 0 2 0 C2 1.65 2 3.3 2 5 C4.64 5 7.28 5 10 5 C10 5.33 10 5.66 10 6 C2.2282919 7.95007216 -5.13848597 8.24572637 -13.125 8.125 C-14.27226562 8.11597656 -15.41953125 8.10695313 -16.6015625 8.09765625 C-19.40126748 8.07432538 -22.20051695 8.04159232 -25 8 C-25 7.67 -25 7.34 -25 7 C-23.02966797 6.90912109 -23.02966797 6.90912109 -21.01953125 6.81640625 C-19.28384459 6.73196744 -17.54816802 6.64732112 -15.8125 6.5625 C-14.94818359 6.52318359 -14.08386719 6.48386719 -13.19335938 6.44335938 C-9.04085878 6.23652984 -5.05462138 5.99896469 -1 5 C-0.67 3.35 -0.34 1.7 0 0 Z " fill="#3A3A3A" transform="translate(301,406)"/>
<path d="M0 0 C2 2 2 2 2.1953125 4.1640625 C2.17210937 4.97617187 2.14890625 5.78828125 2.125 6.625 C2.10695312 7.44226563 2.08890625 8.25953125 2.0703125 9.1015625 C2.03550781 10.04128906 2.03550781 10.04128906 2 11 C0.02 11 -1.96 11 -4 11 C-4.625 8.125 -4.625 8.125 -5 5 C-4.34 4.34 -3.68 3.68 -3 3 C-2.01 3 -1.02 3 0 3 C0 2.01 0 1.02 0 0 Z " fill="#0D0D0D" transform="translate(175,349)"/>
<path d="M0 0 C0.66 0 1.32 0 2 0 C0.16379339 4.95372224 -2.24661026 9.60403157 -4.625 14.3125 C-5.04523438 15.14845703 -5.46546875 15.98441406 -5.8984375 16.84570312 C-6.93047831 18.898057 -7.96438144 20.94944979 -9 23 C-9.66 22.67 -10.32 22.34 -11 22 C-9.52403189 17.03116495 -7.40510877 12.71218514 -4.9375 8.1875 C-4.57333984 7.50751953 -4.20917969 6.82753906 -3.83398438 6.12695312 C-1.1489279 1.1489279 -1.1489279 1.1489279 0 0 Z " fill="#1C1C1C" transform="translate(127,133)"/>
<path d="M0 0 C0.99 0.33 1.98 0.66 3 1 C1.68 2.65 0.36 4.3 -1 6 C0.65 6.33 2.3 6.66 4 7 C2.68 7.33 1.36 7.66 0 8 C0 8.99 0 9.98 0 11 C1.32 11.33 2.64 11.66 4 12 C2.35 12.33 0.7 12.66 -1 13 C-1.33 11.68 -1.66 10.36 -2 9 C-2.61875 9.495 -3.2375 9.99 -3.875 10.5 C-6 12 -6 12 -8 12 C-6.49087042 7.01987239 -3.44338151 3.75740058 0 0 Z " fill="#161616" transform="translate(247,167)"/>
<path d="M0 0 C1.65 0 3.3 0 5 0 C5 3.3 5 6.6 5 10 C3.35 10.33 1.7 10.66 0 11 C-0.33 10.34 -0.66 9.68 -1 9 C0.32 9.33 1.64 9.66 3 10 C3 9.34 3 8.68 3 8 C1.68 7.34 0.36 6.68 -1 6 C-0.67 4.02 -0.34 2.04 0 0 Z " fill="#0E0E0E" transform="translate(416,109)"/>
<path d="M0 0 C1 1 1 1 1.0625 4.5625 C1.041875 5.696875 1.02125 6.83125 1 8 C0.34 7.67 -0.32 7.34 -1 7 C-1 5.35 -1 3.7 -1 2 C-1.66 2 -2.32 2 -3 2 C-3 3.98 -3 5.96 -3 8 C-4.65 8 -6.3 8 -8 8 C-8 5.69 -8 3.38 -8 1 C-5.05549278 0.01849759 -3.06481021 -0.1613058 0 0 Z " fill="#0E0E0E" transform="translate(168,352)"/>
<path d="M0 0 C0.99 0 1.98 0 3 0 C3.43230491 7.34918342 1.81774185 13.90215087 0 21 C-0.66 21 -1.32 21 -2 21 C-2.33 21.99 -2.66 22.98 -3 24 C-2 16 -1 8 0 0 Z " fill="#2F2F2F" transform="translate(466,246)"/>
<path d="M0 0 C0.33 0 0.66 0 1 0 C1 3.63 1 7.26 1 11 C-0.65 11 -2.3 11 -4 11 C-5 10 -5 10 -5.0625 6.9375 C-5.041875 5.968125 -5.02125 4.99875 -5 4 C-4.0409375 3.8453125 -4.0409375 3.8453125 -3.0625 3.6875 C-2.381875 3.460625 -1.70125 3.23375 -1 3 C-0.67 2.01 -0.34 1.02 0 0 Z " fill="#0D0D0D" transform="translate(170,106)"/>
<path d="M0 0 C0.66 0.66 1.32 1.32 2 2 C0.42840852 5.85754273 -2.01077487 8.14362932 -5 11 C-6.27347265 12.26818853 -7.54423659 13.53910193 -8.8125 14.8125 C-9.875 15.875 -10.9375 16.9375 -12 18 C-12.33 17.01 -12.66 16.02 -13 15 C-12.22914063 14.16855469 -11.45828125 13.33710937 -10.6640625 12.48046875 C-9.6509335 11.38291233 -8.63791863 10.28525056 -7.625 9.1875 C-7.11710937 8.64029297 -6.60921875 8.09308594 -6.0859375 7.52929688 C-3.84783697 5.09977985 -1.83620888 2.75431332 0 0 Z " fill="#181818" transform="translate(355,40)"/>
<path d="M0 0 C0.66 0 1.32 0 2 0 C2 3.3 2 6.6 2 10 C0.35 10 -1.3 10 -3 10 C-4 9 -4 9 -4.0625 5.9375 C-4.041875 4.968125 -4.02125 3.99875 -4 3 C-2.68 2.67 -1.36 2.34 0 2 C0 1.34 0 0.68 0 0 Z " fill="#0A0A0A" transform="translate(278,234)"/>
<path d="M0 0 C0.66 0 1.32 0 2 0 C2.77734375 2.6953125 2.77734375 2.6953125 3 6 C1.12890625 8.5546875 1.12890625 8.5546875 -1.4375 10.875 C-2.28183594 11.65617187 -3.12617188 12.43734375 -3.99609375 13.2421875 C-4.65738281 13.82226562 -5.31867188 14.40234375 -6 15 C-6.33 14.34 -6.66 13.68 -7 13 C-5.92325298 10.71741367 -4.80453884 8.5643566 -3.5625 6.375 C-3.22412109 5.76398438 -2.88574219 5.15296875 -2.53710938 4.5234375 C-1.69853808 3.011647 -0.85017423 1.50529601 0 0 Z " fill="#262626" transform="translate(189,417)"/>
<path d="M0 0 C0.66 0 1.32 0 2 0 C0.60652624 3.15204981 -1.02485079 5.26171773 -3.4765625 7.671875 C-4.48203125 8.66767578 -4.48203125 8.66767578 -5.5078125 9.68359375 C-6.20648438 10.36550781 -6.90515625 11.04742187 -7.625 11.75 C-8.33140625 12.44738281 -9.0378125 13.14476562 -9.765625 13.86328125 C-11.50598703 15.58012488 -13.25084981 17.29211832 -15 19 C-15.66 18.67 -16.32 18.34 -17 18 C-14.54220967 15.37449113 -12.08367499 12.74968042 -9.625 10.125 C-8.92632812 9.37863281 -8.22765625 8.63226563 -7.5078125 7.86328125 C-6.8375 7.14785156 -6.1671875 6.43242187 -5.4765625 5.6953125 C-4.85861816 5.03547363 -4.24067383 4.37563477 -3.60400391 3.69580078 C-2.42157912 2.44570602 -1.21673031 1.21673031 0 0 Z " fill="#191919" transform="translate(224,385)"/>
<path d="M0 0 C0.33 0 0.66 0 1 0 C1 3.63 1 7.26 1 11 C-0.65 11 -2.3 11 -4 11 C-4.33 10.67 -4.66 10.34 -5 10 C-4.71269945 7.66055264 -4.38063221 5.3260857 -4 3 C-2.68 3 -1.36 3 0 3 C0 2.01 0 1.02 0 0 Z " fill="#0D0D0D" transform="translate(393,349)"/>
<path d="M0 0 C0.99 0 1.98 0 3 0 C4.45951119 2.58267413 5.91764881 5.16610741 7.375 7.75 C7.7875 8.47960937 8.2 9.20921875 8.625 9.9609375 C9.02460938 10.66992188 9.42421875 11.37890625 9.8359375 12.109375 C10.20251465 12.75874023 10.5690918 13.40810547 10.94677734 14.07714844 C12.01554043 16.02837191 13.01758503 18.00410556 14 20 C13.34 20.33 12.68 20.66 12 21 C10.55969281 18.62666362 9.12269913 16.25142274 7.6875 13.875 C7.28337891 13.20984375 6.87925781 12.5446875 6.46289062 11.859375 C4.12543592 7.98262085 1.96548039 4.08361945 0 0 Z " fill="#191919" transform="translate(121,314)"/>
<path d="M0 0 C6.52307692 0.49230769 6.52307692 0.49230769 8.9375 3.0625 C9.288125 3.701875 9.63875 4.34125 10 5 C8.35 6.32 6.7 7.64 5 9 C5 6 5 6 6 4 C5.01 3.67 4.02 3.34 3 3 C3 4.65 3 6.3 3 8 C0.525 7.01 0.525 7.01 -2 6 C-1.34 4.02 -0.68 2.04 0 0 Z " fill="#1C1C1C" transform="translate(196,403)"/>
<path d="M0 0 C0 0.33 0 0.66 0 1 C-1.765625 1.44140625 -3.53125 1.8828125 -5.296875 2.32421875 C-6.02390625 2.50597656 -6.7509375 2.68773438 -7.5 2.875 C-9.61516988 3.40379247 -11.73021804 3.93250191 -13.84765625 4.45214844 C-15.32019434 4.82696417 -16.78639049 5.22736943 -18.24609375 5.64941406 C-20.1424133 6.18350406 -22.07061919 6.60154092 -24 7 C-24.66 6.34 -25.32 5.68 -26 5 C-23.79290017 4.34996375 -21.58426108 3.70515255 -19.375 3.0625 C-18.14523438 2.70285156 -16.91546875 2.34320313 -15.6484375 1.97265625 C-10.33485664 0.55608062 -5.49731576 -0.13088847 0 0 Z " fill="#101010" transform="translate(266,76)"/>
<path d="M0 0 C0.33 0.99 0.66 1.98 1 3 C0.34 3 -0.32 3 -1 3 C-0.67 2.01 -0.34 1.02 0 0 Z M-2 3 C-1.34 3.33 -0.68 3.66 0 4 C-0.66 9.28 -1.32 14.56 -2 20 C-2.99 20 -3.98 20 -5 20 C-4.25339288 14.27601207 -3.17122859 8.65146223 -2 3 Z " fill="#171717" transform="translate(107,184)"/>
<path d="M0 0 C0.33 0.99 0.66 1.98 1 3 C0.34 3.66 -0.32 4.32 -1 5 C2.96 6.32 6.92 7.64 11 9 C6.61335603 11.19332199 6.22164201 11.17725559 1.875 9.75 C1.00617188 9.47671875 0.13734375 9.2034375 -0.7578125 8.921875 C-3 8 -3 8 -5 6 C-3.35 4.02 -1.7 2.04 0 0 Z " fill="#1F1F1F" transform="translate(231,397)"/>
<path d="M0 0 C3.58471953 1.7043421 6.74439294 3.81691307 10 6.07421875 C11.9817175 7.21679923 11.9817175 7.21679923 14.25 6.64453125 C14.8275 6.43183594 15.405 6.21914063 16 6 C16.33 6.66 16.66 7.32 17 8 C16.01 9.485 16.01 9.485 15 11 C11.16009012 9.61624869 8.02947436 7.83690651 4.6875 5.5 C3.80449219 4.8915625 2.92148438 4.283125 2.01171875 3.65625 C1.34785156 3.1096875 0.68398437 2.563125 0 2 C0 1.34 0 0.68 0 0 Z " fill="#181818" transform="translate(177,377)"/>
<path d="M0 0 C2 3 2 3 2.8046875 4.859375 C4.46175536 7.82693444 6.69618414 9.88346147 9.125 12.25 C10.03507812 13.14203125 10.94515625 14.0340625 11.8828125 14.953125 C12.58148438 15.62859375 13.28015625 16.3040625 14 17 C13.34 17.66 12.68 18.32 12 19 C11.43152344 18.34773438 10.86304688 17.69546875 10.27734375 17.0234375 C5.77840407 11.93114851 1.28461028 7.27266363 -4 3 C-3.34 2.67 -2.68 2.34 -2 2 C-1.34 2.33 -0.68 2.66 0 3 C0 2.01 0 1.02 0 0 Z " fill="#1D1D1D" transform="translate(387,110)"/>
<path d="M0 0 C0.99 0.33 1.98 0.66 3 1 C0.9058208 3.48775816 -1.20195942 5.96361449 -3.3125 8.4375 C-3.90740234 9.14455078 -4.50230469 9.85160156 -5.11523438 10.58007812 C-5.69208984 11.25361328 -6.26894531 11.92714844 -6.86328125 12.62109375 C-7.39219971 13.2442749 -7.92111816 13.86745605 -8.46606445 14.50952148 C-10 16 -10 16 -13 17 C-11.44182816 13.35015184 -9.18875601 10.8314046 -6.5 7.9375 C-4.09463269 5.34079665 -1.96595796 2.94893694 0 0 Z " fill="#1B1B1B" transform="translate(315,87)"/>
<path d="M0 0 C0.66 0 1.32 0 2 0 C2 2.97 2 5.94 2 9 C0.02 9 -1.96 9 -4 9 C-4 7.02 -4 5.04 -4 3 C-2.68 2.67 -1.36 2.34 0 2 C0 1.34 0 0.68 0 0 Z " fill="#0C0C0C" transform="translate(278,402)"/>
<path d="M0 0 C4.19360449 0.67097672 7.40334352 2.8558394 11 5 C9.125 9.75 9.125 9.75 8 12 C7.34 12 6.68 12 6 12 C6 10.02 6 8.04 6 6 C5.34 6 4.68 6 4 6 C4 5.01 4 4.02 4 3 C3.34 3 2.68 3 2 3 C1.34 3.99 0.68 4.98 0 6 C0 4.02 0 2.04 0 0 Z " fill="#171717" transform="translate(196,354)"/>
<path d="M0 0 C2.125 0.375 2.125 0.375 4 1 C4 3.33333333 4 5.66666667 4 8 C2.33388095 8.042721 0.66617115 8.04063832 -1 8 C-2 7 -2 7 -2.1875 4.5625 C-2 2 -2 2 0 0 Z " fill="#0E0E0E" transform="translate(283,236)"/>
<path d="M0 0 C1.32 0 2.64 0 4 0 C4.33 2.31 4.66 4.62 5 7 C3.34385343 7.38218767 1.67542976 7.71395102 0 8 C-1 7 -1 7 -1.125 4 C-1 1 -1 1 0 0 Z " fill="#0E0E0E" transform="translate(397,352)"/>
<path d="M0 0 C0.66 0.66 1.32 1.32 2 2 C0.25395451 3.4630657 -1.49699453 4.9202808 -3.25 6.375 C-4.22453125 7.18710938 -5.1990625 7.99921875 -6.203125 8.8359375 C-8.4552682 10.57851757 -10.40711386 11.876416 -13 13 C-12.38125 12.278125 -11.7625 11.55625 -11.125 10.8125 C-9.16333647 8.21618062 -8.04684 6.05328334 -7 3 C-5.68 3 -4.36 3 -3 3 C-3 2.34 -3 1.68 -3 1 C-2.01 0.67 -1.02 0.34 0 0 Z " fill="#1F1F1F" transform="translate(188,109)"/>
<path d="M0 0 C0.639375 0.2475 1.27875 0.495 1.9375 0.75 C2.9375 3.75 2.9375 3.75 2 5.9375 C1.4740625 6.8346875 1.4740625 6.8346875 0.9375 7.75 C-0.7125 7.42 -2.3625 7.09 -4.0625 6.75 C-4.0625 4.77 -4.0625 2.79 -4.0625 0.75 C-2.0625 -0.25 -2.0625 -0.25 0 0 Z " fill="#0E0E0E" transform="translate(394.0625,109.25)"/>
<path d="M0 0 C0 0.99 0 1.98 0 3 C-11.41133366 6.65070835 -11.41133366 6.65070835 -17 7 C-17.66 6.34 -18.32 5.68 -19 5 C-18.27554687 4.80664062 -17.55109375 4.61328125 -16.8046875 4.4140625 C-12.64798885 3.294525 -8.5224929 2.1741643 -4.4375 0.8125 C-2 0 -2 0 0 0 Z " fill="#2C2C2C" transform="translate(337,372)"/>
<path d="M0 0 C5.63950695 4.14669629 9.92897967 9.34580509 14 15 C11 15 11 15 9.0625 13.390625 C8.381875 12.68421875 7.70125 11.9778125 7 11.25 C6.319375 10.55390625 5.63875 9.8578125 4.9375 9.140625 C0 3.68548387 0 3.68548387 0 0 Z " fill="#272727" transform="translate(147,349)"/>
<path d="M0 0 C1.32 0.66 2.64 1.32 4 2 C3.06725891 3.12894876 2.12859878 4.25300876 1.1875 5.375 C0.66542969 6.00148438 0.14335937 6.62796875 -0.39453125 7.2734375 C-2 9 -2 9 -5 11 C-5 8.37886292 -4.68707555 6.49064888 -4 4 C-3.34 4 -2.68 4 -2 4 C-1.34 2.68 -0.68 1.36 0 0 Z " fill="#242424" transform="translate(417,352)"/>
<path d="M0 0 C4.31071724 3.36446224 7.84068603 6.96959071 11.38671875 11.12890625 C13.16318382 13.18926163 15.03774585 15.11623602 17 17 C13.40867181 17 13.09888104 16.48276911 10.64453125 14.04296875 C9.71157227 13.11581055 9.71157227 13.11581055 8.75976562 12.16992188 C8.11716797 11.51572266 7.47457031 10.86152344 6.8125 10.1875 C6.15830078 9.54490234 5.50410156 8.90230469 4.83007812 8.24023438 C4.21197266 7.61826172 3.59386719 6.99628906 2.95703125 6.35546875 C2.38960205 5.78465576 1.82217285 5.21384277 1.23754883 4.62573242 C0 3 0 3 0 0 Z " fill="#1F1F1F" transform="translate(168,327)"/>
<path d="M0 0 C2.26998857 3.40498285 3.92252127 6.98149446 5.625 10.6875 C5.94984375 11.38939453 6.2746875 12.09128906 6.609375 12.81445312 C7.40848336 14.54193738 8.20454043 16.27083254 9 18 C8.34 18.33 7.68 18.66 7 19 C6.67 17.35 6.34 15.7 6 14 C5.34 14 4.68 14 4 14 C3.13116294 12.42466914 2.28040932 10.83935491 1.4375 9.25 C0.96183594 8.36828125 0.48617187 7.4865625 -0.00390625 6.578125 C-1.07998186 3.79298812 -1.06528748 2.73019786 0 0 Z " fill="#1C1C1C" transform="translate(143,285)"/>
<path d="M0 0 C0.66 0.33 1.32 0.66 2 1 C2.99 0.67 3.98 0.34 5 0 C5.33 0.66 5.66 1.32 6 2 C4.78515625 4.8203125 4.78515625 4.8203125 3.0625 8.125 C2.49660156 9.22070312 1.93070312 10.31640625 1.34765625 11.4453125 C0.90292969 12.28835937 0.45820313 13.13140625 0 14 C-0.66 13.67 -1.32 13.34 -2 13 C-1.77183594 12.39671875 -1.54367187 11.7934375 -1.30859375 11.171875 C-1.02113281 10.37265625 -0.73367188 9.5734375 -0.4375 8.75 C-0.14746094 7.96109375 0.14257812 7.1721875 0.44140625 6.359375 C1.04522837 3.80896548 0.8473932 2.44677771 0 0 Z " fill="#1D1D1D" transform="translate(289,173)"/>
<path d="M0 0 C4.06160357 0.5478442 6.17140666 2.65064077 9.125 5.375 C9.99382812 6.16648437 10.86265625 6.95796875 11.7578125 7.7734375 C14 10 14 10 16 13 C13 13 13 13 10.87890625 11.171875 C10.11449219 10.37265625 9.35007812 9.5734375 8.5625 8.75 C7.80066406 7.96109375 7.03882813 7.1721875 6.25390625 6.359375 C5.51011719 5.58078125 4.76632812 4.8021875 4 4 C2.67008108 2.66326098 1.3378969 1.32875409 0 0 Z " fill="#292929" transform="translate(405,91)"/>
<path d="M0 0 C0 0.66 0 1.32 0 2 C-2.62450086 2.22119939 -5.24870486 2.42746669 -7.875 2.625 C-8.62136719 2.68945312 -9.36773437 2.75390625 -10.13671875 2.8203125 C-12.0870047 2.96087365 -14.04469467 2.98759849 -16 3 C-16.66 2.34 -17.32 1.68 -18 1 C-15.37583048 0.63835477 -12.75099687 0.28538847 -10.125 -0.0625 C-9.37863281 -0.16626953 -8.63226563 -0.27003906 -7.86328125 -0.37695312 C-2.2265625 -1.11328125 -2.2265625 -1.11328125 0 0 Z " fill="#1B1B1B" transform="translate(344,203)"/>
<path d="M0 0 C1.65 0 3.3 0 5 0 C5.33 1.32 5.66 2.64 6 4 C4.35 4 2.7 4 1 4 C1 4.66 1 5.32 1 6 C2.65 5.67 4.3 5.34 6 5 C5.01 6.485 5.01 6.485 4 8 C2.68 7.67 1.36 7.34 0 7 C-1.125 2.25 -1.125 2.25 0 0 Z " fill="#101010" transform="translate(282,300)"/>
<path d="M0 0 C-0.33 0.66 -0.66 1.32 -1 2 C-6.03331532 3.02720721 -10.88987066 3.25550647 -16 3 C-16.99 2.34 -17.98 1.68 -19 1 C-16.58440932 0.63645961 -14.16805703 0.28389449 -11.75 -0.0625 C-11.06808594 -0.16626953 -10.38617188 -0.27003906 -9.68359375 -0.37695312 C-6.2150075 -0.86524925 -3.33088887 -1.22762141 0 0 Z " fill="#1C1C1C" transform="translate(385,198)"/>
<path d="M0 0 C0.66 0.99 1.32 1.98 2 3 C-0.31 7.62 -2.62 12.24 -5 17 C-5.66 16.67 -6.32 16.34 -7 16 C-5.35433477 10.31497465 -2.70967216 5.23318364 0 0 Z " fill="#1F1F1F" transform="translate(301,156)"/>
<path d="M0 0 C1.98 0 3.96 0 6 0 C6 1.98 6 3.96 6 6 C4.34385343 6.38218767 2.67542976 6.71395102 1 7 C0 6 0 6 -0.0625 2.9375 C-0.041875 1.968125 -0.02125 0.99875 0 0 Z " fill="#0C0C0C" transform="translate(274,47)"/>
<path d="M0 0 C0.99 0.33 1.98 0.66 3 1 C-1.95 5.95 -6.9 10.9 -12 16 C-12.66 15.34 -13.32 14.68 -14 14 C-13.24074219 13.32453125 -12.48148437 12.6490625 -11.69921875 11.953125 C-10.69514311 11.05227209 -9.69124628 10.15121986 -8.6875 9.25 C-8.18798828 8.8065625 -7.68847656 8.363125 -7.17382812 7.90625 C-4.45068191 5.453615 -2.07235877 3.02719984 0 0 Z " fill="#1E1E1E" transform="translate(399,329)"/>
<path d="M0 0 C0.66 0 1.32 0 2 0 C1.84518205 2.70931419 1.51827919 4.46584039 -0.40234375 6.4453125 C-1.89771708 7.67679642 -3.4462924 8.8429837 -5 10 C-5.68707555 7.50935112 -6 5.62113708 -6 3 C-4.33333333 3 -2.66666667 3 -1 3 C-0.67 2.01 -0.34 1.02 0 0 Z " fill="#212121" transform="translate(361,238)"/>
<path d="M0 0 C2.5 0.3125 2.5 0.3125 5 1 C5.33 1.66 5.66 2.32 6 3 C4.25 5.0625 4.25 5.0625 2 7 C-0.25 6.75 -0.25 6.75 -2 6 C-1.125 1.125 -1.125 1.125 0 0 Z " fill="#0F0F0F" transform="translate(355,236)"/>
<path d="M0 0 C-5.20106653 3.46737769 -10.92221176 3.30388941 -17 3 C-17.66 2.34 -18.32 1.68 -19 1 C-16.58440932 0.63645961 -14.16805703 0.28389449 -11.75 -0.0625 C-11.06808594 -0.16626953 -10.38617188 -0.27003906 -9.68359375 -0.37695312 C-6.2150075 -0.86524925 -3.33088887 -1.22762141 0 0 Z " fill="#161616" transform="translate(304,208)"/>
<path d="M0 0 C0.66 0.66 1.32 1.32 2 2 C0.21427748 3.83947337 -1.57802449 5.67157741 -3.375 7.5 C-3.88289063 8.02464844 -4.39078125 8.54929687 -4.9140625 9.08984375 C-6.23832604 10.43153181 -7.61605865 11.71995815 -9 13 C-9.66 13 -10.32 13 -11 13 C-9.46356148 9.31930113 -7.21849055 7.01224796 -4.375 4.25 C-3.55773437 3.45078125 -2.74046875 2.6515625 -1.8984375 1.828125 C-0.95871094 0.92320312 -0.95871094 0.92320312 0 0 Z " fill="#1D1D1D" transform="translate(344,258)"/>
<path d="M0 0 C0.99 0.33 1.98 0.66 3 1 C0.69 5.62 -1.62 10.24 -4 15 C-4.66 14.67 -5.32 14.34 -6 14 C-4.50829734 9.0276578 -2.39542583 4.58154261 0 0 Z " fill="#212121" transform="translate(309,140)"/>
<path d="M0 0 C2.09350689 3.4019487 2.17942163 6.05272412 2 10 C-0.46800047 8.84826645 -2.04783565 7.95216435 -4 6 C-4 5.01 -4 4.02 -4 3 C-2 1.3125 -2 1.3125 0 0 Z " fill="#0D0D0D" transform="translate(157,350)"/>
<path d="M0 0 C3.89839291 5.84758937 4.29973431 13.10611082 4 20 C3.67 20 3.34 20 3 20 C3 18.02 3 16.04 3 14 C2.34 14 1.68 14 1 14 C0.63659714 12.23103898 0.28459117 10.45973374 -0.0625 8.6875 C-0.25972656 7.70136719 -0.45695312 6.71523437 -0.66015625 5.69921875 C-1 3 -1 3 0 0 Z " fill="#111111" transform="translate(434,191)"/>
<path d="M0 0 C1.42944945 2.35438733 2.08661261 3.48032433 1.625 6.25 C1.41875 6.8275 1.2125 7.405 1 8 C1.66 8 2.32 8 3 8 C3 5.36 3 2.72 3 0 C3.66 0 4.32 0 5 0 C5 2.97 5 5.94 5 9 C3.35 9 1.7 9 0 9 C-0.87890625 2.84765625 -0.87890625 2.84765625 -1 1 C-0.67 0.67 -0.34 0.34 0 0 Z " fill="#131313" transform="translate(260,402)"/>
<path d="M0 0 C1.32 0.33 2.64 0.66 4 1 C4.33 2.65 4.66 4.3 5 6 C2.36 6.33 -0.28 6.66 -3 7 C-3.66 6.01 -4.32 5.02 -5 4 C-3.35 3.67 -1.7 3.34 0 3 C0 2.01 0 1.02 0 0 Z " fill="#1A1A1A" transform="translate(253,404)"/>
<path d="M0 0 C3.2826932 1.49076434 5.93077441 3.38620321 8.75 5.625 C9.94882813 6.57246094 9.94882813 6.57246094 11.171875 7.5390625 C11.77515625 8.02117187 12.3784375 8.50328125 13 9 C12.67 9.99 12.34 10.98 12 12 C10.18107883 10.57063361 8.37004119 9.13123035 6.5625 7.6875 C5.55316406 6.88699219 4.54382813 6.08648437 3.50390625 5.26171875 C1 3 1 3 0 0 Z " fill="#1A1A1A" transform="translate(163,366)"/>
<path d="M0 0 C0.99 0.33 1.98 0.66 3 1 C-0.465 3.97 -0.465 3.97 -4 7 C-3.67 7.66 -3.34 8.32 -3 9 C-4.98 9 -6.96 9 -9 9 C-9.33 8.34 -9.66 7.68 -10 7 C-8.4050992 5.80008401 -6.79873853 4.61538682 -5.1875 3.4375 C-3.84751953 2.44556641 -3.84751953 2.44556641 -2.48046875 1.43359375 C-1.66191406 0.96050781 -0.84335937 0.48742187 0 0 Z " fill="#171717" transform="translate(375,351)"/>
<path d="M0 0 C1.65 0.33 3.3 0.66 5 1 C5 3.31 5 5.62 5 8 C3.35 8 1.7 8 0 8 C-0.33 7.34 -0.66 6.68 -1 6 C0.32 6.33 1.64 6.66 3 7 C3 6.34 3 5.68 3 5 C1.68 4.34 0.36 3.68 -1 3 C-0.67 2.01 -0.34 1.02 0 0 Z " fill="#0F0F0F" transform="translate(404,352)"/>
<path d="M0 0 C1.65 0.33 3.3 0.66 5 1 C4.01 1.495 4.01 1.495 3 2 C3.33 2.99 3.66 3.98 4 5 C2.02 5.33 0.04 5.66 -2 6 C-1.34 4.02 -0.68 2.04 0 0 Z M-3 6 C-2.34 6.66 -1.68 7.32 -1 8 C-1.99 9.98 -2.98 11.96 -4 14 C-4.66 13.01 -5.32 12.02 -6 11 C-5.01 9.35 -4.02 7.7 -3 6 Z " fill="#181818" transform="translate(250,302)"/>
<path d="M0 0 C1.53508028 2.43338652 2.03088304 3.67124507 1.7578125 6.578125 C1.54898438 7.45984375 1.34015625 8.3415625 1.125 9.25 C0.92132813 10.14203125 0.71765625 11.0340625 0.5078125 11.953125 C0.34023437 12.62859375 0.17265625 13.3040625 0 14 C-0.66 14 -1.32 14 -2 14 C-2 15.98 -2 17.96 -2 20 C-2.33 20 -2.66 20 -3 20 C-3.48452463 13.05514697 -1.69287491 6.7009632 0 0 Z " fill="#121212" transform="translate(135,191)"/>
<path d="M0 0 C0.66 0 1.32 0 2 0 C3.96263236 5.5415502 4.01603857 9.20858017 3 15 C1.08697693 11.73386305 0.64325339 9.00554752 0.375 5.25 C0.30023438 4.26515625 0.22546875 3.2803125 0.1484375 2.265625 C0.09945313 1.51796875 0.05046875 0.7703125 0 0 Z " fill="#1C1C1C" transform="translate(463,187)"/>
<path d="M0 0 C1.76462683 3.08809695 2 4.23312136 2 8 C2.33 6.02 2.66 4.04 3 2 C3.66 2 4.32 2 5 2 C5 4.64 5 7.28 5 10 C3.35 10 1.7 10 0 10 C-1.125 2.25 -1.125 2.25 0 0 Z " fill="#111111" transform="translate(151,107)"/>
<path d="M0 0 C2.0625 0.4375 2.0625 0.4375 4 1 C4.33 2.32 4.66 3.64 5 5 C2.69 5.33 0.38 5.66 -2 6 C-1.125 1.125 -1.125 1.125 0 0 Z " fill="#0B0B0B" transform="translate(308,404)"/>
<path d="M0 0 C0.66 0.66 1.32 1.32 2 2 C0.02 5.96 -1.96 9.92 -4 14 C-4.66 13.67 -5.32 13.34 -6 13 C-4.58707905 8.1725201 -2.57025846 4.2837641 0 0 Z " fill="#1C1C1C" transform="translate(285,189)"/>
<path d="M0 0 C2.0625 0.1875 2.0625 0.1875 4 1 C4.33 1.99 4.66 2.98 5 4 C3.68 3.67 2.36 3.34 1 3 C0.67 3.99 0.34 4.98 0 6 C1.32 6 2.64 6 4 6 C4 6.66 4 7.32 4 8 C2.35 8 0.7 8 -1 8 C-1.625 5.125 -1.625 5.125 -2 2 C-1.34 1.34 -0.68 0.68 0 0 Z " fill="#111111" transform="translate(174,109)"/>
<path d="M0 0 C2.31 0.33 4.62 0.66 7 1 C6.67 2.98 6.34 4.96 6 7 C5.67 6.34 5.34 5.68 5 5 C2.47266765 4.34444881 2.47266765 4.34444881 0 4 C0 2.68 0 1.36 0 0 Z " fill="#0D0D0D" transform="translate(306,48)"/>
<path d="M0 0 C0.66 0.66 1.32 1.32 2 2 C1.34 2 0.68 2 0 2 C0 1.34 0 0.68 0 0 Z M-1 2 C-0.34 2.66 0.32 3.32 1 4 C-0.98 7.63 -2.96 11.26 -5 15 C-5.66 14.34 -6.32 13.68 -7 13 C-5.02 9.37 -3.04 5.74 -1 2 Z " fill="#191919" transform="translate(224,351)"/>
<path d="M0 0 C1.65 0.33 3.3 0.66 5 1 C4.34 1.66 3.68 2.32 3 3 C3.66 3.33 4.32 3.66 5 4 C4.67 5.32 4.34 6.64 4 8 C2.35 7.67 0.7 7.34 -1 7 C-0.67 6.34 -0.34 5.68 0 5 C1.485 5.99 1.485 5.99 3 7 C3 6.34 3 5.68 3 5 C1.68 4.67 0.36 4.34 -1 4 C-0.67 2.68 -0.34 1.36 0 0 Z " fill="#111111" transform="translate(206,236)"/>
<path d="M0 0 C-1.65 1.98 -3.3 3.96 -5 6 C-5.66 5.67 -6.32 5.34 -7 5 C-6.67 4.34 -6.34 3.68 -6 3 C-7.98 3 -9.96 3 -12 3 C-8.2391768 -0.7608232 -5.0273023 -0.25136512 0 0 Z " fill="#161616" transform="translate(406,195)"/>
<path d="M0 0 C0.99 0.33 1.98 0.66 3 1 C2.525625 1.37125 2.05125 1.7425 1.5625 2.125 C-0.52205802 4.62646962 -0.64621491 6.81593418 -1 10 C-1.66 9.34 -2.32 8.68 -3 8 C-3.66 8.66 -4.32 9.32 -5 10 C-5.99 9.67 -6.98 9.34 -8 9 C-5.36 6.03 -2.72 3.06 0 0 Z " fill="#202020" transform="translate(298,107)"/>
<path d="M0 0 C1.65 0 3.3 0 5 0 C7 5.75 7 5.75 7 8 C6.34 8 5.68 8 5 8 C5 6.02 5 4.04 5 2 C4.01 2 3.02 2 2 2 C2 3.98 2 5.96 2 8 C1.34 8 0.68 8 0 8 C0 5.36 0 2.72 0 0 Z " fill="#101010" transform="translate(157,109)"/>
<path d="M0 0 C3.9115468 1.47958509 5.2274524 3.53957471 7.25 7.125 C8.03117188 8.49011719 8.03117188 8.49011719 8.828125 9.8828125 C9.40820312 10.93082031 9.40820312 10.93082031 10 12 C9.01 12 8.02 12 7 12 C5.17578125 9.8828125 5.17578125 9.8828125 3.3125 7.125 C2.37857422 5.76761719 2.37857422 5.76761719 1.42578125 4.3828125 C0 2 0 2 0 0 Z " fill="#181818" transform="translate(151,305)"/>
<path d="M0 0 C1.65 0 3.3 0 5 0 C5 0.66 5 1.32 5 2 C4.01 2 3.02 2 2 2 C3.32 2.66 4.64 3.32 6 4 C5.34 5.32 4.68 6.64 4 8 C2.68 7.67 1.36 7.34 0 7 C0.33 6.34 0.66 5.68 1 5 C1.66 5.33 2.32 5.66 3 6 C3 5.34 3 4.68 3 4 C2.01 4 1.02 4 0 4 C0 2.68 0 1.36 0 0 Z " fill="#101010" transform="translate(423,300)"/>
<path d="M0 0 C0.33 0 0.66 0 1 0 C1.125 3.375 1.125 3.375 1 7 C0.34 7.66 -0.32 8.32 -1 9 C-3.125 8.625 -3.125 8.625 -5 8 C-4.01 7.67 -3.02 7.34 -2 7 C-2.99 6.319375 -2.99 6.319375 -4 5.625 C-4.66 5.08875 -5.32 4.5525 -6 4 C-6 3.34 -6 2.68 -6 2 C-5.34 2 -4.68 2 -4 2 C-3.34 2.66 -2.68 3.32 -2 4 C-1.34 2.68 -0.68 1.36 0 0 Z " fill="#121212" transform="translate(203,238)"/>
<path d="M0 0 C3.03393954 3.46735947 4.9351577 7.52949826 6 12 C5.67 12.99 5.34 13.98 5 15 C5 14.34 5 13.68 5 13 C4.34 13 3.68 13 3 13 C-0.42857143 4.57142857 -0.42857143 4.57142857 0 0 Z " fill="#141414" transform="translate(426,168)"/>
<path d="M0 0 C0.33 0.99 0.66 1.98 1 3 C-0.87109375 5.69921875 -0.87109375 5.69921875 -3.4375 8.6875 C-4.28183594 9.68136719 -5.12617188 10.67523438 -5.99609375 11.69921875 C-6.98802734 12.83810547 -6.98802734 12.83810547 -8 14 C-8.33 13.01 -8.66 12.02 -9 11 C-7.12890625 8.30078125 -7.12890625 8.30078125 -4.5625 5.3125 C-3.71816406 4.31863281 -2.87382812 3.32476562 -2.00390625 2.30078125 C-1.01197266 1.16189453 -1.01197266 1.16189453 0 0 Z " fill="#1A1A1A" transform="translate(287,120)"/>
<path d="M0 0 C1.66611905 -0.042721 3.33382885 -0.04063832 5 0 C6 1 6 1 6.09765625 2.84765625 C6.06510417 4.8984375 6.03255208 6.94921875 6 9 C5.34 8.67 4.68 8.34 4 8 C4 6.02 4 4.04 4 2 C3.01 2 2.02 2 1 2 C1 3.98 1 5.96 1 8 C0.67 8 0.34 8 0 8 C0 5.36 0 2.72 0 0 Z " fill="#111111" transform="translate(408,109)"/>
<path d="M0 0 C0.66 0.66 1.32 1.32 2 2 C-1.3 5.3 -4.6 8.6 -8 12 C-8.66 11.67 -9.32 11.34 -10 11 C-6.7 7.37 -3.4 3.74 0 0 Z " fill="#0E0E0E" transform="translate(235,373)"/>
<path d="M0 0 C3.40364149 0.2917407 5.06382675 1.04578875 7.875 3.0625 C10.17110692 6.23653016 10.27129188 6.66801238 9.8125 10.3125 C9.544375 11.529375 9.27625 12.74625 9 14 C8.67 14 8.34 14 8 14 C8 11.36 8 8.72 8 6 C7.4225 5.7525 6.845 5.505 6.25 5.25 C3.6997003 3.83316683 1.98214299 2.12372463 0 0 Z " fill="#1A1A1A" transform="translate(185,346)"/>
<path d="M0 0 C0.33 0 0.66 0 1 0 C0.53411505 5.70709064 -0.93757784 9.15939723 -4 14 C-4.99 13.67 -5.98 13.34 -7 13 C-3.535 6.565 -3.535 6.565 0 0 Z " fill="#171717" transform="translate(243,315)"/>
<path d="M0 0 C1.98 0.495 1.98 0.495 4 1 C5.125 5.75 5.125 5.75 4 8 C2.35 7.67 0.7 7.34 -1 7 C-0.34 6.67 0.32 6.34 1 6 C1.66 6.33 2.32 6.66 3 7 C3 6.34 3 5.68 3 5 C1.68 4.67 0.36 4.34 -1 4 C-0.67 2.68 -0.34 1.36 0 0 Z " fill="#111111" transform="translate(290,236)"/>
<path d="M0 0 C1.66611905 -0.042721 3.33382885 -0.04063832 5 0 C6 1 6 1 6.0625 4.5625 C6.041875 5.696875 6.02125 6.83125 6 8 C5.34 8 4.68 8 4 8 C4 6.02 4 4.04 4 2 C3.01 2 2.02 2 1 2 C1 3.98 1 5.96 1 8 C0.67 8 0.34 8 0 8 C0 5.36 0 2.72 0 0 Z " fill="#121212" transform="translate(299,236)"/>
<path d="M0 0 C1.66611905 -0.042721 3.33382885 -0.04063832 5 0 C6 1 6 1 6.0625 4.5625 C6.041875 5.696875 6.02125 6.83125 6 8 C5.67 8 5.34 8 5 8 C5 6.02 5 4.04 5 2 C4.01 2 3.02 2 2 2 C2 3.98 2 5.96 2 8 C1.34 8 0.68 8 0 8 C0 5.36 0 2.72 0 0 Z " fill="#121212" transform="translate(266,236)"/>
<path d="M0 0 C1.65 0 3.3 0 5 0 C4.34 1.98 3.68 3.96 3 6 C2.01 6 1.02 6 0 6 C0 5.34 0 4.68 0 4 C-0.66 4 -1.32 4 -2 4 C-1.34 2.68 -0.68 1.36 0 0 Z " fill="#090909" transform="translate(199,236)"/>
<path d="M0 0 C-2.36543716 2.36543716 -4.57067205 3.27541323 -7.625 4.625 C-8.62789062 5.07101563 -9.63078125 5.51703125 -10.6640625 5.9765625 C-11.43492187 6.31429687 -12.20578125 6.65203125 -13 7 C-13 6.01 -13 5.02 -13 4 C-11.40233897 3.13372601 -9.79660056 2.28233535 -8.1875 1.4375 C-7.29417969 0.96183594 -6.40085938 0.48617187 -5.48046875 -0.00390625 C-3 -1 -3 -1 0 0 Z " fill="#191919" transform="translate(224,89)"/>
<path d="M0 0 C3.9252025 3.70090521 6.94580156 7.54959656 10 12 C9.01 12 8.02 12 7 12 C5.17578125 10.13671875 5.17578125 10.13671875 3.3125 7.6875 C2.68988281 6.88699219 2.06726563 6.08648437 1.42578125 5.26171875 C0 3 0 3 0 0 Z " fill="#171717" transform="translate(136,336)"/>
<path d="M0 0 C0.99 0.495 0.99 0.495 2 1 C2 1.99 2 2.98 2 4 C3.32 3.67 4.64 3.34 6 3 C5.34 5.31 4.68 7.62 4 10 C3.34 10 2.68 10 2 10 C1.67 10.66 1.34 11.32 1 12 C1.020625 11.030625 1.04125 10.06125 1.0625 9.0625 C1.35618499 6.12534105 1.35618499 6.12534105 0 5 C-0.04063832 3.33382885 -0.042721 1.66611905 0 0 Z " fill="#161616" transform="translate(136,174)"/>
<path d="M0 0 C0.99 0.33 1.98 0.66 3 1 C-2.445 5.455 -2.445 5.455 -8 10 C-8.66 9.34 -9.32 8.68 -10 8 C-8.40629329 6.63353852 -6.79967018 5.28212834 -5.1875 3.9375 C-4.29417969 3.18339844 -3.40085938 2.42929688 -2.48046875 1.65234375 C-1.25263672 0.83443359 -1.25263672 0.83443359 0 0 Z " fill="#181818" transform="translate(175,80)"/>
<path d="M0 0 C0 4.35815629 -1.79165322 7.54998387 -4.5625 10.875 C-6 12 -6 12 -8 12 C-7.41463247 8.33939179 -5.916761 6.45464836 -3.4375 3.75 C-2.79683594 3.04359375 -2.15617187 2.3371875 -1.49609375 1.609375 C-0.75552734 0.81273438 -0.75552734 0.81273438 0 0 Z " fill="#1C1C1C" transform="translate(368,25)"/>
<path d="M0 0 C1.65 0 3.3 0 5 0 C4.67 0.66 4.34 1.32 4 2 C4.33 2.33 4.66 2.66 5 3 C5 4.32 5 5.64 5 7 C3.68 7.33 2.36 7.66 1 8 C1 7.01 1 6.02 1 5 C1.66 5 2.32 5 3 5 C2.01 4.34 1.02 3.68 0 3 C0 2.01 0 1.02 0 0 Z " fill="#121212" transform="translate(289,300)"/>
<path d="M0 0 C0.33 0 0.66 0 1 0 C1.38991022 1.93455454 1.76145349 3.87281828 2.125 5.8125 C2.33382812 6.89144531 2.54265625 7.97039062 2.7578125 9.08203125 C3 12 3 12 1 15 C-0.96263236 9.4584498 -1.01603857 5.79141983 0 0 Z " fill="#262626" transform="translate(135,256)"/>
<path d="M0 0 C0.99 0.33 1.98 0.66 3 1 C0.03 4.3 -2.94 7.6 -6 11 C-6.33 10.34 -6.66 9.68 -7 9 C-4.69 6.03 -2.38 3.06 0 0 Z " fill="#1E1E1E" transform="translate(235,181)"/>
<path d="M0 0 C0.99 0.33 1.98 0.66 3 1 C0.36 3.64 -2.28 6.28 -5 9 C-5.99 8.67 -6.98 8.34 -8 8 C-5.36 5.36 -2.72 2.72 0 0 Z " fill="#2E2E2E" transform="translate(158,94)"/>
<path d="M0 0 C0 0.33 0 0.66 0 1 C-2.31 1 -4.62 1 -7 1 C-7 1.66 -7 2.32 -7 3 C-9.31 3.33 -11.62 3.66 -14 4 C-14 3.01 -14 2.02 -14 1 C-9.32798795 -0.20568053 -4.78503708 -0.09382426 0 0 Z " fill="#0C0C0C" transform="translate(267,46)"/>
<path d="M0 0 C1.13643966 3.40931897 0.86747764 4.00335456 -0.4375 7.1875 C-0.72496094 7.90292969 -1.01242187 8.61835938 -1.30859375 9.35546875 C-1.53675781 9.89816406 -1.76492188 10.44085938 -2 11 C-2.99 10.67 -3.98 10.34 -5 10 C-4.01 7.36 -3.02 4.72 -2 2 C-1.34 2 -0.68 2 0 2 C0 1.34 0 0.68 0 0 Z " fill="#222222" transform="translate(432,272)"/>
<path d="M0 0 C4.00972202 3.67557852 6.45335415 7.18966896 9 12 C8.01 12.495 8.01 12.495 7 13 C5.82479354 11.40207898 4.66008753 9.79643092 3.5 8.1875 C2.8503125 7.29417969 2.200625 6.40085938 1.53125 5.48046875 C0 3 0 3 0 0 Z " fill="#1B1B1B" transform="translate(402,129)"/>
<path d="M0 0 C1.32 0 2.64 0 4 0 C4 1.98 4 3.96 4 6 C2.35 5.67 0.7 5.34 -1 5 C-0.67 3.35 -0.34 1.7 0 0 Z " fill="#090909" transform="translate(307,109)"/>
<path d="M0 0 C1.65 0 3.3 0 5 0 C4.67 0.99 4.34 1.98 4 3 C3.34 3 2.68 3 2 3 C2 3.66 2 4.32 2 5 C3.65 4.67 5.3 4.34 7 4 C6.01 4.99 5.02 5.98 4 7 C2.68 6.34 1.36 5.68 0 5 C0 3.35 0 1.7 0 0 Z " fill="#0F0F0F" transform="translate(281,47)"/>
<path d="M0 0 C0 1.65 0 3.3 0 5 C-0.99 5.495 -0.99 5.495 -2 6 C-2 4.35 -2 2.7 -2 1 C-2.66 1 -3.32 1 -4 1 C-4.33 2.65 -4.66 4.3 -5 6 C-5.33 6 -5.66 6 -6 6 C-6 4.02 -6 2.04 -6 0 C-3.50907189 -1.24546405 -2.58919267 -0.7767578 0 0 Z " fill="#111111" transform="translate(305,405)"/>
<path d="M0 0 C0.66 0.66 1.32 1.32 2 2 C-0.64 4.64 -3.28 7.28 -6 10 C-6.66 9.67 -7.32 9.34 -8 9 C-5.36 6.03 -2.72 3.06 0 0 Z " fill="#0E0E0E" transform="translate(321,282)"/>
<path d="M0 0 C0.66 0.66 1.32 1.32 2 2 C-0.31 4.64 -2.62 7.28 -5 10 C-5.99 9.67 -6.98 9.34 -8 9 C-5.36 6.03 -2.72 3.06 0 0 Z " fill="#222222" transform="translate(258,154)"/>
<path d="M0 0 C0.66 0 1.32 0 2 0 C0.18690997 3.77727089 -1.9073259 7.37269822 -4 11 C-4.66 10.67 -5.32 10.34 -6 10 C-4.63312778 6.01328937 -2.84804907 3.11505367 0 0 Z " fill="#171717" transform="translate(159,140)"/>
<path d="M0 0 C0.66 0 1.32 0 2 0 C0.63629701 2.99220268 -0.94908083 5.29026529 -3.125 7.75 C-3.93324219 8.67039062 -3.93324219 8.67039062 -4.7578125 9.609375 C-5.16773438 10.06828125 -5.57765625 10.5271875 -6 11 C-6.33 10.34 -6.66 9.68 -7 9 C-5.88266271 7.49428343 -4.75589965 5.99555708 -3.625 4.5 C-2.99851562 3.6646875 -2.37203125 2.829375 -1.7265625 1.96875 C-1.15679687 1.3190625 -0.58703125 0.669375 0 0 Z " fill="#1B1B1B" transform="translate(326,74)"/>
<path d="M0 0 C0.99 0.33 1.98 0.66 3 1 C0.69 3.64 -1.62 6.28 -4 9 C-4.99 8.67 -5.98 8.34 -7 8 C-4.69 5.36 -2.38 2.72 0 0 Z " fill="#1A1A1A" transform="translate(338,60)"/>
<path d="M0 0 C0.66 0.66 1.32 1.32 2 2 C0.35 4.97 -1.3 7.94 -3 11 C-3.66 11 -4.32 11 -5 11 C-3.77472971 6.94718288 -2.30119506 3.55639236 0 0 Z " fill="#181818" transform="translate(199,370)"/>
<path d="M0 0 C0.33 0 0.66 0 1 0 C1.33 4.29 1.66 8.58 2 13 C1.01 13 0.02 13 -1 13 C-1.07654536 8.48382401 -1.10228696 4.40914783 0 0 Z " fill="#333333" transform="translate(467,199)"/>
<path d="M0 0 C0.66 0.99 1.32 1.98 2 3 C0.74093486 6.58833566 -0.29462171 9.29462171 -3 12 C-2.49202991 7.6822542 -1.80317221 3.96697886 0 0 Z " fill="#1A1A1A" transform="translate(457,289)"/>
<path d="M0 0 C0.33 0 0.66 0 1 0 C1.05406122 1.93719378 1.09282025 3.87481921 1.125 5.8125 C1.14820313 6.89144531 1.17140625 7.97039062 1.1953125 9.08203125 C1 12 1 12 -1 15 C-1.97798721 11.20431539 -1.92653069 8.4994001 -1.0625 4.6875 C-0.86785156 3.80449219 -0.67320312 2.92148437 -0.47265625 2.01171875 C-0.31667969 1.34785156 -0.16070312 0.68398438 0 0 Z " fill="#282828" transform="translate(434,256)"/>
<path d="M0 0 C7.625 0.875 7.625 0.875 11 2 C10.67 2.66 10.34 3.32 10 4 C6.7 3.67 3.4 3.34 0 3 C0 2.01 0 1.02 0 0 Z " fill="#2A2A2A" transform="translate(260,261)"/>
<path d="M0 0 C0.66 0.66 1.32 1.32 2 2 C0.02 4.31 -1.96 6.62 -4 9 C-4.99 8.67 -5.98 8.34 -7 8 C-4.69 5.36 -2.38 2.72 0 0 Z " fill="#1C1C1C" transform="translate(173,254)"/>
<path d="M0 0 C1.71872538 2.57808807 2.48218488 4.10424011 3.25 7 C3.44078125 7.680625 3.6315625 8.36125 3.828125 9.0625 C4 11 4 11 2 14 C0.4087311 9.126739 -0.21192221 5.19209404 0 0 Z " fill="#2D2D2D" transform="translate(458,165)"/>
<path d="M0 0 C0 2.64 0 5.28 0 8 C-0.99 7.67 -1.98 7.34 -3 7 C-3.33 6.01 -3.66 5.02 -4 4 C-4.99 3.34 -5.98 2.68 -7 2 C-1.125 0 -1.125 0 0 0 Z " fill="#090909" transform="translate(406,109)"/>
<path d="M0 0 C5.03985731 0.44469329 7.37634988 2.71343362 11 6 C10.34 6.66 9.68 7.32 9 8 C7.49712782 6.85793642 5.99776716 5.71125043 4.5 4.5625 C3.6646875 3.92441406 2.829375 3.28632812 1.96875 2.62890625 C1.3190625 2.09136719 0.669375 1.55382812 0 1 C0 0.67 0 0.34 0 0 Z " fill="#171717" transform="translate(394,82)"/>
<path d="M0 0 C0.99 0.66 1.98 1.32 3 2 C2.21654285 3.17219543 1.42297164 4.33763668 0.625 5.5 C0.18414062 6.1496875 -0.25671875 6.799375 -0.7109375 7.46875 C-1.13632812 7.9740625 -1.56171875 8.479375 -2 9 C-2.66 9 -3.32 9 -4 9 C-2.94124926 5.59687262 -1.99097846 2.98646769 0 0 Z " fill="#232323" transform="translate(360,60)"/>
<path d="M0 0 C0.66 0 1.32 0 2 0 C0.60667426 3.36720387 -0.9789286 4.9859524 -4 7 C-4.66 5.68 -5.32 4.36 -6 3 C-5.195625 2.690625 -4.39125 2.38125 -3.5625 2.0625 C-1.10919595 1.23664655 -1.10919595 1.23664655 0 0 Z " fill="#252525" transform="translate(258,349)"/>
<path d="M0 0 C0.99 0 1.98 0 3 0 C2.65120368 3.25543229 1.97866739 4.01873107 -0.5625 6.25 C-1.366875 6.8275 -2.17125 7.405 -3 8 C-1.125 2.25 -1.125 2.25 0 0 Z " fill="#151515" transform="translate(185,424)"/>
<path d="M0 0 C1.32 0.33 2.64 0.66 4 1 C4.33 2.32 4.66 3.64 5 5 C3.35 5 1.7 5 0 5 C0 3.35 0 1.7 0 0 Z " fill="#0E0E0E" transform="translate(283,404)"/>
<path d="M0 0 C2.50320403 2.50320403 3.0988845 4.60348774 4 8 C3.67 8.99 3.34 9.98 3 11 C0.99118063 7.98677094 -0.03927918 5.47337526 -1 2 C-0.67 1.34 -0.34 0.68 0 0 Z " fill="#141414" transform="translate(112,289)"/>
<path d="M0 0 C0 3 0 3 -1.53125 4.82421875 C-2.1809375 5.43910156 -2.830625 6.05398437 -3.5 6.6875 C-4.1496875 7.31011719 -4.799375 7.93273437 -5.46875 8.57421875 C-5.9740625 9.04472656 -6.479375 9.51523437 -7 10 C-7.66 9.67 -8.32 9.34 -9 9 C-6.21000549 5.51250686 -3.74764169 2.49842779 0 0 Z " fill="#090909" transform="translate(355,247)"/>
<path d="M0 0 C4.42857143 5.14285714 4.42857143 5.14285714 5 9 C4.01 9.495 4.01 9.495 3 10 C1.68 7.03 0.36 4.06 -1 1 C-0.67 0.67 -0.34 0.34 0 0 Z " fill="#1F1F1F" transform="translate(421,158)"/>
<path d="M0 0 C0.66 0 1.32 0 2 0 C2 1.65 2 3.3 2 5 C0.1875 5.625 0.1875 5.625 -2 6 C-2.99 5.34 -3.98 4.68 -5 4 C-4.34 4 -3.68 4 -3 4 C-3 3.34 -3 2.68 -3 2 C-2.01 2 -1.02 2 0 2 C0 1.34 0 0.68 0 0 Z " fill="#0D0D0D" transform="translate(387,107)"/>
<path d="M0 0 C0.66 0.33 1.32 0.66 2 1 C0.90931332 4.77545388 0.0916909 7.47043472 -3 10 C-2.49287967 6.28111761 -1.88391785 3.26545761 0 0 Z " fill="#1A1A1A" transform="translate(203,390)"/>
<path d="M0 0 C0.33 0 0.66 0 1 0 C0.38461538 6.52307692 0.38461538 6.52307692 -1.5625 8.9375 C-2.036875 9.288125 -2.51125 9.63875 -3 10 C-3.33 9.34 -3.66 8.68 -4 8 C-3.22265625 6.0546875 -3.22265625 6.0546875 -2.0625 3.875 C-1.49208984 2.78832031 -1.49208984 2.78832031 -0.91015625 1.6796875 C-0.60980469 1.12539063 -0.30945313 0.57109375 0 0 Z " fill="#1E1E1E" transform="translate(212,373)"/>
<path d="M0 0 C2.475 0.495 2.475 0.495 5 1 C5 3.31 5 5.62 5 8 C4.34 8 3.68 8 3 8 C3 6.02 3 4.04 3 2 C2.01 1.67 1.02 1.34 0 1 C0 0.67 0 0.34 0 0 Z " fill="#0E0E0E" transform="translate(191,236)"/>
<path d="M0 0 C4.83256305 0.41421969 6.82679218 2.46413986 10 6 C5.16743695 5.58578031 3.17320782 3.53586014 0 0 Z " fill="#1B1B1B" transform="translate(374,105)"/>
<path d="M0 0 C0.66 0.66 1.32 1.32 2 2 C0.02 4.31 -1.96 6.62 -4 9 C-4.66 8.34 -5.32 7.68 -6 7 C-4.02 4.69 -2.04 2.38 0 0 Z " fill="#1F1F1F" transform="translate(328,51)"/>
<path d="M0 0 C1.65 0.33 3.3 0.66 5 1 C5 1.66 5 2.32 5 3 C3.68 2.67 2.36 2.34 1 2 C1 2.66 1 3.32 1 4 C-0.65 4.33 -2.3 4.66 -4 5 C-3.67 4.34 -3.34 3.68 -3 3 C-2.34 3 -1.68 3 -1 3 C-0.67 2.01 -0.34 1.02 0 0 Z " fill="#131313" transform="translate(246,404)"/>
<path d="M0 0 C1.1875 1.625 1.1875 1.625 2 4 C0.625 7.25 0.625 7.25 -1 10 C-1.66 9.01 -2.32 8.02 -3 7 C-1.625 3.3125 -1.625 3.3125 0 0 Z " fill="#1E1E1E" transform="translate(425,287)"/>
<path d="M0 0 C2.32590854 3.63423209 2.16265833 6.77088331 2 11 C0.5 9.875 0.5 9.875 -1 8 C-1.25265405 4.90498792 -1.39935013 2.79870027 0 0 Z " fill="#111111" transform="translate(260,170)"/>
<path d="M0 0 C3.75376152 1.25125384 4.24073289 2.5652404 6 6 C6 6.66 6 7.32 6 8 C2.24623848 6.74874616 1.75926711 5.4347596 0 2 C0 1.34 0 0.68 0 0 Z " fill="#181818" transform="translate(438,128)"/>
<path d="M0 0 C1.32 0.33 2.64 0.66 4 1 C3.690625 1.598125 3.38125 2.19625 3.0625 2.8125 C1.89790296 5.08956772 1.89790296 5.08956772 1 8 C0.67 8 0.34 8 0 8 C0 5.36 0 2.72 0 0 Z " fill="#030303" transform="translate(199,406)"/>
<path d="M0 0 C-0.33 0.66 -0.66 1.32 -1 2 C-3.875 2.75 -3.875 2.75 -7 3 C-7.99 2.34 -8.98 1.68 -10 1 C-3.375 -1.125 -3.375 -1.125 0 0 Z " fill="#1E1E1E" transform="translate(338,405)"/>
<path d="M0 0 C2.0625 0.4375 2.0625 0.4375 4 1 C3.67 1.99 3.34 2.98 3 4 C2.01 4.33 1.02 4.66 0 5 C-0.5625 3.0625 -0.5625 3.0625 -1 1 C-0.67 0.67 -0.34 0.34 0 0 Z " fill="#0E0E0E" transform="translate(315,404)"/>
<path d="M0 0 C0.66 0.66 1.32 1.32 2 2 C0.37660195 3.70884005 -1.29319053 5.37446717 -3 7 C-3.66 7 -4.32 7 -5 7 C-3.70700306 4.11562221 -2.34058637 2.12780579 0 0 Z " fill="#0D0D0D" transform="translate(286,319)"/>
<path d="M0 0 C0.66 0.99 1.32 1.98 2 3 C1.01 4.98 0.02 6.96 -1 9 C-1.66 8.67 -2.32 8.34 -3 8 C-1.125 2.25 -1.125 2.25 0 0 Z " fill="#1F1F1F" transform="translate(450,306)"/>
<path d="M0 0 C0.66 0 1.32 0 2 0 C1.67 1.32 1.34 2.64 1 4 C-0.32 4 -1.64 4 -3 4 C-3.33 5.32 -3.66 6.64 -4 8 C-4 6.35 -4 4.7 -4 3 C-2.68 2.67 -1.36 2.34 0 2 C0 1.34 0 0.68 0 0 Z " fill="#131313" transform="translate(278,234)"/>
<path d="M0 0 C1.98 0.495 1.98 0.495 4 1 C3.34 2.32 2.68 3.64 2 5 C1.01 4.67 0.02 4.34 -1 4 C-0.67 2.68 -0.34 1.36 0 0 Z " fill="#020202" transform="translate(247,238)"/>
<path d="M0 0 C1.89213369 2.38573379 3.02391783 4.07175348 4 7 C3.34 7.66 2.68 8.32 2 9 C0.4375 6.1875 0.4375 6.1875 -1 3 C-0.67 2.01 -0.34 1.02 0 0 Z " fill="#202020" transform="translate(449,145)"/>
<path d="M0 0 C0.66 0.66 1.32 1.32 2 2 C0.3125 3.5625 0.3125 3.5625 -2 5 C-4.75 4.6875 -4.75 4.6875 -7 4 C-5.68 3.67 -4.36 3.34 -3 3 C-3 2.34 -3 1.68 -3 1 C-2.01 0.67 -1.02 0.34 0 0 Z " fill="#161616" transform="translate(188,109)"/>
<path d="M0 0 C1.4540625 0.0309375 1.4540625 0.0309375 2.9375 0.0625 C2.9375 0.7225 2.9375 1.3825 2.9375 2.0625 C0.6275 2.7225 -1.6825 3.3825 -4.0625 4.0625 C-4.0625 0.08290816 -4.0625 0.08290816 0 0 Z " fill="#1C1C1C" transform="translate(252.0625,377.9375)"/>
<path d="M0 0 C0.66 0 1.32 0 2 0 C0.79618552 2.49361571 -0.45428722 4.68143083 -2 7 C-2.66 7 -3.32 7 -4 7 C-2.92598892 4.08482708 -2.22189824 2.22189824 0 0 Z " fill="#161616" transform="translate(432,337)"/>
<path d="M0 0 C0.66 0.66 1.32 1.32 2 2 C1.34 2 0.68 2 0 2 C0 1.34 0 0.68 0 0 Z M-1 2 C-0.34 2.66 0.32 3.32 1 4 C0.01 5.98 -0.98 7.96 -2 10 C-2.66 9.01 -3.32 8.02 -4 7 C-3.01 5.35 -2.02 3.7 -1 2 Z " fill="#161616" transform="translate(232,336)"/>
<path d="M0 0 C2.475 0.495 2.475 0.495 5 1 C5 1.66 5 2.32 5 3 C3.02 3.99 3.02 3.99 1 5 C0.67 3.35 0.34 1.7 0 0 Z " fill="#010101" transform="translate(355,238)"/>
<path d="M0 0 C0.66 0 1.32 0 2 0 C0.8141763 3.37503669 -0.27573689 5.64722731 -3 8 C-3 4.40142046 -2.04169485 2.90548882 0 0 Z " fill="#1F1F1F" transform="translate(133,123)"/>
</svg>
