<?xml version="1.0" encoding="UTF-8"?>
<!DOCTYPE svg PUBLIC "-//W3C//DTD SVG 1.1//EN" "http://www.w3.org/Graphics/SVG/1.1/DTD/svg11.dtd">
<svg xmlns="http://www.w3.org/2000/svg" version="1.1" width="200px" height="200px" style="shape-rendering:geometricPrecision; text-rendering:geometricPrecision; image-rendering:optimizeQuality; fill-rule:evenodd; clip-rule:evenodd" xmlns:xlink="http://www.w3.org/1999/xlink">
<g><path style="opacity:0.916" fill="#000000" d="M 179.5,25.5 C 196.831,27.6182 201.664,36.6182 194,52.5C 188.125,57.6487 181.625,58.6487 174.5,55.5C 170.603,58.6092 166.936,61.9426 163.5,65.5C 170.984,78.8285 172.484,92.8285 168,107.5C 165.898,111.929 163.398,116.095 160.5,120C 171.667,133.167 182.833,146.333 194,159.5C 194.667,160.5 194.667,161.5 194,162.5C 189.667,166.167 185.333,169.833 181,173.5C 169.312,159.98 157.812,146.313 146.5,132.5C 145.833,132.167 145.167,131.833 144.5,131.5C 121.441,138.979 102.941,132.979 89,113.5C 81.8562,98.7578 81.6895,83.9245 88.5,69C 86.8122,66.9806 84.8122,65.314 82.5,64C 79.152,64.855 75.652,65.355 72,65.5C 69.0835,65.6651 66.4168,64.9985 64,63.5C 53.1411,73.6035 42.4744,83.9368 32,94.5C 34.3326,103.063 32.166,110.23 25.5,116C 16.5831,120.063 9.08305,118.229 3,110.5C -1.05533,92.056 6.11133,84.7226 24.5,88.5C 35.4835,78.6839 46.3169,68.6839 57,58.5C 56.5242,53.8832 56.5242,49.2166 57,44.5C 63.2551,33.9072 71.7551,31.7405 82.5,38C 87.2899,43.2195 88.6232,49.2195 86.5,56C 89,57.8333 91.5,59.6667 94,61.5C 107.267,47.8908 123.1,43.7241 141.5,49C 147.296,51.3977 152.63,54.5644 157.5,58.5C 161.019,55.1465 164.686,51.9798 168.5,49C 164.221,37.3925 167.888,29.5592 179.5,25.5 Z M 121.5,59.5 C 131.38,58.4663 140.047,61.133 147.5,67.5C 145.183,70.3174 142.683,72.9841 140,75.5C 131.482,71.2933 123.149,71.6266 115,76.5C 111.232,74.4027 107.732,71.9027 104.5,69C 109.38,64.2561 115.046,61.0895 121.5,59.5 Z M 152.5,75.5 C 153.496,75.4142 154.329,75.7476 155,76.5C 161.738,93.6185 157.572,107.452 142.5,118C 125.236,125.642 111.069,121.809 100,106.5C 94.1486,96.4223 94.1486,86.4223 100,76.5C 103,78.8333 106,81.1667 109,83.5C 106.034,95.6217 109.867,104.788 120.5,111C 131.081,114.14 139.581,111.306 146,102.5C 149.454,95.5531 149.287,88.7198 145.5,82C 147.729,79.5997 150.063,77.433 152.5,75.5 Z"/></g>
</svg>
