<?xml version="1.0" encoding="UTF-8"?>
<svg version="1.1" xmlns="http://www.w3.org/2000/svg" width="800" height="800">
<path d="M0 0 C187.44 0 374.88 0 568 0 C568 187.44 568 374.88 568 568 C380.56 568 193.12 568 0 568 C0 380.56 0 193.12 0 0 Z " fill="#FEFEFE" transform="translate(116,116)"/>
<path d="M0 0 C187.44 0 374.88 0 568 0 C568 187.44 568 374.88 568 568 C380.56 568 193.12 568 0 568 C0 380.56 0 193.12 0 0 Z M267 33 C267 33.66 267 34.32 267 35 C266.42967041 34.99476318 265.85934082 34.98952637 265.27172852 34.98413086 C262.70199677 34.96341779 260.13228253 34.9503581 257.5625 34.9375 C256.66466797 34.92912109 255.76683594 34.92074219 254.84179688 34.91210938 C253.98779297 34.90888672 253.13378906 34.90566406 252.25390625 34.90234375 C251.46314697 34.89710693 250.6723877 34.89187012 249.85766602 34.88647461 C247.98407311 34.79504091 247.98407311 34.79504091 247 36 C244.47403741 36.23653523 241.96892793 36.42173692 239.4375 36.5625 C238.72658203 36.60568359 238.01566406 36.64886719 237.28320312 36.69335938 C235.52238088 36.79971777 233.7612168 36.90038846 232 37 C232 37.99 232 38.98 232 40 C228.7 40 225.4 40 222 40 C222 40.99 222 41.98 222 43 C218.7 43 215.4 43 212 43 C212 43.99 212 44.98 212 46 C210.35 46 208.7 46 207 46 C207 46.66 207 47.32 207 48 C203.7 48 200.4 48 197 48 C197 48.66 197 49.32 197 50 C195.35 50 193.7 50 192 50 C192 50.99 192 51.98 192 53 C190.35 53 188.7 53 187 53 C187 53.66 187 54.32 187 55 C185.35 55.33 183.7 55.66 182 56 C182 56.66 182 57.32 182 58 C179.36 58 176.72 58 174 58 C174 58.66 174 59.32 174 60 C172.35 60 170.7 60 169 60 C169 60.99 169 61.98 169 63 C168.01 63 167.02 63 166 63 C166 63.99 166 64.98 166 66 C164.35 66 162.7 66 161 66 C161 66.66 161 67.32 161 68 C159.35 68 157.7 68 156 68 C156 68.66 156 69.32 156 70 C154.68 70.33 153.36 70.66 152 71 C152 71.66 152 72.32 152 73 C151.01 73 150.02 73 149 73 C149 73.99 149 74.98 149 76 C147.35 76 145.7 76 144 76 C144 76.66 144 77.32 144 78 C143.01 78 142.02 78 141 78 C141 78.99 141 79.98 141 81 C139.35 81 137.7 81 136 81 C136 81.66 136 82.32 136 83 C135.34 83 134.68 83 134 83 C134 83.99 134 84.98 134 86 C133.01 86 132.02 86 131 86 C131 86.66 131 87.32 131 88 C129.35 88 127.7 88 126 88 C126 88.99 126 89.98 126 91 C125.34 91 124.68 91 124 91 C124 91.66 124 92.32 124 93 C123.01 93 122.02 93 121 93 C121 93.99 121 94.98 121 96 C120.34 96 119.68 96 119 96 C119 96.66 119 97.32 119 98 C118.01 98 117.02 98 116 98 C116 98.99 116 99.98 116 101 C115.01 101 114.02 101 113 101 C113 101.99 113 102.98 113 104 C112.34 104 111.68 104 111 104 C111 104.66 111 105.32 111 106 C110.01 106 109.02 106 108 106 C108 106.66 108 107.32 108 108 C107.34 108 106.68 108 106 108 C106 108.99 106 109.98 106 111 C105.01 111 104.02 111 103 111 C103 111.66 103 112.32 103 113 C102.34 113 101.68 113 101 113 C101 113.99 101 114.98 101 116 C100.01 116 99.02 116 98 116 C98 116.99 98 117.98 98 119 C97.34 119 96.68 119 96 119 C96 119.66 96 120.32 96 121 C95.01 121 94.02 121 93 121 C93 121.99 93 122.98 93 124 C92.34 124 91.68 124 91 124 C91 124.66 91 125.32 91 126 C90.01 126 89.02 126 88 126 C88 127.65 88 129.3 88 131 C87.01 131 86.02 131 85 131 C85 131.66 85 132.32 85 133 C84.34 133 83.68 133 83 133 C83 133.99 83 134.98 83 136 C82.34 136 81.68 136 81 136 C81 137.65 81 139.3 81 141 C80.01 141 79.02 141 78 141 C78 141.99 78 142.98 78 144 C77.34 144 76.68 144 76 144 C76 145.65 76 147.3 76 149 C75.01 149 74.02 149 73 149 C73 149.99 73 150.98 73 152 C72.34 152 71.68 152 71 152 C70.505 153.98 70.505 153.98 70 156 C69.34 156 68.68 156 68 156 C68 156.99 68 157.98 68 159 C67.34 159 66.68 159 66 159 C66 160.65 66 162.3 66 164 C65.01 164 64.02 164 63 164 C63 165.65 63 167.3 63 169 C62.01 169 61.02 169 60 169 C60 170.65 60 172.3 60 174 C59.34 174 58.68 174 58 174 C58 175.65 58 177.3 58 179 C57.01 179 56.02 179 55 179 C55 180.65 55 182.3 55 184 C54.34 184 53.68 184 53 184 C53 186.64 53 189.28 53 192 C52.34 192 51.68 192 51 192 C51 194.64 51 197.28 51 200 C50.01 200 49.02 200 48 200 C48 201.32 48 202.64 48 204 C47.01 204.33 46.02 204.66 45 205 C45 207.31 45 209.62 45 212 C44.34 212 43.68 212 43 212 C43 215.3 43 218.6 43 222 C42.01 222 41.02 222 40 222 C40 225.3 40 228.6 40 232 C39.34 232 38.68 232 38 232 C38 236.29 38 240.58 38 245 C37.01 245 36.02 245 35 245 C35 251.6 35 258.2 35 265 C34.34 265 33.68 265 33 265 C33 275.89 33 286.78 33 298 C33.66 298 34.32 298 35 298 C35 306.25 35 314.5 35 323 C35.66 323 36.32 323 37 323 C36.98839844 323.68707031 36.97679687 324.37414062 36.96484375 325.08203125 C36.95582031 325.98308594 36.94679687 326.88414062 36.9375 327.8125 C36.92589844 328.70582031 36.91429687 329.59914063 36.90234375 330.51953125 C36.88990033 333.13413791 36.88990033 333.13413791 38 336 C38.66 336 39.32 336 40 336 C40 340.29 40 344.58 40 349 C40.99 349 41.98 349 43 349 C43 349.66 43 350.32 43 351 C43.66 351 44.32 351 45 351 C45.495 355.95 45.495 355.95 46 361 C46.66 361 47.32 361 48 361 C48 364.3 48 367.6 48 371 C48.99 371 49.98 371 51 371 C51 372.65 51 374.3 51 376 C51.66 376 52.32 376 53 376 C53 377.65 53 379.3 53 381 C53.66 381 54.32 381 55 381 C55.33 382.65 55.66 384.3 56 386 C56.66 386 57.32 386 58 386 C58 388.64 58 391.28 58 394 C58.66 394 59.32 394 60 394 C60 395.65 60 397.3 60 399 C60.99 399 61.98 399 63 399 C63 400.65 63 402.3 63 404 C63.99 404 64.98 404 66 404 C66 405.65 66 407.3 66 409 C66.99 409 67.98 409 69 409 C69 409.66 69 410.32 69 411 C69.66 411 70.32 411 71 411 C71 412.98 71 414.96 71 417 C71.66 417 72.32 417 73 417 C73 417.66 73 418.32 73 419 C73.99 419 74.98 419 76 419 C76 420.65 76 422.3 76 424 C76.66 424 77.32 424 78 424 C78 425.65 78 427.3 78 429 C78.99 429 79.98 429 81 429 C81 429.99 81 430.98 81 432 C81.66 432 82.32 432 83 432 C83 432.99 83 433.98 83 435 C83.66 435 84.32 435 85 435 C85 435.66 85 436.32 85 437 C85.99 437 86.98 437 88 437 C88 438.65 88 440.3 88 442 C88.99 442 89.98 442 91 442 C91 442.66 91 443.32 91 444 C91.99 444 92.98 444 94 444 C94 444.99 94 445.98 94 447 C94.66 447 95.32 447 96 447 C96 447.66 96 448.32 96 449 C96.99 449 97.98 449 99 449 C99 449.99 99 450.98 99 452 C99.66 452 100.32 452 101 452 C101 452.99 101 453.98 101 455 C101.66 455 102.32 455 103 455 C103 455.66 103 456.32 103 457 C103.99 457 104.98 457 106 457 C106 457.99 106 458.98 106 460 C106.66 460 107.32 460 108 460 C108 460.66 108 461.32 108 462 C108.99 462 109.98 462 111 462 C111 462.99 111 463.98 111 465 C111.66 465 112.32 465 113 465 C113 465.66 113 466.32 113 467 C113.99 467 114.98 467 116 467 C116 467.99 116 468.98 116 470 C116.99 470 117.98 470 119 470 C119 470.66 119 471.32 119 472 C119.66 472 120.32 472 121 472 C121 472.99 121 473.98 121 475 C121.99 475 122.98 475 124 475 C124 475.66 124 476.32 124 477 C124.66 477 125.32 477 126 477 C126 477.99 126 478.98 126 480 C127.65 480 129.3 480 131 480 C131 480.66 131 481.32 131 482 C131.99 482 132.98 482 134 482 C134 482.99 134 483.98 134 485 C134.66 485 135.32 485 136 485 C136 485.66 136 486.32 136 487 C137.65 487 139.3 487 141 487 C141 487.99 141 488.98 141 490 C141.99 490 142.98 490 144 490 C144 490.66 144 491.32 144 492 C145.65 492 147.3 492 149 492 C149 492.99 149 493.98 149 495 C149.99 495 150.98 495 152 495 C152 495.66 152 496.32 152 497 C153.32 497.33 154.64 497.66 156 498 C156 498.66 156 499.32 156 500 C156.99 500 157.98 500 159 500 C159 500.66 159 501.32 159 502 C160.65 502 162.3 502 164 502 C164 502.99 164 503.98 164 505 C165.65 505 167.3 505 169 505 C169 505.99 169 506.98 169 508 C170.65 508 172.3 508 174 508 C174 508.66 174 509.32 174 510 C175.65 510 177.3 510 179 510 C179 510.99 179 511.98 179 513 C180.65 513 182.3 513 184 513 C184 513.66 184 514.32 184 515 C186.64 515 189.28 515 192 515 C192 515.66 192 516.32 192 517 C194.64 517 197.28 517 200 517 C200 517.99 200 518.98 200 520 C201.32 520 202.64 520 204 520 C204.33 520.99 204.66 521.98 205 523 C207.31 523 209.62 523 212 523 C212 523.66 212 524.32 212 525 C215.3 525 218.6 525 222 525 C222 525.99 222 526.98 222 528 C225.3 528 228.6 528 232 528 C232 528.66 232 529.32 232 530 C233.09699219 530.04898437 234.19398438 530.09796875 235.32421875 530.1484375 C236.77866925 530.22350591 238.23309516 530.29905197 239.6875 530.375 C240.40873047 530.4059375 241.12996094 530.436875 241.87304688 530.46875 C242.57880859 530.50742187 243.28457031 530.54609375 244.01171875 530.5859375 C244.65584717 530.6173584 245.29997559 530.6487793 245.96362305 530.68115234 C248 531 248 531 250.24104309 532.00375366 C253.39186803 533.1415017 255.83397929 533.25383794 259.1796875 533.25878906 C260.40445801 533.26509338 261.62922852 533.27139771 262.89111328 533.27789307 C264.2057959 533.2738446 265.52047852 533.26979614 266.875 533.265625 C268.24593169 533.26697345 269.61686291 533.26891549 270.98779297 533.27142334 C273.85584075 533.27436613 276.72376365 533.27010429 279.59179688 533.26074219 C283.26030418 533.24934804 286.9285188 533.25591206 290.59701538 533.26788712 C293.42637317 533.27512863 296.25566206 533.27280729 299.08502197 533.26763153 C301.09297883 533.2656565 303.10093841 533.27170975 305.10888672 533.27789307 C306.33365723 533.27158875 307.55842773 533.26528442 308.8203125 533.25878906 C309.89555176 533.25719788 310.97079102 533.25560669 312.07861328 533.25396729 C315.09604009 532.99165087 317.25242824 532.2306257 320 531 C322.03637695 530.68115234 322.03637695 530.68115234 323.98828125 530.5859375 C324.69404297 530.54726563 325.39980469 530.50859375 326.12695312 530.46875 C327.20879883 530.42234375 327.20879883 530.42234375 328.3125 530.375 C329.05306641 530.33632813 329.79363281 530.29765625 330.55664062 530.2578125 C332.37071309 530.16418295 334.18532116 530.08103149 336 530 C336 529.34 336 528.68 336 528 C337.093125 528.020625 338.18625 528.04125 339.3125 528.0625 C342.94384191 528.18544452 342.94384191 528.18544452 346 527 C346 526.34 346 525.68 346 525 C349.3 525 352.6 525 356 525 C356 524.01 356 523.02 356 522 C357.65 522 359.3 522 361 522 C361 521.34 361 520.68 361 520 C364.3 520 367.6 520 371 520 C371 519.01 371 518.02 371 517 C372.65 517 374.3 517 376 517 C376 516.34 376 515.68 376 515 C377.65 515 379.3 515 381 515 C381 514.34 381 513.68 381 513 C382.65 512.67 384.3 512.34 386 512 C386 511.34 386 510.68 386 510 C388.64 510 391.28 510 394 510 C394 509.34 394 508.68 394 508 C395.65 508 397.3 508 399 508 C399 507.01 399 506.02 399 505 C400.65 505 402.3 505 404 505 C404 504.01 404 503.02 404 502 C405.65 502 407.3 502 409 502 C409 501.34 409 500.68 409 500 C410.65 500 412.3 500 414 500 C414 499.01 414 498.02 414 497 C414.99 497 415.98 497 417 497 C417 496.34 417 495.68 417 495 C417.66 495 418.32 495 419 495 C419 494.01 419 493.02 419 492 C420.65 492 422.3 492 424 492 C424 491.34 424 490.68 424 490 C425.65 490 427.3 490 429 490 C429 489.01 429 488.02 429 487 C429.99 487 430.98 487 432 487 C432 486.34 432 485.68 432 485 C432.99 485 433.98 485 435 485 C435 484.34 435 483.68 435 483 C435.66 483 436.32 483 437 483 C437 482.01 437 481.02 437 480 C438.65 480 440.3 480 442 480 C442 479.01 442 478.02 442 477 C442.66 477 443.32 477 444 477 C444 476.01 444 475.02 444 474 C444.99 474 445.98 474 447 474 C447 473.34 447 472.68 447 472 C447.66 472 448.32 472 449 472 C449 471.01 449 470.02 449 469 C449.99 469 450.98 469 452 469 C452 468.34 452 467.68 452 467 C452.99 467 453.98 467 455 467 C455 466.34 455 465.68 455 465 C455.66 465 456.32 465 457 465 C457 464.01 457 463.02 457 462 C458.65 462 460.3 462 462 462 C462 460.35 462 458.7 462 457 C462.99 457 463.98 457 465 457 C465 456.34 465 455.68 465 455 C465.66 455 466.32 455 467 455 C467 454.01 467 453.02 467 452 C467.66 452 468.32 452 469 452 C469 451.01 469 450.02 469 449 C469.99 449 470.98 449 472 449 C472 448.34 472 447.68 472 447 C472.99 447 473.98 447 475 447 C475 446.01 475 445.02 475 444 C475.66 444 476.32 444 477 444 C477 443.34 477 442.68 477 442 C477.99 442 478.98 442 480 442 C480 440.35 480 438.7 480 437 C480.66 437 481.32 437 482 437 C482 436.01 482 435.02 482 434 C482.99 434 483.98 434 485 434 C485 433.34 485 432.68 485 432 C485.66 432 486.32 432 487 432 C487 431.01 487 430.02 487 429 C487.99 429 488.98 429 490 429 C490 427.35 490 425.7 490 424 C490.66 424 491.32 424 492 424 C492 422.35 492 420.7 492 419 C492.99 419 493.98 419 495 419 C495 418.34 495 417.68 495 417 C495.66 417 496.32 417 497 417 C497.33 415.35 497.66 413.7 498 412 C498.66 412 499.32 412 500 412 C500 411.01 500 410.02 500 409 C500.66 409 501.32 409 502 409 C502 407.35 502 405.7 502 404 C502.99 404 503.98 404 505 404 C505 402.35 505 400.7 505 399 C505.99 399 506.98 399 508 399 C508 397.35 508 395.7 508 394 C508.66 394 509.32 394 510 394 C510 391.36 510 388.72 510 386 C510.66 386 511.32 386 512 386 C512.33 384.35 512.66 382.7 513 381 C513.66 381 514.32 381 515 381 C515 379.35 515 377.7 515 376 C515.66 376 516.32 376 517 376 C517 374.35 517 372.7 517 371 C517.99 371 518.98 371 520 371 C520 367.7 520 364.4 520 361 C520.66 361 521.32 361 522 361 C522 359.35 522 357.7 522 356 C522.99 356 523.98 356 525 356 C525 352.7 525 349.4 525 346 C525.66 346 526.32 346 527 346 C528.1577506 342.52674819 528.06866652 339.63932552 528 336 C528.66 336 529.32 336 530 336 C530 331.71 530 327.42 530 323 C530.99 323 531.98 323 533 323 C533 315.74 533 308.48 533 301 C533.66 301 534.32 301 535 301 C535 289.78 535 278.56 535 267 C534.34 267 533.68 267 533 267 C533.00785522 266.14450562 533.00785522 266.14450562 533.01586914 265.27172852 C533.03658221 262.70199677 533.0496419 260.13228253 533.0625 257.5625 C533.07087891 256.66466797 533.07925781 255.76683594 533.08789062 254.84179688 C533.09111328 253.98779297 533.09433594 253.13378906 533.09765625 252.25390625 C533.10289307 251.46314697 533.10812988 250.6723877 533.11352539 249.85766602 C533.20495909 247.98407311 533.20495909 247.98407311 532 247 C531.76346477 244.47403741 531.57826308 241.96892793 531.4375 239.4375 C531.39431641 238.72658203 531.35113281 238.01566406 531.30664062 237.28320312 C531.20028223 235.52238088 531.09961154 233.7612168 531 232 C530.01 232 529.02 232 528 232 C528 228.7 528 225.4 528 222 C527.01 222 526.02 222 525 222 C525 218.7 525 215.4 525 212 C524.34 212 523.68 212 523 212 C523 209.69 523 207.38 523 205 C522.01 204.67 521.02 204.34 520 204 C520 201.69 520 199.38 520 197 C519.01 197 518.02 197 517 197 C517 195.35 517 193.7 517 192 C516.34 192 515.68 192 515 192 C515 189.36 515 186.72 515 184 C514.34 184 513.68 184 513 184 C513 182.35 513 180.7 513 179 C512.01 179 511.02 179 510 179 C510 177.35 510 175.7 510 174 C509.34 174 508.68 174 508 174 C508 172.35 508 170.7 508 169 C507.01 169 506.02 169 505 169 C505 167.35 505 165.7 505 164 C504.01 164 503.02 164 502 164 C502 162.35 502 160.7 502 159 C501.34 159 500.68 159 500 159 C500 158.01 500 157.02 500 156 C499.34 156 498.68 156 498 156 C497.67 154.35 497.34 152.7 497 151 C496.34 151 495.68 151 495 151 C495 150.34 495 149.68 495 149 C494.01 149 493.02 149 492 149 C492 147.35 492 145.7 492 144 C491.34 144 490.68 144 490 144 C490 143.01 490 142.02 490 141 C489.01 141 488.02 141 487 141 C487 139.35 487 137.7 487 136 C486.34 136 485.68 136 485 136 C485 135.34 485 134.68 485 134 C484.01 134 483.02 134 482 134 C482 133.01 482 132.02 482 131 C481.34 131 480.68 131 480 131 C480 129.35 480 127.7 480 126 C479.01 126 478.02 126 477 126 C477 125.34 477 124.68 477 124 C476.34 124 475.68 124 475 124 C475 123.01 475 122.02 475 121 C474.01 121 473.02 121 472 121 C472 120.34 472 119.68 472 119 C471.34 119 470.68 119 470 119 C470 118.01 470 117.02 470 116 C469.01 116 468.02 116 467 116 C467 115.01 467 114.02 467 113 C466.34 113 465.68 113 465 113 C465 112.34 465 111.68 465 111 C464.01 111 463.02 111 462 111 C462 109.35 462 107.7 462 106 C460.35 106 458.7 106 457 106 C457 105.01 457 104.02 457 103 C456.34 103 455.68 103 455 103 C455 102.34 455 101.68 455 101 C454.01 101 453.02 101 452 101 C452 100.34 452 99.68 452 99 C451.01 99 450.02 99 449 99 C449 98.01 449 97.02 449 96 C448.34 96 447.68 96 447 96 C447 95.01 447 94.02 447 93 C446.01 93 445.02 93 444 93 C444 92.34 444 91.68 444 91 C443.34 91 442.68 91 442 91 C442 90.01 442 89.02 442 88 C440.35 88 438.7 88 437 88 C437 87.01 437 86.02 437 85 C436.34 85 435.68 85 435 85 C435 84.34 435 83.68 435 83 C434.01 83 433.02 83 432 83 C432 82.34 432 81.68 432 81 C431.01 81 430.02 81 429 81 C429 80.01 429 79.02 429 78 C427.35 78 425.7 78 424 78 C424 77.34 424 76.68 424 76 C422.35 76 420.7 76 419 76 C419 75.01 419 74.02 419 73 C418.34 73 417.68 73 417 73 C417 72.34 417 71.68 417 71 C415.35 70.67 413.7 70.34 412 70 C412 69.34 412 68.68 412 68 C411.01 68 410.02 68 409 68 C409 67.34 409 66.68 409 66 C407.35 66 405.7 66 404 66 C404 65.01 404 64.02 404 63 C402.35 63 400.7 63 399 63 C399 62.34 399 61.68 399 61 C397.35 60.67 395.7 60.34 394 60 C394 59.34 394 58.68 394 58 C392.35 58 390.7 58 389 58 C389 57.01 389 56.02 389 55 C387.35 55 385.7 55 384 55 C384 54.34 384 53.68 384 53 C381.36 53 378.72 53 376 53 C376 52.34 376 51.68 376 51 C374.35 51 372.7 51 371 51 C371 50.01 371 49.02 371 48 C367.7 48 364.4 48 361 48 C361 47.34 361 46.68 361 46 C359.35 46 357.7 46 356 46 C356 45.01 356 44.02 356 43 C352.7 43 349.4 43 346 43 C346 42.34 346 41.68 346 41 C342.52674819 39.8422494 339.63932552 39.93133348 336 40 C336 39.34 336 38.68 336 38 C335.09636719 37.95101562 334.19273437 37.90203125 333.26171875 37.8515625 C332.08222656 37.77679688 330.90273438 37.70203125 329.6875 37.625 C328.51574219 37.55539063 327.34398437 37.48578125 326.13671875 37.4140625 C323 37 323 37 320 35 C317.77514259 34.72521627 317.77514259 34.72521627 315.33203125 34.8046875 C314.43935547 34.81113281 313.54667969 34.81757813 312.62695312 34.82421875 C311.69818359 34.84097656 310.76941406 34.85773438 309.8125 34.875 C308.87212891 34.88402344 307.93175781 34.89304688 306.96289062 34.90234375 C304.64167032 34.92590944 302.32096356 34.95880884 300 35 C300 34.34 300 33.68 300 33 C289.11 33 278.22 33 267 33 Z " fill="#060607" transform="translate(116,116)"/>
<path d="M0 0 C11.55 0 23.1 0 35 0 C35 0.66 35 1.32 35 2 C37.64 2 40.28 2 43 2 C43 2.66 43 3.32 43 4 C44.65 4 46.3 4 48 4 C48 4.99 48 5.98 48 7 C49.65 7 51.3 7 53 7 C53 7.99 53 8.98 53 10 C54.65 10 56.3 10 58 10 C58 10.99 58 11.98 58 13 C58.66 13 59.32 13 60 13 C60 13.66 60 14.32 60 15 C60.99 15 61.98 15 63 15 C63 15.66 63 16.32 63 17 C64.65 17 66.3 17 68 17 C68 17.99 68 18.98 68 20 C68.66 20 69.32 20 70 20 C71.625 21.375 71.625 21.375 73 23 C73 23.66 73 24.32 73 25 C73.99 25 74.98 25 76 25 C76 25.99 76 26.98 76 28 C76.66 28 77.32 28 78 28 C78 28.66 78 29.32 78 30 C78.99 30 79.98 30 81 30 C81 30.99 81 31.98 81 33 C81.66 33 82.32 33 83 33 C83 33.66 83 34.32 83 35 C84.65 35 86.3 35 88 35 C88 34.34 88 33.68 88 33 C88.99 33 89.98 33 91 33 C91 32.01 91 31.02 91 30 C91.66 30 92.32 30 93 30 C93 29.34 93 28.68 93 28 C93.99 28 94.98 28 96 28 C96 27.01 96 26.02 96 25 C96.66 25 97.32 25 98 25 C98 24.34 98 23.68 98 23 C98.99 23 99.98 23 101 23 C101 21.68 101 20.36 101 19 C101.66 19 102.32 19 103 19 C103 18.34 103 17.68 103 17 C103.99 17 104.98 17 106 17 C106 16.34 106 15.68 106 15 C106.99 15 107.98 15 109 15 C109 14.34 109 13.68 109 13 C110.65 12.67 112.3 12.34 114 12 C114 11.34 114 10.68 114 10 C114.66 10 115.32 10 116 10 C116 9.01 116 8.02 116 7 C117.65 7 119.3 7 121 7 C121 6.34 121 5.68 121 5 C122.65 5 124.3 5 126 5 C126 4.01 126 3.02 126 2 C127.65 2 129.3 2 131 2 C131 1.34 131 0.68 131 0 C142.88 0 154.76 0 167 0 C167 0.66 167 1.32 167 2 C168.670625 1.9690625 168.670625 1.9690625 170.375 1.9375 C174 2 174 2 176 3 C176 3.66 176 4.32 176 5 C177.98 5 179.96 5 182 5 C182 5.66 182 6.32 182 7 C183.65 7 185.3 7 187 7 C187 7.99 187 8.98 187 10 C188.65 10 190.3 10 192 10 C192 10.66 192 11.32 192 12 C192.66 12 193.32 12 194 12 C194 12.99 194 13.98 194 15 C194.99 15 195.98 15 197 15 C197 15.66 197 16.32 197 17 C198.65 17 200.3 17 202 17 C202 17.99 202 18.98 202 20 C202.66 20 203.32 20 204 20 C205.625 21.25 205.625 21.25 207 23 C207 24.32 207 25.64 207 27 C207.66 27 208.32 27 209 27 C209 27.99 209 28.98 209 30 C209.99 30 210.98 30 212 30 C212 31.65 212 33.3 212 35 C212.99 35 213.98 35 215 35 C215 35.99 215 36.98 215 38 C215.66 38 216.32 38 217 38 C217 40.31 217 42.62 217 45 C217.99 45 218.98 45 220 45 C220 46.65 220 48.3 220 50 C220.66 50 221.32 50 222 50 C222 61.55 222 73.1 222 85 C221.34 85 220.68 85 220 85 C220 86.65 220 88.3 220 90 C219.01 90 218.02 90 217 90 C217 92.64 217 95.28 217 98 C216.34 98 215.68 98 215 98 C215 98.99 215 99.98 215 101 C214.01 101 213.02 101 212 101 C212 102.65 212 104.3 212 106 C211.01 106 210.02 106 209 106 C209 106.66 209 107.32 209 108 C208.34 108 207.68 108 207 108 C207 109.65 207 111.3 207 113 C206.01 113 205.02 113 204 113 C204 113.99 204 114.98 204 116 C203.34 116 202.68 116 202 116 C202 117.65 202 119.3 202 121 C201.01 121 200.02 121 199 121 C199 121.66 199 122.32 199 123 C198.34 123 197.68 123 197 123 C197 123.99 197 124.98 197 126 C196.01 126 195.02 126 194 126 C194 126.66 194 127.32 194 128 C193.34 128 192.68 128 192 128 C192 128.99 192 129.98 192 131 C191.01 131 190.02 131 189 131 C189 131.66 189 132.32 189 133 C188.34 133 187.68 133 187 133 C187 134.98 187 136.96 187 139 C186.01 139 185.02 139 184 139 C184 139.66 184 140.32 184 141 C183.34 141 182.68 141 182 141 C182 141.99 182 142.98 182 144 C181.01 144 180.02 144 179 144 C179 144.66 179 145.32 179 146 C178.34 146 177.68 146 177 146 C177 146.99 177 147.98 177 149 C176.01 149 175.02 149 174 149 C174 149.66 174 150.32 174 151 C173.34 151 172.68 151 172 151 C172 151.99 172 152.98 172 154 C171.01 154 170.02 154 169 154 C169 154.66 169 155.32 169 156 C168.01 156 167.02 156 166 156 C166 156.99 166 157.98 166 159 C165.34 159 164.68 159 164 159 C164 159.66 164 160.32 164 161 C163.01 161 162.02 161 161 161 C161 161.99 161 162.98 161 164 C160.34 164 159.68 164 159 164 C159 164.66 159 165.32 159 166 C158.34 166 157.68 166 157 166 C157 166.99 157 167.98 157 169 C156.01 169 155.02 169 154 169 C154 169.66 154 170.32 154 171 C153.01 171 152.02 171 151 171 C151 171.99 151 172.98 151 174 C150.34 174 149.68 174 149 174 C149 174.66 149 175.32 149 176 C148.01 176 147.02 176 146 176 C146 176.99 146 177.98 146 179 C145.34 179 144.68 179 144 179 C144 179.99 144 180.98 144 182 C143.01 182 142.02 182 141 182 C141 182.66 141 183.32 141 184 C140.34 184 139.68 184 139 184 C139 184.99 139 185.98 139 187 C137.35 187 135.7 187 134 187 C134 187.66 134 188.32 134 189 C133.01 189 132.02 189 131 189 C131 189.66 131 190.32 131 191 C130.34 191 129.68 191 129 191 C129 191.99 129 192.98 129 194 C128.01 194 127.02 194 126 194 C126 194.99 126 195.98 126 197 C125.34 197 124.68 197 124 197 C124 197.66 124 198.32 124 199 C123.01 199 122.02 199 121 199 C121 199.66 121 200.32 121 201 C119.625 202.625 119.625 202.625 118 204 C117.34 204 116.68 204 116 204 C116 204.99 116 205.98 116 207 C115.34 207 114.68 207 114 207 C114 207.66 114 208.32 114 209 C113.01 209 112.02 209 111 209 C111 209.99 111 210.98 111 212 C110.01 212 109.02 212 108 212 C108 212.66 108 213.32 108 214 C107.34 214 106.68 214 106 214 C106 214.99 106 215.98 106 217 C105.01 217 104.02 217 103 217 C103 217.66 103 218.32 103 219 C102.34 219 101.68 219 101 219 C101 219.99 101 220.98 101 222 C100.01 222 99.02 222 98 222 C98 222.66 98 223.32 98 224 C97.34 224 96.68 224 96 224 C96 224.99 96 225.98 96 227 C95.01 227 94.02 227 93 227 C93 227.99 93 228.98 93 230 C92.34 230 91.68 230 91 230 C91 230.66 91 231.32 91 232 C90.01 232 89.02 232 88 232 C88 232.66 88 233.32 88 234 C86.35 234 84.7 234 83 234 C83 233.34 83 232.68 83 232 C82.34 232 81.68 232 81 232 C81 231.01 81 230.02 81 229 C80.01 229 79.02 229 78 229 C78 228.34 78 227.68 78 227 C77.34 227 76.68 227 76 227 C76 226.01 76 225.02 76 224 C75.01 224 74.02 224 73 224 C73 223.34 73 222.68 73 222 C71.35 222 69.7 222 68 222 C68 221.01 68 220.02 68 219 C67.34 219 66.68 219 66 219 C66 218.34 66 217.68 66 217 C65.01 217 64.02 217 63 217 C63 216.01 63 215.02 63 214 C62.34 214 61.68 214 61 214 C61 213.34 61 212.68 61 212 C60.01 212 59.02 212 58 212 C58 211.01 58 210.02 58 209 C57.34 209 56.68 209 56 209 C56 208.34 56 207.68 56 207 C55.01 207 54.02 207 53 207 C53 206.01 53 205.02 53 204 C52.34 204 51.68 204 51 204 C49.375 202.625 49.375 202.625 48 201 C48 200.34 48 199.68 48 199 C47.01 199 46.02 199 45 199 C45 198.01 45 197.02 45 196 C44.34 196 43.68 196 43 196 C43 195.34 43 194.68 43 194 C42.01 194 41.02 194 40 194 C40 193.01 40 192.02 40 191 C39.34 191 38.68 191 38 191 C38 190.34 38 189.68 38 189 C37.01 189 36.02 189 35 189 C35 188.34 35 187.68 35 187 C34.34 187 33.68 187 33 187 C33 186.01 33 185.02 33 184 C31.35 184 29.7 184 28 184 C28 183.34 28 182.68 28 182 C27.01 182 26.02 182 25 182 C25 181.01 25 180.02 25 179 C24.34 179 23.68 179 23 179 C23 178.01 23 177.02 23 176 C22.01 176 21.02 176 20 176 C20 175.34 20 174.68 20 174 C19.34 174 18.68 174 18 174 C18 173.01 18 172.02 18 171 C17.01 171 16.02 171 15 171 C15 170.34 15 169.68 15 169 C14.34 169 13.68 169 13 169 C13 168.01 13 167.02 13 166 C12.01 166 11.02 166 10 166 C10 165.34 10 164.68 10 164 C9.34 164 8.68 164 8 164 C8 163.01 8 162.02 8 161 C7.01 161 6.02 161 5 161 C5 160.34 5 159.68 5 159 C4.34 159 3.68 159 3 159 C3 158.01 3 157.02 3 156 C2.01 156 1.02 156 0 156 C0 155.34 0 154.68 0 154 C-0.66 154 -1.32 154 -2 154 C-2 153.01 -2 152.02 -2 151 C-2.99 151 -3.98 151 -5 151 C-5 150.34 -5 149.68 -5 149 C-5.99 149 -6.98 149 -8 149 C-8 148.01 -8 147.02 -8 146 C-8.66 146 -9.32 146 -10 146 C-10 145.34 -10 144.68 -10 144 C-10.99 144 -11.98 144 -13 144 C-13 142.02 -13 140.04 -13 138 C-13.66 138 -14.32 138 -15 138 C-15 137.34 -15 136.68 -15 136 C-15.99 136 -16.98 136 -18 136 C-18 135.01 -18 134.02 -18 133 C-18.66 133 -19.32 133 -20 133 C-20 132.34 -20 131.68 -20 131 C-20.99 131 -21.98 131 -23 131 C-23 130.01 -23 129.02 -23 128 C-23.66 128 -24.32 128 -25 128 C-25.33 126.68 -25.66 125.36 -26 124 C-26.66 124 -27.32 124 -28 124 C-28 123.01 -28 122.02 -28 121 C-28.99 121 -29.98 121 -31 121 C-31 120.01 -31 119.02 -31 118 C-31.66 118 -32.32 118 -33 118 C-33 115.69 -33 113.38 -33 111 C-33.99 111 -34.98 111 -36 111 C-36 110.01 -36 109.02 -36 108 C-36.66 108 -37.32 108 -38 108 C-38 105.69 -38 103.38 -38 101 C-38.66 101 -39.32 101 -40 101 C-40 99.02 -40 97.04 -40 95 C-40.99 95 -41.98 95 -43 95 C-43 92.69 -43 90.38 -43 88 C-43.99 88 -44.98 88 -46 88 C-46 86.35 -46 84.7 -46 83 C-46.66 83 -47.32 83 -48 83 C-48 70.46 -48 57.92 -48 45 C-47.34 45 -46.68 45 -46 45 C-45.67 42.69 -45.34 40.38 -45 38 C-44.34 38 -43.68 38 -43 38 C-43 36.02 -43 34.04 -43 32 C-42.34 32 -41.68 32 -41 32 C-40.67 30.68 -40.34 29.36 -40 28 C-39.34 28 -38.68 28 -38 28 C-38 27.01 -38 26.02 -38 25 C-37.01 25 -36.02 25 -35 25 C-35 24.34 -35 23.68 -35 23 C-34.34 23 -33.68 23 -33 23 C-33 21.02 -33 19.04 -33 17 C-32.01 17 -31.02 17 -30 17 C-30 16.34 -30 15.68 -30 15 C-28.68 14.67 -27.36 14.34 -26 14 C-26 13.34 -26 12.68 -26 12 C-25.01 12 -24.02 12 -23 12 C-23 11.34 -23 10.68 -23 10 C-21.35 10 -19.7 10 -18 10 C-18 9.01 -18 8.02 -18 7 C-17.01 7 -16.02 7 -15 7 C-15 6.34 -15 5.68 -15 5 C-12.69 5 -10.38 5 -8 5 C-8 4.01 -8 3.02 -8 2 C-5.36 2 -2.72 2 0 2 C0 1.34 0 0.68 0 0 Z " fill="#040405" transform="translate(313,288)"/>
<path d="M0 0 C89.1 0 178.2 0 270 0 C270 83.49 270 166.98 270 253 C269.34 253 268.68 253 268 253 C267.67 248.71 267.34 244.42 267 240 C266.34 240 265.68 240 265 240 C265 234.06 265 228.12 265 222 C264.34 222 263.68 222 263 222 C263 220.35 263 218.7 263 217 C262.01 217 261.02 217 260 217 C260 213.04 260 209.08 260 205 C259.34 205 258.68 205 258 205 C258 201.37 258 197.74 258 194 C257.01 194 256.02 194 255 194 C255 192.35 255 190.7 255 189 C254.01 189 253.02 189 252 189 C252 187.35 252 185.7 252 184 C251.34 184 250.68 184 250 184 C250 181.69 250 179.38 250 177 C249.01 177 248.02 177 247 177 C247 174.36 247 171.72 247 169 C246.34 169 245.68 169 245 169 C245 167.35 245 165.7 245 164 C244.01 164 243.02 164 242 164 C242 162.35 242 160.7 242 159 C241.34 159 240.68 159 240 159 C240 157.35 240 155.7 240 154 C239.01 154 238.02 154 237 154 C237 152.35 237 150.7 237 149 C236.34 149 235.68 149 235 149 C235 147.35 235 145.7 235 144 C234.01 144 233.02 144 232 144 C232 143.01 232 142.02 232 141 C231.34 141 230.68 141 230 141 C230 139.35 230 137.7 230 136 C229.01 136 228.02 136 227 136 C227 134.35 227 132.7 227 131 C226.34 131 225.68 131 225 131 C225 130.34 225 129.68 225 129 C224.01 129 223.02 129 222 129 C222 127.35 222 125.7 222 124 C221.34 124 220.68 124 220 124 C220 123.01 220 122.02 220 121 C219.01 121 218.02 121 217 121 C217 120.34 217 119.68 217 119 C216.34 119 215.68 119 215 119 C214.67 117.35 214.34 115.7 214 114 C213.34 114 212.68 114 212 114 C212 113.01 212 112.02 212 111 C211.01 111 210.02 111 209 111 C209 110.34 209 109.68 209 109 C208.34 109 207.68 109 207 109 C207 107.35 207 105.7 207 104 C206.01 104 205.02 104 204 104 C204 103.01 204 102.02 204 101 C203.34 101 202.68 101 202 101 C202 100.01 202 99.02 202 98 C201.34 98 200.68 98 200 98 C200 97.34 200 96.68 200 96 C199.01 96 198.02 96 197 96 C197 95.01 197 94.02 197 93 C196.34 93 195.68 93 195 93 C195 92.34 195 91.68 195 91 C194.01 91 193.02 91 192 91 C192 90.01 192 89.02 192 88 C191.01 88 190.02 88 189 88 C189 87.34 189 86.68 189 86 C188.34 86 187.68 86 187 86 C187 85.01 187 84.02 187 83 C186.01 83 185.02 83 184 83 C184 82.34 184 81.68 184 81 C183.34 81 182.68 81 182 81 C182 80.01 182 79.02 182 78 C181.01 78 180.02 78 179 78 C179 77.34 179 76.68 179 76 C178.34 76 177.68 76 177 76 C177 75.01 177 74.02 177 73 C176.01 73 175.02 73 174 73 C174 72.34 174 71.68 174 71 C173.34 71 172.68 71 172 71 C172 70.01 172 69.02 172 68 C171.01 68 170.02 68 169 68 C169 67.34 169 66.68 169 66 C168.01 66 167.02 66 166 66 C166 65.01 166 64.02 166 63 C165.34 63 164.68 63 164 63 C164 62.34 164 61.68 164 61 C162.35 60.67 160.7 60.34 159 60 C159 59.34 159 58.68 159 58 C158.01 58 157.02 58 156 58 C156 57.34 156 56.68 156 56 C154.35 56 152.7 56 151 56 C151 55.01 151 54.02 151 53 C150.34 53 149.68 53 149 53 C149 52.01 149 51.02 149 50 C148.01 50 147.02 50 146 50 C146 49.34 146 48.68 146 48 C144.35 48 142.7 48 141 48 C141 47.01 141 46.02 141 45 C140.34 45 139.68 45 139 45 C139 44.34 139 43.68 139 43 C137.35 43 135.7 43 134 43 C134 42.01 134 41.02 134 40 C133.01 40 132.02 40 131 40 C131 39.34 131 38.68 131 38 C129.35 38 127.7 38 126 38 C126 37.01 126 36.02 126 35 C124.35 35 122.7 35 121 35 C121 34.34 121 33.68 121 33 C119.35 33 117.7 33 116 33 C116 32.01 116 31.02 116 30 C114.35 30 112.7 30 111 30 C111 29.34 111 28.68 111 28 C109.35 28 107.7 28 106 28 C106 27.01 106 26.02 106 25 C103.36 25 100.72 25 98 25 C98 24.34 98 23.68 98 23 C97.34 23 96.68 23 96 23 C96 22.01 96 21.02 96 20 C94.02 20 92.04 20 90 20 C90 19.34 90 18.68 90 18 C87.03 18 84.06 18 81 18 C81 17.01 81 16.02 81 15 C78.36 15 75.72 15 73 15 C73 14.34 73 13.68 73 13 C69.7 13 66.4 13 63 13 C63 12.01 63 11.02 63 10 C61.35 10 59.7 10 58 10 C58 9.34 58 8.68 58 8 C53.71 7.67 49.42 7.34 45 7 C45 6.34 45 5.68 45 5 C39.39 5 33.78 5 28 5 C28 4.34 28 3.68 28 3 C27.10075806 3.00785522 27.10075806 3.00785522 26.18334961 3.01586914 C23.43474398 3.03681443 20.68615522 3.04971556 17.9375 3.0625 C16.99455078 3.07087891 16.05160156 3.07925781 15.08007812 3.08789062 C9.9369232 3.10581103 5.06741573 2.89259611 0 2 C0 1.34 0 0.68 0 0 Z " fill="#FDFDFD" transform="translate(414,116)"/>
<path d="M0 0 C0.66 0 1.32 0 2 0 C2 85.8 2 171.6 2 260 C-87.1 260 -176.2 260 -268 260 C-268 259.34 -268 258.68 -268 258 C-264.82212459 256.9407082 -262.57411057 256.88541061 -259.23828125 256.90234375 C-258.12001953 256.90556641 -257.00175781 256.90878906 -255.84960938 256.91210938 C-254.09874023 256.92467773 -254.09874023 256.92467773 -252.3125 256.9375 C-251.13365234 256.94201172 -249.95480469 256.94652344 -248.74023438 256.95117188 C-245.82677211 256.96296727 -242.91341137 256.9794273 -240 257 C-240 256.34 -240 255.68 -240 255 C-233.4 255 -226.8 255 -220 255 C-220 254.34 -220 253.68 -220 253 C-216.7 252.67 -213.4 252.34 -210 252 C-210 251.34 -210 250.68 -210 250 C-207.69 250 -205.38 250 -203 250 C-203 249.34 -203 248.68 -203 248 C-199.37 248 -195.74 248 -192 248 C-192 247.01 -192 246.02 -192 245 C-190.35 245 -188.7 245 -187 245 C-187 244.01 -187 243.02 -187 242 C-184.69 242 -182.38 242 -180 242 C-180 241.34 -180 240.68 -180 240 C-177.36 240 -174.72 240 -172 240 C-172 239.01 -172 238.02 -172 237 C-170.35 237 -168.7 237 -167 237 C-167 236.34 -167 235.68 -167 235 C-165.35 235 -163.7 235 -162 235 C-162 234.01 -162 233.02 -162 232 C-160.35 232 -158.7 232 -157 232 C-157 231.34 -157 230.68 -157 230 C-155.35 230 -153.7 230 -152 230 C-152 229.01 -152 228.02 -152 227 C-150.35 227 -148.7 227 -147 227 C-147 226.34 -147 225.68 -147 225 C-145.35 225 -143.7 225 -142 225 C-142 224.34 -142 223.68 -142 223 C-141.01 223 -140.02 223 -139 223 C-139 222.01 -139 221.02 -139 220 C-137.35 220 -135.7 220 -134 220 C-134 219.01 -134 218.02 -134 217 C-132.35 217 -130.7 217 -129 217 C-129 216.34 -129 215.68 -129 215 C-128.34 215 -127.68 215 -127 215 C-127 214.01 -127 213.02 -127 212 C-125.35 212 -123.7 212 -122 212 C-122 211.34 -122 210.68 -122 210 C-121.01 210 -120.02 210 -119 210 C-119 209.01 -119 208.02 -119 207 C-118.34 207 -117.68 207 -117 207 C-117 206.01 -117 205.02 -117 204 C-115.35 204 -113.7 204 -112 204 C-112 203.34 -112 202.68 -112 202 C-111.01 202 -110.02 202 -109 202 C-109 201.34 -109 200.68 -109 200 C-107.35 199.67 -105.7 199.34 -104 199 C-104 198.34 -104 197.68 -104 197 C-103.34 197 -102.68 197 -102 197 C-102 196.01 -102 195.02 -102 194 C-101.01 194 -100.02 194 -99 194 C-99 193.34 -99 192.68 -99 192 C-98.34 192 -97.68 192 -97 192 C-97 191.01 -97 190.02 -97 189 C-96.01 189 -95.02 189 -94 189 C-94 188.34 -94 187.68 -94 187 C-93.01 187 -92.02 187 -91 187 C-91 186.34 -91 185.68 -91 185 C-90.34 185 -89.68 185 -89 185 C-89 184.01 -89 183.02 -89 182 C-88.01 182 -87.02 182 -86 182 C-86 181.01 -86 180.02 -86 179 C-85.34 179 -84.68 179 -84 179 C-84 178.34 -84 177.68 -84 177 C-83.01 177 -82.02 177 -81 177 C-81 176.01 -81 175.02 -81 174 C-80.34 174 -79.68 174 -79 174 C-79 173.34 -79 172.68 -79 172 C-78.01 172 -77.02 172 -76 172 C-76 171.01 -76 170.02 -76 169 C-75.34 169 -74.68 169 -74 169 C-74 168.34 -74 167.68 -74 167 C-73.01 167 -72.02 167 -71 167 C-71 166.01 -71 165.02 -71 164 C-70.34 164 -69.68 164 -69 164 C-69 163.34 -69 162.68 -69 162 C-68.01 162 -67.02 162 -66 162 C-66 161.01 -66 160.02 -66 159 C-65.34 159 -64.68 159 -64 159 C-64 158.01 -64 157.02 -64 156 C-63.01 156 -62.02 156 -61 156 C-61 155.34 -61 154.68 -61 154 C-60.34 154 -59.68 154 -59 154 C-58.67 152.35 -58.34 150.7 -58 149 C-57.34 149 -56.68 149 -56 149 C-56 148.01 -56 147.02 -56 146 C-55.34 146 -54.68 146 -54 146 C-54 144.35 -54 142.7 -54 141 C-53.01 141 -52.02 141 -51 141 C-51 140.34 -51 139.68 -51 139 C-50.01 139 -49.02 139 -48 139 C-48 138.01 -48 137.02 -48 136 C-47.34 136 -46.68 136 -46 136 C-46 134.35 -46 132.7 -46 131 C-45.01 131 -44.02 131 -43 131 C-43 130.34 -43 129.68 -43 129 C-42.34 129 -41.68 129 -41 129 C-41 127.02 -41 125.04 -41 123 C-40.34 123 -39.68 123 -39 123 C-39 121.68 -39 120.36 -39 119 C-38.01 119 -37.02 119 -36 119 C-36 118.01 -36 117.02 -36 116 C-35.01 116 -34.02 116 -33 116 C-33 114.35 -33 112.7 -33 111 C-32.34 111 -31.68 111 -31 111 C-31 109.35 -31 107.7 -31 106 C-30.01 106 -29.02 106 -28 106 C-28 104.35 -28 102.7 -28 101 C-27.34 101 -26.68 101 -26 101 C-26 99.35 -26 97.7 -26 96 C-25.01 96 -24.02 96 -23 96 C-23 94.35 -23 92.7 -23 91 C-22.34 91 -21.68 91 -21 91 C-21 89.35 -21 87.7 -21 86 C-20.01 86 -19.02 86 -18 86 C-18 83.36 -18 80.72 -18 78 C-17.34 78 -16.68 78 -16 78 C-15.67 75.69 -15.34 73.38 -15 71 C-14.34 71 -13.68 71 -13 71 C-13 69.35 -13 67.7 -13 66 C-12.01 66 -11.02 66 -10 66 C-10 62.37 -10 58.74 -10 55 C-9.34 55 -8.68 55 -8 55 C-8 51.04 -8 47.08 -8 43 C-7.01 43 -6.02 43 -5 43 C-5 40.36 -5 37.72 -5 35 C-4.34 35 -3.68 35 -3 35 C-3 30.05 -3 25.1 -3 20 C-2.34 20 -1.68 20 -1 20 C-0.67 13.4 -0.34 6.8 0 0 Z " fill="#FDFDFD" transform="translate(682,424)"/>
<path d="M0 0 C85.8 0 171.6 0 260 0 C260 0.66 260 1.32 260 2 C250.1 2.495 250.1 2.495 240 3 C240 3.66 240 4.32 240 5 C234.06 5 228.12 5 222 5 C222 5.66 222 6.32 222 7 C220.35 7 218.7 7 217 7 C217 7.99 217 8.98 217 10 C212.05 10 207.1 10 202 10 C202 10.66 202 11.32 202 12 C200.35 12 198.7 12 197 12 C197 12.99 197 13.98 197 15 C194.36 15 191.72 15 189 15 C189 15.99 189 16.98 189 18 C187.35 18 185.7 18 184 18 C184 18.66 184 19.32 184 20 C181.69 20 179.38 20 177 20 C177 20.99 177 21.98 177 23 C174.36 23 171.72 23 169 23 C169 23.66 169 24.32 169 25 C167.35 25 165.7 25 164 25 C164 25.99 164 26.98 164 28 C162.35 28 160.7 28 159 28 C159 28.66 159 29.32 159 30 C157.35 30 155.7 30 154 30 C154 30.99 154 31.98 154 33 C152.35 33 150.7 33 149 33 C149 33.66 149 34.32 149 35 C147.35 35 145.7 35 144 35 C144 35.99 144 36.98 144 38 C143.01 38 142.02 38 141 38 C141 38.99 141 39.98 141 41 C139.35 41 137.7 41 136 41 C136 41.66 136 42.32 136 43 C134.35 43 132.7 43 131 43 C131 43.66 131 44.32 131 45 C130.34 45 129.68 45 129 45 C129 45.99 129 46.98 129 48 C127.35 48 125.7 48 124 48 C124 48.66 124 49.32 124 50 C123.01 50 122.02 50 121 50 C121 50.99 121 51.98 121 53 C119.35 53 117.7 53 116 53 C116 53.99 116 54.98 116 56 C115.34 56 114.68 56 114 56 C114 56.66 114 57.32 114 58 C113.01 58 112.02 58 111 58 C111 58.99 111 59.98 111 61 C110.34 61 109.68 61 109 61 C109 61.66 109 62.32 109 63 C107.35 63 105.7 63 104 63 C104 63.99 104 64.98 104 66 C103.01 66 102.02 66 101 66 C101 66.66 101 67.32 101 68 C100.01 68 99.02 68 98 68 C98 68.66 98 69.32 98 70 C97.34 70 96.68 70 96 70 C96 70.99 96 71.98 96 73 C95.01 73 94.02 73 93 73 C93 73.66 93 74.32 93 75 C92.34 75 91.68 75 91 75 C91 75.99 91 76.98 91 78 C90.01 78 89.02 78 88 78 C88 78.99 88 79.98 88 81 C87.34 81 86.68 81 86 81 C86 81.66 86 82.32 86 83 C85.01 83 84.02 83 83 83 C83 83.99 83 84.98 83 86 C82.34 86 81.68 86 81 86 C81 86.66 81 87.32 81 88 C80.01 88 79.02 88 78 88 C78 88.99 78 89.98 78 91 C77.01 91 76.02 91 75 91 C75 91.66 75 92.32 75 93 C74.34 93 73.68 93 73 93 C73 93.99 73 94.98 73 96 C72.01 96 71.02 96 70 96 C70 96.66 70 97.32 70 98 C69.34 98 68.68 98 68 98 C68 98.99 68 99.98 68 101 C67.34 101 66.68 101 66 101 C66 101.99 66 102.98 66 104 C65.01 104 64.02 104 63 104 C63 105.65 63 107.3 63 109 C62.34 109 61.68 109 61 109 C61 109.66 61 110.32 61 111 C60.01 111 59.02 111 58 111 C58 111.99 58 112.98 58 114 C57.34 114 56.68 114 56 114 C56 114.66 56 115.32 56 116 C55.01 116 54.02 116 53 116 C53 117.65 53 119.3 53 121 C52.01 121 51.02 121 50 121 C50 121.99 50 122.98 50 124 C49.34 124 48.68 124 48 124 C48 125.65 48 127.3 48 129 C47.34 129 46.68 129 46 129 C46 130.65 46 132.3 46 134 C45.01 134 44.02 134 43 134 C43 134.66 43 135.32 43 136 C42.01 136 41.02 136 40 136 C40 136.99 40 137.98 40 139 C39.34 139 38.68 139 38 139 C38 140.65 38 142.3 38 144 C37.01 144 36.02 144 35 144 C35 145.65 35 147.3 35 149 C34.34 149 33.68 149 33 149 C33 150.65 33 152.3 33 154 C32.01 154 31.02 154 30 154 C30 155.65 30 157.3 30 159 C29.34 159 28.68 159 28 159 C28 160.65 28 162.3 28 164 C27.01 164 26.02 164 25 164 C25 165.65 25 167.3 25 169 C24.34 169 23.68 169 23 169 C23 171.64 23 174.28 23 177 C22.01 177 21.02 177 20 177 C20 179.31 20 181.62 20 184 C19.34 184 18.68 184 18 184 C17.67 185.65 17.34 187.3 17 189 C16.34 189 15.68 189 15 189 C15 191.64 15 194.28 15 197 C14.34 197 13.68 197 13 197 C13 200.3 13 203.6 13 207 C12.01 207 11.02 207 10 207 C10 210.3 10 213.6 10 217 C9.01 217 8.02 217 7 217 C7 218.65 7 220.3 7 222 C6.34 222 5.68 222 5 222 C5 226.95 5 231.9 5 237 C4.01 237 3.02 237 2 237 C2 243.93 2 250.86 2 258 C1.34 258 0.68 258 0 258 C0 172.86 0 87.72 0 0 Z " fill="#FDFDFD" transform="translate(116,116)"/>
<path d="M0 0 C0.66 0 1.32 0 2 0 C2.33 6.6 2.66 13.2 3 20 C3.66 20 4.32 20 5 20 C5 24.29 5 28.58 5 33 C5.66 33 6.32 33 7 33 C8.60725635 36.21451269 8.05748185 39.43612536 8 43 C8.66 43 9.32 43 10 43 C10 46.3 10 49.6 10 53 C10.99 53 11.98 53 13 53 C13 56.3 13 59.6 13 63 C13.66 63 14.32 63 15 63 C15 65.64 15 68.28 15 71 C15.99 71 16.98 71 18 71 C18 73.31 18 75.62 18 78 C18.66 78 19.32 78 20 78 C20 80.64 20 83.28 20 86 C20.99 86 21.98 86 23 86 C23 87.65 23 89.3 23 91 C23.66 91 24.32 91 25 91 C25 92.65 25 94.3 25 96 C25.99 96 26.98 96 28 96 C28 97.65 28 99.3 28 101 C28.66 101 29.32 101 30 101 C30 102.65 30 104.3 30 106 C30.99 106 31.98 106 33 106 C33 107.65 33 109.3 33 111 C33.66 111 34.32 111 35 111 C35 112.65 35 114.3 35 116 C35.99 116 36.98 116 38 116 C38 117.65 38 119.3 38 121 C38.66 121 39.32 121 40 121 C40 121.99 40 122.98 40 124 C40.99 124 41.98 124 43 124 C43 125.65 43 127.3 43 129 C43.66 129 44.32 129 45 129 C45 129.66 45 130.32 45 131 C45.99 131 46.98 131 48 131 C48 132.65 48 134.3 48 136 C48.66 136 49.32 136 50 136 C50 136.99 50 137.98 50 139 C50.99 139 51.98 139 53 139 C53 140.65 53 142.3 53 144 C53.66 144 54.32 144 55 144 C55 144.99 55 145.98 55 147 C55.99 147 56.98 147 58 147 C58 147.66 58 148.32 58 149 C58.66 149 59.32 149 60 149 C60.495 151.475 60.495 151.475 61 154 C61.66 154 62.32 154 63 154 C63 154.66 63 155.32 63 156 C63.99 156 64.98 156 66 156 C66 156.99 66 157.98 66 159 C66.66 159 67.32 159 68 159 C68 159.99 68 160.98 68 162 C68.99 162 69.98 162 71 162 C71 162.66 71 163.32 71 164 C71.66 164 72.32 164 73 164 C73 164.99 73 165.98 73 167 C73.99 167 74.98 167 76 167 C76 167.66 76 168.32 76 169 C76.66 169 77.32 169 78 169 C78 169.99 78 170.98 78 172 C78.99 172 79.98 172 81 172 C81 172.66 81 173.32 81 174 C81.66 174 82.32 174 83 174 C83 174.99 83 175.98 83 177 C83.99 177 84.98 177 86 177 C86 177.66 86 178.32 86 179 C86.66 179 87.32 179 88 179 C88 179.99 88 180.98 88 182 C88.99 182 89.98 182 91 182 C91 182.99 91 183.98 91 185 C91.66 185 92.32 185 93 185 C93 185.66 93 186.32 93 187 C93.99 187 94.98 187 96 187 C96 187.99 96 188.98 96 190 C96.66 190 97.32 190 98 190 C98 190.66 98 191.32 98 192 C98.99 192 99.98 192 101 192 C101 192.66 101 193.32 101 194 C101.99 194 102.98 194 104 194 C104 194.99 104 195.98 104 197 C105.65 197 107.3 197 109 197 C109 197.66 109 198.32 109 199 C109.66 199 110.32 199 111 199 C111 199.99 111 200.98 111 202 C111.99 202 112.98 202 114 202 C114 202.66 114 203.32 114 204 C114.66 204 115.32 204 116 204 C116 204.99 116 205.98 116 207 C117.65 207 119.3 207 121 207 C121 207.99 121 208.98 121 210 C121.99 210 122.98 210 124 210 C124 210.66 124 211.32 124 212 C125.65 212 127.3 212 129 212 C129 212.66 129 213.32 129 214 C130.65 214 132.3 214 134 214 C134 214.99 134 215.98 134 217 C134.66 217 135.32 217 136 217 C136 217.99 136 218.98 136 220 C136.99 220 137.98 220 139 220 C139 220.66 139 221.32 139 222 C140.65 222 142.3 222 144 222 C144 222.99 144 223.98 144 225 C145.65 225 147.3 225 149 225 C149 225.66 149 226.32 149 227 C150.65 227 152.3 227 154 227 C154 227.99 154 228.98 154 230 C155.65 230 157.3 230 159 230 C159 230.66 159 231.32 159 232 C160.65 232 162.3 232 164 232 C164 232.99 164 233.98 164 235 C165.65 235 167.3 235 169 235 C169 235.66 169 236.32 169 237 C171.64 237 174.28 237 177 237 C177 237.99 177 238.98 177 240 C179.31 240 181.62 240 184 240 C184 240.66 184 241.32 184 242 C185.65 242 187.3 242 189 242 C189 242.99 189 243.98 189 245 C190.65 245 192.3 245 194 245 C194 245.99 194 246.98 194 248 C197.63 248 201.26 248 205 248 C205 248.66 205 249.32 205 250 C208.96 250 212.92 250 217 250 C217 250.99 217 251.98 217 253 C218.65 253 220.3 253 222 253 C222 253.66 222 254.32 222 255 C226.95 255 231.9 255 237 255 C237 255.99 237 256.98 237 258 C244.59 258 252.18 258 260 258 C260 258.66 260 259.32 260 260 C174.2 260 88.4 260 0 260 C0 174.2 0 88.4 0 0 Z " fill="#FDFDFD" transform="translate(116,424)"/>
<path d="M0 0 C0.99 0 1.98 0 3 0 C3.125 7.75 3.125 7.75 2 10 C1.88068952 11.75590877 1.82280132 13.51614607 1.79467773 15.27587891 C1.77473251 16.3768692 1.75478729 17.4778595 1.73423767 18.61221313 C1.71752518 19.80494843 1.70081268 20.99768372 1.68359375 22.2265625 C1.66281265 23.44451508 1.64203156 24.66246765 1.62062073 25.91732788 C1.55507416 29.8198262 1.49621645 33.7223935 1.4375 37.625 C1.39431965 40.26563222 1.35070552 42.90625739 1.30664062 45.546875 C1.19938756 52.03117643 1.09763071 58.51554694 1 65 C1.66 65 2.32 65 3 65 C3 70.94 3 76.88 3 83 C3.99 83 4.98 83 6 83 C6 87.95 6 92.9 6 98 C6.66 98 7.32 98 8 98 C8 99.98 8 101.96 8 104 C7.01 104 6.02 104 5 104 C5 99.71 5 95.42 5 91 C4.34 91 3.68 91 3 91 C1.99503148 87.98509443 1.89664697 85.95818308 1.9375 82.8125 C1.94652344 81.91144531 1.95554688 81.01039063 1.96484375 80.08203125 C1.97644531 79.39496094 1.98804688 78.70789063 2 78 C1.34 78 0.68 78 0 78 C0 69.75 0 61.5 0 53 C-0.66 53 -1.32 53 -2 53 C-2 42.11 -2 31.22 -2 20 C-1.34 20 -0.68 20 0 20 C0 13.4 0 6.8 0 0 Z " fill="#9D9D9D" transform="translate(151,361)"/>
<path d="M0 0 C0.99 0 1.98 0 3 0 C3 3.3 3 6.6 3 10 C3.99 10 4.98 10 6 10 C6.06058594 11.07121094 6.12117187 12.14242188 6.18359375 13.24609375 C6.26798537 14.64324391 6.35263406 16.04037857 6.4375 17.4375 C6.47681641 18.14455078 6.51613281 18.85160156 6.55664062 19.58007812 C6.47624438 23.08690419 6.47624438 23.08690419 8 26 C8.08651611 27.41570123 8.10704904 28.835595 8.09765625 30.25390625 C8.09443359 31.10791016 8.09121094 31.96191406 8.08789062 32.84179688 C8.07951172 33.73962891 8.07113281 34.63746094 8.0625 35.5625 C8.05798828 36.46419922 8.05347656 37.36589844 8.04882812 38.29492188 C8.03700225 40.53001314 8.0205222 42.76497437 8 45 C8.66 45 9.32 45 10 45 C10 56.22 10 67.44 10 79 C9.34 79 8.68 79 8 79 C8 86.26 8 93.52 8 101 C7.01 101 6.02 101 5 101 C5 96.71 5 92.42 5 88 C5.66 88 6.32 88 7 88 C7 69.19 7 50.38 7 31 C6.34 31 5.68 31 5 31 C5 26.71 5 22.42 5 18 C4.01 18 3.02 18 2 18 C2 13.05 2 8.1 2 3 C1.34 3 0.68 3 0 3 C0 2.01 0 1.02 0 0 Z " fill="#989898" transform="translate(641,338)"/>
<path d="M0 0 C10.89 0 21.78 0 33 0 C33 0.66 33 1.32 33 2 C33.88522339 1.97643433 33.88522339 1.97643433 34.78833008 1.95239258 C37.46295586 1.89002061 40.13742864 1.85100343 42.8125 1.8125 C43.74126953 1.78736328 44.67003906 1.76222656 45.62695312 1.73632812 C46.51962891 1.72666016 47.41230469 1.71699219 48.33203125 1.70703125 C49.15421143 1.6913208 49.9763916 1.67561035 50.82348633 1.65942383 C53.47502434 2.07433079 54.33263592 2.95529751 56 5 C48.25 5.125 48.25 5.125 46 4 C44.16216054 3.90391936 42.32081744 3.87204108 40.48046875 3.87060547 C39.32587158 3.86745331 38.17127441 3.86430115 36.98168945 3.86105347 C35.72960693 3.8630777 34.47752441 3.86510193 33.1875 3.8671875 C31.90770264 3.86623077 30.62790527 3.86527405 29.30932617 3.86428833 C26.59910884 3.86281311 23.88892445 3.86496027 21.17871094 3.86962891 C17.70158771 3.87532611 14.22454166 3.87204616 10.74742126 3.86605644 C7.43577462 3.8615779 4.12414884 3.86471184 0.8125 3.8671875 C-0.43958252 3.86516327 -1.69166504 3.86313904 -2.98168945 3.86105347 C-4.13628662 3.86420563 -5.29088379 3.86735779 -6.48046875 3.87060547 C-8.01030396 3.87179886 -8.01030396 3.87179886 -9.57104492 3.87301636 C-12.00958803 3.83816585 -12.00958803 3.83816585 -14 5 C-16.2072923 5.07092842 -18.41667452 5.08415025 -20.625 5.0625 C-21.81351562 5.05347656 -23.00203125 5.04445312 -24.2265625 5.03515625 C-25.14179688 5.02355469 -26.05703125 5.01195312 -27 5 C-27 5.99 -27 6.98 -27 8 C-31.95 8 -36.9 8 -42 8 C-42 8.66 -42 9.32 -42 10 C-42.99 10 -43.98 10 -45 10 C-45 9.01 -45 8.02 -45 7 C-41.7 7 -38.4 7 -35 7 C-35 6.01 -35 5.02 -35 4 C-33.92878906 3.93941406 -32.85757812 3.87882813 -31.75390625 3.81640625 C-30.35675609 3.73201463 -28.95962143 3.64736594 -27.5625 3.5625 C-26.50192383 3.50352539 -26.50192383 3.50352539 -25.41992188 3.44335938 C-21.91309581 3.52375562 -21.91309581 3.52375562 -19 2 C-17.58429877 1.91348389 -16.164405 1.89295096 -14.74609375 1.90234375 C-13.46508789 1.90717773 -13.46508789 1.90717773 -12.15820312 1.91210938 C-11.26037109 1.92048828 -10.36253906 1.92886719 -9.4375 1.9375 C-8.53580078 1.94201172 -7.63410156 1.94652344 -6.70507812 1.95117188 C-4.46998686 1.96299775 -2.23502563 1.9794778 0 2 C0 1.34 0 0.68 0 0 Z " fill="#919291" transform="translate(383,149)"/>
<path d="M0 0 C2.97 0 5.94 0 9 0 C9 0.66 9 1.32 9 2 C26.49 2 43.98 2 62 2 C62 1.34 62 0.68 62 0 C65.3 0 68.6 0 72 0 C68.65712048 3.34287952 65.55866327 3.12933659 61.04736328 3.14526367 C59.82244171 3.15164352 58.59752014 3.15802338 57.33547974 3.16459656 C55.99709106 3.1661254 54.65870185 3.16723927 53.3203125 3.16796875 C51.94652268 3.17118274 50.5727332 3.17454692 49.19894409 3.17805481 C46.318982 3.18404207 43.4390499 3.18589515 40.55908203 3.18530273 C36.87484475 3.18520119 33.19080052 3.1988471 29.50660896 3.21607494 C26.66868208 3.22721278 23.83080158 3.22922139 20.99285507 3.22869301 C19.63493052 3.22987068 18.27700469 3.23428049 16.91910172 3.24202538 C15.01656846 3.25185973 13.11397851 3.24767409 11.21142578 3.24291992 C9.58951828 3.24505745 9.58951828 3.24505745 7.93484497 3.24723816 C4.92016482 2.9932745 2.72837019 2.27235755 0 1 C0 0.67 0 0.34 0 0 Z " fill="#D6D6D6" transform="translate(364,646)"/>
<path d="M0 0 C3.3 0 6.6 0 10 0 C10 0.99 10 1.98 10 3 C4.06 3 -1.88 3 -8 3 C-8 3.66 -8 4.32 -8 5 C-14.6 5 -21.2 5 -28 5 C-28 4.34 -28 3.68 -28 3 C-24.82212459 1.9407082 -22.57411057 1.88541061 -19.23828125 1.90234375 C-18.12001953 1.90556641 -17.00175781 1.90878906 -15.84960938 1.91210938 C-14.68236328 1.92048828 -13.51511719 1.92886719 -12.3125 1.9375 C-11.13365234 1.94201172 -9.95480469 1.94652344 -8.74023438 1.95117188 C-5.82677211 1.96296727 -2.91341137 1.9794273 0 2 C0 1.34 0 0.68 0 0 Z " fill="#7A7A7B" transform="translate(442,679)"/>
<path d="M0 0 C0.33 0 0.66 0 1 0 C3.01167675 5.78357065 3.22084624 10.90218999 3 17 C3.99 17 4.98 17 6 17 C6 21.95 6 26.9 6 32 C6.66 32 7.32 32 8 32 C8 33.98 8 35.96 8 38 C7.01 38 6.02 38 5 38 C5 33.71 5 29.42 5 25 C4.34 25 3.68 25 3 25 C1.99503148 21.98509443 1.89664697 19.95818308 1.9375 16.8125 C1.94652344 15.91144531 1.95554688 15.01039063 1.96484375 14.08203125 C1.97644531 13.39496094 1.98804688 12.70789063 2 12 C1.34 12 0.68 12 0 12 C0 8.04 0 4.08 0 0 Z " fill="#6B6B6B" transform="translate(151,427)"/>
<path d="M0 0 C5.94 0 11.88 0 18 0 C18 0.66 18 1.32 18 2 C18.69867188 1.98839844 19.39734375 1.97679687 20.1171875 1.96484375 C21.02726562 1.95582031 21.93734375 1.94679688 22.875 1.9375 C24.23238281 1.92009766 24.23238281 1.92009766 25.6171875 1.90234375 C28 2 28 2 30 3 C30 3.66 30 4.32 30 5 C28.68 5 27.36 5 26 5 C26 4.34 26 3.68 26 3 C15.77 3 5.54 3 -5 3 C-5 2.67 -5 2.34 -5 2 C-3.35 2 -1.7 2 0 2 C0 1.34 0 0.68 0 0 Z " fill="#B6B6B6" transform="translate(454,285)"/>
<path d="M0 0 C0.66 0 1.32 0 2 0 C2 8.25 2 16.5 2 25 C1.01 24.67 0.02 24.34 -1 24 C-1.02887236 20.18751574 -1.04675492 16.3750593 -1.0625 12.5625 C-1.07087891 11.47388672 -1.07925781 10.38527344 -1.08789062 9.26367188 C-1.09111328 8.22919922 -1.09433594 7.19472656 -1.09765625 6.12890625 C-1.10289307 5.17056885 -1.10812988 4.21223145 -1.11352539 3.22485352 C-1 1 -1 1 0 0 Z " fill="#CDCECD" transform="translate(263,338)"/>
<path d="M0 0 C0.66 0 1.32 0 2 0 C3.40912096 2.81824192 3.11183553 5.17251282 3.09765625 8.3203125 C3.09443359 9.57714844 3.09121094 10.83398438 3.08789062 12.12890625 C3.07951172 13.44761719 3.07113281 14.76632812 3.0625 16.125 C3.05748489 17.46484211 3.05292201 18.804686 3.04882812 20.14453125 C3.03701086 23.42973206 3.02053617 26.71484397 3 30 C3.66 30 4.32 30 5 30 C5 31.65 5 33.3 5 35 C4.34 35 3.68 35 3 35 C1.8517315 32.703463 1.88438825 31.41686833 1.90234375 28.8671875 C1.90556641 28.06152344 1.90878906 27.25585938 1.91210938 26.42578125 C1.92048828 25.58402344 1.92886719 24.74226563 1.9375 23.875 C1.94201172 23.02550781 1.94652344 22.17601562 1.95117188 21.30078125 C1.96297126 19.20049091 1.98090694 17.1002367 2 15 C1.34 15 0.68 15 0 15 C0 10.05 0 5.1 0 0 Z " fill="#4A4A4A" transform="translate(116,409)"/>
<path d="M0 0 C3.3 0 6.6 0 10 0 C10 0.66 10 1.32 10 2 C19.24 2 28.48 2 38 2 C38 2.99 38 3.98 38 5 C34.7 5 31.4 5 28 5 C28 4.34 28 3.68 28 3 C27.10075806 3.00785522 27.10075806 3.00785522 26.18334961 3.01586914 C23.43474398 3.03681443 20.68615522 3.04971556 17.9375 3.0625 C16.99455078 3.07087891 16.05160156 3.07925781 15.08007812 3.08789062 C9.9369232 3.10581103 5.06741573 2.89259611 0 2 C0 1.34 0 0.68 0 0 Z " fill="#6B6B6B" transform="translate(414,116)"/>
<path d="M0 0 C0.66 0 1.32 0 2 0 C3.32229189 2.64458379 3.09677194 4.67761301 3.0625 7.625 C3.05347656 8.62789063 3.04445313 9.63078125 3.03515625 10.6640625 C3.02355469 11.43492187 3.01195312 12.20578125 3 13 C3.66 13 4.32 13 5 13 C5 17.95 5 22.9 5 28 C4.01 28 3.02 28 2 28 C2 20.41 2 12.82 2 5 C1.34 5 0.68 5 0 5 C0 3.35 0 1.7 0 0 Z " fill="#7B7B7B" transform="translate(679,356)"/>
<path d="M0 0 C0.99 0 1.98 0 3 0 C3 0.66 3 1.32 3 2 C4.33961792 1.99214478 4.33961792 1.99214478 5.70629883 1.98413086 C9.02173508 1.96708214 12.3371247 1.95454653 15.65258789 1.94506836 C17.08716568 1.94004158 18.52173836 1.93321921 19.95629883 1.92456055 C22.01905582 1.91242248 24.08174504 1.90675514 26.14453125 1.90234375 C27.38565674 1.89710693 28.62678223 1.89187012 29.90551758 1.88647461 C33 2 33 2 36 3 C36 3.66 36 4.32 36 5 C31.71 5 27.42 5 23 5 C23 4.34 23 3.68 23 3 C15.41 3 7.82 3 0 3 C0 2.01 0 1.02 0 0 Z " fill="#575757" transform="translate(353,679)"/>
<path d="M0 0 C1.2065625 0.0309375 1.2065625 0.0309375 2.4375 0.0625 C-2.39896298 3.28680866 -4.83189984 3.15492903 -10.5625 3.0625 C-10.5625 4.0525 -10.5625 5.0425 -10.5625 6.0625 C-15.5125 6.0625 -20.4625 6.0625 -25.5625 6.0625 C-25.5625 6.7225 -25.5625 7.3825 -25.5625 8.0625 C-26.5525 8.0625 -27.5425 8.0625 -28.5625 8.0625 C-28.5625 7.0725 -28.5625 6.0825 -28.5625 5.0625 C-25.2625 5.0625 -21.9625 5.0625 -18.5625 5.0625 C-18.5625 4.0725 -18.5625 3.0825 -18.5625 2.0625 C-17.49128906 2.00191406 -16.42007812 1.94132813 -15.31640625 1.87890625 C-13.91925609 1.79451463 -12.52212143 1.70986594 -11.125 1.625 C-10.06442383 1.56602539 -10.06442383 1.56602539 -8.98242188 1.50585938 C-5.63869534 1.29787638 -3.07832548 0.07508111 0 0 Z " fill="#A2A2A2" transform="translate(366.5625,150.9375)"/>
<path d="M0 0 C4.29 0 8.58 0 13 0 C13 0.66 13 1.32 13 2 C9.82212459 3.0592918 7.57411057 3.11458939 4.23828125 3.09765625 C3.12001953 3.09443359 2.00175781 3.09121094 0.84960938 3.08789062 C-0.31763672 3.07951172 -1.48488281 3.07113281 -2.6875 3.0625 C-3.86634766 3.05798828 -5.04519531 3.05347656 -6.25976562 3.04882812 C-9.17322789 3.03703273 -12.08658863 3.0205727 -15 3 C-15 3.66 -15 4.32 -15 5 C-16.65 5 -18.3 5 -20 5 C-20 4.34 -20 3.68 -20 3 C-17.703463 1.8517315 -16.41686833 1.88438825 -13.8671875 1.90234375 C-13.06152344 1.90556641 -12.25585938 1.90878906 -11.42578125 1.91210938 C-10.58402344 1.92048828 -9.74226563 1.92886719 -8.875 1.9375 C-8.02550781 1.94201172 -7.17601562 1.94652344 -6.30078125 1.95117188 C-4.20049091 1.96297126 -2.1002367 1.98090694 0 2 C0 1.34 0 0.68 0 0 Z " fill="#545555" transform="translate(376,116)"/>
<path d="M0 0 C0.99 0 1.98 0 3 0 C3 3.3 3 6.6 3 10 C3.99 10 4.98 10 6 10 C6.06058594 11.02480469 6.12117187 12.04960937 6.18359375 13.10546875 C6.26805026 14.46615695 6.35269567 15.82683343 6.4375 17.1875 C6.47681641 17.86103516 6.51613281 18.53457031 6.55664062 19.22851562 C6.78927565 22.89699102 7.17207011 26.41694206 8 30 C6.09598862 28.09598862 5.06479561 26.66574314 4.80078125 23.953125 C4.8113422 21.96766727 4.90084957 19.9830086 5 18 C4.01 18 3.02 18 2 18 C2 13.05 2 8.1 2 3 C1.34 3 0.68 3 0 3 C0 2.01 0 1.02 0 0 Z " fill="#A3A3A3" transform="translate(641,338)"/>
<path d="M0 0 C0.99 0 1.98 0 3 0 C3 6.6 3 13.2 3 20 C2.01 20 1.02 20 0 20 C0 13.4 0 6.8 0 0 Z " fill="#CECECE" transform="translate(535,346)"/>
<path d="M0 0 C4.95 0 9.9 0 15 0 C15 0.66 15 1.32 15 2 C15.99 2.33 16.98 2.66 18 3 C8.76 3 -0.48 3 -10 3 C-10 2.67 -10 2.34 -10 2 C-6.7 2 -3.4 2 0 2 C0 1.34 0 0.68 0 0 Z " fill="#D5D5D4" transform="translate(323,285)"/>
<path d="M0 0 C0.99 0 1.98 0 3 0 C3 0.99 3 1.98 3 3 C2.34 3 1.68 3 1 3 C1 12.24 1 21.48 1 31 C0.01 31 -0.98 31 -2 31 C-2 27.7 -2 24.4 -2 21 C-1.34 21 -0.68 21 0 21 C0 14.07 0 7.14 0 0 Z " fill="#656565" transform="translate(118,353)"/>
<path d="M0 0 C0.66 0 1.32 0 2 0 C2 3.3 2 6.6 2 10 C1.34 10 0.68 10 0 10 C0.01160156 11.27617187 0.02320313 12.55234375 0.03515625 13.8671875 C0.04453417 15.53645687 0.05363437 17.20572783 0.0625 18.875 C0.07087891 19.71675781 0.07925781 20.55851562 0.08789062 21.42578125 C0.09111328 22.23144531 0.09433594 23.03710938 0.09765625 23.8671875 C0.10289307 24.61081543 0.10812988 25.35444336 0.11352539 26.12060547 C0 28 0 28 -1 30 C-1.66 30 -2.32 30 -3 30 C-3 28.35 -3 26.7 -3 25 C-2.34 25 -1.68 25 -1 25 C-1.01160156 23.78183594 -1.02320313 22.56367188 -1.03515625 21.30859375 C-1.04454178 19.68489738 -1.05364116 18.06119933 -1.0625 16.4375 C-1.07087891 15.63763672 -1.07925781 14.83777344 -1.08789062 14.01367188 C-1.10742247 9.22836896 -0.80437018 4.71854949 0 0 Z " fill="#656565" transform="translate(682,414)"/>
<path d="M0 0 C1.65 0 3.3 0 5 0 C5 0.99 5 1.98 5 3 C-7.54 3 -20.08 3 -33 3 C-33 2.67 -33 2.34 -33 2 C-22.11 2 -11.22 2 0 2 C0 1.34 0 0.68 0 0 Z " fill="#202021" transform="translate(414,649)"/>
<path d="M0 0 C0.99 0 1.98 0 3 0 C3 0.66 3 1.32 3 2 C2.34 2 1.68 2 1 2 C1 5.63 1 9.26 1 13 C0.01 13 -0.98 13 -2 13 C-2 14.65 -2 16.3 -2 18 C-2.66 18 -3.32 18 -4 18 C-4.33 18.66 -4.66 19.32 -5 20 C-5 18.35 -5 16.7 -5 15 C-4.34 15 -3.68 15 -3 15 C-3 12.36 -3 9.72 -3 7 C-2.01 7 -1.02 7 0 7 C0 4.69 0 2.38 0 0 Z " fill="#4E4E4E" transform="translate(671,477)"/>
<path d="M0 0 C0.33 0 0.66 0 1 0 C1 10.89 1 21.78 1 33 C1.66 33 2.32 33 3 33 C3 34.65 3 36.3 3 38 C2.01 38 1.02 38 0 38 C0 25.46 0 12.92 0 0 Z " fill="#1D1D1E" transform="translate(148,381)"/>
<path d="M0 0 C2.64 0 5.28 0 8 0 C8 0.66 8 1.32 8 2 C4.52674819 3.1577506 1.63932552 3.06866652 -2 3 C-2 3.66 -2 4.32 -2 5 C-4.64 5 -7.28 5 -10 5 C-10 4.01 -10 3.02 -10 2 C-6.7 2 -3.4 2 0 2 C0 1.34 0 0.68 0 0 Z " fill="#ACACAB" transform="translate(454,641)"/>
<path d="M0 0 C0.99 0 1.98 0 3 0 C3 2.64 3 5.28 3 8 C2.34 8 1.68 8 1 8 C1.020625 9.093125 1.04125 10.18625 1.0625 11.3125 C1 15 1 15 0 18 C-0.66 18 -1.32 18 -2 18 C-2 15.36 -2 12.72 -2 10 C-1.34 10 -0.68 10 0 10 C0 6.7 0 3.4 0 0 Z " fill="#ACACAC" transform="translate(643,444)"/>
<path d="M0 0 C2.64 0 5.28 0 8 0 C8 0.66 8 1.32 8 2 C9.093125 1.979375 10.18625 1.95875 11.3125 1.9375 C15 2 15 2 18 3 C18 3.66 18 4.32 18 5 C15.36 5 12.72 5 10 5 C10 4.34 10 3.68 10 3 C6.7 3 3.4 3 0 3 C0 2.01 0 1.02 0 0 Z " fill="#ACACAB" transform="translate(444,154)"/>
<path d="M0 0 C0.99 0 1.98 0 3 0 C3 4.62 3 9.24 3 14 C2.01 14.33 1.02 14.66 0 15 C0 10.05 0 5.1 0 0 Z " fill="#1A1A1B" transform="translate(116,384)"/>
<path d="M0 0 C0.99 0 1.98 0 3 0 C3 4.95 3 9.9 3 15 C2.34 15 1.68 15 1 15 C-0.44207941 12.11584117 -0.09394887 9.58278472 -0.0625 6.375 C-0.05347656 5.18648438 -0.04445313 3.99796875 -0.03515625 2.7734375 C-0.02355469 1.85820312 -0.01195312 0.94296875 0 0 Z " fill="#232323" transform="translate(681,384)"/>
<path d="M0 0 C1.65 0 3.3 0 5 0 C5 0.99 5 1.98 5 3 C2.69 3 0.38 3 -2 3 C-2 3.99 -2 4.98 -2 6 C-4.64 6 -7.28 6 -10 6 C-10 6.66 -10 7.32 -10 8 C-10.99 8 -11.98 8 -13 8 C-13 7.01 -13 6.02 -13 5 C-10.36 5 -7.72 5 -5 5 C-5 4.01 -5 3.02 -5 2 C-3.35 2 -1.7 2 0 2 C0 1.34 0 0.68 0 0 Z " fill="#7D7D7D" transform="translate(318,126)"/>
<path d="M0 0 C0.99 0 1.98 0 3 0 C3 0.66 3 1.32 3 2 C7.95 2 12.9 2 18 2 C18 2.99 18 3.98 18 5 C15.36 5 12.72 5 10 5 C10 4.34 10 3.68 10 3 C6.7 3 3.4 3 0 3 C0 2.01 0 1.02 0 0 Z " fill="#9F9F9F" transform="translate(338,641)"/>
<path d="M0 0 C2.31 0 4.62 0 7 0 C7 0.66 7 1.32 7 2 C9.64 2 12.28 2 15 2 C15 2.66 15 3.32 15 4 C16.65 4 18.3 4 20 4 C20 4.33 20 4.66 20 5 C17.36 5 14.72 5 12 5 C12 4.34 12 3.68 12 3 C8.04 3 4.08 3 0 3 C0 2.01 0 1.02 0 0 Z " fill="#6E6E6E" transform="translate(341,288)"/>
<path d="M0 0 C0.99 0 1.98 0 3 0 C3 0.99 3 1.98 3 3 C1.35 3 -0.3 3 -2 3 C-2 3.99 -2 4.98 -2 6 C-5.63 6 -9.26 6 -13 6 C-13 6.66 -13 7.32 -13 8 C-13.66 8 -14.32 8 -15 8 C-15 7.01 -15 6.02 -15 5 C-11.7 5 -8.4 5 -5 5 C-5 4.01 -5 3.02 -5 2 C-3.35 2 -1.7 2 0 2 C0 1.34 0 0.68 0 0 Z " fill="#7E7E7E" transform="translate(492,666)"/>
<path d="M0 0 C0.99 0 1.98 0 3 0 C3 0.66 3 1.32 3 2 C4.65 2 6.3 2 8 2 C8 2.99 8 3.98 8 5 C11.3 5 14.6 5 18 5 C18 5.99 18 6.98 18 8 C17.34 8 16.68 8 16 8 C16 7.34 16 6.68 16 6 C12.37 6 8.74 6 5 6 C5 5.01 5 4.02 5 3 C3.35 3 1.7 3 0 3 C0 2.01 0 1.02 0 0 Z " fill="#7A7A79" transform="translate(305,666)"/>
<path d="M0 0 C0.99 0 1.98 0 3 0 C3 1.65 3 3.3 3 5 C3.99 5 4.98 5 6 5 C6 8.63 6 12.26 6 16 C6.66 16 7.32 16 8 16 C8 16.66 8 17.32 8 18 C7.01 18 6.02 18 5 18 C5 14.7 5 11.4 5 8 C4.01 8 3.02 8 2 8 C2 6.35 2 4.7 2 3 C1.34 3 0.68 3 0 3 C0 2.01 0 1.02 0 0 Z " fill="#7C7C7C" transform="translate(666,305)"/>
<path d="M0 0 C3.3 0 6.6 0 10 0 C10 0.66 10 1.32 10 2 C12.31 2 14.62 2 17 2 C17 2.33 17 2.66 17 3 C11.39 3 5.78 3 0 3 C0 2.01 0 1.02 0 0 Z " fill="#1E1F1F" transform="translate(404,116)"/>
<path d="M0 0 C0.66 0 1.32 0 2 0 C2 0.66 2 1.32 2 2 C3.09699219 1.97679687 4.19398438 1.95359375 5.32421875 1.9296875 C6.778639 1.91092079 8.23306664 1.89272156 9.6875 1.875 C10.40873047 1.85824219 11.12996094 1.84148438 11.87304688 1.82421875 C16.04876781 1.78608431 19.2494138 2.1210081 23 4 C23 4.33 23 4.66 23 5 C20.36 5 17.72 5 15 5 C15 4.34 15 3.68 15 3 C10.05 3 5.1 3 0 3 C0 2.01 0 1.02 0 0 Z " fill="#535353" transform="translate(346,644)"/>
<path d="M0 0 C0.33 0.99 0.66 1.98 1 3 C0.01 3 -0.98 3 -2 3 C-2 3.66 -2 4.32 -2 5 C-2.66 5 -3.32 5 -4 5 C-4 5.99 -4 6.98 -4 8 C-4.99 8 -5.98 8 -7 8 C-7 8.66 -7 9.32 -7 10 C-7.66 10 -8.32 10 -9 10 C-9 10.99 -9 11.98 -9 13 C-9.99 12.67 -10.98 12.34 -12 12 C-11.34 12 -10.68 12 -10 12 C-10 10.35 -10 8.7 -10 7 C-8.35 7 -6.7 7 -5 7 C-5 5.35 -5 3.7 -5 2 C-3.35 2 -1.7 2 0 2 C0 1.34 0 0.68 0 0 Z " fill="#515151" transform="translate(494,429)"/>
<path d="M0 0 C0.99 0 1.98 0 3 0 C3 0.99 3 1.98 3 3 C2.34 3 1.68 3 1 3 C1.01160156 3.67546875 1.02320313 4.3509375 1.03515625 5.046875 C1.04869141 6.38492187 1.04869141 6.38492187 1.0625 7.75 C1.07410156 8.63171875 1.08570313 9.5134375 1.09765625 10.421875 C1.00826198 12.7818838 0.66912821 14.74498524 0 17 C-0.66 17 -1.32 17 -2 17 C-2 14.69 -2 12.38 -2 10 C-1.34 10 -0.68 10 0 10 C0 6.7 0 3.4 0 0 Z " fill="#949595" transform="translate(156,338)"/>
<path d="M0 0 C3.96 0 7.92 0 12 0 C11.01 0.33 10.02 0.66 9 1 C9 1.66 9 2.32 9 3 C5.7 3 2.4 3 -1 3 C-0.67 2.01 -0.34 1.02 0 0 Z " fill="#1C1C1C" transform="translate(405,681)"/>
<path d="M0 0 C3.3 0 6.6 0 10 0 C9.67 0.99 9.34 1.98 9 3 C5.04 3 1.08 3 -3 3 C-2.01 2.67 -1.02 2.34 0 2 C0 1.34 0 0.68 0 0 Z " fill="#171718" transform="translate(389,116)"/>
<path d="M0 0 C0.66 0 1.32 0 2 0 C3.60725635 3.21451269 3.05748185 6.43612536 3 10 C3.66 10 4.32 10 5 10 C5 11.65 5 13.3 5 15 C4.34 15 3.68 15 3 15 C1.39274365 11.78548731 1.94251815 8.56387464 2 5 C1.34 5 0.68 5 0 5 C0 3.35 0 1.7 0 0 Z " fill="#858585" transform="translate(121,457)"/>
<path d="M0 0 C0.99 0 1.98 0 3 0 C3 2.64 3 5.28 3 8 C2.34 8 1.68 8 1 8 C1 10.31 1 12.62 1 15 C0.67 15 0.34 15 0 15 C0 10.05 0 5.1 0 0 Z " fill="#232323" transform="translate(681,406)"/>
<path d="M0 0 C0.99 0 1.98 0 3 0 C3.16682272 4.92127034 3.24828052 8.50343896 1 13 C0.67 13 0.34 13 0 13 C0 8.71 0 4.42 0 0 Z " fill="#919191" transform="translate(151,361)"/>
<path d="M0 0 C3.3 0 6.6 0 10 0 C10 0.99 10 1.98 10 3 C6.7 3 3.4 3 0 3 C0 2.01 0 1.02 0 0 Z " fill="#AEAEAD" transform="translate(442,679)"/>
<path d="M0 0 C3.3 0 6.6 0 10 0 C7.41451372 2.58548628 5.70461615 2.97641847 2.08203125 3.09765625 C0.46361328 3.08025391 0.46361328 3.08025391 -1.1875 3.0625 C-2.81751953 3.04896484 -2.81751953 3.04896484 -4.48046875 3.03515625 C-5.31191406 3.02355469 -6.14335937 3.01195312 -7 3 C-7 2.67 -7 2.34 -7 2 C-4.69 2 -2.38 2 0 2 C0 1.34 0 0.68 0 0 Z " fill="#BBBBBA" transform="translate(426,646)"/>
<path d="M0 0 C1.2065625 0.0309375 1.2065625 0.0309375 2.4375 0.0625 C-1.91111913 2.96157942 -3.95833887 3.17626629 -9.1875 3.125 C-10.37601562 3.11597656 -11.56453125 3.10695312 -12.7890625 3.09765625 C-13.70429688 3.08605469 -14.61953125 3.07445312 -15.5625 3.0625 C-15.5625 3.7225 -15.5625 4.3825 -15.5625 5.0625 C-16.5525 5.0625 -17.5425 5.0625 -18.5625 5.0625 C-18.5625 4.0725 -18.5625 3.0825 -18.5625 2.0625 C-17.49128906 2.00191406 -16.42007812 1.94132813 -15.31640625 1.87890625 C-13.91925609 1.79451463 -12.52212143 1.70986594 -11.125 1.625 C-10.06442383 1.56602539 -10.06442383 1.56602539 -8.98242188 1.50585938 C-5.63869534 1.29787638 -3.07832548 0.07508111 0 0 Z " fill="#575757" transform="translate(366.5625,150.9375)"/>
<path d="M0 0 C3.3 0 6.6 0 10 0 C10 0.99 10 1.98 10 3 C6.7 3 3.4 3 0 3 C0 2.01 0 1.02 0 0 Z " fill="#B3B3B3" transform="translate(442,118)"/>
<path d="M0 0 C0.66 0 1.32 0 2 0 C3.60725635 3.21451269 3.05748185 6.43612536 3 10 C3.66 10 4.32 10 5 10 C5 10.99 5 11.98 5 13 C4.34 13 3.68 13 3 13 C2.67 13.66 2.34 14.32 2 15 C2 11.7 2 8.4 2 5 C1.34 5 0.68 5 0 5 C0 3.35 0 1.7 0 0 Z " fill="#808080" transform="translate(159,467)"/>
<path d="M0 0 C0.99 0 1.98 0 3 0 C3.06058594 1.02480469 3.12117187 2.04960937 3.18359375 3.10546875 C3.26805026 4.46615695 3.35269567 5.82683343 3.4375 7.1875 C3.47681641 7.86103516 3.51613281 8.53457031 3.55664062 9.22851562 C3.78927565 12.89699102 4.17207011 16.41694206 5 20 C2.65709108 17.51565563 2.02017066 16.22268407 1.70703125 12.765625 C1.75923828 11.02539062 1.75923828 11.02539062 1.8125 9.25 C1.83957031 8.07953125 1.86664062 6.9090625 1.89453125 5.703125 C1.92933594 4.81109375 1.96414063 3.9190625 2 3 C1.34 3 0.68 3 0 3 C0 2.01 0 1.02 0 0 Z " fill="#585858" transform="translate(644,348)"/>
<path d="M0 0 C0.33 0 0.66 0 1 0 C1 1.65 1 3.3 1 5 C1.66 5 2.32 5 3 5 C3 7.64 3 10.28 3 13 C2.01 13 1.02 13 0 13 C0 8.71 0 4.42 0 0 Z " fill="#6C6C6C" transform="translate(676,333)"/>
<path d="M0 0 C1.65 0 3.3 0 5 0 C5 0.99 5 1.98 5 3 C1.7 3 -1.6 3 -5 3 C-5 3.66 -5 4.32 -5 5 C-5.99 5 -6.98 5 -8 5 C-8 4.01 -8 3.02 -8 2 C-5.36 2 -2.72 2 0 2 C0 1.34 0 0.68 0 0 Z " fill="#565656" transform="translate(313,288)"/>
<path d="M0 0 C2.97 0 5.94 0 9 0 C9 0.66 9 1.32 9 2 C11.64 2 14.28 2 17 2 C17 2.33 17 2.66 17 3 C15.10448978 3.05441656 13.2085208 3.09298035 11.3125 3.125 C10.25675781 3.14820313 9.20101563 3.17140625 8.11328125 3.1953125 C4.97748141 2.99858729 2.82354627 2.33057654 0 1 C0 0.67 0 0.34 0 0 Z " fill="#BFBFBF" transform="translate(364,646)"/>
<path d="M0 0 C0.33 0 0.66 0 1 0 C1 4.95 1 9.9 1 15 C1.66 15 2.32 15 3 15 C3 16.65 3 18.3 3 20 C2.34 20 1.68 20 1 20 C-0.1482685 17.703463 -0.11561175 16.41686833 -0.09765625 13.8671875 C-0.09443359 13.06152344 -0.09121094 12.25585938 -0.08789062 11.42578125 C-0.07951172 10.58402344 -0.07113281 9.74226563 -0.0625 8.875 C-0.05798828 8.02550781 -0.05347656 7.17601562 -0.04882812 6.30078125 C-0.03702874 4.20049091 -0.01909306 2.1002367 0 0 Z " fill="#5F5F5F" transform="translate(118,424)"/>
<path d="M0 0 C1.93681161 -0.08107583 3.8745934 -0.13922475 5.8125 -0.1875 C6.89144531 -0.22230469 7.97039062 -0.25710937 9.08203125 -0.29296875 C12 0 12 0 13.88671875 1.51171875 C14.25410156 2.00285156 14.62148438 2.49398437 15 3 C9.47322267 3.19392201 5.24385089 2.7479503 0 1 C0 0.67 0 0.34 0 0 Z " fill="#939393" transform="translate(424,151)"/>
<path d="M0 0 C0.80566406 0.00322266 1.61132812 0.00644531 2.44140625 0.00976562 C3.70404297 0.02233398 3.70404297 0.02233398 4.9921875 0.03515625 C5.84167969 0.03966797 6.69117188 0.04417969 7.56640625 0.04882812 C9.66669659 0.06062751 11.7669508 0.07856319 13.8671875 0.09765625 C13.8671875 0.42765625 13.8671875 0.75765625 13.8671875 1.09765625 C8.9171875 1.09765625 3.9671875 1.09765625 -1.1328125 1.09765625 C-1.1328125 1.75765625 -1.1328125 2.41765625 -1.1328125 3.09765625 C-2.7828125 3.09765625 -4.4328125 3.09765625 -6.1328125 3.09765625 C-6.1328125 2.43765625 -6.1328125 1.77765625 -6.1328125 1.09765625 C-3.8362755 -0.05061225 -2.54968083 -0.0179555 0 0 Z " fill="#5F5F5F" transform="translate(362.1328125,117.90234375)"/>
<path d="M0 0 C0.99 0 1.98 0 3 0 C3 0.99 3 1.98 3 3 C2.01 3 1.02 3 0 3 C0 3.66 0 4.32 0 5 C-0.66 5 -1.32 5 -2 5 C-2 5.99 -2 6.98 -2 8 C-2.99 8 -3.98 8 -5 8 C-5 7.01 -5 6.02 -5 5 C-4.34 5 -3.68 5 -3 5 C-3 4.01 -3 3.02 -3 2 C-2.01 2 -1.02 2 0 2 C0 1.34 0 0.68 0 0 Z " fill="#7E7F7F" transform="translate(454,467)"/>
<path d="M0 0 C1.18851562 0.00902344 2.37703125 0.01804687 3.6015625 0.02734375 C4.51679688 0.03894531 5.43203125 0.05054688 6.375 0.0625 C6.375 0.3925 6.375 0.7225 6.375 1.0625 C3.075 1.0625 -0.225 1.0625 -3.625 1.0625 C-3.625 1.7225 -3.625 2.3825 -3.625 3.0625 C-6.265 3.0625 -8.905 3.0625 -11.625 3.0625 C-7.27638087 0.16342058 -5.22916113 -0.05126629 0 0 Z " fill="#535353" transform="translate(442.625,645.9375)"/>
<path d="M0 0 C0.99 0 1.98 0 3 0 C3 0.66 3 1.32 3 2 C4.27875 1.979375 5.5575 1.95875 6.875 1.9375 C10.75 1.875 10.75 1.875 13 3 C13 3.66 13 4.32 13 5 C11.35 5 9.7 5 8 5 C8 4.34 8 3.68 8 3 C5.69 3 3.38 3 1 3 C0.67 2.01 0.34 1.02 0 0 Z " fill="#8B8C8C" transform="translate(320,636)"/>
<path d="M0 0 C0.33 0 0.66 0 1 0 C1 3.3 1 6.6 1 10 C0.01 10 -0.98 10 -2 10 C-2 7.36 -2 4.72 -2 2 C-1.34 2 -0.68 2 0 2 C0 1.34 0 0.68 0 0 Z " fill="#C4C4C4" transform="translate(681,442)"/>
<path d="M0 0 C0.33 0.66 0.66 1.32 1 2 C1.66 2 2.32 2 3 2 C3 4.64 3 7.28 3 10 C2.01 10 1.02 10 0 10 C0 6.7 0 3.4 0 0 Z " fill="#C0C0BF" transform="translate(118,442)"/>
<path d="M0 0 C0.99 0 1.98 0 3 0 C3 3.3 3 6.6 3 10 C2.67 9.34 2.34 8.68 2 8 C1.34 8 0.68 8 0 8 C0 5.36 0 2.72 0 0 Z " fill="#C5C6C5" transform="translate(679,348)"/>
<path d="M0 0 C0.99 0.33 1.98 0.66 3 1 C3 3.31 3 5.62 3 8 C3.66 8 4.32 8 5 8 C5 9.65 5 11.3 5 13 C4.34 13 3.68 13 3 13 C1.39274365 9.78548731 1.94251815 6.56387464 2 3 C1.34 3 0.68 3 0 3 C0 2.01 0 1.02 0 0 Z " fill="#888989" transform="translate(636,320)"/>
<path d="M0 0 C0.66 0 1.32 0 2 0 C2 0.99 2 1.98 2 3 C1.34 3 0.68 3 0 3 C0.020625 4.27875 0.04125 5.5575 0.0625 6.875 C0.125 10.75 0.125 10.75 -1 13 C-1.66 13 -2.32 13 -3 13 C-3 11.35 -3 9.7 -3 8 C-2.34 8 -1.68 8 -1 8 C-1.020625 6.865625 -1.04125 5.73125 -1.0625 4.5625 C-1 1 -1 1 0 0 Z " fill="#8D8E8E" transform="translate(162,320)"/>
<path d="M0 0 C1.32 0 2.64 0 4 0 C4 0.66 4 1.32 4 2 C5.98 2 7.96 2 10 2 C10 2.99 10 3.98 10 5 C8.35 5 6.7 5 5 5 C5 4.34 5 3.68 5 3 C3.35 2.67 1.7 2.34 0 2 C0 1.34 0 0.68 0 0 Z " fill="#777777" transform="translate(500,134)"/>
<path d="M0 0 C3.3 0 6.6 0 10 0 C9.01 0.495 9.01 0.495 8 1 C8 1.66 8 2.32 8 3 C5.36 3 2.72 3 0 3 C0 2.01 0 1.02 0 0 Z " fill="#C0C0BF" transform="translate(348,118)"/>
<path d="M0 0 C0.33 0 0.66 0 1 0 C1 2.31 1 4.62 1 7 C1.66 7 2.32 7 3 7 C3 8.98 3 10.96 3 13 C2.01 13 1.02 13 0 13 C0 8.71 0 4.42 0 0 Z " fill="#5D5D5D" transform="translate(156,452)"/>
<path d="M0 0 C0.99 0 1.98 0 3 0 C3 0.66 3 1.32 3 2 C3.99 2 4.98 2 6 2 C6 3.65 6 5.3 6 7 C6.66 7 7.32 7 8 7 C7.67 7.99 7.34 8.98 7 10 C7 9.34 7 8.68 7 8 C6.34 8 5.68 8 5 8 C5 7.01 5 6.02 5 5 C4.01 5 3.02 5 2 5 C2 4.01 2 3.02 2 2 C1.34 2 0.68 2 0 2 C0 1.34 0 0.68 0 0 Z " fill="#777777" transform="translate(280,404)"/>
<path d="M0 0 C1.65 0 3.3 0 5 0 C5 0.99 5 1.98 5 3 C2.36 3 -0.28 3 -3 3 C-3 3.66 -3 4.32 -3 5 C-3.66 5 -4.32 5 -5 5 C-5 4.01 -5 3.02 -5 2 C-3.35 2 -1.7 2 0 2 C0 1.34 0 0.68 0 0 Z " fill="#6A6A6B" transform="translate(505,661)"/>
<path d="M0 0 C0.99 0 1.98 0 3 0 C3 2.64 3 5.28 3 8 C2.01 8 1.02 8 0 8 C0 5.36 0 2.72 0 0 Z " fill="#B3B3B3" transform="translate(154,444)"/>
<path d="M0 0 C0.33 0 0.66 0 1 0 C1 3.96 1 7.92 1 12 C0.01 12 -0.98 12 -2 12 C-1.44687265 7.97007218 -0.8441938 3.97977076 0 0 Z " fill="#797878" transform="translate(648,427)"/>
<path d="M0 0 C1.65 0 3.3 0 5 0 C5 0.66 5 1.32 5 2 C2.69 2.33 0.38 2.66 -2 3 C-2 3.66 -2 4.32 -2 5 C-2.99 5 -3.98 5 -5 5 C-5 4.01 -5 3.02 -5 2 C-3.35 2 -1.7 2 0 2 C0 1.34 0 0.68 0 0 Z " fill="#5F5F5F" transform="translate(444,288)"/>
<path d="M0 0 C0.66 0 1.32 0 2 0 C2 0.99 2 1.98 2 3 C0.35 3 -1.3 3 -3 3 C-3 3.66 -3 4.32 -3 5 C-4.65 5 -6.3 5 -8 5 C-8 4.01 -8 3.02 -8 2 C-5.36 2 -2.72 2 0 2 C0 1.34 0 0.68 0 0 Z " fill="#BBBBBB" transform="translate(303,131)"/>
<path d="M0 0 C0.99 0 1.98 0 3 0 C3 0.99 3 1.98 3 3 C1.35 3 -0.3 3 -2 3 C-2 3.99 -2 4.98 -2 6 C-2.99 6 -3.98 6 -5 6 C-5 6.66 -5 7.32 -5 8 C-5.66 8 -6.32 8 -7 8 C-7 7.01 -7 6.02 -7 5 C-5.68 5 -4.36 5 -3 5 C-3 4.01 -3 3.02 -3 2 C-2.01 2 -1.02 2 0 2 C0 1.34 0 0.68 0 0 Z " fill="#6C6C6D" transform="translate(545,641)"/>
<path d="M0 0 C0.99 0 1.98 0 3 0 C3 0.66 3 1.32 3 2 C5.64 2 8.28 2 11 2 C11 2.99 11 3.98 11 5 C10.01 5 9.02 5 8 5 C8 4.34 8 3.68 8 3 C5.36 3 2.72 3 0 3 C0 2.01 0 1.02 0 0 Z " fill="#767777" transform="translate(305,631)"/>
<path d="M0 0 C0.99 0 1.98 0 3 0 C2.67 0.99 2.34 1.98 2 3 C1.34 3 0.68 3 0 3 C0 3.66 0 4.32 0 5 C-1.65 5 -3.3 5 -5 5 C-5 4.01 -5 3.02 -5 2 C-3.35 2 -1.7 2 0 2 C0 1.34 0 0.68 0 0 Z " fill="#A5A5A5" transform="translate(401,520)"/>
<path d="M0 0 C0.99 0 1.98 0 3 0 C3 0.66 3 1.32 3 2 C2.34 2 1.68 2 1 2 C1 5.63 1 9.26 1 13 C0.01 13 -0.98 13 -2 13 C-2 12.01 -2 11.02 -2 10 C-1.34 10 -0.68 10 0 10 C0 6.7 0 3.4 0 0 Z " fill="#939393" transform="translate(671,477)"/>
<path d="M0 0 C0.99 0 1.98 0 3 0 C3 3.3 3 6.6 3 10 C3.66 10 4.32 10 5 10 C5 10.99 5 11.98 5 13 C4.01 13 3.02 13 2 13 C2 9.37 2 5.74 2 2 C1.34 2 0.68 2 0 2 C0 1.34 0 0.68 0 0 Z " fill="#939393" transform="translate(126,477)"/>
<path d="M0 0 C0.99 0 1.98 0 3 0 C3 2.64 3 5.28 3 8 C3.66 8 4.32 8 5 8 C5 8.99 5 9.98 5 11 C4.01 11 3.02 11 2 11 C2 8.36 2 5.72 2 3 C1.34 3 0.68 3 0 3 C0 2.01 0 1.02 0 0 Z " fill="#464646" transform="translate(129,484)"/>
<path d="M0 0 C0.99 0 1.98 0 3 0 C3 0.66 3 1.32 3 2 C3.99 2 4.98 2 6 2 C6 3.65 6 5.3 6 7 C6.66 7.33 7.32 7.66 8 8 C7.01 8 6.02 8 5 8 C5 7.01 5 6.02 5 5 C4.34 5 3.68 5 3 5 C3 4.34 3 3.68 3 3 C2.01 3 1.02 3 0 3 C0 2.01 0 1.02 0 0 Z " fill="#595959" transform="translate(300,429)"/>
<path d="M0 0 C0.33 0 0.66 0 1 0 C1 2.64 1 5.28 1 8 C1.66 8 2.32 8 3 8 C3 9.65 3 11.3 3 13 C2.01 13 1.02 13 0 13 C0 8.71 0 4.42 0 0 Z " fill="#262626" transform="translate(148,406)"/>
<path d="M0 0 C0.33 0 0.66 0 1 0 C1 1.65 1 3.3 1 5 C1.66 5 2.32 5 3 5 C3 6.98 3 8.96 3 11 C2.01 11 1.02 11 0 11 C0 7.37 0 3.74 0 0 Z " fill="#555556" transform="translate(532,333)"/>
<path d="M0 0 C0.99 0 1.98 0 3 0 C3 0.99 3 1.98 3 3 C2.34 3 1.68 3 1 3 C1 6.3 1 9.6 1 13 C0.01 13 -0.98 13 -2 13 C-2 12.34 -2 11.68 -2 11 C-1.34 11 -0.68 11 0 11 C0 7.37 0 3.74 0 0 Z " fill="#939393" transform="translate(128,310)"/>
<path d="M0 0 C0.99 0 1.98 0 3 0 C3 0.99 3 1.98 3 3 C2.34 3 1.68 3 1 3 C1 5.64 1 8.28 1 11 C0.01 11 -0.98 11 -2 11 C-2 10.01 -2 9.02 -2 8 C-1.34 8 -0.68 8 0 8 C0 5.36 0 2.72 0 0 Z " fill="#717172" transform="translate(166,305)"/>
<path d="M0 0 C0.66 0 1.32 0 2 0 C2 0.66 2 1.32 2 2 C5.63 2 9.26 2 13 2 C13 2.99 13 3.98 13 5 C12.01 5 11.02 5 10 5 C10 4.34 10 3.68 10 3 C6.7 3 3.4 3 0 3 C0 2.01 0 1.02 0 0 Z " fill="#929292" transform="translate(477,126)"/>
<path d="M0 0 C0.99 0 1.98 0 3 0 C3 1.98 3 3.96 3 6 C3.66 6 4.32 6 5 6 C5 6.99 5 7.98 5 9 C4.01 9.33 3.02 9.66 2 10 C2 7.69 2 5.38 2 3 C1.34 3 0.68 3 0 3 C0 2.01 0 1.02 0 0 Z " fill="#878787" transform="translate(270,383)"/>
<path d="M0 0 C0.33 0 0.66 0 1 0 C1 4.95 1 9.9 1 15 C0.01 15.33 -0.98 15.66 -2 16 C-2 15.01 -2 14.02 -2 13 C-1.34 13 -0.68 13 0 13 C0 8.71 0 4.42 0 0 Z " fill="#282828" transform="translate(646,439)"/>
<path d="M0 0 C1.98 0 3.96 0 6 0 C6 0.66 6 1.32 6 2 C8.31 2 10.62 2 13 2 C13 2.33 13 2.66 13 3 C11.39667209 3.08121924 9.79215974 3.13929134 8.1875 3.1875 C7.29417969 3.22230469 6.40085937 3.25710937 5.48046875 3.29296875 C2.58352485 2.95081002 1.77444972 2.24606427 0 0 Z " fill="#313131" transform="translate(436,151)"/>
<path d="M0 0 C3.3 0 6.6 0 10 0 C10 0.33 10 0.66 10 1 C8.35 1 6.7 1 5 1 C5 1.66 5 2.32 5 3 C3.35 3 1.7 3 0 3 C0 2.01 0 1.02 0 0 Z " fill="#7F8080" transform="translate(457,676)"/>
<path d="M0 0 C3.3 0 6.6 0 10 0 C10 0.99 10 1.98 10 3 C8.35 3 6.7 3 5 3 C5 2.34 5 1.68 5 1 C3.35 1 1.7 1 0 1 C0 0.67 0 0.34 0 0 Z " fill="#7F8080" transform="translate(333,676)"/>
<path d="M0 0 C0.99 0 1.98 0 3 0 C3 0.99 3 1.98 3 3 C1.35 3 -0.3 3 -2 3 C-2 3.66 -2 4.32 -2 5 C-2.99 5 -3.98 5 -5 5 C-5 4.01 -5 3.02 -5 2 C-3.35 2 -1.7 2 0 2 C0 1.34 0 0.68 0 0 Z " fill="#585858" transform="translate(517,656)"/>
<path d="M0 0 C0.99 0 1.98 0 3 0 C3 0.66 3 1.32 3 2 C4.65 2 6.3 2 8 2 C8 2.99 8 3.98 8 5 C7.01 5 6.02 5 5 5 C5 4.34 5 3.68 5 3 C3.35 3 1.7 3 0 3 C0 2.01 0 1.02 0 0 Z " fill="#919291" transform="translate(242,636)"/>
<path d="M0 0 C0.99 0 1.98 0 3 0 C3 0.66 3 1.32 3 2 C4.65 2 6.3 2 8 2 C8 2.99 8 3.98 8 5 C7.01 5 6.02 5 5 5 C5 4.34 5 3.68 5 3 C3.35 3 1.7 3 0 3 C0 2.01 0 1.02 0 0 Z " fill="#888989" transform="translate(295,626)"/>
<path d="M0 0 C0.99 0 1.98 0 3 0 C3 0.66 3 1.32 3 2 C4.65 2 6.3 2 8 2 C8 2.99 8 3.98 8 5 C7.01 5 6.02 5 5 5 C5 4.34 5 3.68 5 3 C3.35 3 1.7 3 0 3 C0 2.01 0 1.02 0 0 Z " fill="#A0A1A1" transform="translate(285,621)"/>
<path d="M0 0 C0.99 0 1.98 0 3 0 C3 1.65 3 3.3 3 5 C3.66 5 4.32 5 5 5 C5 5.99 5 6.98 5 8 C4.01 8 3.02 8 2 8 C2 6.35 2 4.7 2 3 C1.34 3 0.68 3 0 3 C0 2.01 0 1.02 0 0 Z " fill="#4C4C4C" transform="translate(149,532)"/>
<path d="M0 0 C0.99 0 1.98 0 3 0 C3 0.99 3 1.98 3 3 C2.34 3 1.68 3 1 3 C1 4.65 1 6.3 1 8 C0.01 8 -0.98 8 -2 8 C-2 7.01 -2 6.02 -2 5 C-1.34 5 -0.68 5 0 5 C0 3.35 0 1.7 0 0 Z " fill="#585858" transform="translate(658,512)"/>
<path d="M0 0 C0.99 0 1.98 0 3 0 C3 0.66 3 1.32 3 2 C2.34 2 1.68 2 1 2 C1 4.64 1 7.28 1 10 C0.01 10 -0.98 10 -2 10 C-2 9.01 -2 8.02 -2 7 C-1.34 7 -0.68 7 0 7 C0 4.69 0 2.38 0 0 Z " fill="#737273" transform="translate(663,500)"/>
<path d="M0 0 C0.99 0 1.98 0 3 0 C3 2.31 3 4.62 3 7 C3.66 7 4.32 7 5 7 C5 7.99 5 8.98 5 10 C4.01 10 3.02 10 2 10 C2 7.36 2 4.72 2 2 C1.34 2 0.68 2 0 2 C0 1.34 0 0.68 0 0 Z " fill="#727272" transform="translate(134,500)"/>
<path d="M0 0 C0.99 0 1.98 0 3 0 C3 2.31 3 4.62 3 7 C3.66 7 4.32 7 5 7 C5 7.99 5 8.98 5 10 C4.01 10 3.02 10 2 10 C2 7.36 2 4.72 2 2 C1.34 2 0.68 2 0 2 C0 1.34 0 0.68 0 0 Z " fill="#C9C9C8" transform="translate(131,495)"/>
<path d="M0 0 C0.66 0 1.32 0 2 0 C2 1.65 2 3.3 2 5 C1.34 5 0.68 5 0 5 C0 7.64 0 10.28 0 13 C-0.33 13 -0.66 13 -1 13 C-1.02708567 11.39592672 -1.04643483 9.7917215 -1.0625 8.1875 C-1.07410156 7.29417969 -1.08570313 6.40085937 -1.09765625 5.48046875 C-1 3 -1 3 0 0 Z " fill="#5F6060" transform="translate(677,454)"/>
<path d="M0 0 C0.66 0 1.32 0 2 0 C2 0.99 2 1.98 2 3 C1.34 3 0.68 3 0 3 C0 3.66 0 4.32 0 5 C-0.66 5 -1.32 5 -2 5 C-2 5.99 -2 6.98 -2 8 C-2.99 7.67 -3.98 7.34 -5 7 C-4.34 7 -3.68 7 -3 7 C-3 5.35 -3 3.7 -3 2 C-2.01 2 -1.02 2 0 2 C0 1.34 0 0.68 0 0 Z " fill="#444344" transform="translate(472,449)"/>
<path d="M0 0 C0.99 0 1.98 0 3 0 C3 3.3 3 6.6 3 10 C2.67 10 2.34 10 2 10 C2 8.35 2 6.7 2 5 C1.34 5 0.68 5 0 5 C0 3.35 0 1.7 0 0 Z " fill="#696969" transform="translate(265,366)"/>
<path d="M0 0 C0.66 0 1.32 0 2 0 C3.26237731 2.52475462 3.09856404 4.31200466 3.0625 7.125 C3.05347656 8.03507812 3.04445313 8.94515625 3.03515625 9.8828125 C3.02355469 10.58148438 3.01195312 11.28015625 3 12 C2.67 12 2.34 12 2 12 C2 9.69 2 7.38 2 5 C1.34 5 0.68 5 0 5 C0 3.35 0 1.7 0 0 Z " fill="#676767" transform="translate(679,356)"/>
<path d="M0 0 C0.33 0 0.66 0 1 0 C1 3.3 1 6.6 1 10 C0.01 10 -0.98 10 -2 10 C-2 8.35 -2 6.7 -2 5 C-1.34 5 -0.68 5 0 5 C0 3.35 0 1.7 0 0 Z " fill="#818181" transform="translate(123,333)"/>
<path d="M0 0 C0.99 0 1.98 0 3 0 C3 1.65 3 3.3 3 5 C3.66 5 4.32 5 5 5 C5 5.99 5 6.98 5 8 C4.01 8 3.02 8 2 8 C2 6.35 2 4.7 2 3 C1.34 3 0.68 3 0 3 C0 2.01 0 1.02 0 0 Z " fill="#868787" transform="translate(626,295)"/>
<path d="M0 0 C0.99 0 1.98 0 3 0 C3 0.99 3 1.98 3 3 C2.34 3 1.68 3 1 3 C1 4.65 1 6.3 1 8 C0.01 8 -0.98 8 -2 8 C-2 7.01 -2 6.02 -2 5 C-1.34 5 -0.68 5 0 5 C0 3.35 0 1.7 0 0 Z " fill="#868787" transform="translate(171,295)"/>
<path d="M0 0 C0.99 0 1.98 0 3 0 C3 1.65 3 3.3 3 5 C3.66 5 4.32 5 5 5 C5 5.99 5 6.98 5 8 C4.01 8 3.02 8 2 8 C2 6.35 2 4.7 2 3 C1.34 3 0.68 3 0 3 C0 2.01 0 1.02 0 0 Z " fill="#9A9A9B" transform="translate(621,285)"/>
<path d="M0 0 C0.99 0 1.98 0 3 0 C3 0.99 3 1.98 3 3 C2.34 3 1.68 3 1 3 C1 4.65 1 6.3 1 8 C0.01 8 -0.98 8 -2 8 C-2 7.01 -2 6.02 -2 5 C-1.34 5 -0.68 5 0 5 C0 3.35 0 1.7 0 0 Z " fill="#A5A5A5" transform="translate(176,285)"/>
<path d="M0 0 C0.99 0 1.98 0 3 0 C3 1.65 3 3.3 3 5 C3.66 5 4.32 5 5 5 C5 5.99 5 6.98 5 8 C4.01 8 3.02 8 2 8 C2 6.35 2 4.7 2 3 C1.34 3 0.68 3 0 3 C0 2.01 0 1.02 0 0 Z " fill="#434343" transform="translate(651,270)"/>
<path d="M0 0 C0.99 0 1.98 0 3 0 C3 0.99 3 1.98 3 3 C2.34 3 1.68 3 1 3 C1 4.65 1 6.3 1 8 C0.01 8 -0.98 8 -2 8 C-2 7.01 -2 6.02 -2 5 C-1.34 5 -0.68 5 0 5 C0 3.35 0 1.7 0 0 Z " fill="#333334" transform="translate(146,270)"/>
<path d="M0 0 C0.99 0 1.98 0 3 0 C3 0.99 3 1.98 3 3 C2.34 3 1.68 3 1 3 C1 4.65 1 6.3 1 8 C0.01 8 -0.98 8 -2 8 C-2 7.01 -2 6.02 -2 5 C-1.34 5 -0.68 5 0 5 C0 3.35 0 1.7 0 0 Z " fill="#4B4B4B" transform="translate(151,260)"/>
<path d="M0 0 C0.99 0 1.98 0 3 0 C3 0.99 3 1.98 3 3 C2.34 3 1.68 3 1 3 C1 4.65 1 6.3 1 8 C0.01 8 -0.98 8 -2 8 C-2 7.01 -2 6.02 -2 5 C-1.34 5 -0.68 5 0 5 C0 3.35 0 1.7 0 0 Z " fill="#8C8C8C" transform="translate(161,242)"/>
<path d="M0 0 C0.99 0 1.98 0 3 0 C3 0.99 3 1.98 3 3 C1.35 3 -0.3 3 -2 3 C-2 3.66 -2 4.32 -2 5 C-2.99 5 -3.98 5 -5 5 C-5 4.01 -5 3.02 -5 2 C-3.35 2 -1.7 2 0 2 C0 1.34 0 0.68 0 0 Z " fill="#959595" transform="translate(290,174)"/>
<path d="M0 0 C0.99 0 1.98 0 3 0 C3 0.99 3 1.98 3 3 C1.35 3 -0.3 3 -2 3 C-2 3.66 -2 4.32 -2 5 C-2.99 5 -3.98 5 -5 5 C-5 4.01 -5 3.02 -5 2 C-3.35 2 -1.7 2 0 2 C0 1.34 0 0.68 0 0 Z " fill="#989898" transform="translate(313,164)"/>
<path d="M0 0 C0.99 0 1.98 0 3 0 C3 0.99 3 1.98 3 3 C1.35 3 -0.3 3 -2 3 C-2 3.66 -2 4.32 -2 5 C-2.99 5 -3.98 5 -5 5 C-5 4.01 -5 3.02 -5 2 C-3.35 2 -1.7 2 0 2 C0 1.34 0 0.68 0 0 Z " fill="#4B4B4B" transform="translate(265,149)"/>
<path d="M0 0 C0.99 0 1.98 0 3 0 C3 0.99 3 1.98 3 3 C1.35 3 -0.3 3 -2 3 C-2 3.66 -2 4.32 -2 5 C-2.99 5 -3.98 5 -5 5 C-5 4.01 -5 3.02 -5 2 C-3.35 2 -1.7 2 0 2 C0 1.34 0 0.68 0 0 Z " fill="#393939" transform="translate(275,144)"/>
<path d="M0 0 C0.99 0 1.98 0 3 0 C3 0.99 3 1.98 3 3 C1.35 3 -0.3 3 -2 3 C-2 3.66 -2 4.32 -2 5 C-2.99 5 -3.98 5 -5 5 C-5 4.01 -5 3.02 -5 2 C-3.35 2 -1.7 2 0 2 C0 1.34 0 0.68 0 0 Z " fill="#535454" transform="translate(285,139)"/>
<path d="M0 0 C1.65 0 3.3 0 5 0 C5 0.66 5 1.32 5 2 C7.64 2 10.28 2 13 2 C13 2.33 13 2.66 13 3 C11.39592672 3.02708567 9.7917215 3.04643483 8.1875 3.0625 C6.84751953 3.07990234 6.84751953 3.07990234 5.48046875 3.09765625 C3 3 3 3 0 2 C0 1.34 0 0.68 0 0 Z " fill="#5C5C5D" transform="translate(454,121)"/>
<path d="M0 0 C1.65 0 3.3 0 5 0 C5 0.99 5 1.98 5 3 C1.7 3 -1.6 3 -5 3 C-5 2.67 -5 2.34 -5 2 C-3.35 2 -1.7 2 0 2 C0 1.34 0 0.68 0 0 Z " fill="#7F8080" transform="translate(338,121)"/>
<path d="M0 0 C0.99 0 1.98 0 3 0 C3 0.66 3 1.32 3 2 C6.3 2 9.6 2 13 2 C13 2.33 13 2.66 13 3 C8.71 3 4.42 3 0 3 C0 2.01 0 1.02 0 0 Z " fill="#989898" transform="translate(353,679)"/>
<path d="M0 0 C0.99 0 1.98 0 3 0 C2.67 0.99 2.34 1.98 2 3 C-0.31 3 -2.62 3 -5 3 C-5 3.66 -5 4.32 -5 5 C-5.66 5 -6.32 5 -7 5 C-7 4.01 -7 3.02 -7 2 C-4.69 2 -2.38 2 0 2 C0 1.34 0 0.68 0 0 Z " fill="#CBCCCB" transform="translate(502,664)"/>
<path d="M0 0 C0.99 0 1.98 0 3 0 C3 0.99 3 1.98 3 3 C2.34 3 1.68 3 1 3 C1 6.3 1 9.6 1 13 C0.67 13 0.34 13 0 13 C0 8.71 0 4.42 0 0 Z " fill="#989898" transform="translate(118,353)"/>
<path d="M0 0 C0.33 0.99 0.66 1.98 1 3 C-1.64 3 -4.28 3 -7 3 C-7 3.66 -7 4.32 -7 5 C-7.99 5 -8.98 5 -10 5 C-10 4.01 -10 3.02 -10 2 C-6.7 2 -3.4 2 0 2 C0 1.34 0 0.68 0 0 Z " fill="#434343" transform="translate(315,129)"/>
<path d="M0 0 C0.66 0 1.32 0 2 0 C2 0.66 2 1.32 2 2 C3.98 2 5.96 2 8 2 C8 2.99 8 3.98 8 5 C7.01 5 6.02 5 5 5 C5 4.34 5 3.68 5 3 C3.35 3 1.7 3 0 3 C0 2.01 0 1.02 0 0 Z " fill="#434242" transform="translate(270,651)"/>
<path d="M0 0 C1.62490954 -0.02698189 3.24994633 -0.04638757 4.875 -0.0625 C5.77992188 -0.07410156 6.68484375 -0.08570313 7.6171875 -0.09765625 C10 0 10 0 12 1 C12 1.66 12 2.32 12 3 C10.68 3 9.36 3 8 3 C8 2.34 8 1.68 8 1 C5.36 1 2.72 1 0 1 C0 0.67 0 0.34 0 0 Z " fill="#ADADAC" transform="translate(472,287)"/>
<path d="M0 0 C0.99 0 1.98 0 3 0 C3 1.65 3 3.3 3 5 C3.66 5 4.32 5 5 5 C5 5.99 5 6.98 5 8 C4.01 8 3.02 8 2 8 C2 6.02 2 4.04 2 2 C1.34 2 0.68 2 0 2 C0 1.34 0 0.68 0 0 Z " fill="#5D5D5D" transform="translate(646,260)"/>
<path d="M0 0 C0.99 0 1.98 0 3 0 C3 0.66 3 1.32 3 2 C3.99 2 4.98 2 6 2 C6 2.99 6 3.98 6 5 C5.01 5 4.02 5 3 5 C3 4.34 3 3.68 3 3 C2.01 3 1.02 3 0 3 C0 2.01 0 1.02 0 0 Z " fill="#4E4E4E" transform="translate(565,212)"/>
<path d="M0 0 C0.99 0 1.98 0 3 0 C3 0.99 3 1.98 3 3 C2.34 3 1.68 3 1 3 C1 3.66 1 4.32 1 5 C0.01 5 -0.98 5 -2 5 C-2 4.01 -2 3.02 -2 2 C-1.34 2 -0.68 2 0 2 C0 1.34 0 0.68 0 0 Z " fill="#C0C0C0" transform="translate(411,510)"/>
<path d="M0 0 C0.66 0 1.32 0 2 0 C2 0.99 2 1.98 2 3 C1.34 3 0.68 3 0 3 C0 3.99 0 4.98 0 6 C-0.99 6 -1.98 6 -3 6 C-3 5.01 -3 4.02 -3 3 C-2.34 3 -1.68 3 -1 3 C-0.67 2.01 -0.34 1.02 0 0 Z " fill="#A0A0A0" transform="translate(432,489)"/>
<path d="M0 0 C0.99 0 1.98 0 3 0 C3 0.66 3 1.32 3 2 C3.66 2 4.32 2 5 2 C5 2.99 5 3.98 5 5 C4.01 5 3.02 5 2 5 C2 4.34 2 3.68 2 3 C1.34 3 0.68 3 0 3 C0 2.01 0 1.02 0 0 Z " fill="#B0B0B0" transform="translate(601,199)"/>
</svg>
