<svg id="Livello_1" data-name="Livello 1" xmlns="http://www.w3.org/2000/svg" viewBox="0 0 200 200"><defs><style>.cls-1{fill:#010101;}</style></defs><path class="cls-1" d="M129.16,43.6c-.76.07-1.7.17-2.08.24s-1,.18-1.39.22A37.14,37.14,0,0,0,116.31,47c-2.51,1.23-4.17,2.1-4.35,2.24s-1.21.73-4.1,2.29A20.21,20.21,0,0,1,96,53.59a54.17,54.17,0,0,1-9.89-4c-1.35-.67-3.21-1.5-4.15-1.87L77.8,46.09a33.35,33.35,0,0,0-4.1-1.34,23.48,23.48,0,0,0-6.89-.81c-4.61,0-5.87.21-10.71,1.86a36.15,36.15,0,0,0-9.76,5.32,38.38,38.38,0,0,0-4.07,3.77,26.87,26.87,0,0,0-3.68,4.79C37.85,60.85,37.15,62,37,62.13a41.5,41.5,0,0,0-2.09,4,10.37,10.37,0,0,1-.43,1.07A36.19,36.19,0,0,0,33,71.89a42.57,42.57,0,0,0-1.35,7.56c-.1,1.11-.19,2.18-.19,2.4-.11,6.83,0,8,1.44,15.1a61.93,61.93,0,0,0,2.38,7,72.51,72.51,0,0,0,3.41,6.89c.8,1.31,1.34,2.12,3,4.45.77,1.07,1.54,2.15,1.71,2.4a63.7,63.7,0,0,0,13.37,13.44c.58.43,1.46,1.1,1.94,1.49s1.65,1.23,2.58,1.9,1.9,1.36,2.14,1.55,3.28,2.18,5.2,3.39l1.32.85c.33.23,1.06.7,1.64,1.05s1.43.88,1.89,1.18c1,.66,1.83,1.14,4.12,2.45,1,.55,2,1.13,2.2,1.29s1.87,1.05,3.59,2,3.47,1.88,3.85,2.11,1,.58,1.44.78,1.5.79,2.4,1.29a51.63,51.63,0,0,0,8.11,3.8,4,4,0,0,0,1.64.2,11.35,11.35,0,0,0,3-1c.32-.16,1.22-.58,2-.94s2-1,2.71-1.35l3.52-2,3.28-1.8c4.31-2.29,7-3.79,8.75-4.85,1-.6,2.09-1.23,2.43-1.4s1.36-.8,2.3-1.41c2.69-1.75,4.59-3,4.93-3.13a11.91,11.91,0,0,0,1.27-.9c.55-.4,1.63-1.16,2.42-1.7s1.93-1.37,2.52-1.85l2.33-1.93a106.51,106.51,0,0,0,11.59-12,21.52,21.52,0,0,1,1.74-2.3,25,25,0,0,0,2.37-3.38c.56-.9,1.36-2.11,1.75-2.7a64.71,64.71,0,0,0,4.47-8.44,53.63,53.63,0,0,0,3.78-12.6,51.22,51.22,0,0,0,.36-9.7,36.52,36.52,0,0,0-2.11-9.63c-.77-2.09-1.22-3-4.05-8.32A40.73,40.73,0,0,0,158,56.77c-.18-.23-.6-.76-1-1.19a47.75,47.75,0,0,0-4.72-4.47,64.62,64.62,0,0,0-5.52-3.69,35.68,35.68,0,0,0-4.91-2.11A35,35,0,0,0,129.16,43.6ZM70.34,61.68a46,46,0,0,1,6.36,1.8c.59.25,2.1,1,3.37,1.56s2.33,1.12,2.37,1.12a6.1,6.1,0,0,1,.79.37,10.24,10.24,0,0,0,1,.45c.18,0,1.29.56,2.46,1.1a56.61,56.61,0,0,0,6.23,2.53,20.11,20.11,0,0,0,8.33.6,40.46,40.46,0,0,0,6.35-1.52c.69-.25,1.48-.54,1.76-.63A34.92,34.92,0,0,0,113,67.42c2-1,3.19-1.51,3.27-1.51s1.58-.65,3.66-1.61a26,26,0,0,1,4.47-1.63,28.25,28.25,0,0,1,8.87-1.09,15.75,15.75,0,0,1,8.44,2.53,13.88,13.88,0,0,1,6.13,7.29c1.59,3.68,2.4,9.89,2,15.48a18.89,18.89,0,0,1-1.25,6,44.26,44.26,0,0,1-7.08,14c-1,1.33-3.26,4-4,4.86-1.17,1.28-3.65,3.78-4.75,4.77-.62.56-1.2,1.07-1.27,1.15l-1,.82c-.48.37-1.07.86-1.31,1.07s-.7.59-1,.82-.68.55-.84.7a9.05,9.05,0,0,1-1.07.74,13.79,13.79,0,0,0-1.19.81c-.76.63-7.84,5.18-8,5.18a9.05,9.05,0,0,0-1,.61c-.5.34-1.5.95-2.23,1.34s-1.55.88-1.82,1.07c-.57.39-2.06,1.22-3.91,2.19l-1.82,1c-4.7,2.61-5.41,2.94-6.43,2.93-.74,0-1-.09-2.83-.92A50.74,50.74,0,0,1,89,131.54c-.28-.19-1-.66-1.64-1-1.86-1.13-3.86-2.37-4.72-2.93-3.1-2-3.18-2.06-6.78-4.3a55.9,55.9,0,0,1-6.65-4.92c-6.17-5-8.93-7.72-12.55-12.26a23,23,0,0,1-3-5,38.14,38.14,0,0,1-2.71-6.41,26.59,26.59,0,0,1-1.28-5.73c-.08-.69-.23-1.94-.33-2.77a36.08,36.08,0,0,1,0-7.37L49.62,77A13.19,13.19,0,0,1,50,75.5c.14-.46.32-1,.39-1.28a21.88,21.88,0,0,1,1.92-4.28c.35-.51.82-1.23,1.06-1.57A16.88,16.88,0,0,1,56.73,65a21.73,21.73,0,0,1,6.07-3.09,5.47,5.47,0,0,0,.8-.2A19.59,19.59,0,0,1,70.34,61.68Z"/><path class="cls-1" d="M109.22,79c-.51.09-1.32.29-1.83.44a23.41,23.41,0,0,0-4.37,2.2c-.4.36-1.8,1.41-2.46,1.86-1,.7-2.25.37-4.2-1.11A18.87,18.87,0,0,0,92.57,80,12.68,12.68,0,0,0,87,79.52l-1.6.25a17.15,17.15,0,0,0-6,2.77,15.57,15.57,0,0,0-2.91,3.52,14.35,14.35,0,0,0-1.83,7.18,18.67,18.67,0,0,0,1.27,7.36,18.26,18.26,0,0,0,2.53,4.55,21.55,21.55,0,0,0,4.17,4.73c.82.71,1.77,1.57,2.11,1.89A28.3,28.3,0,0,0,87,113.49c2.94,2,3.85,2.6,4.63,3.2.42.31,1.18.81,1.66,1.12,1.2.73,3,1.76,3,1.76s.76.34,1.63.76c1.49.71,1.6.75,2.07.62a26.21,26.21,0,0,0,6-3.43,19.5,19.5,0,0,1,1.89-1.36l1.64-1.09c.27-.19.93-.6,1.46-.92a19.74,19.74,0,0,0,2.39-1.82,63.18,63.18,0,0,0,5.22-5.19c.21-.29,1-1.31,1.75-2.26,1.62-2,1.7-2.18,2.2-3.62a9.65,9.65,0,0,1,.66-1.49,8.31,8.31,0,0,0,.68-1.59c.22-.67.51-1.47.64-1.79a19.75,19.75,0,0,0-.05-6.55,11.28,11.28,0,0,0-1.15-3.33,15,15,0,0,0-6.62-6.71A14.72,14.72,0,0,0,109.22,79Z"/></svg>