<?xml version="1.0" standalone="no"?>
<!DOCTYPE svg PUBLIC "-//W3C//DTD SVG 20010904//EN"
 "http://www.w3.org/TR/2001/REC-SVG-20010904/DTD/svg10.dtd">
<svg version="1.0" xmlns="http://www.w3.org/2000/svg"
 width="512.000000pt" height="512.000000pt" viewBox="0 0 512.000000 512.000000"
 preserveAspectRatio="xMidYMid meet">

<g transform="translate(0.000000,512.000000) scale(0.100000,-0.100000)"
fill="#000000" stroke="none">
<path d="M2710 4669 c-240 -62 -432 -231 -516 -455 -42 -113 -25 -209 50 -271
84 -69 194 -69 273 0 22 20 50 62 73 112 55 120 128 181 242 204 140 29 288
-48 350 -184 35 -76 33 -191 -5 -267 -30 -62 -83 -115 -149 -150 l-43 -23
-985 -5 c-1108 -6 -1024 1 -1095 -82 -89 -105 -57 -261 68 -322 l53 -27 1000
3 c988 3 1000 4 1064 25 152 50 242 105 343 213 135 143 199 304 200 505 2
291 -155 543 -418 670 -49 24 -122 50 -162 59 -99 22 -249 20 -343 -5z"/>
<path d="M554 2756 c-43 -19 -101 -81 -115 -123 -30 -92 7 -198 88 -253 l37
-25 1730 -5 c1863 -5 1752 -2 1836 -56 70 -44 113 -106 136 -195 28 -108 -6
-221 -91 -303 -65 -63 -138 -89 -235 -84 -134 8 -222 73 -283 208 -54 120
-124 167 -233 158 -106 -9 -187 -98 -187 -207 0 -101 83 -261 193 -371 186
-185 462 -261 715 -196 164 43 336 165 429 305 94 141 132 282 124 460 -10
197 -74 337 -223 486 -103 104 -203 161 -339 195 -78 20 -116 20 -1815 20
-1432 -1 -1741 -3 -1767 -14z"/>
<path d="M780 1907 c-19 -6 -53 -30 -75 -52 -99 -98 -78 -261 43 -332 l47 -28
665 -5 c740 -6 696 -1 786 -75 49 -41 100 -135 109 -206 13 -87 -32 -207 -101
-270 -163 -151 -437 -87 -514 119 -30 79 -64 120 -124 148 -89 42 -166 27
-237 -45 -83 -82 -83 -178 -3 -331 94 -179 259 -314 459 -376 47 -15 91 -19
205 -18 130 0 153 3 225 27 117 39 199 91 295 187 96 96 148 178 187 295 25
73 27 93 27 230 0 138 -2 156 -27 230 -80 231 -254 401 -492 482 l-80 28 -680
2 c-484 1 -690 -2 -715 -10z"/>
</g>
</svg>
