<?xml version="1.0" standalone="no"?>
<!DOCTYPE svg PUBLIC "-//W3C//DTD SVG 20010904//EN"
 "http://www.w3.org/TR/2001/REC-SVG-20010904/DTD/svg10.dtd">
<svg version="1.0" xmlns="http://www.w3.org/2000/svg"
 width="800.000000pt" height="800.000000pt" viewBox="0 0 800.000000 800.000000"
 preserveAspectRatio="xMidYMid meet">

<g transform="translate(0.000000,800.000000) scale(0.100000,-0.100000)"
fill="#000000" stroke="none">
<path d="M4275 6884 c-84 -15 -200 -51 -250 -78 -16 -9 -36 -16 -42 -16 -7 0
-13 -4 -13 -9 0 -5 -9 -13 -21 -16 -55 -18 -212 -149 -291 -243 -48 -58 -107
-159 -148 -255 -34 -81 -40 -104 -40 -167 0 -114 55 -206 155 -258 69 -37 188
-38 255 -4 64 34 108 79 136 142 51 111 64 136 87 167 25 34 128 123 143 123
5 0 22 7 38 15 42 22 150 37 220 29 136 -14 277 -117 342 -251 26 -54 28 -67
29 -178 0 -108 -3 -125 -25 -170 -61 -124 -132 -189 -265 -244 -36 -14 -167
-16 -1365 -21 l-1325 -5 -45 -23 c-60 -32 -112 -83 -140 -140 -19 -38 -24 -62
-23 -128 0 -70 4 -87 29 -130 36 -61 76 -99 134 -127 l45 -22 1355 0 c1099 0
1364 3 1400 13 259 77 361 132 500 267 93 91 93 91 188 240 6 11 17 31 22 45
6 14 16 36 24 50 17 33 51 150 65 228 26 139 9 349 -40 495 -67 201 -216 397
-384 506 -22 14 -42 28 -45 31 -3 3 -34 20 -70 39 -186 96 -428 132 -635 95z"/>
<path d="M1310 4278 c-94 -26 -181 -122 -202 -222 -30 -142 65 -297 207 -335
28 -8 717 -11 2320 -11 1478 0 2302 -4 2342 -10 79 -13 165 -57 225 -116 212
-206 155 -571 -109 -696 -130 -62 -268 -61 -392 2 -69 36 -153 116 -180 175
-10 22 -33 70 -50 107 -91 194 -320 238 -468 91 -43 -44 -56 -65 -74 -123 -21
-69 -21 -73 -5 -137 21 -83 58 -171 104 -248 20 -33 38 -62 41 -65 4 -3 18
-21 32 -40 67 -90 195 -200 300 -259 106 -59 208 -94 359 -123 63 -11 299 -4
345 11 17 5 68 22 115 36 72 23 207 87 244 116 6 5 38 30 71 55 132 104 253
269 310 424 71 192 86 419 40 601 -14 55 -29 108 -34 117 -53 115 -104 206
-142 256 -64 84 -183 195 -259 241 -36 21 -66 43 -68 47 -2 4 -9 8 -15 8 -7 0
-25 7 -42 16 -55 29 -169 63 -265 79 -83 13 -375 15 -2405 14 -1482 0 -2323
-4 -2345 -11z"/>
<path d="M1610 3123 c-91 -32 -158 -88 -194 -163 -30 -63 -30 -177 1 -240 25
-54 71 -102 133 -138 l45 -27 895 -5 c968 -6 907 -2 1016 -58 34 -18 97 -73
129 -114 101 -127 113 -338 29 -484 -33 -56 -120 -136 -181 -168 -139 -70
-331 -52 -453 42 -81 64 -110 105 -168 243 -26 62 -75 115 -136 147 -43 22
-64 27 -131 26 -65 0 -88 -4 -125 -24 -83 -44 -130 -105 -155 -198 -14 -57
-14 -69 -1 -123 62 -239 270 -504 476 -606 14 -7 32 -17 40 -21 108 -63 312
-112 460 -112 129 0 333 45 425 94 17 9 35 16 42 16 6 0 13 3 15 8 4 10 85 62
97 62 5 0 52 41 105 91 100 95 183 207 231 314 15 33 31 68 36 77 5 9 20 62
34 117 35 139 35 323 1 461 -41 162 -66 219 -148 340 -68 101 -120 158 -202
222 -34 27 -66 52 -72 57 -33 27 -170 92 -244 115 -47 15 -98 33 -115 39 -22
9 -277 12 -950 14 -506 1 -927 -1 -935 -4z"/>
</g>
</svg>
